<?xml version="1.0" encoding="utf-8"?>
<!-- Generator: Adobe Illustrator 18.0.0, SVG Export Plug-In . SVG Version: 6.00 Build 0)  -->
<!DOCTYPE svg PUBLIC "-//W3C//DTD SVG 1.1 Tiny//EN" "http://www.w3.org/Graphics/SVG/1.1/DTD/svg11-tiny.dtd">
<svg version="1.1" baseProfile="tiny" id="Layer_1" xmlns="http://www.w3.org/2000/svg" xmlns:xlink="http://www.w3.org/1999/xlink"
	 x="0px" y="0px" viewBox="0 0 120 40" xml:space="preserve">
<circle fill="#A30000" cx="10" cy="10" r="3.5"/>
<circle fill="none" stroke="#000000" stroke-width="2" stroke-miterlimit="10" cx="10" cy="10" r="8"/>
<path d="M36,15c0,0.6-0.5,1-1,1H25c-0.5,0-1-0.4-1-1V5c0-0.6,0.5-1,1-1h10c0.5,0,1,0.4,1,1V15z"/>
<polyline fill="none" stroke="#000000" stroke-width="2" stroke-linecap="round" stroke-linejoin="round" stroke-miterlimit="10" points="
	78,10.8 78,16 62,16 62,10.8 "/>
<rect x="68.5" y="6.5" stroke="#000000" stroke-width="0.9186" stroke-linecap="round" stroke-linejoin="round" stroke-miterlimit="10" width="3" height="6"/>
<polygon stroke="#000000" stroke-linecap="round" stroke-linejoin="round" stroke-miterlimit="10" points="66,6.5 70,2.5 74,6.5 "/>
<polygon stroke="#000000" stroke-linecap="round" stroke-linejoin="round" stroke-miterlimit="10" points="94.5,2 97.5,5 94.5,8 "/>
<polygon stroke="#000000" stroke-linecap="round" stroke-linejoin="round" stroke-miterlimit="10" points="105.5,4 114.5,10 
	105.5,16 "/>
<polygon stroke="#000000" stroke-linecap="round" stroke-linejoin="round" stroke-miterlimit="10" points="85.5,17 82.5,14 85.5,11 
	"/>
<polyline fill="none" stroke="#000000" stroke-width="2" stroke-linecap="round" stroke-linejoin="round" stroke-miterlimit="10" points="
	58,10.8 58,16 42,16 42,10.8 "/>
<rect x="48.5" y="2.5" stroke="#000000" stroke-width="0.9186" stroke-linecap="round" stroke-linejoin="round" stroke-miterlimit="10" width="3" height="6"/>
<polygon stroke="#000000" stroke-linecap="round" stroke-linejoin="round" stroke-miterlimit="10" points="46,8.5 50,12.5 54,8.5 
	"/>
<path fill="none" stroke="#000000" stroke-width="2" stroke-linecap="round" stroke-linejoin="round" stroke-miterlimit="10" d="
	M98.5,7.4C98.8,8,99,8.7,99,9.5v0c0,2.5-2,4.5-4.5,4.5h-9"/>
<path fill="none" stroke="#000000" stroke-width="2" stroke-linecap="round" stroke-linejoin="round" stroke-miterlimit="10" d="
	M81.5,11.6C81.2,11,81,10.3,81,9.5v0C81,7,83,5,85.5,5h9"/>
<g>
	<g>
		
			<rect x="65.5" y="26.5" stroke="#000000" stroke-linecap="round" stroke-linejoin="round" stroke-miterlimit="10" width="3.5" height="7"/>
		<polygon stroke="#000000" stroke-linecap="round" stroke-linejoin="round" stroke-miterlimit="10" points="74.5,38 69,33.5 
			69,26.5 74.5,22 		"/>
	</g>
	<path fill="none" stroke="#000000" stroke-linecap="round" stroke-linejoin="round" stroke-miterlimit="10" d="M76.5,28.1
		c0.8,0.5,1.3,1.4,1.3,2.3c0,1-0.5,1.8-1.2,2.3"/>
	<path fill="none" stroke="#000000" stroke-linecap="round" stroke-linejoin="round" stroke-miterlimit="10" d="M77.5,26.4
		c1.3,0.9,2.2,2.3,2.2,4c0,1.7-0.8,3.1-2.1,4"/>
	<path fill="none" stroke="#000000" stroke-linecap="round" stroke-linejoin="round" stroke-miterlimit="10" d="M78.5,24.9
		c1.8,1.2,3,3.2,3,5.5c0,2.3-1.2,4.3-2.9,5.5"/>
</g>
<line fill="none" stroke="#000000" stroke-width="2" stroke-linecap="round" stroke-miterlimit="10" x1="7" y1="39" x2="13" y2="39"/>
<line fill="none" stroke="#000000" stroke-width="2" stroke-miterlimit="10" x1="10" y1="38" x2="10" y2="35"/>
<path d="M10,33L10,33c-1.1,0-2-0.9-2-2v-7c0-1.1,0.9-2,2-2h0c1.1,0,2,0.9,2,2v7C12,32.1,11.1,33,10,33z"/>
<path fill="none" stroke="#000000" stroke-width="2" stroke-linecap="round" stroke-miterlimit="10" d="M14,28.2V31c0,2.2-1.8,4-4,4
	h0c-2.2,0-4-1.8-4-4v-2.8"/>
<path fill="none" stroke="#000000" stroke-width="2" stroke-miterlimit="10" d="M10,24"/>
<line fill="none" stroke="#000000" stroke-width="2" stroke-linecap="round" stroke-miterlimit="10" x1="57" y1="26.5" x2="47" y2="36.5"/>
<line fill="none" stroke="#000000" stroke-width="2" stroke-linecap="round" stroke-miterlimit="10" x1="35" y1="26.5" x2="25" y2="36.5"/>
<g>
	<polygon stroke="#000000" stroke-linecap="round" stroke-linejoin="round" stroke-miterlimit="10" points="51.6,35.7 54.5,38 
		54.5,32.8 	"/>
	<polygon stroke="#000000" stroke-linecap="round" stroke-linejoin="round" stroke-miterlimit="10" points="54.5,25.2 54.5,22 
		49,26.5 45.5,26.5 45.5,33.5 46.2,33.5 	"/>
</g>
<g>
	<path d="M27.1,31.6c0-0.2-0.1-0.4-0.1-0.6v-2.8c0-0.6-0.4-1-1-1s-1,0.4-1,1V31c0,0.8,0.2,1.5,0.5,2.2L27.1,31.6z"/>
	<path d="M35,31v-1.7l-2,2c-0.2,1.4-1.2,2.4-2.6,2.6l-1.8,1.8c0.1,0,0.3,0.1,0.4,0.1V38h-2c-0.6,0-1,0.4-1,1s0.4,1,1,1h6
		c0.6,0,1-0.4,1-1s-0.4-1-1-1h-2v-2.1C33.3,35.4,35,33.4,35,31z"/>
</g>
<path d="M32,26.7V24c0-1.1-0.9-2-2-2s-2,0.9-2,2v6.7L32,26.7z"/>
</svg>
