<?xml version="1.0" encoding="utf-8"?>
<!DOCTYPE svg PUBLIC "-//W3C//DTD SVG 1.1//EN" "http://www.w3.org/Graphics/SVG/1.1/DTD/svg11.dtd">
<svg version="1.1" xmlns="http://www.w3.org/2000/svg" xmlns:xlink="http://www.w3.org/1999/xlink" x="0px" y="0px" width="466px" height="614px" viewBox="0 0 466 614">
  <path fill="#5FCBEA" fill-opacity="0.2" d="M447.48,511.991c-11.567,20.811-27.622,38.648-48.174,53.535c-20.543,14.879-45.048,26.383-73.514,34.52
	  c-28.456,8.119-59.589,12.189-93.373,12.189c-34.396,0-65.828-4.129-94.298-12.406c-28.461-8.26-52.966-19.902-73.513-34.918
	  c-20.548-15.035-36.446-32.932-47.714-53.754C5.631,490.34,0,467.276,0,441.922c0-16.814,2.737-33.014,8.217-48.586
	  c5.479-15.553,13.697-29.965,24.656-43.188c10.959-13.238,24.509-25.021,40.645-35.36c16.131-10.329,34.856-18.807,56.159-25.419
	  c-34.396-14.87-61.335-33.836-80.824-56.848c-19.476-23.008-29.221-48.563-29.221-76.683c0-22.33,5.177-42.993,15.528-62.018
	  c10.352-18.999,24.884-35.473,43.605-49.388c18.721-13.906,41.02-24.813,66.891-32.665C171.536,3.907,199.997,0,231.044,0
	  c30.444,0,58.526,3.907,84.245,11.768c25.733,7.852,47.88,18.816,66.439,32.864c18.569,14.053,33.102,30.729,43.61,50.031
	  c10.499,19.281,15.751,40.227,15.751,62.841c0,28.378-9.133,54.216-27.398,77.51c-18.261,23.288-43.985,42.372-77.167,57.238
	  c21.615,6.618,40.412,15.092,56.387,25.444c15.988,10.315,29.301,22.043,39.957,35.131c10.66,13.086,18.654,27.277,23.973,42.57
	  c5.333,15.297,7.994,31.232,7.994,47.762C464.835,468.239,459.052,491.19,447.48,511.991z M320.996,396.866
	  c-4.862-10.768-11.562-20.066-20.092-27.924c-8.517-7.852-18.717-13.912-30.592-18.178c-11.865-4.271-24.656-6.414-38.353-6.414
	  c-14.612,0-27.773,2.344-39.497,7.033c-11.718,4.695-21.843,10.943-30.368,18.805c-8.516,7.857-15.068,17.156-19.632,27.896
	  c-4.569,10.76-6.846,22.07-6.846,33.92c0,13.227,2.434,25.215,7.306,35.955c4.868,10.748,11.567,19.84,20.092,27.279
	  c8.521,7.455,18.645,13.229,30.364,17.379c11.723,4.129,24.58,6.191,38.581,6.191c14.613,0,27.783-2.002,39.497-5.988
	  c11.724-3.994,21.848-9.723,30.368-17.162c8.521-7.436,15.068-16.531,19.633-27.279c4.563-10.762,6.846-22.889,6.846-36.375
	  C328.303,419.313,325.874,407.606,320.996,396.866z M302.508,139.922c-3.805-9.221-9.133-17.222-15.979-23.973
	  c-6.856-6.756-15.073-12.124-24.661-16.13c-9.594-3.99-20.164-5.997-31.735-5.997c-10.959,0-21.236,1.945-30.824,5.791
	  c-9.583,3.876-17.953,9.164-25.111,15.915c-7.15,6.756-12.706,14.754-16.663,23.975c-3.957,9.245-5.939,19.241-5.939,29.987
	  c0,10.466,2.054,20.242,6.167,29.343c4.104,9.104,9.745,17.099,16.89,23.971c7.155,6.896,15.452,12.271,24.889,16.138
	  c9.437,3.843,19.632,5.792,30.592,5.792c10.66,0,20.775-1.949,30.364-5.792c9.588-3.867,17.886-9.162,24.889-15.917
	  c7.002-6.753,12.554-14.75,16.667-23.992c4.104-9.223,6.158-19.077,6.158-29.543C308.211,159.006,306.317,149.159,302.508,139.922z"
	  />
</svg>
