<?xml version="1.0" encoding="utf-8"?>
<!-- Generator: Adobe Illustrator 19.2.1, SVG Export Plug-In . SVG Version: 6.00 Build 0)  -->
<svg version="1.1" id="Layer_1" xmlns="http://www.w3.org/2000/svg" xmlns:xlink="http://www.w3.org/1999/xlink" x="0px" y="0px"
	 viewBox="0 0 164.3 157" enable-background="new 0 0 164.3 157" xml:space="preserve">
<g>
	<path fill="#B3B3B3" d="M149.8,122H90.1l-0.1-9h31.6c6.6,0,12.4-5.6,12.4-12.2V23.3c0-6.6-5.8-11.3-12.4-11.3H44.1
		C37.5,12,32,16.7,32,23.3v77.5c0,6.6,5.5,12.2,12.1,12.2H76v9H16c-3.3,0-6,2.7-6,6s2.7,6,6,6h133.8c3.3,0,6-2.7,6-6
		S153.1,122,149.8,122z"/>
	<g>
		<g>
			<circle fill="#999999" cx="82.9" cy="71" r="26"/>
			<circle fill="#CCCCCC" cx="82.9" cy="71" r="12.6"/>
		</g>
		<circle fill="#999999" cx="82.9" cy="32" r="5"/>
	</g>
</g>
</svg>
