<svg xmlns="http://www.w3.org/2000/svg" width="240.6" height="241.4"><path fill="#323a75" d="M95.4 21.6L18.9 32.4A22.3 22.3 0 0 0 0 51.8a4.4 4.4 0 0 0 5 4.9l4.2-.6a4 4 0 0 0 2.4-1.2l4.7-4.4a4.3 4.3 0 0 1 5-.7l5.7 2.9c.8.4 1.7.6 2.6.4a4 4 0 0 0 2.4-1.2l4.7-4.4a4.3 4.3 0 0 1 5-.7l5.7 2.9c.8.4 1.7.6 2.6.4a4 4 0 0 0 2.4-1.2l4.7-4.4a4.3 4.3 0 0 1 5-.7l5.7 2.9c.8.4 1.7.6 2.6.4a4 4 0 0 0 2.4-1.2l4.7-4.4a4.3 4.3 0 0 1 5-.7l5.7 2.9c.8.4 1.7.6 2.6.4a4 4 0 0 0 2.4-1.2L98 39a4.3 4.3 0 0 1 5-.7l5.7 2.9c.8.4 1.7.6 2.6.4l4.2-.6a4.3 4.3 0 0 0 3.4-6.1 22 22 0 0 0-23.5-13.3zm49.7-.6l76.5 10.8a22.2 22.2 0 0 1 18.9 19.4 4.4 4.4 0 0 1-5 4.9l-4.2-.6a4 4 0 0 1-2.4-1.2l-4.7-4.4a4.3 4.3 0 0 0-5-.7l-5.7 2.9c-.8.4-1.7.6-2.6.4a4 4 0 0 1-2.4-1.2l-4.7-4.4a4.3 4.3 0 0 0-5-.7l-5.7 2.9c-.8.4-1.7.6-2.6.4a4 4 0 0 1-2.4-1.2l-4.7-4.4a4.3 4.3 0 0 0-5-.7l-5.7 2.9c-.8.4-1.7.6-2.6.4a4 4 0 0 1-2.4-1.2l-4.7-4.4a4.3 4.3 0 0 0-5-.7l-5.7 2.9c-.8.4-1.7.6-2.6.4a4 4 0 0 1-2.4-1.2l-4.7-4.4a4.3 4.3 0 0 0-5-.7l-5.7 2.9c-.8.4-1.7.6-2.6.4l-4.2-.6a4.3 4.3 0 0 1-3.4-6.1A22.5 22.5 0 0 1 145.1 21z"/><path fill="#323a75" d="M143.6 36.3c1-.4 1.9-1.1 2.4-2l1.3-2a5.3 5.3 0 0 1 5.6-2.2l2.3.6c1 .3 2.1.2 3.1-.2s1.9-1.1 2.4-2l1.3-2a5.3 5.3 0 0 1 5.6-2.2l2.3.6c1 .3 2.1.2 3.1-.2s1.9-1.1 2.4-2l1.3-2a5.3 5.3 0 0 1 5.6-2.2l2.3.6c1 .3 2.1.2 3.1-.2s1.9-1.1 2.4-2l1.3-2a5.3 5.3 0 0 1 5.6-2.2l2.3.6c1 .3 2.1.2 3.1-.2l.6-.2a5.2 5.2 0 0 0 1.6-8.7A17 17 0 0 0 187 .9l-55 21.8A17 17 0 0 0 121.3 37a5.2 5.2 0 0 0 7.1 5.3l.6-.2c1-.4 1.9-1.1 2.4-2l1.3-2a5.3 5.3 0 0 1 5.6-2.2l2.3.6c.9.3 2 .2 3-.2zm-46.7 0c-1-.4-1.9-1.1-2.4-2l-1.3-2a5.3 5.3 0 0 0-5.6-2.2l-2.3.6c-1 .3-2.1.2-3.1-.2s-1.9-1.1-2.4-2l-1.3-2a5.3 5.3 0 0 0-5.6-2.2l-2.3.7c-1 .3-2.1.2-3.1-.2s-1.9-1.1-2.4-2l-1.3-2a5.3 5.3 0 0 0-5.6-2.2l-2.3.6c-1 .3-2.1.2-3.1-.2s-1.9-1.1-2.4-2l-1.3-2a5.3 5.3 0 0 0-5.6-2.2l-2.3.6c-1 .3-2.1.2-3.1-.2l-.6-.2a5.2 5.2 0 0 1-1.6-8.7A17 17 0 0 1 53.5 1l55.1 21.6a17 17 0 0 1 10.7 14.3 5.2 5.2 0 0 1-7.1 5.3l-.6-.2c-1-.4-1.9-1.1-2.4-2l-1.3-2a5.3 5.3 0 0 0-5.6-2.2l-2.3.6c-1 .4-2.1.3-3.1-.1z"/><g fill="#323a75"><path d="M119.7 46.5a7.7 7.7 0 0 0-6.3 3.4c-5.4 8.4-18.3 32.3-19.9 73.7-1.7 43.9 16.3 91.3 22.4 106a7.5 7.5 0 0 0 6.9 4.6H141c4.2 0 6.8-4.4 4.8-8.1-10-18.5-33.2-64.6-34-96.4-.8-33.1 8.4-59 14.7-72.6a7.5 7.5 0 0 0-6.8-10.6z"/><path d="M141 234.6h-18.2c-3.2 0-6-1.9-7.2-4.8-5.7-13.7-24.1-61.9-22.4-106.1 1.6-41.5 14.5-65.5 20-73.9a7.9 7.9 0 0 1 13.2 0 8 8 0 0 1 .5 7.5 167 167 0 0 0-14.7 72.5c.8 31.7 24 77.9 34 96.3 1 1.8.9 4-.1 5.8a6.2 6.2 0 0 1-5.1 2.7zM119.7 46.9a7.2 7.2 0 0 0-6 3.2c-5.4 8.3-18.3 32.2-19.8 73.5-1.7 44.1 16.7 92.2 22.3 105.8a7 7 0 0 0 6.6 4.4H141a5.2 5.2 0 0 0 4.5-7.6c-10-18.4-33.3-64.7-34.1-96.6-.8-33.7 8.9-60.1 14.7-72.8 1-2.2.8-4.7-.5-6.8a7 7 0 0 0-5.9-3.1z"/></g><ellipse cx="132.6" cy="229.1" fill="#eca06f" rx="65.7" ry="12.2"/></svg>