<?xml version="1.0" standalone="no"?>
<!DOCTYPE svg PUBLIC "-//W3C//DTD SVG 1.1//EN" "http://www.w3.org/Graphics/SVG/1.1/DTD/svg11.dtd" >
<svg xmlns="http://www.w3.org/2000/svg" width="100%" height="100%">
<metadata>
Created by FontXChange 20110222 at Sat Aug 15 11:45:29 2015
 By Robby Ingebretsen
Copyright (c) 2015 by Wei Huang. All rights reserved.
</metadata>
<defs>
<font id="Work-Sans-Medium" horiz-adv-x="604" >
  <font-face 
    font-family="Work"
    font-weight="500"
    font-stretch="normal"
    units-per-em="1000"
    panose-1="0 0 6 0 0 0 0 0 0 0"
    ascent="800"
    descent="-200"
    x-height="500"
    cap-height="660"
    bbox="-332 -338 1240 927"
    underline-thickness="50"
    underline-position="-50"
    unicode-range="U+0020-FB02"
  />
<missing-glyph horiz-adv-x="500" 
d="M50 660h400v-660h-400v660zM370 80v500h-240v-500h240z" />
    <glyph glyph-name="fi" unicode="fi" horiz-adv-x="673" 
d="M225 500h162v-84h-159v-416h-107v416h-94v84h94v72q0 76 46 118t129 42q30 0 55 -6.5t39 -17.5l-20 -78q-23 15 -57 15q-88 0 -88 -81v-64zM484 601.5q-19 17.5 -19 49.5t19 49t53 17t52.5 -17t18.5 -49t-18.5 -49.5t-52.5 -17.5t-53 17.5zM590 0h-107v500h107v-500z" />
    <glyph glyph-name="fl" unicode="fl" horiz-adv-x="712" 
d="M225 500h162v-84h-159v-416h-107v416h-94v84h94v72q0 76 46 118t129 42q30 0 55 -6.5t39 -17.5l-20 -78q-23 15 -57 15q-88 0 -88 -81v-64zM587 146q0 -37 11 -51.5t41 -14.5q19 0 32.5 2.5t33.5 10.5l-12 -86q-34 -17 -83 -17q-67 0 -98.5 34t-31.5 107v594h107v-579z
" />
    <glyph glyph-name="f_t.liga" unicode="ft" horiz-adv-x="771" 
d="M754 33q-24 -20 -58.5 -31.5t-74.5 -11.5q-69 0 -110.5 34.5t-42.5 107.5v284h-240v-416h-107v416h-94v84h94v72q0 76 45.5 118t126.5 42q29 0 53 -6.5t38 -17.5l-18 -77q-22 14 -55 14q-86 0 -86 -81v-64h243v117l107 30v-147h175v-84h-175v-266q0 -36 19.5 -53.5
t53.5 -17.5q46 0 81 32z" />
    <glyph glyph-name="g_j.liga" unicode="gj" horiz-adv-x="838" 
d="M753.5 699q19.5 -18 19.5 -48t-19.5 -48.5t-52.5 -18.5q-32 0 -51.5 18.5t-19.5 48.5t19.5 48t51.5 18q33 0 52.5 -18zM467 509.5q-28 -14.5 -35 -43.5q59 -47 59 -125q0 -79 -57.5 -124t-159.5 -45q-44 0 -80 9q-57 -11 -57 -52q0 -51 88 -51h133q79 0 122.5 -34
t43.5 -94q0 -77 -70 -121t-183 -44q-119 0 -180 35t-61 93q0 36 21 62.5t60 39.5q-61 35 -61 93q0 35 21.5 61t57.5 38q-36 22 -55 56t-19 78q0 78 59 123.5t160 45.5q57 0 105 -16q9 51 47.5 81.5t95.5 29.5l18 -83q-45 2 -73 -12.5zM648 500h107v-546q0 -91 -42 -130
t-107 -39q-39 0 -72 13l18 90q19 -11 48 -11q26 0 37 19t11 66v538zM355.5 272.5q29.5 24.5 29.5 68.5t-29.5 68.5t-82.5 24.5q-52 0 -82 -24.5t-30 -68.5t30 -68.5t82 -24.5q53 0 82.5 24.5zM216 -11q-47 0 -71.5 -14.5t-24.5 -41.5q0 -33 39.5 -50.5t119.5 -17.5
q74 0 114 21t40 52q0 25 -21 38t-71 13h-125z" />
    <glyph glyph-name="j_j.liga" unicode="jj" horiz-adv-x="546" 
d="M188.5 699q19.5 -18 19.5 -48t-19.5 -48.5t-51.5 -18.5q-33 0 -52.5 18.5t-19.5 48.5t19.5 48t52.5 18q32 0 51.5 -18zM462.5 699q19.5 -18 19.5 -48t-19.5 -48.5t-52.5 -18.5t-52.5 18.5t-19.5 48.5t19.5 48t52.5 18t52.5 -18zM190 -44q0 -89 -46.5 -130t-117.5 -41
q-65 0 -110 33l19 86q34 -28 77 -28q34 0 52.5 21t18.5 69v534h107v-544zM463 -46q0 -90 -48.5 -129.5t-116.5 -39.5q-56 0 -98 30l19 89q31 -27 73 -27q64 0 64 85v538h107v-546z" />
    <glyph glyph-name="t_t.liga" unicode="tt" horiz-adv-x="786" 
d="M769 33q-24 -20 -58.5 -31.5t-74.5 -11.5q-69 0 -110 34.5t-42 107.5v284h-256v-266q0 -36 18.5 -53.5t51.5 -17.5q46 0 79 33l26 -79q-23 -20 -57.5 -31.5t-73.5 -11.5q-68 0 -109 34.5t-42 107.5v284h-95v84h95v117l107 30v-147h256v117l107 30v-147h174v-84h-174v-266
q0 -36 19 -53.5t53 -17.5q25 0 44.5 8t36.5 24z" />
    <glyph glyph-name=".notdef" horiz-adv-x="500" 
d="M50 660h400v-660h-400v660zM370 80v500h-240v-500h240z" />
    <glyph glyph-name="space" unicode=" " horiz-adv-x="325" 
 />
    <glyph glyph-name="A" unicode="A" horiz-adv-x="665" 
d="M471 173h-278l-63 -173h-110l249 660h128l249 -660h-113zM439 260l-76 212l-30 95h-3l-28 -93l-78 -214h215z" />
    <glyph glyph-name="Aacute" unicode="&#xc1;" horiz-adv-x="665" 
d="M364 737h-82l56 151h114zM471 173h-278l-63 -173h-110l249 660h128l249 -660h-113zM439 260l-76 212l-30 95h-3l-28 -93l-78 -214h215z" />
    <glyph glyph-name="Abreve" unicode="&#x102;" horiz-adv-x="665" 
d="M471 173h-278l-63 -173h-110l249 660h128l249 -660h-113zM439 260l-76 212l-30 95h-3l-28 -93l-78 -214h215zM445 772q-42 -42 -112 -42t-112 42t-42 111h79q0 -34 21 -58t54 -24t54 24t21 58h79q0 -69 -42 -111z" />
    <glyph glyph-name="Acircumflex" unicode="&#xc2;" horiz-adv-x="665" 
d="M253 731h-89l113 167h112l113 -167h-89l-80 107zM471 173h-278l-63 -173h-110l249 660h128l249 -660h-113zM439 260l-76 212l-30 95h-3l-28 -93l-78 -214h215z" />
    <glyph glyph-name="Adieresis" unicode="&#xc4;" horiz-adv-x="665" 
d="M471 173h-278l-63 -173h-110l249 660h128l249 -660h-113zM439 260l-76 212l-30 95h-3l-28 -93l-78 -214h215zM279 843q18 -17 18 -46t-18 -46t-48 -17q-29 0 -47 17.5t-18 45.5q0 29 18 46t47 17q30 0 48 -17zM481 843q18 -17 18 -46t-18 -46t-48 -17t-47.5 17t-17.5 46
t17.5 46t47.5 17t48 -17z" />
    <glyph glyph-name="Agrave" unicode="&#xc0;" horiz-adv-x="665" 
d="M290 737l-88 151h114l56 -151h-82zM471 173h-278l-63 -173h-110l249 660h128l249 -660h-113zM439 260l-76 212l-30 95h-3l-28 -93l-78 -214h215z" />
    <glyph glyph-name="Amacron" unicode="&#x100;" horiz-adv-x="665" 
d="M471 173h-278l-63 -173h-110l249 660h128l249 -660h-113zM439 260l-76 212l-30 95h-3l-28 -93l-78 -214h215zM511 748h-356v78h356v-78z" />
    <glyph glyph-name="Aogonek" unicode="&#x104;" horiz-adv-x="665" 
d="M656 -195q-31 -20 -89 -20q-57 0 -91 28t-34 79q0 78 88 118l-59 163h-278l-63 -173h-110l249 660h128l249 -660h-1q-69 -20 -95.5 -43.5t-26.5 -53.5q0 -23 16.5 -36t45.5 -13q35 0 53 12zM439 260l-76 212l-30 95h-3l-28 -93l-78 -214h215z" />
    <glyph glyph-name="Aring" unicode="&#xc5;" horiz-adv-x="665" 
d="M471 173h-278l-63 -173h-110l239 630q-28 15 -43.5 41.5t-15.5 61.5q0 54 37 88t97 34t96 -34t36 -88q0 -35 -15.5 -61.5t-43.5 -41.5l239 -630h-113zM284 779q-19 -18 -19 -47t19 -47t49 -18q29 0 48 18t19 47q0 28 -19 46.5t-48 18.5q-30 0 -49 -18zM439 260l-76 212
l-30 95h-3l-28 -93l-78 -214h215z" />
    <glyph glyph-name="Atilde" unicode="&#xc3;" horiz-adv-x="665" 
d="M471 173h-278l-63 -173h-110l249 660h128l249 -660h-113zM439 260l-76 212l-30 95h-3l-28 -93l-78 -214h215zM400 736q-29 0 -48.5 10.5t-40.5 29.5q-17 14 -26 19.5t-21 5.5q-19 0 -29.5 -16.5t-15.5 -49.5h-73q9 142 119 142q28 0 46.5 -10t41.5 -30q17 -14 26 -19.5
t20 -5.5q20 0 30.5 16t15.5 49h73q-9 -141 -118 -141z" />
    <glyph glyph-name="AE" unicode="&#xc6;" horiz-adv-x="945" 
d="M899 90v-90h-457v208h-219l-108 -208h-112l355 660h527v-90h-339v-192h258v-89h-258v-199h353zM442 294v277h-31l-143 -277h174z" />
    <glyph glyph-name="B" unicode="B" horiz-adv-x="662" 
d="M98 660h260q116 0 172.5 -47t56.5 -134q0 -54 -31 -94t-87 -50v-1q62 -10 98.5 -52t36.5 -99q0 -86 -63 -134.5t-179 -48.5h-264v660zM350 376q126 0 126 97t-126 97h-147v-194h147zM367 89q62 0 94 25.5t32 73.5t-32 73.5t-94 25.5h-164v-198h164z" />
    <glyph glyph-name="C" unicode="C" horiz-adv-x="684" 
d="M542.5 38q-72.5 -48 -170.5 -48q-95 0 -165 41t-108 118t-38 181t38 181t108 118t164 41q99 0 166.5 -41t97.5 -121l-101 -45q-20 59 -58 86.5t-99 27.5q-93 0 -148.5 -65.5t-55.5 -181.5q0 -117 53 -182t147 -65q64 0 107.5 32t62.5 94l102 -34q-30 -89 -102.5 -137z
" />
    <glyph glyph-name="Cacute" unicode="&#x106;" horiz-adv-x="684" 
d="M489 888l-88 -151h-82l56 151h114zM542.5 38q-72.5 -48 -170.5 -48q-95 0 -165 41t-108 118t-38 181t38 181t108 118t164 41q99 0 166.5 -41t97.5 -121l-101 -45q-20 59 -58 86.5t-99 27.5q-93 0 -148.5 -65.5t-55.5 -181.5q0 -117 53 -182t147 -65q64 0 107.5 32
t62.5 94l102 -34q-30 -89 -102.5 -137z" />
    <glyph glyph-name="Ccaron" unicode="&#x10c;" horiz-adv-x="684" 
d="M424 733h-112l-113 167h89l80 -107l80 107h89zM542.5 38q-72.5 -48 -170.5 -48q-95 0 -165 41t-108 118t-38 181t38 181t108 118t164 41q99 0 166.5 -41t97.5 -121l-101 -45q-20 59 -58 86.5t-99 27.5q-93 0 -148.5 -65.5t-55.5 -181.5q0 -117 53 -182t147 -65
q64 0 107.5 32t62.5 94l102 -34q-30 -89 -102.5 -137z" />
    <glyph glyph-name="Ccedilla" unicode="&#xc7;" horiz-adv-x="684" 
d="M564.5 54q-55.5 -46 -132.5 -59q28 -20 42.5 -46t14.5 -54q0 -48 -34 -79t-90 -31q-39 0 -66.5 9t-48.5 28l33 62q13 -13 31 -21.5t39 -8.5q24 0 40 15.5t16 40.5q0 26 -16 44.5t-58 37.5q-84 7 -146 50.5t-95 117t-33 170.5q0 104 38 181t108 118t164 41q99 0 166.5 -41
t97.5 -121l-101 -45q-20 59 -58 86.5t-99 27.5q-93 0 -148.5 -65.5t-55.5 -181.5q0 -117 53 -182t147 -65q64 0 107.5 32t62.5 94l102 -34q-25 -75 -80.5 -121z" />
    <glyph glyph-name="D" unicode="D" horiz-adv-x="720" 
d="M573 574q86 -86 86 -244t-86 -244t-242 -86h-233v660h233q156 0 242 -86zM491 153.5q56 62.5 56 176.5t-56 176.5t-160 62.5h-126v-478h126q104 0 160 62.5z" />
    <glyph glyph-name="Eth" unicode="&#xd0;" horiz-adv-x="738" 
d="M591 574q86 -86 86 -244t-86 -244t-242 -86h-233v294h-94v76h94v290h233q156 0 242 -86zM510 153.5q56 62.5 56 176.5t-56 176.5t-161 62.5h-126v-199h177v-76h-177v-203h126q105 0 161 62.5z" />
    <glyph glyph-name="Dcaron" unicode="&#x10e;" horiz-adv-x="720" 
d="M269 733l-113 167h89l80 -107l80 107h89l-113 -167h-112zM573 574q86 -86 86 -244t-86 -244t-242 -86h-233v660h233q156 0 242 -86zM491 153.5q56 62.5 56 176.5t-56 176.5t-160 62.5h-126v-478h126q104 0 160 62.5z" />
    <glyph glyph-name="Dcroat" unicode="&#x110;" horiz-adv-x="738" 
d="M591 574q86 -86 86 -244t-86 -244t-242 -86h-233v294h-94v76h94v290h233q156 0 242 -86zM510 153.5q56 62.5 56 176.5t-56 176.5t-161 62.5h-126v-199h177v-76h-177v-203h126q105 0 161 62.5z" />
    <glyph glyph-name="E" unicode="E" horiz-adv-x="636" 
d="M590 92v-92h-492v660h478v-92h-371v-190h290v-90h-290v-196h385z" />
    <glyph glyph-name="Eacute" unicode="&#xc9;" horiz-adv-x="636" 
d="M366 737h-82l56 151h114zM590 92v-92h-492v660h478v-92h-371v-190h290v-90h-290v-196h385z" />
    <glyph glyph-name="Ecaron" unicode="&#x11a;" horiz-adv-x="636" 
d="M277 733l-113 167h89l80 -107l80 107h89l-113 -167h-112zM590 92v-92h-492v660h478v-92h-371v-190h290v-90h-290v-196h385z" />
    <glyph glyph-name="Ecircumflex" unicode="&#xca;" horiz-adv-x="636" 
d="M254 731h-89l113 167h112l113 -167h-89l-80 107zM590 92v-92h-492v660h478v-92h-371v-190h290v-90h-290v-196h385z" />
    <glyph glyph-name="Edieresis" unicode="&#xcb;" horiz-adv-x="636" 
d="M590 92v-92h-492v660h478v-92h-371v-190h290v-90h-290v-196h385zM281 843q18 -17 18 -46t-18 -46t-48 -17q-29 0 -47 17.5t-18 45.5q0 29 18 46t47 17q30 0 48 -17zM483 843q18 -17 18 -46t-18 -46t-48 -17t-47.5 17t-17.5 46t17.5 46t47.5 17t48 -17z" />
    <glyph glyph-name="Edotaccent" unicode="&#x116;" horiz-adv-x="636" 
d="M590 92v-92h-492v660h478v-92h-371v-190h290v-90h-290v-196h385zM385 860.5q19 -17.5 19 -48.5t-19 -48.5t-51 -17.5t-50.5 17.5t-18.5 48.5t18.5 48.5t50.5 17.5t51 -17.5z" />
    <glyph glyph-name="Egrave" unicode="&#xc8;" horiz-adv-x="636" 
d="M309 737l-88 151h114l56 -151h-82zM590 92v-92h-492v660h478v-92h-371v-190h290v-90h-290v-196h385z" />
    <glyph glyph-name="Emacron" unicode="&#x112;" horiz-adv-x="636" 
d="M590 92v-92h-492v660h478v-92h-371v-190h290v-90h-290v-196h385zM512 748h-356v78h356v-78z" />
    <glyph glyph-name="Eogonek" unicode="&#x118;" horiz-adv-x="636" 
d="M601 -195q-30 -20 -89 -20q-57 0 -91 27t-34 75q0 39 21.5 66.5t64.5 46.5h-375v660h478v-92h-371v-190h290v-90h-290v-196h385v-92h1q-70 -20 -96.5 -43.5t-26.5 -53.5q0 -23 16.5 -36t45.5 -13q35 0 53 12z" />
    <glyph glyph-name="F" unicode="F" horiz-adv-x="611" 
d="M205 568v-191h290v-93h-290v-284h-107v660h477v-92h-370z" />
    <glyph glyph-name="G" unicode="G" horiz-adv-x="724" 
d="M651 341v-341h-79l-3 84q-29 -45 -80 -69.5t-122 -24.5q-92 0 -161 41t-107 117.5t-38 181.5q0 104 39 180.5t110 118t165 41.5q102 0 168 -38t104 -118l-98 -47q-19 54 -64 82t-108 28q-94 0 -149 -65t-55 -182q0 -119 52.5 -183.5t153.5 -64.5q79 0 128 39t49 113v19
h-202v88h297z" />
    <glyph glyph-name="Gbreve" unicode="&#x11e;" horiz-adv-x="724" 
d="M651 341v-341h-79l-3 84q-29 -45 -80 -69.5t-122 -24.5q-92 0 -161 41t-107 117.5t-38 181.5q0 104 39 180.5t110 118t165 41.5q102 0 168 -38t104 -118l-98 -47q-19 54 -64 82t-108 28q-94 0 -149 -65t-55 -182q0 -119 52.5 -183.5t153.5 -64.5q79 0 128 39t49 113v19
h-202v88h297zM483 772q-42 -42 -112 -42t-112 42t-42 111h79q0 -34 21 -58t54 -24t54 24t21 58h79q0 -69 -42 -111z" />
    <glyph glyph-name="H" unicode="H" horiz-adv-x="736" 
d="M639 660v-660h-108v288h-326v-288h-107v660h107v-280h326v280h108z" />
    <glyph glyph-name="I" unicode="I" horiz-adv-x="303" 
d="M205 0h-107v660h107v-660z" />
    <glyph glyph-name="IJ" unicode="&#x132;" horiz-adv-x="885" 
d="M205 0h-107v660h107v-660zM796 234q0 -115 -63.5 -179.5t-176.5 -64.5q-104 0 -159 49.5t-55 135.5q0 31 5 56l102 19q-4 -38 -4 -51q0 -60 27 -88t84 -28q73 0 103 41.5t30 129.5v406h107v-426z" />
    <glyph glyph-name="Iacute" unicode="&#xcd;" horiz-adv-x="303" 
d="M271 888l-88 -151h-82l56 151h114zM205 0h-107v660h107v-660z" />
    <glyph glyph-name="Icircumflex" unicode="&#xce;" horiz-adv-x="303" 
d="M231 731l-80 107l-80 -107h-89l113 167h112l113 -167h-89zM205 0h-107v660h107v-660z" />
    <glyph glyph-name="Idieresis" unicode="&#xcf;" horiz-adv-x="303" 
d="M107.5 843q17.5 -17 17.5 -46t-17.5 -46t-47.5 -17q-29 0 -46.5 17t-17.5 46t17.5 46t46.5 17q30 0 47.5 -17zM289 843q18 -17 18 -46q0 -28 -18 -45.5t-47 -17.5t-47 17.5t-18 45.5q0 29 18 46t47 17t47 -17zM205 0h-107v660h107v-660z" />
    <glyph glyph-name="Idotaccent" unicode="&#x130;" horiz-adv-x="303" 
d="M205 0h-107v660h107v-660zM202 860.5q19 -17.5 19 -48.5t-19 -48.5t-51 -17.5t-50.5 17.5t-18.5 48.5t18.5 48.5t50.5 17.5t51 -17.5z" />
    <glyph glyph-name="Igrave" unicode="&#xcc;" horiz-adv-x="303" 
d="M190 737h-82l-88 151h114zM205 0h-107v660h107v-660z" />
    <glyph glyph-name="Imacron" unicode="&#x12a;" horiz-adv-x="303" 
d="M269 748h-236v78h236v-78zM205 0h-107v660h107v-660z" />
    <glyph glyph-name="Iogonek" unicode="&#x12e;" horiz-adv-x="303" 
d="M230 -192q-35 -23 -91 -23t-89.5 27t-33.5 75q0 74 82 116v657h107v-660q-61 -24 -84.5 -47t-23.5 -48q0 -51 57 -51q34 0 55 14z" />
    <glyph glyph-name="J" unicode="J" horiz-adv-x="582" 
d="M493 234q0 -115 -63.5 -179.5t-176.5 -64.5q-104 0 -159 49.5t-55 135.5q0 31 5 56l102 19q-4 -38 -4 -51q0 -60 27 -88t84 -28q73 0 103 41.5t30 129.5v406h107v-426z" />
    <glyph glyph-name="K" unicode="K" horiz-adv-x="667" 
d="M312 318l-107 -115v-203h-107v660h107v-328l303 328h131l-250 -270l256 -390h-126z" />
    <glyph glyph-name="L" unicode="L" horiz-adv-x="599" 
d="M569 92v-92h-471v660h107v-568h364z" />
    <glyph glyph-name="Lacute" unicode="&#x139;" horiz-adv-x="599" 
d="M183 737h-82l56 151h114zM569 92v-92h-471v660h107v-568h364z" />
    <glyph glyph-name="Lcaron" unicode="&#x13d;" horiz-adv-x="599" 
d="M365 491h-70l21 210h96zM569 92v-92h-471v660h107v-568h364z" />
    <glyph glyph-name="Ldot" unicode="&#x13f;" horiz-adv-x="626" 
d="M569 92v-92h-471v660h107v-568h364zM583.5 398.5q20.5 -19.5 20.5 -52.5t-20.5 -53t-54.5 -20t-55 20t-21 53t20.5 52.5t55.5 19.5q34 0 54.5 -19.5z" />
    <glyph glyph-name="Lslash" unicode="&#x141;" horiz-adv-x="633" 
d="M602 92v-92h-471v243l-106 -56v96l106 56v321h108v-264l175 93v-96l-175 -92v-209h363z" />
    <glyph glyph-name="M" unicode="M" horiz-adv-x="871" 
d="M773 0h-98v382l7 182h-1l-201 -564h-89l-201 564h-1l8 -182v-382h-99v660h159l133 -382l46 -157h2l47 157l132 382h156v-660z" />
    <glyph glyph-name="N" unicode="N" horiz-adv-x="736" 
d="M639 0h-127l-255 416l-64 122h-1l4 -112v-426h-98v660h126l254 -415l65 -123h1l-4 112v426h99v-660z" />
    <glyph glyph-name="Nacute" unicode="&#x143;" horiz-adv-x="736" 
d="M491 888l-88 -151h-82l56 151h114zM639 0h-127l-255 416l-64 122h-1l4 -112v-426h-98v660h126l254 -415l65 -123h1l-4 112v426h99v-660z" />
    <glyph glyph-name="Ncaron" unicode="&#x147;" horiz-adv-x="736" 
d="M426 733h-112l-113 167h89l80 -107l80 107h89zM639 0h-127l-255 416l-64 122h-1l4 -112v-426h-98v660h126l254 -415l65 -123h1l-4 112v426h99v-660z" />
    <glyph glyph-name="Ntilde" unicode="&#xd1;" horiz-adv-x="736" 
d="M639 0h-127l-255 416l-64 122h-1l4 -112v-426h-98v660h126l254 -415l65 -123h1l-4 112v426h99v-660zM439 736q-29 0 -48.5 10.5t-40.5 29.5q-17 14 -26 19.5t-21 5.5q-19 0 -29.5 -16.5t-15.5 -49.5h-73q9 142 119 142q28 0 46.5 -10t41.5 -30q17 -14 26 -19.5t20 -5.5
q20 0 30.5 16t15.5 49h73q-9 -141 -118 -141z" />
    <glyph glyph-name="O" unicode="O" horiz-adv-x="745" 
d="M537.5 629q70.5 -41 108.5 -118t38 -181t-38 -181t-108.5 -118t-165.5 -41t-165 41t-108 118t-38 181t38 181t108 118t165 41t165.5 -41zM226 512q-53 -65 -53 -182t53 -182t146 -65q94 0 147 65t53 182t-53 182t-147 65q-93 0 -146 -65z" />
    <glyph glyph-name="Oacute" unicode="&#xd3;" horiz-adv-x="745" 
d="M492 888l-88 -151h-82l56 151h114zM537.5 629q70.5 -41 108.5 -118t38 -181t-38 -181t-108.5 -118t-165.5 -41t-165 41t-108 118t-38 181t38 181t108 118t165 41t165.5 -41zM226 512q-53 -65 -53 -182t53 -182t146 -65q94 0 147 65t53 182t-53 182t-147 65
q-93 0 -146 -65z" />
    <glyph glyph-name="Ocircumflex" unicode="&#xd4;" horiz-adv-x="745" 
d="M452 731l-80 107l-80 -107h-89l113 167h112l113 -167h-89zM537.5 629q70.5 -41 108.5 -118t38 -181t-38 -181t-108.5 -118t-165.5 -41t-165 41t-108 118t-38 181t38 181t108 118t165 41t165.5 -41zM226 512q-53 -65 -53 -182t53 -182t146 -65q94 0 147 65t53 182t-53 182
t-147 65q-93 0 -146 -65z" />
    <glyph glyph-name="Odieresis" unicode="&#xd6;" horiz-adv-x="745" 
d="M537.5 629q70.5 -41 108.5 -118t38 -181t-38 -181t-108.5 -118t-165.5 -41t-165 41t-108 118t-38 181t38 181t108 118t165 41t165.5 -41zM226 512q-53 -65 -53 -182t53 -182t146 -65q94 0 147 65t53 182t-53 182t-147 65q-93 0 -146 -65zM319 843q18 -17 18 -46t-18 -46
t-48 -17q-29 0 -47 17.5t-18 45.5q0 29 18 46t47 17q30 0 48 -17zM521 843q18 -17 18 -46t-18 -46t-48 -17t-47.5 17t-17.5 46t17.5 46t47.5 17t48 -17z" />
    <glyph glyph-name="Ograve" unicode="&#xd2;" horiz-adv-x="745" 
d="M411 737h-82l-88 151h114zM537.5 629q70.5 -41 108.5 -118t38 -181t-38 -181t-108.5 -118t-165.5 -41t-165 41t-108 118t-38 181t38 181t108 118t165 41t165.5 -41zM226 512q-53 -65 -53 -182t53 -182t146 -65q94 0 147 65t53 182t-53 182t-147 65q-93 0 -146 -65z" />
    <glyph glyph-name="Ohungarumlaut" unicode="&#x150;" horiz-adv-x="745" 
d="M406 888l-88 -151h-82l56 151h114zM597 888l-88 -151h-82l56 151h114zM537.5 629q70.5 -41 108.5 -118t38 -181t-38 -181t-108.5 -118t-165.5 -41t-165 41t-108 118t-38 181t38 181t108 118t165 41t165.5 -41zM226 512q-53 -65 -53 -182t53 -182t146 -65q94 0 147 65
t53 182t-53 182t-147 65q-93 0 -146 -65z" />
    <glyph glyph-name="Omacron" unicode="&#x14c;" horiz-adv-x="745" 
d="M537.5 629q70.5 -41 108.5 -118t38 -181t-38 -181t-108.5 -118t-165.5 -41t-165 41t-108 118t-38 181t38 181t108 118t165 41t165.5 -41zM226 512q-53 -65 -53 -182t53 -182t146 -65q94 0 147 65t53 182t-53 182t-147 65q-93 0 -146 -65zM550 748h-356v78h356v-78z" />
    <glyph glyph-name="Oslash" unicode="&#xd8;" horiz-adv-x="745" 
d="M661 475q23 -65 23 -145q0 -104 -38 -181t-108.5 -118t-165.5 -41q-97 0 -168 43l-48 -67h-75l74 105q-45 45 -69.5 111t-24.5 148q0 104 38 181t108 118t165 41q102 0 175 -47l42 59h75l-69 -98q43 -44 66 -109zM226 512q-53 -65 -53 -182q0 -108 45 -173l270 385
q-47 35 -116 35q-93 0 -146 -65zM519 148q53 65 53 182q0 104 -41 166l-267 -383q45 -30 108 -30q94 0 147 65z" />
    <glyph glyph-name="Otilde" unicode="&#xd5;" horiz-adv-x="745" 
d="M537.5 629q70.5 -41 108.5 -118t38 -181t-38 -181t-108.5 -118t-165.5 -41t-165 41t-108 118t-38 181t38 181t108 118t165 41t165.5 -41zM226 512q-53 -65 -53 -182t53 -182t146 -65q94 0 147 65t53 182t-53 182t-147 65q-93 0 -146 -65zM440 736q-29 0 -48.5 10.5
t-40.5 29.5q-17 14 -26 19.5t-21 5.5q-19 0 -29.5 -16.5t-15.5 -49.5h-73q9 142 119 142q28 0 46.5 -10t41.5 -30q17 -14 26 -19.5t20 -5.5q20 0 30.5 16t15.5 49h73q-9 -141 -118 -141z" />
    <glyph glyph-name="OE" unicode="&#x152;" horiz-adv-x="1070" 
d="M1025 92v-92h-447v92q-37 -49 -91 -75.5t-120 -26.5q-94 0 -163 41t-106 118t-37 181t37 181t106.5 118t165.5 41q65 0 118 -26t90 -74v90h432v-92h-346v-190h266v-90h-266v-196h361zM510.5 148.5q51.5 65.5 51.5 181.5t-51.5 181.5t-138.5 65.5q-96 0 -148 -64.5
t-52 -182.5t52 -182.5t148 -64.5q87 0 138.5 65.5z" />
    <glyph glyph-name="P" unicode="P" horiz-adv-x="627" 
d="M521.5 605q62.5 -55 62.5 -151t-62.5 -150.5t-169.5 -54.5h-147v-249h-107v660h254q107 0 169.5 -55zM439 368.5q34 28.5 34 85.5q0 115 -138 115h-130v-229h130q70 0 104 28.5z" />
    <glyph glyph-name="Thorn" unicode="&#xde;" horiz-adv-x="639" 
d="M525.5 493q63.5 -54 63.5 -156t-63.5 -156t-186.5 -54h-134v-127h-107v660h107v-113h134q123 0 186.5 -54zM444 247.5q35 29.5 34 89.5q1 60 -34 89.5t-106 29.5h-133v-238h133q71 0 106 29.5z" />
    <glyph glyph-name="Q" unicode="Q" horiz-adv-x="745" 
d="M601 -91q31 10 50 28l31 -90q-24 -21 -66.5 -33t-86.5 -12q-88 0 -142.5 46.5t-57.5 143.5q-125 14 -196.5 103.5t-71.5 234.5q0 104 38 181t108 118t165 41t165.5 -41t108.5 -118t38 -181q0 -146 -72.5 -235.5t-198.5 -102.5q5 -54 35.5 -73.5t83.5 -19.5q38 0 69 10z
M226 148q53 -65 146 -65q94 0 147 65t53 182t-53 182t-147 65q-93 0 -146 -65t-53 -182t53 -182z" />
    <glyph glyph-name="R" unicode="R" horiz-adv-x="672" 
d="M346 264h-142v-264h-106v660h269q107 0 169 -52.5t62 -145.5q0 -71 -36.5 -118.5t-103.5 -67.5l179 -276h-123zM204 353h154q65 0 97 26.5t32 81.5t-32 81.5t-97 26.5h-154v-216z" />
    <glyph glyph-name="Racute" unicode="&#x154;" horiz-adv-x="672" 
d="M356 737h-82l56 151h114zM346 264h-142v-264h-106v660h269q107 0 169 -52.5t62 -145.5q0 -71 -36.5 -118.5t-103.5 -67.5l179 -276h-123zM204 353h154q65 0 97 26.5t32 81.5t-32 81.5t-97 26.5h-154v-216z" />
    <glyph glyph-name="Rcaron" unicode="&#x158;" horiz-adv-x="672" 
d="M267 733l-113 167h89l80 -107l80 107h89l-113 -167h-112zM346 264h-142v-264h-106v660h269q107 0 169 -52.5t62 -145.5q0 -71 -36.5 -118.5t-103.5 -67.5l179 -276h-123zM204 353h154q65 0 97 26.5t32 81.5t-32 81.5t-97 26.5h-154v-216z" />
    <glyph glyph-name="S" unicode="S" horiz-adv-x="642" 
d="M478.5 637q64.5 -33 108.5 -101l-81 -73q-28 60 -70 87t-112 27q-69 0 -107 -27.5t-38 -70.5q0 -40 37 -63.5t132 -40.5q89 -16 141.5 -40.5t76.5 -61t24 -90.5q0 -58 -33 -102t-92.5 -67.5t-137.5 -23.5q-201 0 -284 134l75 75q32 -60 82.5 -88t125.5 -28
q71 0 111.5 24.5t40.5 69.5q0 36 -36.5 58t-127.5 39t-145 42t-78.5 62t-24.5 90q0 56 31 102t89.5 73t136.5 27q91 0 155.5 -33z" />
    <glyph glyph-name="Sacute" unicode="&#x15a;" horiz-adv-x="642" 
d="M447 888l-88 -151h-82l56 151h114zM478.5 637q64.5 -33 108.5 -101l-81 -73q-28 60 -70 87t-112 27q-69 0 -107 -27.5t-38 -70.5q0 -40 37 -63.5t132 -40.5q89 -16 141.5 -40.5t76.5 -61t24 -90.5q0 -58 -33 -102t-92.5 -67.5t-137.5 -23.5q-201 0 -284 134l75 75
q32 -60 82.5 -88t125.5 -28q71 0 111.5 24.5t40.5 69.5q0 36 -36.5 58t-127.5 39t-145 42t-78.5 62t-24.5 90q0 56 31 102t89.5 73t136.5 27q91 0 155.5 -33z" />
    <glyph glyph-name="Scaron" unicode="&#x160;" horiz-adv-x="642" 
d="M382 733h-112l-113 167h89l80 -107l80 107h89zM478.5 637q64.5 -33 108.5 -101l-81 -73q-28 60 -70 87t-112 27q-69 0 -107 -27.5t-38 -70.5q0 -40 37 -63.5t132 -40.5q89 -16 141.5 -40.5t76.5 -61t24 -90.5q0 -58 -33 -102t-92.5 -67.5t-137.5 -23.5q-201 0 -284 134
l75 75q32 -60 82.5 -88t125.5 -28q71 0 111.5 24.5t40.5 69.5q0 36 -36.5 58t-127.5 39t-145 42t-78.5 62t-24.5 90q0 56 31 102t89.5 73t136.5 27q91 0 155.5 -33z" />
    <glyph glyph-name="uni1E9E" unicode="&#x1e9e;" horiz-adv-x="699" 
d="M608.5 321q56.5 -47 56.5 -135q0 -58 -26.5 -101.5t-74 -66.5t-107.5 -23q-63 0 -109 17t-66 45l37 72q19 -21 51.5 -33.5t70.5 -12.5q52 0 84 28.5t32 75.5q0 49 -35.5 76.5t-99.5 27.5h-81v77l166 201h-163q-59 0 -99 -39.5t-40 -101.5v-428h-107v436q0 67 30 118
t84 78.5t123 27.5h288v-91l-173 -201h8q94 0 150.5 -47z" />
    <glyph glyph-name="T" unicode="T" horiz-adv-x="619" 
d="M589 568h-226v-568h-107v568h-226v92h559v-92z" />
    <glyph glyph-name="Tcaron" unicode="&#x164;" horiz-adv-x="619" 
d="M252 733l-113 167h89l80 -107l80 107h89l-113 -167h-112zM589 568h-226v-568h-107v568h-226v92h559v-92z" />
    <glyph glyph-name="U" unicode="U" horiz-adv-x="718" 
d="M629 253q0 -130 -69 -196.5t-201 -66.5t-201 66.5t-69 196.5v407h108v-394q0 -94 39.5 -138.5t122.5 -44.5t122.5 44.5t39.5 138.5v394h108v-407z" />
    <glyph glyph-name="Uacute" unicode="&#xda;" horiz-adv-x="718" 
d="M478 888l-88 -151h-82l56 151h114zM629 253q0 -130 -69 -196.5t-201 -66.5t-201 66.5t-69 196.5v407h108v-394q0 -94 39.5 -138.5t122.5 -44.5t122.5 44.5t39.5 138.5v394h108v-407z" />
    <glyph glyph-name="Ucircumflex" unicode="&#xdb;" horiz-adv-x="718" 
d="M439 731l-80 107l-80 -107h-89l113 167h112l113 -167h-89zM629 253q0 -130 -69 -196.5t-201 -66.5t-201 66.5t-69 196.5v407h108v-394q0 -94 39.5 -138.5t122.5 -44.5t122.5 44.5t39.5 138.5v394h108v-407z" />
    <glyph glyph-name="Udieresis" unicode="&#xdc;" horiz-adv-x="718" 
d="M629 253q0 -130 -69 -196.5t-201 -66.5t-201 66.5t-69 196.5v407h108v-394q0 -94 39.5 -138.5t122.5 -44.5t122.5 44.5t39.5 138.5v394h108v-407zM305 843q18 -17 18 -46t-18 -46t-48 -17q-29 0 -47 17.5t-18 45.5q0 29 18 46t47 17q30 0 48 -17zM507 843q18 -17 18 -46
t-18 -46t-48 -17t-47.5 17t-17.5 46t17.5 46t47.5 17t48 -17z" />
    <glyph glyph-name="Ugrave" unicode="&#xd9;" horiz-adv-x="718" 
d="M398 737h-82l-88 151h114zM629 253q0 -130 -69 -196.5t-201 -66.5t-201 66.5t-69 196.5v407h108v-394q0 -94 39.5 -138.5t122.5 -44.5t122.5 44.5t39.5 138.5v394h108v-407z" />
    <glyph glyph-name="Uhungarumlaut" unicode="&#x170;" horiz-adv-x="718" 
d="M381 890l-88 -151h-82l56 151h114zM568 888l-88 -151h-82l56 151h114zM629 253q0 -130 -69 -196.5t-201 -66.5t-201 66.5t-69 196.5v407h108v-394q0 -94 39.5 -138.5t122.5 -44.5t122.5 44.5t39.5 138.5v394h108v-407z" />
    <glyph glyph-name="Umacron" unicode="&#x16a;" horiz-adv-x="718" 
d="M629 253q0 -130 -69 -196.5t-201 -66.5t-201 66.5t-69 196.5v407h108v-394q0 -94 39.5 -138.5t122.5 -44.5t122.5 44.5t39.5 138.5v394h108v-407zM537 748h-356v78h356v-78z" />
    <glyph glyph-name="Uogonek" unicode="&#x172;" horiz-adv-x="718" 
d="M629 660v-407q0 -107 -46.5 -171t-137.5 -84q-91 -43 -91 -94q0 -24 16.5 -37t44.5 -13q35 0 53 11l18 -61q-32 -19 -88 -19t-90.5 28t-34.5 75q0 63 56 103q-117 7 -178.5 73t-61.5 189v407h108v-394q0 -94 39.5 -138.5t122.5 -44.5t122.5 44.5t39.5 138.5v394h108z" />
    <glyph glyph-name="Uring" unicode="&#x16e;" horiz-adv-x="718" 
d="M629 253q0 -130 -69 -196.5t-201 -66.5t-201 66.5t-69 196.5v407h108v-394q0 -94 39.5 -138.5t122.5 -44.5t122.5 44.5t39.5 138.5v394h108v-407zM452.5 861.5q34.5 -32.5 34.5 -85.5q0 -55 -34.5 -87.5t-92.5 -32.5q-59 0 -94 32.5t-35 87.5q0 53 35.5 85.5t93.5 32.5
t92.5 -32.5zM312.5 821.5q-18.5 -17.5 -18.5 -45.5t18.5 -46t47.5 -18t47 18t18 46t-18 45.5t-47 17.5t-47.5 -17.5z" />
    <glyph glyph-name="V" unicode="V" horiz-adv-x="659" 
d="M392 0h-125l-245 660h114l154 -439l40 -131l40 130l154 440h113z" />
    <glyph glyph-name="W" unicode="W" horiz-adv-x="972" 
d="M349 0h-127l-194 660h116l144 -575l145 575h110l146 -576l145 576h110l-193 -660h-126l-105 396l-33 152h-1l-33 -152z" />
    <glyph glyph-name="X" unicode="X" horiz-adv-x="620" 
d="M468 0l-162 257l-162 -257h-123l229 335l-211 325h127l152 -245l152 245h116l-213 -321l222 -339h-127z" />
    <glyph glyph-name="Y" unicode="Y" horiz-adv-x="597" 
d="M352 253v-253h-107v253l-235 407h119l118 -212l52 -99l52 99l117 212h120z" />
    <glyph glyph-name="Yacute" unicode="&#xdd;" horiz-adv-x="597" 
d="M418 888l-88 -151h-82l56 151h114zM352 253v-253h-107v253l-235 407h119l118 -212l52 -99l52 99l117 212h120z" />
    <glyph glyph-name="Ydieresis" unicode="&#x178;" horiz-adv-x="597" 
d="M352 253v-253h-107v253l-235 407h119l118 -212l52 -99l52 99l117 212h120zM245 843q18 -17 18 -46t-18 -46t-48 -17q-29 0 -47 17.5t-18 45.5q0 29 18 46t47 17q30 0 48 -17zM447 843q18 -17 18 -46t-18 -46t-48 -17t-47.5 17t-17.5 46t17.5 46t47.5 17t48 -17z" />
    <glyph glyph-name="Z" unicode="Z" horiz-adv-x="631" 
d="M583 91v-91h-533v87l399 482h-390v91h512v-87l-399 -482h411z" />
    <glyph glyph-name="Zacute" unicode="&#x179;" horiz-adv-x="631" 
d="M342 737h-82l56 151h114zM583 91v-91h-533v87l399 482h-390v91h512v-87l-399 -482h411z" />
    <glyph glyph-name="Zcaron" unicode="&#x17d;" horiz-adv-x="631" 
d="M253 733l-113 167h89l80 -107l80 107h89l-113 -167h-112zM583 91v-91h-533v87l399 482h-390v91h512v-87l-399 -482h411z" />
    <glyph glyph-name="Zdotaccent" unicode="&#x17b;" horiz-adv-x="631" 
d="M583 91v-91h-533v87l399 482h-390v91h512v-87l-399 -482h411zM361 860.5q19 -17.5 19 -48.5t-19 -48.5t-51 -17.5t-50.5 17.5t-18.5 48.5t18.5 48.5t50.5 17.5t51 -17.5z" />
    <glyph glyph-name="uni0122" unicode="&#x122;" horiz-adv-x="724" 
d="M651 341v-341h-79l-3 84q-29 -45 -80 -69.5t-122 -24.5q-92 0 -161 41t-107 117.5t-38 181.5q0 104 39 180.5t110 118t165 41.5q102 0 168 -38t104 -118l-98 -47q-19 54 -64 82t-108 28q-94 0 -149 -65t-55 -182q0 -119 52.5 -183.5t153.5 -64.5q79 0 128 39t49 113v19
h-202v88h297zM377 -238h-77l40 167h104z" />
    <glyph glyph-name="uni0136" unicode="&#x136;" horiz-adv-x="667" 
d="M312 318l-107 -115v-203h-107v660h107v-328l303 328h131l-250 -270l256 -390h-126zM348 -238h-77l40 167h104z" />
    <glyph glyph-name="uni013B" unicode="&#x13b;" horiz-adv-x="599" 
d="M569 92v-92h-471v660h107v-568h364zM332 -238h-77l40 167h104z" />
    <glyph glyph-name="uni0145" unicode="&#x145;" horiz-adv-x="736" 
d="M639 0h-127l-255 416l-64 122h-1l4 -112v-426h-98v660h126l254 -415l65 -123h1l-4 112v426h99v-660zM370 -238h-77l40 167h104z" />
    <glyph glyph-name="uni0156" unicode="&#x156;" horiz-adv-x="672" 
d="M346 264h-142v-264h-106v660h269q107 0 169 -52.5t62 -145.5q0 -71 -36.5 -118.5t-103.5 -67.5l179 -276h-123zM204 353h154q65 0 97 26.5t32 81.5t-32 81.5t-97 26.5h-154v-216zM342 -238h-77l40 167h104z" />
    <glyph glyph-name="uni015E" unicode="&#x15e;" horiz-adv-x="642" 
d="M536.5 57.5q-53.5 -49.5 -145.5 -63.5q27 -20 41.5 -46t14.5 -53q0 -48 -34 -79t-90 -31q-39 0 -66.5 9t-48.5 28l33 62q13 -13 31 -21.5t39 -8.5q24 0 40 15.5t16 40.5q0 26 -15.5 44.5t-56.5 36.5q-175 10 -252 133l75 75q32 -60 82.5 -88t125.5 -28q71 0 111.5 24.5
t40.5 69.5q0 36 -36.5 58t-127.5 39t-145 42t-78.5 62t-24.5 90q0 56 31 102t89.5 73t136.5 27q91 0 155.5 -33t108.5 -101l-81 -73q-28 60 -70 87t-112 27q-69 0 -107 -27.5t-38 -70.5q0 -40 37 -63.5t132 -40.5q89 -16 141.5 -40.5t76.5 -61t24 -90.5q0 -76 -53.5 -125.5z
" />
    <glyph glyph-name="uni0162" unicode="&#x162;" horiz-adv-x="619" 
d="M363 568v-565q65 -41 65 -107q0 -48 -34.5 -79.5t-90.5 -31.5q-75 0 -116 37l35 63q28 -30 69 -30q24 0 40 15t16 41q0 27 -17.5 45.5t-61.5 43.5h-12v568h-226v92h559v-92h-226z" />
    <glyph glyph-name="uni0218" unicode="&#x218;" horiz-adv-x="642" 
d="M478.5 637q64.5 -33 108.5 -101l-81 -73q-28 60 -70 87t-112 27q-69 0 -107 -27.5t-38 -70.5q0 -40 37 -63.5t132 -40.5q89 -16 141.5 -40.5t76.5 -61t24 -90.5q0 -58 -33 -102t-92.5 -67.5t-137.5 -23.5q-201 0 -284 134l75 75q32 -60 82.5 -88t125.5 -28
q71 0 111.5 24.5t40.5 69.5q0 36 -36.5 58t-127.5 39t-145 42t-78.5 62t-24.5 90q0 56 31 102t89.5 73t136.5 27q91 0 155.5 -33zM333 -238h-77l40 167h104z" />
    <glyph glyph-name="uni021A" unicode="&#x21a;" horiz-adv-x="619" 
d="M589 568h-226v-568h-107v568h-226v92h559v-92zM297 -238h-77l40 167h104z" />
    <glyph glyph-name="E.swsh.001" horiz-adv-x="772" 
d="M724 299.5q38 -45.5 38 -118.5q0 -88 -56.5 -134.5t-155.5 -46.5h-452v660h506v-92h-399v-197h214v-90h-214v-189h326q67 0 99 22t32 69q0 42 -20 65t-55 25l39 77q60 -5 98 -50.5z" />
    <glyph glyph-name="Eacute.swsh.001" horiz-adv-x="772" 
d="M387 737h-82l56 151h114zM724 299.5q38 -45.5 38 -118.5q0 -88 -56.5 -134.5t-155.5 -46.5h-452v660h506v-92h-399v-197h214v-90h-214v-189h326q67 0 99 22t32 69q0 42 -20 65t-55 25l39 77q60 -5 98 -50.5z" />
    <glyph glyph-name="Ecaron.swsh.001" horiz-adv-x="772" 
d="M299 733l-113 167h89l80 -107l80 107h89l-113 -167h-112zM724 299.5q38 -45.5 38 -118.5q0 -88 -56.5 -134.5t-155.5 -46.5h-452v660h506v-92h-399v-197h214v-90h-214v-189h326q67 0 99 22t32 69q0 42 -20 65t-55 25l39 77q60 -5 98 -50.5z" />
    <glyph glyph-name="Ecircumflex.swsh.001" horiz-adv-x="772" 
d="M276 731h-89l113 167h112l113 -167h-89l-80 107zM724 299.5q38 -45.5 38 -118.5q0 -88 -56.5 -134.5t-155.5 -46.5h-452v660h506v-92h-399v-197h214v-90h-214v-189h326q67 0 99 22t32 69q0 42 -20 65t-55 25l39 77q60 -5 98 -50.5z" />
    <glyph glyph-name="Edieresis.swsh.001" horiz-adv-x="772" 
d="M724 299.5q38 -45.5 38 -118.5q0 -88 -56.5 -134.5t-155.5 -46.5h-452v660h506v-92h-399v-197h214v-90h-214v-189h326q67 0 99 22t32 69q0 42 -20 65t-55 25l39 77q60 -5 98 -50.5zM302 843q18 -17 18 -46t-18 -46t-48 -17q-29 0 -47 17.5t-18 45.5q0 29 18 46t47 17
q30 0 48 -17zM504 843q18 -17 18 -46t-18 -46t-48 -17t-47.5 17t-17.5 46t17.5 46t47.5 17t48 -17z" />
    <glyph glyph-name="Edotaccent.swsh.001" horiz-adv-x="772" 
d="M724 299.5q38 -45.5 38 -118.5q0 -88 -56.5 -134.5t-155.5 -46.5h-452v660h506v-92h-399v-197h214v-90h-214v-189h326q67 0 99 22t32 69q0 42 -20 65t-55 25l39 77q60 -5 98 -50.5zM407 860.5q19 -17.5 19 -48.5t-19 -48.5t-51 -17.5t-50.5 17.5t-18.5 48.5t18.5 48.5
t50.5 17.5t51 -17.5z" />
    <glyph glyph-name="Egrave.swsh.001" horiz-adv-x="772" 
d="M313 737l-88 151h114l56 -151h-82zM724 299.5q38 -45.5 38 -118.5q0 -88 -56.5 -134.5t-155.5 -46.5h-452v660h506v-92h-399v-197h214v-90h-214v-189h326q67 0 99 22t32 69q0 42 -20 65t-55 25l39 77q60 -5 98 -50.5z" />
    <glyph glyph-name="Emacron.swsh.001" horiz-adv-x="772" 
d="M724 299.5q38 -45.5 38 -118.5q0 -88 -56.5 -134.5t-155.5 -46.5h-452v660h506v-92h-399v-197h214v-90h-214v-189h326q67 0 99 22t32 69q0 42 -20 65t-55 25l39 77q60 -5 98 -50.5zM534 748h-356v78h356v-78z" />
    <glyph glyph-name="M.swsh.001" horiz-adv-x="1099" 
d="M1001 660v-660h-99v382l8 182h-1l-201 -564h-90l-200 564h-2l8 -182v-382h-99v577h-82q-61 0 -96 -27t-35 -79q0 -41 28.5 -69.5t75.5 -36.5l-37 -79q-72 9 -120.5 59.5t-48.5 127.5q0 88 58.5 137.5t160.5 49.5h256l132 -382l47 -157h2l47 157l131 382h157z" />
    <glyph glyph-name="R.swsh.001" horiz-adv-x="702" 
d="M622 25q44 -35 80 -46l-58 -68q-74 32 -110.5 63.5t-70.5 80.5l-146 209h-113v-264h-106v660h269q107 0 169 -52.5t62 -145.5q0 -78 -45.5 -128.5t-125.5 -64.5l123 -171q28 -38 72 -73zM204 353h154q65 0 97 26.5t32 81.5t-32 81.5t-97 26.5h-154v-216z" />
    <glyph glyph-name="Racute.swsh.001" horiz-adv-x="702" 
d="M356 737h-82l56 151h114zM622 25q44 -35 80 -46l-58 -68q-74 32 -110.5 63.5t-70.5 80.5l-146 209h-113v-264h-106v660h269q107 0 169 -52.5t62 -145.5q0 -78 -45.5 -128.5t-125.5 -64.5l123 -171q28 -38 72 -73zM204 353h154q65 0 97 26.5t32 81.5t-32 81.5t-97 26.5
h-154v-216z" />
    <glyph glyph-name="Rcaron.swsh.001" horiz-adv-x="702" 
d="M267 733l-113 167h89l80 -107l80 107h89l-113 -167h-112zM622 25q44 -35 80 -46l-58 -68q-74 32 -110.5 63.5t-70.5 80.5l-146 209h-113v-264h-106v660h269q107 0 169 -52.5t62 -145.5q0 -78 -45.5 -128.5t-125.5 -64.5l123 -171q28 -38 72 -73zM204 353h154
q65 0 97 26.5t32 81.5t-32 81.5t-97 26.5h-154v-216z" />
    <glyph glyph-name="Rcommaaccent.swsh.001" horiz-adv-x="702" 
d="M622 25q44 -35 80 -46l-58 -68q-74 32 -110.5 63.5t-70.5 80.5l-146 209h-113v-264h-106v660h269q107 0 169 -52.5t62 -145.5q0 -78 -45.5 -128.5t-125.5 -64.5l123 -171q28 -38 72 -73zM204 353h154q65 0 97 26.5t32 81.5t-32 81.5t-97 26.5h-154v-216zM342 -238h-77
l40 167h104z" />
    <glyph glyph-name="Iacute_J.loclNLD" horiz-adv-x="885" 
d="M271 888l-88 -151h-82l56 151h114zM871 888l-88 -151h-82l56 151h114zM205 0h-107v660h107v-660zM796 234q0 -115 -63.5 -179.5t-176.5 -64.5q-104 0 -159 49.5t-55 135.5q0 31 5 56l102 19q-4 -38 -4 -51q0 -60 27 -88t84 -28q73 0 103 41.5t30 129.5v406h107v-426z" />
    <glyph glyph-name="R.ss03" horiz-adv-x="664" 
d="M98 660h269q107 0 169 -52.5t62 -143.5q0 -66 -35 -108.5t-101 -59.5v-2q107 -20 113 -128q6 -77 13 -109.5t20 -53.5v-3h-114q-9 20 -14.5 54t-10.5 101q-4 55 -37.5 82t-103.5 27h-124v-264h-106v660zM358 353q65 0 97 26.5t32 81.5t-32 81.5t-97 26.5h-154v-216h154z
" />
    <glyph glyph-name="Racute.ss03" horiz-adv-x="664" 
d="M444 888l-88 -151h-82l56 151h114zM98 660h269q107 0 169 -52.5t62 -143.5q0 -66 -35 -108.5t-101 -59.5v-2q107 -20 113 -128q6 -77 13 -109.5t20 -53.5v-3h-114q-9 20 -14.5 54t-10.5 101q-4 55 -37.5 82t-103.5 27h-124v-264h-106v660zM358 353q65 0 97 26.5t32 81.5
t-32 81.5t-97 26.5h-154v-216h154z" />
    <glyph glyph-name="Rcaron.ss03" horiz-adv-x="664" 
d="M379 733h-112l-113 167h89l80 -107l80 107h89zM98 660h269q107 0 169 -52.5t62 -143.5q0 -66 -35 -108.5t-101 -59.5v-2q107 -20 113 -128q6 -77 13 -109.5t20 -53.5v-3h-114q-9 20 -14.5 54t-10.5 101q-4 55 -37.5 82t-103.5 27h-124v-264h-106v660zM358 353
q65 0 97 26.5t32 81.5t-32 81.5t-97 26.5h-154v-216h154z" />
    <glyph glyph-name="Rcommaaccent.ss03" horiz-adv-x="664" 
d="M98 660h269q107 0 169 -52.5t62 -143.5q0 -66 -35 -108.5t-101 -59.5v-2q107 -20 113 -128q6 -77 13 -109.5t20 -53.5v-3h-114q-9 20 -14.5 54t-10.5 101q-4 55 -37.5 82t-103.5 27h-124v-264h-106v660zM358 353q65 0 97 26.5t32 81.5t-32 81.5t-97 26.5h-154v-216h154z
M342 -238h-77l40 167h104z" />
    <glyph glyph-name="G.ss04" horiz-adv-x="724" 
d="M663 340v-67q0 -133 -76 -208t-214 -75q-95 0 -165.5 41t-108.5 117.5t-38 181.5q0 104 39 180.5t110 118t165 41.5q102 0 167.5 -37.5t104.5 -118.5l-99 -47q-19 54 -63.5 82t-109.5 28q-92 0 -147 -65.5t-55 -181.5q0 -120 53.5 -183.5t155.5 -63.5q63 0 104.5 24.5
t60.5 62t19 78.5v7h-202v85h299z" />
    <glyph glyph-name="Gbreve.ss04" horiz-adv-x="724" 
d="M663 340v-67q0 -133 -76 -208t-214 -75q-95 0 -165.5 41t-108.5 117.5t-38 181.5q0 104 39 180.5t110 118t165 41.5q102 0 167.5 -37.5t104.5 -118.5l-99 -47q-19 54 -63.5 82t-109.5 28q-92 0 -147 -65.5t-55 -181.5q0 -120 53.5 -183.5t155.5 -63.5q63 0 104.5 24.5
t60.5 62t19 78.5v7h-202v85h299zM483 772q-42 -42 -112 -42t-112 42t-42 111h79q0 -34 21 -58t54 -24t54 24t21 58h79q0 -69 -42 -111z" />
    <glyph glyph-name="Gcommaaccent.ss04" horiz-adv-x="724" 
d="M663 340v-67q0 -133 -76 -208t-214 -75q-95 0 -165.5 41t-108.5 117.5t-38 181.5q0 104 39 180.5t110 118t165 41.5q102 0 167.5 -37.5t104.5 -118.5l-99 -47q-19 54 -63.5 82t-109.5 28q-92 0 -147 -65.5t-55 -181.5q0 -120 53.5 -183.5t155.5 -63.5q63 0 104.5 24.5
t60.5 62t19 78.5v7h-202v85h299zM378 -238h-77l40 167h104z" />
    <glyph glyph-name="IJ.ss05" horiz-adv-x="642" 
d="M553 234q0 -114 -63.5 -179t-171.5 -65q-105 0 -162 46t-57 132q0 11 2 33h105q-2 -18 -2 -26q0 -46 30 -69t85 -23q61 0 93.5 42t32.5 124v411h108v-426zM205 288h-107v372h107v-372z" />
    <glyph glyph-name="Iacute_J.loclNLD.ss05" horiz-adv-x="633" 
d="M262 888l-87 -151h-83l56 151h114zM619 888l-87 -151h-83l56 151h114zM544 234q0 -114 -63 -179t-171 -65q-105 0 -162.5 46t-57.5 132q0 11 2 33h106q-2 -10 -2 -27q0 -45 30 -68t85 -23q60 0 93 42.5t33 123.5v411h107v-426zM197 288h-108v372h108v-372z" />
    <glyph glyph-name="A.swsh" horiz-adv-x="879" 
d="M684 173h-280l-45 -120q-29 -83 -79.5 -123t-134.5 -40q-76 0 -121 31.5t-53 88.5l58 63q11 -56 37 -76t75 -20q34 0 56 12t39.5 40t37.5 81l177 467h-131q-61 0 -96 -27t-35 -79q0 -41 28.5 -69.5t75.5 -36.5l-36 -79q-73 9 -121.5 59.5t-48.5 127.5q0 88 58.5 137.5
t161.5 49.5h304l248 -660h-112zM653 260l-77 212l-30 95h-2l-29 -93l-79 -214h217z" />
    <glyph glyph-name="Aacute.swsh" horiz-adv-x="879" 
d="M578 737h-82l56 151h114zM684 173h-280l-45 -120q-29 -83 -79.5 -123t-134.5 -40q-76 0 -121 31.5t-53 88.5l58 63q11 -56 37 -76t75 -20q34 0 56 12t39.5 40t37.5 81l177 467h-131q-61 0 -96 -27t-35 -79q0 -41 28.5 -69.5t75.5 -36.5l-36 -79q-73 9 -121.5 59.5
t-48.5 127.5q0 88 58.5 137.5t161.5 49.5h304l248 -660h-112zM653 260l-77 212l-30 95h-2l-29 -93l-79 -214h217z" />
    <glyph glyph-name="Abreve.swsh" horiz-adv-x="879" 
d="M684 173h-280l-45 -120q-29 -83 -79.5 -123t-134.5 -40q-76 0 -121 31.5t-53 88.5l58 63q11 -56 37 -76t75 -20q34 0 56 12t39.5 40t37.5 81l177 467h-131q-61 0 -96 -27t-35 -79q0 -41 28.5 -69.5t75.5 -36.5l-36 -79q-73 9 -121.5 59.5t-48.5 127.5q0 88 58.5 137.5
t161.5 49.5h304l248 -660h-112zM653 260l-77 212l-30 95h-2l-29 -93l-79 -214h217zM658 772q-42 -42 -112 -42t-112 42t-42 111h79q0 -34 21 -58t54 -24t54 24t21 58h79q0 -69 -42 -111z" />
    <glyph glyph-name="Acircumflex.swsh" horiz-adv-x="879" 
d="M466 731h-89l113 167h112l113 -167h-89l-80 107zM684 173h-280l-45 -120q-29 -83 -79.5 -123t-134.5 -40q-76 0 -121 31.5t-53 88.5l58 63q11 -56 37 -76t75 -20q34 0 56 12t39.5 40t37.5 81l177 467h-131q-61 0 -96 -27t-35 -79q0 -41 28.5 -69.5t75.5 -36.5l-36 -79
q-73 9 -121.5 59.5t-48.5 127.5q0 88 58.5 137.5t161.5 49.5h304l248 -660h-112zM653 260l-77 212l-30 95h-2l-29 -93l-79 -214h217z" />
    <glyph glyph-name="Adieresis.swsh" horiz-adv-x="879" 
d="M684 173h-280l-45 -120q-29 -83 -79.5 -123t-134.5 -40q-76 0 -121 31.5t-53 88.5l58 63q11 -56 37 -76t75 -20q34 0 56 12t39.5 40t37.5 81l177 467h-131q-61 0 -96 -27t-35 -79q0 -41 28.5 -69.5t75.5 -36.5l-36 -79q-73 9 -121.5 59.5t-48.5 127.5q0 88 58.5 137.5
t161.5 49.5h304l248 -660h-112zM653 260l-77 212l-30 95h-2l-29 -93l-79 -214h217zM493 843q18 -17 18 -46t-18 -46t-48 -17q-29 0 -47 17.5t-18 45.5q0 29 18 46t47 17q30 0 48 -17zM695 843q18 -17 18 -46t-18 -46t-48 -17t-47.5 17t-17.5 46t17.5 46t47.5 17t48 -17z" />
    <glyph glyph-name="Agrave.swsh" horiz-adv-x="879" 
d="M503 737l-88 151h114l56 -151h-82zM684 173h-280l-45 -120q-29 -83 -79.5 -123t-134.5 -40q-76 0 -121 31.5t-53 88.5l58 63q11 -56 37 -76t75 -20q34 0 56 12t39.5 40t37.5 81l177 467h-131q-61 0 -96 -27t-35 -79q0 -41 28.5 -69.5t75.5 -36.5l-36 -79
q-73 9 -121.5 59.5t-48.5 127.5q0 88 58.5 137.5t161.5 49.5h304l248 -660h-112zM653 260l-77 212l-30 95h-2l-29 -93l-79 -214h217z" />
    <glyph glyph-name="Amacron.swsh" horiz-adv-x="879" 
d="M684 173h-280l-45 -120q-29 -83 -79.5 -123t-134.5 -40q-76 0 -121 31.5t-53 88.5l58 63q11 -56 37 -76t75 -20q34 0 56 12t39.5 40t37.5 81l177 467h-131q-61 0 -96 -27t-35 -79q0 -41 28.5 -69.5t75.5 -36.5l-36 -79q-73 9 -121.5 59.5t-48.5 127.5q0 88 58.5 137.5
t161.5 49.5h304l248 -660h-112zM653 260l-77 212l-30 95h-2l-29 -93l-79 -214h217zM724 748h-356v78h356v-78z" />
    <glyph glyph-name="Aogonek.swsh" horiz-adv-x="879" 
d="M870 -195q-31 -20 -89 -20q-57 0 -91 28t-34 79q0 78 87 117l-59 164h-280l-45 -120q-29 -83 -79.5 -123t-134.5 -40q-76 0 -121 31.5t-53 88.5l58 63q11 -56 37 -76t75 -20q34 0 56 12t39.5 40t37.5 81l177 467h-131q-61 0 -96 -27t-35 -79q0 -41 28.5 -69.5t75.5 -36.5
l-36 -79q-73 9 -121.5 59.5t-48.5 127.5q0 88 58.5 137.5t161.5 49.5h304l248 -660q-69 -20 -95.5 -43.5t-26.5 -53.5q0 -23 16.5 -36t45.5 -13q35 0 53 12zM653 260l-77 212l-30 95h-2l-29 -93l-79 -214h217z" />
    <glyph glyph-name="Atilde.swsh" horiz-adv-x="879" 
d="M684 173h-280l-45 -120q-29 -83 -79.5 -123t-134.5 -40q-76 0 -121 31.5t-53 88.5l58 63q11 -56 37 -76t75 -20q34 0 56 12t39.5 40t37.5 81l177 467h-131q-61 0 -96 -27t-35 -79q0 -41 28.5 -69.5t75.5 -36.5l-36 -79q-73 9 -121.5 59.5t-48.5 127.5q0 88 58.5 137.5
t161.5 49.5h304l248 -660h-112zM653 260l-77 212l-30 95h-2l-29 -93l-79 -214h217zM613 736q-29 0 -48.5 10.5t-40.5 29.5q-17 14 -26 19.5t-21 5.5q-19 0 -29.5 -16.5t-15.5 -49.5h-73q9 142 119 142q28 0 46.5 -10t41.5 -30q17 -14 26 -19.5t20 -5.5q20 0 30.5 16t15.5 49
h73q-9 -141 -118 -141z" />
    <glyph glyph-name="E.swsh" horiz-adv-x="868" 
d="M822 92v-92h-492v577h-87q-61 0 -96 -27t-35 -79q0 -41 28.5 -69.5t75.5 -36.5l-37 -79q-72 9 -120.5 59.5t-48.5 127.5q0 88 58.5 137.5t160.5 49.5h579v-92h-371v-190h290v-90h-290v-196h385z" />
    <glyph glyph-name="Eacute.swsh" horiz-adv-x="868" 
d="M598 737h-82l56 151h114zM822 92v-92h-492v577h-87q-61 0 -96 -27t-35 -79q0 -41 28.5 -69.5t75.5 -36.5l-37 -79q-72 9 -120.5 59.5t-48.5 127.5q0 88 58.5 137.5t160.5 49.5h579v-92h-371v-190h290v-90h-290v-196h385z" />
    <glyph glyph-name="Ecaron.swsh" horiz-adv-x="868" 
d="M509 733l-113 167h89l80 -107l80 107h89l-113 -167h-112zM822 92v-92h-492v577h-87q-61 0 -96 -27t-35 -79q0 -41 28.5 -69.5t75.5 -36.5l-37 -79q-72 9 -120.5 59.5t-48.5 127.5q0 88 58.5 137.5t160.5 49.5h579v-92h-371v-190h290v-90h-290v-196h385z" />
    <glyph glyph-name="Ecircumflex.swsh" horiz-adv-x="868" 
d="M486 731h-89l113 167h112l113 -167h-89l-80 107zM822 92v-92h-492v577h-87q-61 0 -96 -27t-35 -79q0 -41 28.5 -69.5t75.5 -36.5l-37 -79q-72 9 -120.5 59.5t-48.5 127.5q0 88 58.5 137.5t160.5 49.5h579v-92h-371v-190h290v-90h-290v-196h385z" />
    <glyph glyph-name="Edieresis.swsh" horiz-adv-x="868" 
d="M822 92v-92h-492v577h-87q-61 0 -96 -27t-35 -79q0 -41 28.5 -69.5t75.5 -36.5l-37 -79q-72 9 -120.5 59.5t-48.5 127.5q0 88 58.5 137.5t160.5 49.5h579v-92h-371v-190h290v-90h-290v-196h385zM513 843q18 -17 18 -46t-18 -46t-48 -17q-29 0 -47 17.5t-18 45.5
q0 29 18 46t47 17q30 0 48 -17zM715 843q18 -17 18 -46t-18 -46t-48 -17t-47.5 17t-17.5 46t17.5 46t47.5 17t48 -17z" />
    <glyph glyph-name="Edotaccent.swsh" horiz-adv-x="868" 
d="M822 92v-92h-492v577h-87q-61 0 -96 -27t-35 -79q0 -41 28.5 -69.5t75.5 -36.5l-37 -79q-72 9 -120.5 59.5t-48.5 127.5q0 88 58.5 137.5t160.5 49.5h579v-92h-371v-190h290v-90h-290v-196h385zM617 860.5q19 -17.5 19 -48.5t-19 -48.5t-51 -17.5t-50.5 17.5t-18.5 48.5
t18.5 48.5t50.5 17.5t51 -17.5z" />
    <glyph glyph-name="Egrave.swsh" horiz-adv-x="868" 
d="M523 737l-88 151h114l56 -151h-82zM822 92v-92h-492v577h-87q-61 0 -96 -27t-35 -79q0 -41 28.5 -69.5t75.5 -36.5l-37 -79q-72 9 -120.5 59.5t-48.5 127.5q0 88 58.5 137.5t160.5 49.5h579v-92h-371v-190h290v-90h-290v-196h385z" />
    <glyph glyph-name="Emacron.swsh" horiz-adv-x="868" 
d="M822 92v-92h-492v577h-87q-61 0 -96 -27t-35 -79q0 -41 28.5 -69.5t75.5 -36.5l-37 -79q-72 9 -120.5 59.5t-48.5 127.5q0 88 58.5 137.5t160.5 49.5h579v-92h-371v-190h290v-90h-290v-196h385zM744 748h-356v78h356v-78z" />
    <glyph glyph-name="Eogonek.swsh" horiz-adv-x="868" 
d="M833 -195q-30 -20 -89 -20q-57 0 -91 27t-34 75q0 39 21.5 66.5t64.5 46.5h-375v577h-87q-61 0 -96 -27t-35 -79q0 -41 28.5 -69.5t75.5 -36.5l-37 -79q-72 9 -120.5 59.5t-48.5 127.5q0 88 58.5 137.5t160.5 49.5h579v-92h-371v-190h290v-90h-290v-196h385v-91l1 -1
q-70 -20 -96.5 -43.5t-26.5 -53.5q0 -23 16.5 -36t45.5 -13q35 0 53 12z" />
    <glyph glyph-name="F.swsh" horiz-adv-x="838" 
d="M433 568v-191h290v-93h-290v-284h-108v577h-82q-61 0 -96 -27t-35 -79q0 -41 28.5 -69.5t75.5 -36.5l-37 -79q-72 9 -120.5 59.5t-48.5 127.5q0 88 58.5 137.5t160.5 49.5h574v-92h-370z" />
    <glyph glyph-name="L.swsh" horiz-adv-x="655" 
d="M599.5 313.5q45.5 -48.5 45.5 -126.5q0 -92 -57.5 -139.5t-161.5 -47.5h-328v660h107v-568h207q65 0 99 22.5t34 74.5q0 47 -27.5 71.5t-76.5 26.5l37 77q76 -2 121.5 -50.5z" />
    <glyph glyph-name="Lacute.swsh" horiz-adv-x="655" 
d="M183 737h-82l56 151h114zM599.5 313.5q45.5 -48.5 45.5 -126.5q0 -92 -57.5 -139.5t-161.5 -47.5h-328v660h107v-568h207q65 0 99 22.5t34 74.5q0 47 -27.5 71.5t-76.5 26.5l37 77q76 -2 121.5 -50.5z" />
    <glyph glyph-name="Lcaron.swsh" horiz-adv-x="655" 
d="M206 733h-112l-113 167h89l80 -107l80 107h89zM599.5 313.5q45.5 -48.5 45.5 -126.5q0 -92 -57.5 -139.5t-161.5 -47.5h-328v660h107v-568h207q65 0 99 22.5t34 74.5q0 47 -27.5 71.5t-76.5 26.5l37 77q76 -2 121.5 -50.5z" />
    <glyph glyph-name="Lcommaaccent.swsh" horiz-adv-x="655" 
d="M599.5 313.5q45.5 -48.5 45.5 -126.5q0 -92 -57.5 -139.5t-161.5 -47.5h-328v660h107v-568h207q65 0 99 22.5t34 74.5q0 47 -27.5 71.5t-76.5 26.5l37 77q76 -2 121.5 -50.5zM352 -238h-77l40 167h104z" />
    <glyph glyph-name="Lslash.swsh" horiz-adv-x="689" 
d="M633 313.5q46 -48.5 46 -126.5q0 -92 -57.5 -139.5t-162.5 -47.5h-328v243l-106 -56v96l106 56v321h108v-264l175 93v-96l-175 -92v-209h206q65 0 99 22.5t34 74.5q0 47 -27.5 71.5t-76.5 26.5l37 77q76 -2 122 -50.5z" />
    <glyph glyph-name="M.swsh" horiz-adv-x="1099" 
d="M1001 660v-660h-99v382l8 182h-1l-201 -564h-90l-200 564h-2l8 -182v-303q0 -84 -53.5 -136.5t-149.5 -52.5q-150 0 -179 122l60 62q11 -52 37 -75t76 -23q52 0 81 33t29 87v481h-82q-61 0 -96 -27t-35 -79q0 -41 28.5 -69.5t75.5 -36.5l-37 -79q-72 9 -120.5 59.5
t-48.5 127.5q0 88 58.5 137.5t160.5 49.5h256l132 -382l47 -157h2l47 157l131 382h157z" />
    <glyph glyph-name="N.swsh" horiz-adv-x="885" 
d="M864 700.5q44 -31.5 59 -88.5l-61 -61q-11 51 -36.5 73t-75.5 22q-52 0 -81.5 -34t-29.5 -91v-521h-127l-255 416l-64 122h-1l4 -112v-426h-98v660h126l254 -415l65 -123h1l-4 112v309q0 84 54 136.5t150 52.5q76 0 120 -31.5z" />
    <glyph glyph-name="Nacute.swsh" horiz-adv-x="885" 
d="M403 737h-82l56 151h114zM864 700.5q44 -31.5 59 -88.5l-61 -61q-11 51 -36.5 73t-75.5 22q-52 0 -81.5 -34t-29.5 -91v-521h-127l-255 416l-64 122h-1l4 -112v-426h-98v660h126l254 -415l65 -123h1l-4 112v309q0 84 54 136.5t150 52.5q76 0 120 -31.5z" />
    <glyph glyph-name="Ncaron.swsh" horiz-adv-x="885" 
d="M314 733l-113 167h89l80 -107l80 107h89l-113 -167h-112zM864 700.5q44 -31.5 59 -88.5l-61 -61q-11 51 -36.5 73t-75.5 22q-52 0 -81.5 -34t-29.5 -91v-521h-127l-255 416l-64 122h-1l4 -112v-426h-98v660h126l254 -415l65 -123h1l-4 112v309q0 84 54 136.5t150 52.5
q76 0 120 -31.5z" />
    <glyph glyph-name="Ncommaaccent.swsh" horiz-adv-x="885" 
d="M864 700.5q44 -31.5 59 -88.5l-61 -61q-11 51 -36.5 73t-75.5 22q-52 0 -81.5 -34t-29.5 -91v-521h-127l-255 416l-64 122h-1l4 -112v-426h-98v660h126l254 -415l65 -123h1l-4 112v309q0 84 54 136.5t150 52.5q76 0 120 -31.5zM370 -238h-77l40 167h104z" />
    <glyph glyph-name="Ntilde.swsh" horiz-adv-x="885" 
d="M864 700.5q44 -31.5 59 -88.5l-61 -61q-11 51 -36.5 73t-75.5 22q-52 0 -81.5 -34t-29.5 -91v-521h-127l-255 416l-64 122h-1l4 -112v-426h-98v660h126l254 -415l65 -123h1l-4 112v309q0 84 54 136.5t150 52.5q76 0 120 -31.5zM439 736q-29 0 -48.5 10.5t-40.5 29.5
q-17 14 -26 19.5t-21 5.5q-19 0 -29.5 -16.5t-15.5 -49.5h-73q9 142 119 142q28 0 46.5 -10t41.5 -30q17 -14 26 -19.5t20 -5.5q20 0 30.5 16t15.5 49h73q-9 -141 -118 -141z" />
    <glyph glyph-name="R.swsh" horiz-adv-x="900" 
d="M574 264h-142v-183q0 -85 -55.5 -138t-153.5 -53q-77 0 -122 32t-59 92l62 60q11 -52 37 -75t76 -23t79 33.5t29 88.5v479h-82q-61 0 -96 -27t-35 -79q0 -41 28.5 -69.5t75.5 -36.5l-37 -79q-72 9 -120.5 59.5t-48.5 127.5q0 88 58.5 137.5t160.5 49.5h366
q106 0 168.5 -53t62.5 -145q0 -70 -37 -118t-104 -68l180 -276h-123zM432 353h153q66 0 98 26.5t32 81.5t-32 81.5t-98 26.5h-153v-216z" />
    <glyph glyph-name="Racute.swsh" horiz-adv-x="900" 
d="M583 737h-82l56 151h114zM574 264h-142v-183q0 -85 -55.5 -138t-153.5 -53q-77 0 -122 32t-59 92l62 60q11 -52 37 -75t76 -23t79 33.5t29 88.5v479h-82q-61 0 -96 -27t-35 -79q0 -41 28.5 -69.5t75.5 -36.5l-37 -79q-72 9 -120.5 59.5t-48.5 127.5q0 88 58.5 137.5
t160.5 49.5h366q106 0 168.5 -53t62.5 -145q0 -70 -37 -118t-104 -68l180 -276h-123zM432 353h153q66 0 98 26.5t32 81.5t-32 81.5t-98 26.5h-153v-216z" />
    <glyph glyph-name="Rcaron.swsh" horiz-adv-x="900" 
d="M495 733l-113 167h89l80 -107l80 107h89l-113 -167h-112zM574 264h-142v-183q0 -85 -55.5 -138t-153.5 -53q-77 0 -122 32t-59 92l62 60q11 -52 37 -75t76 -23t79 33.5t29 88.5v479h-82q-61 0 -96 -27t-35 -79q0 -41 28.5 -69.5t75.5 -36.5l-37 -79q-72 9 -120.5 59.5
t-48.5 127.5q0 88 58.5 137.5t160.5 49.5h366q106 0 168.5 -53t62.5 -145q0 -70 -37 -118t-104 -68l180 -276h-123zM432 353h153q66 0 98 26.5t32 81.5t-32 81.5t-98 26.5h-153v-216z" />
    <glyph glyph-name="Rcommaaccent.swsh" horiz-adv-x="900" 
d="M574 264h-142v-183q0 -85 -55.5 -138t-153.5 -53q-77 0 -122 32t-59 92l62 60q11 -52 37 -75t76 -23t79 33.5t29 88.5v479h-82q-61 0 -96 -27t-35 -79q0 -41 28.5 -69.5t75.5 -36.5l-37 -79q-72 9 -120.5 59.5t-48.5 127.5q0 88 58.5 137.5t160.5 49.5h366
q106 0 168.5 -53t62.5 -145q0 -70 -37 -118t-104 -68l180 -276h-123zM432 353h153q66 0 98 26.5t32 81.5t-32 81.5t-98 26.5h-153v-216zM570 -238h-77l40 167h104z" />
    <glyph glyph-name="S.swsh" horiz-adv-x="642" 
d="M127 -62q-69 48 -69 135q0 23 3 42l98 28q-4 -30 -4 -40q0 -61 42.5 -90.5t130.5 -29.5q78 0 118 31.5t40 91.5q0 45 -38 73.5t-136 52.5q-131 31 -186.5 81t-55.5 134q0 67 31.5 117.5t91 78t138.5 27.5q115 0 178 -48t71 -143l-101 -40q-2 72 -37 105t-111 33
q-71 0 -110 -32t-39 -91q0 -33 16.5 -56.5t55.5 -42t107 -36.5q87 -22 137 -49.5t72.5 -65.5t22.5 -93q0 -67 -33.5 -117t-95 -77t-142.5 -27q-126 0 -195 48z" />
    <glyph glyph-name="Sacute.swsh" horiz-adv-x="642" 
d="M446 888l-88 -151h-82l56 151h114zM127 -62q-69 48 -69 135q0 23 3 42l98 28q-4 -30 -4 -40q0 -61 42.5 -90.5t130.5 -29.5q78 0 118 31.5t40 91.5q0 45 -38 73.5t-136 52.5q-131 31 -186.5 81t-55.5 134q0 67 31.5 117.5t91 78t138.5 27.5q115 0 178 -48t71 -143
l-101 -40q-2 72 -37 105t-111 33q-71 0 -110 -32t-39 -91q0 -33 16.5 -56.5t55.5 -42t107 -36.5q87 -22 137 -49.5t72.5 -65.5t22.5 -93q0 -67 -33.5 -117t-95 -77t-142.5 -27q-126 0 -195 48z" />
    <glyph glyph-name="Scaron.swsh" horiz-adv-x="642" 
d="M382 733h-112l-113 167h89l80 -107l80 107h89zM127 -62q-69 48 -69 135q0 23 3 42l98 28q-4 -30 -4 -40q0 -61 42.5 -90.5t130.5 -29.5q78 0 118 31.5t40 91.5q0 45 -38 73.5t-136 52.5q-131 31 -186.5 81t-55.5 134q0 67 31.5 117.5t91 78t138.5 27.5q115 0 178 -48
t71 -143l-101 -40q-2 72 -37 105t-111 33q-71 0 -110 -32t-39 -91q0 -33 16.5 -56.5t55.5 -42t107 -36.5q87 -22 137 -49.5t72.5 -65.5t22.5 -93q0 -67 -33.5 -117t-95 -77t-142.5 -27q-126 0 -195 48z" />
    <glyph glyph-name="Scedilla.swsh" horiz-adv-x="642" 
d="M532.5 -38.5q-60.5 -58.5 -163.5 -69.5q26 -19 39.5 -44.5t13.5 -52.5q0 -48 -34 -79t-90 -31q-39 0 -66.5 9t-48.5 28l33 62q13 -13 31 -21.5t39 -8.5q24 0 40 15.5t16 40.5q0 27 -16.5 45.5t-59.5 37.5q-100 10 -154 56.5t-54 123.5q0 23 3 42l98 28q-4 -30 -4 -40
q0 -61 42.5 -90.5t130.5 -29.5q78 0 118 31.5t40 91.5q0 45 -38 73.5t-136 52.5q-131 31 -186.5 81t-55.5 134q0 67 31.5 117.5t91 78t138.5 27.5q115 0 178 -48t71 -143l-101 -40q-2 72 -37 105t-111 33q-71 0 -110 -32t-39 -91q0 -33 16.5 -56.5t55.5 -42t107 -36.5
q87 -22 137 -49.5t72.5 -65.5t22.5 -93q0 -91 -60.5 -149.5z" />
    <glyph glyph-name="Scommaaccent.swsh" horiz-adv-x="642" 
d="M127 -62q-69 48 -69 135q0 23 3 42l98 28q-4 -30 -4 -40q0 -61 42.5 -90.5t130.5 -29.5q78 0 118 31.5t40 91.5q0 45 -38 73.5t-136 52.5q-131 31 -186.5 81t-55.5 134q0 67 31.5 117.5t91 78t138.5 27.5q115 0 178 -48t71 -143l-101 -40q-2 72 -37 105t-111 33
q-71 0 -110 -32t-39 -91q0 -33 16.5 -56.5t55.5 -42t107 -36.5q87 -22 137 -49.5t72.5 -65.5t22.5 -93q0 -67 -33.5 -117t-95 -77t-142.5 -27q-126 0 -195 48zM308 -338h-77l40 167h104z" />
    <glyph glyph-name="T.swsh" horiz-adv-x="733" 
d="M704 568h-226v-568h-108v568h-125q-133 0 -133 -97q0 -42 28 -70t76 -36l-37 -79q-72 9 -120.5 60t-48.5 127q0 88 58.5 137.5t160.5 49.5h475v-92z" />
    <glyph glyph-name="Tcaron.swsh" horiz-adv-x="733" 
d="M367 733l-113 167h89l80 -107l80 107h89l-113 -167h-112zM704 568h-226v-568h-108v568h-125q-133 0 -133 -97q0 -42 28 -70t76 -36l-37 -79q-72 9 -120.5 60t-48.5 127q0 88 58.5 137.5t160.5 49.5h475v-92z" />
    <glyph glyph-name="uni0162.swsh" horiz-adv-x="733" 
d="M478 568v-565q64 -41 64 -107q0 -48 -34.5 -79.5t-90.5 -31.5q-75 0 -115 37l35 63q28 -30 68 -30q25 0 41 15t16 41q0 27 -17.5 45.5t-61.5 43.5h-13v568h-125q-133 0 -133 -97q0 -42 28 -70t76 -36l-37 -79q-72 9 -120.5 60t-48.5 127q0 88 58.5 137.5t160.5 49.5h475
v-92h-226z" />
    <glyph glyph-name="uni021A.swsh" horiz-adv-x="733" 
d="M704 568h-226v-568h-108v568h-125q-133 0 -133 -97q0 -42 28 -70t76 -36l-37 -79q-72 9 -120.5 60t-48.5 127q0 88 58.5 137.5t160.5 49.5h475v-92zM412 -238h-77l40 167h104z" />
    <glyph glyph-name="W.swsh" horiz-adv-x="1239" 
d="M1211 660l-193 -660h-126l-105 396l-33 152h-1l-33 -152l-104 -396h-127l-170 577h-75q-62 0 -97 -27t-35 -79q0 -42 28.5 -70t76.5 -36l-38 -79q-46 5 -85 29.5t-61.5 65.5t-22.5 92q0 88 58.5 137.5t160.5 49.5h182l144 -575l145 575h110l146 -576l145 576h110z" />
    <glyph glyph-name="Adieresis.titl" horiz-adv-x="665" 
d="M107 565.5q-15 15.5 -15 41.5q0 25 15.5 40t40.5 15q27 0 43 -15t16 -40q0 -26 -16 -41.5t-43 -15.5q-26 0 -41 15.5zM475.5 565.5q-15.5 15.5 -15.5 41.5q0 25 15.5 40t41.5 15t42 -15t16 -40q0 -26 -16 -41.5t-42 -15.5t-41.5 15.5zM471 173h-279l-62 -173h-111
l250 660h128l248 -660h-112zM439 260l-77 212l-30 95h-2l-28 -93l-78 -214h215z" />
    <glyph glyph-name="Odieresis.titl" horiz-adv-x="745" 
d="M537.5 629q70.5 -41 108 -118t37.5 -181t-37.5 -181t-108 -118t-165.5 -41t-165.5 41t-108 118t-37.5 181t37.5 181t108 118t165.5 41t165.5 -41zM125 646.5q16 -15.5 16 -40.5t-16 -40.5t-42 -15.5q-25 0 -41 15.5t-16 40.5t15.5 40.5t41.5 15.5t42 -15.5zM703.5 647
q15.5 -15 15.5 -40q0 -26 -15.5 -41.5t-41.5 -15.5t-42 15.5t-16 41.5q0 25 16 40t42 15t41.5 -15zM226 512q-53 -65 -53 -182t53 -182t147 -65q93 0 146 65t53 182t-53 182t-146 65q-94 0 -147 -65z" />
    <glyph glyph-name="Udieresis.titl" horiz-adv-x="718" 
d="M243 566q-16 16 -16 41t15.5 40t41.5 15t42 -15t16 -40q0 -26 -16 -41.5t-42 -15.5q-25 0 -41 16zM393 566q-16 16 -16 41t15.5 40t41.5 15t42 -15t16 -40q0 -26 -16 -41.5t-42 -15.5q-25 0 -41 16zM629 253q0 -130 -69 -196.5t-201 -66.5t-201 66.5t-69 196.5v407h108
v-394q0 -94 39.5 -138.5t122.5 -44.5t122.5 44.5t39.5 138.5v394h108v-407z" />
    <glyph glyph-name="a" unicode="a" horiz-adv-x="570" 
d="M552 74l-7 -72q-27 -12 -62 -12q-43 0 -68.5 17t-33.5 57q-23 -35 -68 -54.5t-101 -19.5q-73 0 -118 34t-45 97q0 59 49 99.5t146 57.5l127 22v27q0 46 -27 72.5t-75 26.5q-99 0 -129 -90l-83 44q18 60 73.5 95t136.5 35q97 0 154 -45t57 -132v-226q0 -19 8.5 -28
t28.5 -9q22 0 37 4zM330 97q41 26 41 69v60l-109 -22q-52 -10 -77 -28t-25 -48q0 -28 19.5 -42.5t55.5 -14.5q54 0 95 26z" />
    <glyph glyph-name="aacute" unicode="&#xe1;" horiz-adv-x="570" 
d="M552 74l-7 -72q-27 -12 -62 -12q-43 0 -68.5 17t-33.5 57q-23 -35 -68 -54.5t-101 -19.5q-73 0 -118 34t-45 97q0 59 49 99.5t146 57.5l127 22v27q0 46 -27 72.5t-75 26.5q-99 0 -129 -90l-83 44q18 60 73.5 95t136.5 35q97 0 154 -45t57 -132v-226q0 -19 8.5 -28
t28.5 -9q22 0 37 4zM330 97q41 26 41 69v60l-109 -22q-52 -10 -77 -28t-25 -48q0 -28 19.5 -42.5t55.5 -14.5q54 0 95 26zM400 746l-99 -168h-82l73 168h108z" />
    <glyph glyph-name="abreve" unicode="&#x103;" horiz-adv-x="570" 
d="M552 74l-7 -72q-27 -12 -62 -12q-43 0 -68.5 17t-33.5 57q-23 -35 -68 -54.5t-101 -19.5q-73 0 -118 34t-45 97q0 59 49 99.5t146 57.5l127 22v27q0 46 -27 72.5t-75 26.5q-99 0 -129 -90l-83 44q18 60 73.5 95t136.5 35q97 0 154 -45t57 -132v-226q0 -19 8.5 -28
t28.5 -9q22 0 37 4zM330 97q41 26 41 69v60l-109 -22q-52 -10 -77 -28t-25 -48q0 -28 19.5 -42.5t55.5 -14.5q54 0 95 26zM388 612q-42 -42 -112 -42t-112 42t-42 111h79q0 -34 21 -58t54 -24t54 24t21 58h79q0 -69 -42 -111z" />
    <glyph glyph-name="acircumflex" unicode="&#xe2;" horiz-adv-x="570" 
d="M552 74l-7 -72q-27 -12 -62 -12q-43 0 -68.5 17t-33.5 57q-23 -35 -68 -54.5t-101 -19.5q-73 0 -118 34t-45 97q0 59 49 99.5t146 57.5l127 22v27q0 46 -27 72.5t-75 26.5q-99 0 -129 -90l-83 44q18 60 73.5 95t136.5 35q97 0 154 -45t57 -132v-226q0 -19 8.5 -28
t28.5 -9q22 0 37 4zM330 97q41 26 41 69v60l-109 -22q-52 -10 -77 -28t-25 -48q0 -28 19.5 -42.5t55.5 -14.5q54 0 95 26zM356 571l-80 104l-80 -104h-88l111 169h114l111 -169h-88z" />
    <glyph glyph-name="adieresis" unicode="&#xe4;" horiz-adv-x="570" 
d="M552 74l-7 -72q-27 -12 -62 -12q-43 0 -68.5 17t-33.5 57q-23 -35 -68 -54.5t-101 -19.5q-73 0 -118 34t-45 97q0 59 49 99.5t146 57.5l127 22v27q0 46 -27 72.5t-75 26.5q-99 0 -129 -90l-83 44q18 60 73.5 95t136.5 35q97 0 154 -45t57 -132v-226q0 -19 8.5 -28
t28.5 -9q22 0 37 4zM330 97q41 26 41 69v60l-109 -22q-52 -10 -77 -28t-25 -48q0 -28 19.5 -42.5t55.5 -14.5q54 0 95 26zM223 683q18 -17 18 -46t-18 -46t-48 -17q-29 0 -47 17.5t-18 45.5q0 29 18 46t47 17q30 0 48 -17zM425 683q18 -17 18 -46t-18 -46t-48 -17t-47.5 17
t-17.5 46t17.5 46t47.5 17t48 -17z" />
    <glyph glyph-name="agrave" unicode="&#xe0;" horiz-adv-x="570" 
d="M552 74l-7 -72q-27 -12 -62 -12q-43 0 -68.5 17t-33.5 57q-23 -35 -68 -54.5t-101 -19.5q-73 0 -118 34t-45 97q0 59 49 99.5t146 57.5l127 22v27q0 46 -27 72.5t-75 26.5q-99 0 -129 -90l-83 44q18 60 73.5 95t136.5 35q97 0 154 -45t57 -132v-226q0 -19 8.5 -28
t28.5 -9q22 0 37 4zM330 97q41 26 41 69v60l-109 -22q-52 -10 -77 -28t-25 -48q0 -28 19.5 -42.5t55.5 -14.5q54 0 95 26zM325 578h-82l-99 168h108z" />
    <glyph glyph-name="amacron" unicode="&#x101;" horiz-adv-x="570" 
d="M552 74l-7 -72q-27 -12 -62 -12q-43 0 -68.5 17t-33.5 57q-23 -35 -68 -54.5t-101 -19.5q-73 0 -118 34t-45 97q0 59 49 99.5t146 57.5l127 22v27q0 46 -27 72.5t-75 26.5q-99 0 -129 -90l-83 44q18 60 73.5 95t136.5 35q97 0 154 -45t57 -132v-226q0 -19 8.5 -28
t28.5 -9q22 0 37 4zM330 97q41 26 41 69v60l-109 -22q-52 -10 -77 -28t-25 -48q0 -28 19.5 -42.5t55.5 -14.5q54 0 95 26zM454 588h-356v78h356v-78z" />
    <glyph glyph-name="aogonek" unicode="&#x105;" horiz-adv-x="570" 
d="M534 -135l18 -61q-32 -19 -85 -19q-56 0 -89.5 27t-33.5 74q0 78 93 121q-40 18 -52 65q-21 -39 -67.5 -60.5t-105.5 -21.5q-73 0 -118 34t-45 97q0 59 49 99.5t146 57.5l127 22v27q0 46 -27 72.5t-75 26.5q-99 0 -129 -90l-83 44q18 60 73.5 95t136.5 35q97 0 154 -45
t57 -132v-226q0 -19 8.5 -28t28.5 -9q22 0 37 4l-7 -72q-66 -19 -93 -42.5t-27 -55.5q0 -24 14.5 -37.5t41.5 -13.5q35 0 53 12zM330 97q41 26 41 69v60l-109 -22q-52 -11 -77 -29t-25 -47q0 -28 19.5 -42.5t55.5 -14.5q54 0 95 26z" />
    <glyph glyph-name="aring" unicode="&#xe5;" horiz-adv-x="570" 
d="M552 74l-7 -72q-27 -12 -62 -12q-43 0 -68.5 17t-33.5 57q-23 -35 -68 -54.5t-101 -19.5q-73 0 -118 34t-45 97q0 59 49 99.5t146 57.5l127 22v27q0 46 -27 72.5t-75 26.5q-99 0 -129 -90l-83 44q18 60 73.5 95t136.5 35q97 0 154 -45t57 -132v-226q0 -19 8.5 -28
t28.5 -9q22 0 37 4zM330 97q41 26 41 69v60l-109 -22q-52 -10 -77 -28t-25 -48q0 -28 19.5 -42.5t55.5 -14.5q54 0 95 26zM367.5 773.5q34.5 -32.5 34.5 -85.5q0 -55 -34.5 -87.5t-92.5 -32.5q-59 0 -94 32.5t-35 87.5q0 53 35.5 85.5t93.5 32.5t92.5 -32.5zM227.5 733.5
q-18.5 -17.5 -18.5 -45.5t18.5 -46t47.5 -18t47 18t18 46t-18 45.5t-47 17.5t-47.5 -17.5z" />
    <glyph glyph-name="atilde" unicode="&#xe3;" horiz-adv-x="570" 
d="M552 74l-7 -72q-27 -12 -62 -12q-43 0 -68.5 17t-33.5 57q-23 -35 -68 -54.5t-101 -19.5q-73 0 -118 34t-45 97q0 59 49 99.5t146 57.5l127 22v27q0 46 -27 72.5t-75 26.5q-99 0 -129 -90l-83 44q18 60 73.5 95t136.5 35q97 0 154 -45t57 -132v-226q0 -19 8.5 -28
t28.5 -9q22 0 37 4zM330 97q41 26 41 69v60l-109 -22q-52 -10 -77 -28t-25 -48q0 -28 19.5 -42.5t55.5 -14.5q54 0 95 26zM343 576q-29 0 -48.5 10.5t-40.5 29.5q-17 14 -26 19.5t-21 5.5q-19 0 -29.5 -16.5t-15.5 -49.5h-73q9 142 119 142q28 0 46.5 -10t41.5 -30
q17 -14 26 -19.5t20 -5.5q20 0 30.5 16t15.5 49h73q-9 -141 -118 -141z" />
    <glyph glyph-name="ae" unicode="&#xe6;" horiz-adv-x="883" 
d="M826 214h-346q7 -66 44 -102.5t92 -36.5q48 0 76 17t40 51l88 -37q-27 -58 -76 -87t-130 -29q-66 0 -114.5 27t-74.5 82q-23 -54 -79 -81.5t-134 -27.5q-75 0 -119 35.5t-44 95.5q0 59 47 98t139 54l142 22v32q0 46 -28.5 72.5t-80.5 26.5q-46 0 -78.5 -22.5t-48.5 -66.5
l-83 41q19 62 75 97t139 35q59 0 101.5 -23t66.5 -68q28 44 71 67.5t98 23.5q107 0 164 -66t57 -170q0 -30 -4 -60zM523 390.5q-34 -34.5 -43 -99.5h251q-13 134 -120 134q-54 0 -88 -34.5zM336 103.5q41 32.5 41 87.5v34l-111 -21q-57 -11 -81.5 -28t-24.5 -48
q0 -57 79 -57q56 0 97 32.5z" />
    <glyph glyph-name="b" unicode="b" horiz-adv-x="629" 
d="M514 440.5q59 -69.5 59 -191.5t-59 -190.5t-162 -68.5q-59 0 -103.5 28t-66.5 75l-5 -93h-94v725h107v-305q23 42 65.5 66t96.5 24q103 0 162 -69.5zM429.5 122q36.5 46 36.5 128t-36.5 127.5t-101.5 45.5q-61 0 -97.5 -41t-40.5 -113v-38q4 -73 40.5 -114t97.5 -41
q65 0 101.5 46z" />
    <glyph glyph-name="c" unicode="c" horiz-adv-x="566" 
d="M520 370l-100 -40q-26 95 -117 95q-67 0 -104 -46t-37 -130t37 -129t104 -45q51 0 82 25t41 72l98 -33q-22 -70 -78 -109.5t-141 -39.5q-118 0 -184.5 69t-66.5 191t66 191t183 69q164 0 217 -140z" />
    <glyph glyph-name="cacute" unicode="&#x107;" horiz-adv-x="566" 
d="M520 370l-100 -40q-26 95 -117 95q-67 0 -104 -46t-37 -130t37 -129t104 -45q51 0 82 25t41 72l98 -33q-22 -70 -78 -109.5t-141 -39.5q-118 0 -184.5 69t-66.5 191t66 191t183 69q164 0 217 -140zM420 746l-99 -168h-82l73 168h108z" />
    <glyph glyph-name="ccaron" unicode="&#x10d;" horiz-adv-x="566" 
d="M520 370l-100 -40q-26 95 -117 95q-67 0 -104 -46t-37 -130t37 -129t104 -45q51 0 82 25t41 72l98 -33q-22 -70 -78 -109.5t-141 -39.5q-118 0 -184.5 69t-66.5 191t66 191t183 69q164 0 217 -140zM352 578h-114l-111 168h88l80 -103l80 103h88z" />
    <glyph glyph-name="ccedilla" unicode="&#xe7;" horiz-adv-x="566" 
d="M464.5 43.5q-41.5 -37.5 -104.5 -48.5q27 -20 41.5 -46t14.5 -54q0 -48 -34 -79t-90 -31q-39 0 -66.5 9t-48.5 28l33 62q13 -13 31 -21.5t39 -8.5q24 0 40 15.5t16 40.5q0 27 -16.5 45.5t-59.5 37.5q-98 13 -152 80t-54 177q0 122 66 191t183 69q164 0 217 -140l-100 -40
q-26 95 -117 95q-67 0 -104 -46t-37 -130t37 -129t104 -45q51 0 82 25t41 72l98 -33q-18 -58 -59.5 -95.5z" />
    <glyph glyph-name="d" unicode="d" horiz-adv-x="629" 
d="M546 725v-725h-94l-6 89q-22 -45 -66.5 -72t-101.5 -27q-103 0 -162.5 68.5t-59.5 190.5t59.5 191.5t162.5 69.5q55 0 97 -24.5t64 -66.5v306h107zM402 121q37 45 37 123v12q0 78 -37 122.5t-100 44.5q-65 0 -101.5 -45.5t-36.5 -127.5t36.5 -128t101.5 -46q63 0 100 45z
" />
    <glyph glyph-name="eth" unicode="&#xf0;" horiz-adv-x="615" 
d="M457 608q94 -127 94 -315q0 -144 -63.5 -223.5t-191.5 -79.5q-111 0 -175.5 66t-64.5 183q0 76 30.5 132.5t84 86.5t122.5 30q110 0 161 -70q-22 100 -79 171l-180 -44l-10 51l154 31q-50 48 -143 101h125q61 -36 104 -82l112 31l15 -52zM409 122q39 47 39 117
q0 80 -37 123t-104 43q-68 0 -105 -43t-37 -123q0 -78 36.5 -121t101.5 -43q67 0 106 47z" />
    <glyph glyph-name="dcaron" unicode="&#x10f;" horiz-adv-x="663" 
d="M710 725l-44 -210h-68l20 210h92zM439 725h107v-725h-94l-6 89q-22 -45 -66.5 -72t-101.5 -27q-103 0 -162.5 68.5t-59.5 190.5t59.5 191.5t162.5 69.5q55 0 97 -24.5t64 -66.5v306zM402 121q37 45 37 123v12q0 78 -37 122.5t-100 44.5q-65 0 -101.5 -45.5t-36.5 -127.5
t36.5 -128t101.5 -46q63 0 100 45z" />
    <glyph glyph-name="dcroat" unicode="&#x111;" horiz-adv-x="629" 
d="M623 558h-77v-558h-94l-6 89q-22 -45 -66.5 -72t-101.5 -27q-103 0 -162.5 68.5t-59.5 190.5t59.5 191.5t162.5 69.5q55 0 97 -24.5t64 -66.5v139h-149v71h149v96h107v-96h77v-71zM402 121q37 45 37 123v12q0 78 -37 122.5t-100 44.5q-65 0 -101.5 -45.5t-36.5 -127.5
t36.5 -128t101.5 -46q63 0 100 45z" />
    <glyph glyph-name="e" unicode="e" horiz-adv-x="581" 
d="M526 210h-366q9 -66 47 -100.5t98 -34.5q49 0 81.5 17.5t44.5 50.5l89 -37q-56 -116 -215 -116q-118 0 -184.5 69t-66.5 191q0 123 64 191.5t180 68.5q110 0 171 -67t61 -178q0 -29 -4 -55zM204.5 391q-35.5 -34 -44.5 -99h270q-8 63 -42.5 98t-89.5 35q-58 0 -93.5 -34z
" />
    <glyph glyph-name="eacute" unicode="&#xe9;" horiz-adv-x="581" 
d="M526 210h-366q9 -66 47 -100.5t98 -34.5q49 0 81.5 17.5t44.5 50.5l89 -37q-56 -116 -215 -116q-118 0 -184.5 69t-66.5 191q0 123 64 191.5t180 68.5q110 0 171 -67t61 -178q0 -29 -4 -55zM204.5 391q-35.5 -34 -44.5 -99h270q-8 63 -42.5 98t-89.5 35q-58 0 -93.5 -34z
M419 746l-99 -168h-82l73 168h108z" />
    <glyph glyph-name="ecaron" unicode="&#x11b;" horiz-adv-x="581" 
d="M526 210h-366q9 -66 47 -100.5t98 -34.5q49 0 81.5 17.5t44.5 50.5l89 -37q-56 -116 -215 -116q-118 0 -184.5 69t-66.5 191q0 123 64 191.5t180 68.5q110 0 171 -67t61 -178q0 -29 -4 -55zM204.5 391q-35.5 -34 -44.5 -99h270q-8 63 -42.5 98t-89.5 35q-58 0 -93.5 -34z
M351 578h-114l-111 168h88l80 -103l80 103h88z" />
    <glyph glyph-name="ecircumflex" unicode="&#xea;" horiz-adv-x="581" 
d="M526 210h-366q9 -66 47 -100.5t98 -34.5q49 0 81.5 17.5t44.5 50.5l89 -37q-56 -116 -215 -116q-118 0 -184.5 69t-66.5 191q0 123 64 191.5t180 68.5q110 0 171 -67t61 -178q0 -29 -4 -55zM204.5 391q-35.5 -34 -44.5 -99h270q-8 63 -42.5 98t-89.5 35q-58 0 -93.5 -34z
M375 571l-80 104l-80 -104h-88l111 169h114l111 -169h-88z" />
    <glyph glyph-name="edieresis" unicode="&#xeb;" horiz-adv-x="581" 
d="M526 210h-366q9 -66 47 -100.5t98 -34.5q49 0 81.5 17.5t44.5 50.5l89 -37q-56 -116 -215 -116q-118 0 -184.5 69t-66.5 191q0 123 64 191.5t180 68.5q110 0 171 -67t61 -178q0 -29 -4 -55zM204.5 391q-35.5 -34 -44.5 -99h270q-8 63 -42.5 98t-89.5 35q-58 0 -93.5 -34z
M242 683q18 -17 18 -46t-18 -46t-48 -17q-29 0 -47 17.5t-18 45.5q0 29 18 46t47 17q30 0 48 -17zM444 683q18 -17 18 -46t-18 -46t-48 -17t-47.5 17t-17.5 46t17.5 46t47.5 17t48 -17z" />
    <glyph glyph-name="edotaccent" unicode="&#x117;" horiz-adv-x="581" 
d="M526 210h-366q9 -66 47 -100.5t98 -34.5q49 0 81.5 17.5t44.5 50.5l89 -37q-56 -116 -215 -116q-118 0 -184.5 69t-66.5 191q0 123 64 191.5t180 68.5q110 0 171 -67t61 -178q0 -29 -4 -55zM204.5 391q-35.5 -34 -44.5 -99h270q-8 63 -42.5 98t-89.5 35q-58 0 -93.5 -34z
M346 700.5q19 -17.5 19 -48.5t-19 -48.5t-51 -17.5t-50.5 17.5t-18.5 48.5t18.5 48.5t50.5 17.5t51 -17.5z" />
    <glyph glyph-name="egrave" unicode="&#xe8;" horiz-adv-x="581" 
d="M526 210h-366q9 -66 47 -100.5t98 -34.5q49 0 81.5 17.5t44.5 50.5l89 -37q-56 -116 -215 -116q-118 0 -184.5 69t-66.5 191q0 123 64 191.5t180 68.5q110 0 171 -67t61 -178q0 -29 -4 -55zM204.5 391q-35.5 -34 -44.5 -99h270q-8 63 -42.5 98t-89.5 35q-58 0 -93.5 -34z
M344 578h-82l-99 168h108z" />
    <glyph glyph-name="emacron" unicode="&#x113;" horiz-adv-x="581" 
d="M526 210h-366q9 -66 47 -100.5t98 -34.5q49 0 81.5 17.5t44.5 50.5l89 -37q-56 -116 -215 -116q-118 0 -184.5 69t-66.5 191q0 123 64 191.5t180 68.5q110 0 171 -67t61 -178q0 -29 -4 -55zM204.5 391q-35.5 -34 -44.5 -99h270q-8 63 -42.5 98t-89.5 35q-58 0 -93.5 -34z
M473 588h-356v78h356v-78z" />
    <glyph glyph-name="eogonek" unicode="&#x119;" horiz-adv-x="581" 
d="M526 210h-366q9 -66 47 -100.5t98 -34.5q49 0 81.5 17.5t44.5 50.5l89 -37q-39 -79 -124 -104q-43 -26 -63 -48.5t-20 -46.5q0 -25 16.5 -39t44.5 -14q34 0 52 11l18 -61q-32 -19 -88 -19t-90.5 28.5t-34.5 76.5q0 57 56 100q-110 6 -171.5 74t-61.5 186q0 123 64 191.5
t180 68.5q110 0 171 -67t61 -178q0 -29 -4 -55zM204.5 391q-35.5 -34 -44.5 -99h270q-8 63 -42.5 98t-89.5 35q-58 0 -93.5 -34z" />
    <glyph glyph-name="f" unicode="f" horiz-adv-x="400" 
d="M225 500h162v-84h-159v-416h-107v416h-94v84h94v72q0 76 46 118t129 42q30 0 55 -6.5t39 -17.5l-20 -78q-23 15 -57 15q-88 0 -88 -81v-64z" />
    <glyph glyph-name="g" unicode="g" horiz-adv-x="554" 
d="M492 44q42 -34 42 -94q0 -51 -33.5 -88t-92 -57t-131.5 -20q-119 0 -178.5 35t-59.5 93q0 34 23.5 59.5t65.5 36.5q-32 15 -51 38.5t-19 56.5q0 73 78 100q-38 22 -57.5 57t-19.5 80q0 50 27 88.5t76.5 59.5t113.5 21q55 0 101 -16q14 55 50.5 83.5t96.5 27.5l18 -83
q-48 1 -77.5 -12t-40.5 -39q33 -23 51 -56t18 -74q0 -77 -59.5 -123t-157.5 -46q-46 0 -83 9q-25 -6 -36.5 -19.5t-11.5 -35.5q0 -23 16.5 -35.5t45.5 -12.5h167q76 0 118 -34zM199 408.5q-31 -26.5 -31 -67.5q0 -42 31 -68.5t77 -26.5q47 0 77.5 26.5t30.5 68.5t-30.5 68
t-77.5 26q-46 0 -77 -26.5zM401 -114q41 21 41 52q0 25 -20 38t-67 13h-135q-45 0 -67.5 -14t-22.5 -39q0 -34 39.5 -52.5t117.5 -18.5q73 0 114 21z" />
    <glyph glyph-name="gbreve" unicode="&#x11f;" horiz-adv-x="540" 
d="M167 612q-42 42 -42 111h79q0 -34 21 -58t54 -24t54 24t21 58h79q0 -69 -42 -111t-112 -42t-112 42zM437 454q48 -45 48 -113q0 -50 -27 -88.5t-76.5 -59.5t-113.5 -21q-47 0 -83 9q-26 -6 -37.5 -19.5t-11.5 -35.5q0 -23 17 -35.5t45 -12.5h168q76 0 118 -34t42 -94
q0 -51 -33.5 -88t-92 -57t-131.5 -20q-119 0 -178.5 35t-59.5 93q0 34 23.5 59.5t65.5 36.5q-32 15 -51 38.5t-19 56.5q0 37 21 62t57 38q-38 22 -57.5 57t-19.5 80q0 77 59.5 123t157.5 46q67 0 118 -23q7 53 46 85.5t94 32.5l18 -83q-98 2 -107 -68zM344.5 272.5
q30.5 26.5 30.5 68.5t-30.5 68t-76.5 26q-47 0 -77.5 -26t-30.5 -68t30.5 -68.5t77.5 -26.5q46 0 76.5 26.5zM211 -11q-44 0 -66.5 -14t-22.5 -39q0 -34 39.5 -52.5t117.5 -18.5q73 0 114 21t41 52q0 25 -20 38t-68 13h-135z" />
    <glyph glyph-name="h" unicode="h" horiz-adv-x="619" 
d="M487.5 462q52.5 -48 52.5 -138v-324h-107v290q0 132 -107 132q-56 0 -96 -39t-40 -119v-264h-107v725h107v-305q25 46 66.5 68t95.5 22q83 0 135.5 -48z" />
    <glyph glyph-name="i" unicode="i" horiz-adv-x="274" 
d="M84 601.5q-19 17.5 -19 49.5t19 49t53 17t52.5 -17t18.5 -49t-18.5 -49.5t-52.5 -17.5t-53 17.5zM190 0h-107v500h107v-500z" />
    <glyph glyph-name="dotlessi" unicode="&#x131;" horiz-adv-x="274" 
d="M190 0h-107v500h107v-500z" />
    <glyph glyph-name="iacute" unicode="&#xed;" horiz-adv-x="274" 
d="M190 0h-107v500h107v-500zM269 746l-99 -168h-82l73 168h108z" />
    <glyph glyph-name="icircumflex" unicode="&#xee;" horiz-adv-x="274" 
d="M190 0h-107v500h107v-500zM217 571l-80 104l-80 -104h-88l111 169h114l111 -169h-88z" />
    <glyph glyph-name="idieresis" unicode="&#xef;" horiz-adv-x="274" 
d="M5.5 591q-17.5 17 -17.5 46t17.5 46.5t46.5 17.5q30 0 47.5 -17.5t17.5 -46.5t-17.5 -46t-47.5 -17q-29 0 -46.5 17zM174 591q-17 17 -17 46q0 30 17.5 47t47.5 17q29 0 46.5 -17.5t17.5 -46.5t-17.5 -46t-46.5 -17q-31 0 -48 17zM190 0h-107v500h107v-500z" />
    <glyph glyph-name="i.loclTRK" horiz-adv-x="274" 
d="M84 601.5q-19 17.5 -19 49.5t19 49t53 17t52.5 -17t18.5 -49t-18.5 -49.5t-52.5 -17.5t-53 17.5zM190 0h-107v500h107v-500z" />
    <glyph glyph-name="igrave" unicode="&#xec;" horiz-adv-x="274" 
d="M190 0h-107v500h107v-500zM186 578h-82l-99 168h108z" />
    <glyph glyph-name="ij" unicode="&#x133;" horiz-adv-x="547" 
d="M84 601.5q-19 17.5 -19 49.5t19 49t53 17t52.5 -17t18.5 -49t-18.5 -49.5t-52.5 -17.5t-53 17.5zM190 0h-107v500h107v-500zM462.5 699q19.5 -18 19.5 -48t-19.5 -48.5t-51.5 -18.5q-33 0 -52.5 18.5t-19.5 48.5t19.5 48t52.5 18q32 0 51.5 -18zM464 -44
q0 -89 -46.5 -130t-117.5 -41q-65 0 -110 33l19 86q34 -28 77 -28q34 0 52.5 21t18.5 69v534h107v-544z" />
    <glyph glyph-name="imacron" unicode="&#x12b;" horiz-adv-x="274" 
d="M256 588h-238v78h238v-78zM190 0h-107v500h107v-500z" />
    <glyph glyph-name="iogonek" unicode="&#x12f;" horiz-adv-x="274" 
d="M84 601.5q-19 17.5 -19 49.5t19 49t53 17t52.5 -17t18.5 -49t-18.5 -49.5t-52.5 -17.5t-53 17.5zM220 -193q-34 -22 -91 -22q-56 0 -89 27t-33 75q0 68 81 113h-5v500h107v-500q-56 -26 -78.5 -49t-22.5 -50q0 -22 14 -35t41 -13q34 0 56 13z" />
    <glyph glyph-name="j" unicode="j" horiz-adv-x="273" 
d="M188.5 699q19.5 -18 19.5 -48t-19.5 -48.5t-51.5 -18.5q-33 0 -52.5 18.5t-19.5 48.5t19.5 48t52.5 18q32 0 51.5 -18zM190 -44q0 -89 -46.5 -130t-117.5 -41q-65 0 -110 33l19 86q34 -28 77 -28q34 0 52.5 21t18.5 69v534h107v-544z" />
    <glyph glyph-name="k" unicode="k" horiz-adv-x="583" 
d="M289 235l-99 -102v-133h-107v725h107v-470l239 245h126l-191 -196l203 -304h-124z" />
    <glyph glyph-name="l" unicode="l" horiz-adv-x="312" 
d="M187 146q0 -37 11 -51.5t41 -14.5q19 0 32.5 2.5t33.5 10.5l-12 -86q-34 -17 -83 -17q-67 0 -98.5 34t-31.5 107v594h107v-579z" />
    <glyph glyph-name="lacute" unicode="&#x13a;" horiz-adv-x="320" 
d="M237 927l-66 -137h-82l41 137h107zM187 146q0 -37 11 -51.5t41 -14.5q19 0 32.5 2.5t33.5 10.5l-12 -86q-34 -17 -83 -17q-67 0 -98.5 34t-31.5 107v594h107v-579z" />
    <glyph glyph-name="lcaron" unicode="&#x13e;" horiz-adv-x="338" 
d="M306 515h-68l20 210h92zM187 146q0 -37 11 -51.5t41 -14.5q19 0 32.5 2.5t33.5 10.5l-12 -86q-34 -17 -83 -17q-67 0 -98.5 34t-31.5 107v594h107v-579z" />
    <glyph glyph-name="ldot" unicode="&#x140;" horiz-adv-x="434" 
d="M187 146q0 -37 11 -51.5t41 -14.5q19 0 32.5 2.5t33.5 10.5l-12 -86q-34 -17 -83 -17q-67 0 -98.5 34t-31.5 107v594h107v-579zM407 407.5q20 -19.5 20 -53.5q0 -33 -20.5 -52.5t-54.5 -19.5q-35 0 -55.5 19.5t-20.5 52.5q0 34 20.5 53.5t55.5 19.5t55 -19.5z" />
    <glyph glyph-name="lslash" unicode="&#x142;" horiz-adv-x="379" 
d="M316.5 83q14.5 3 33.5 10l-13 -86q-32 -17 -83 -17q-66 0 -97.5 34t-31.5 107v143l-93 -60v95l93 55v361h107v-296l115 74v-95l-115 -68v-194q0 -37 11 -51.5t40 -14.5q19 0 33.5 3z" />
    <glyph glyph-name="m" unicode="m" horiz-adv-x="949" 
d="M778 489.5q42 -20.5 67 -62.5t25 -103v-324h-107v307q0 59 -28 87t-75 28q-55 0 -92.5 -40t-37.5 -110v-272h-107v307q0 59 -28 87t-75 28q-32 0 -62 -16.5t-49 -51.5t-19 -88v-266h-107v500h95l5 -83q25 46 68 69.5t94 23.5q56 0 101.5 -25.5t67.5 -74.5
q23 49 70.5 74.5t101.5 25.5q50 0 92 -20.5z" />
    <glyph glyph-name="n" unicode="n" horiz-adv-x="619" 
d="M487.5 462q52.5 -48 52.5 -138v-324h-107v290q0 132 -107 132q-56 0 -96 -38.5t-40 -118.5v-265h-107v500h95l5 -83q25 47 69 70t100 23q83 0 135.5 -48z" />
    <glyph glyph-name="nacute" unicode="&#x144;" horiz-adv-x="619" 
d="M487.5 462q52.5 -48 52.5 -138v-324h-107v290q0 132 -107 132q-56 0 -96 -38.5t-40 -118.5v-265h-107v500h95l5 -83q25 47 69 70t100 23q83 0 135.5 -48zM440 746l-99 -168h-82l73 168h108z" />
    <glyph glyph-name="ncaron" unicode="&#x148;" horiz-adv-x="619" 
d="M487.5 462q52.5 -48 52.5 -138v-324h-107v290q0 132 -107 132q-56 0 -96 -38.5t-40 -118.5v-265h-107v500h95l5 -83q25 47 69 70t100 23q83 0 135.5 -48zM372 578h-114l-111 168h88l80 -103l80 103h88z" />
    <glyph glyph-name="ntilde" unicode="&#xf1;" horiz-adv-x="619" 
d="M487.5 462q52.5 -48 52.5 -138v-324h-107v290q0 132 -107 132q-56 0 -96 -38.5t-40 -118.5v-265h-107v500h95l5 -83q25 47 69 70t100 23q83 0 135.5 -48zM384 576q-29 0 -48.5 10.5t-40.5 29.5q-17 14 -26 19.5t-21 5.5q-19 0 -29.5 -16.5t-15.5 -49.5h-73q9 142 119 142
q28 0 46.5 -10t41.5 -30q17 -14 26 -19.5t20 -5.5q20 0 30.5 16t15.5 49h73q-9 -141 -118 -141z" />
    <glyph glyph-name="o" unicode="o" horiz-adv-x="606" 
d="M486 441q66 -69 66 -191t-66 -191t-183 -69t-183 69t-66 191t66 191t183 69t183 -69zM198.5 380.5q-36.5 -45.5 -36.5 -130.5t36.5 -130.5t104.5 -45.5t105 46t37 130t-37 130t-105 46t-104.5 -45.5z" />
    <glyph glyph-name="oacute" unicode="&#xf3;" horiz-adv-x="606" 
d="M486 441q66 -69 66 -191t-66 -191t-183 -69t-183 69t-66 191t66 191t183 69t183 -69zM198.5 380.5q-36.5 -45.5 -36.5 -130.5t36.5 -130.5t104.5 -45.5t105 46t37 130t-37 130t-105 46t-104.5 -45.5zM427 746l-99 -168h-82l73 168h108z" />
    <glyph glyph-name="ocircumflex" unicode="&#xf4;" horiz-adv-x="606" 
d="M486 441q66 -69 66 -191t-66 -191t-183 -69t-183 69t-66 191t66 191t183 69t183 -69zM198.5 380.5q-36.5 -45.5 -36.5 -130.5t36.5 -130.5t104.5 -45.5t105 46t37 130t-37 130t-105 46t-104.5 -45.5zM383 571l-80 104l-80 -104h-88l111 169h114l111 -169h-88z" />
    <glyph glyph-name="odieresis" unicode="&#xf6;" horiz-adv-x="606" 
d="M486 441q66 -69 66 -191t-66 -191t-183 -69t-183 69t-66 191t66 191t183 69t183 -69zM198.5 380.5q-36.5 -45.5 -36.5 -130.5t36.5 -130.5t104.5 -45.5t105 46t37 130t-37 130t-105 46t-104.5 -45.5zM250 683q18 -17 18 -46t-18 -46t-48 -17q-29 0 -47 17.5t-18 45.5
q0 29 18 46t47 17q30 0 48 -17zM452 683q18 -17 18 -46t-18 -46t-48 -17t-47.5 17t-17.5 46t17.5 46t47.5 17t48 -17z" />
    <glyph glyph-name="ograve" unicode="&#xf2;" horiz-adv-x="606" 
d="M486 441q66 -69 66 -191t-66 -191t-183 -69t-183 69t-66 191t66 191t183 69t183 -69zM198.5 380.5q-36.5 -45.5 -36.5 -130.5t36.5 -130.5t104.5 -45.5t105 46t37 130t-37 130t-105 46t-104.5 -45.5zM352 578h-82l-99 168h108z" />
    <glyph glyph-name="ohungarumlaut" unicode="&#x151;" horiz-adv-x="606" 
d="M486 441q66 -69 66 -191t-66 -191t-183 -69t-183 69t-66 191t66 191t183 69t183 -69zM198.5 380.5q-36.5 -45.5 -36.5 -130.5t36.5 -130.5t104.5 -45.5t105 46t37 130t-37 130t-105 46t-104.5 -45.5zM232 578h-81l74 168h104zM418 578h-80l74 168h103z" />
    <glyph glyph-name="omacron" unicode="&#x14d;" horiz-adv-x="606" 
d="M486 441q66 -69 66 -191t-66 -191t-183 -69t-183 69t-66 191t66 191t183 69t183 -69zM198.5 380.5q-36.5 -45.5 -36.5 -130.5t36.5 -130.5t104.5 -45.5t105 46t37 130t-37 130t-105 46t-104.5 -45.5zM481 588h-356v78h356v-78z" />
    <glyph glyph-name="oslash" unicode="&#xf8;" horiz-adv-x="607" 
d="M448 472l39 50h67l-66 -84q64 -69 64 -188q0 -122 -66 -191t-183 -69q-79 0 -135 32l-43 -56h-67l67 88q-71 69 -71 196q0 122 66 191t183 69q86 0 145 -38zM192 136l32 45l164 217q-34 28 -85 28q-68 0 -104.5 -45.5t-36.5 -130.5q0 -70 29 -114h1zM408 120
q37 46 37 130q0 61 -25 103h-1l-29 -40l-163 -217q31 -22 76 -22q68 0 105 46z" />
    <glyph glyph-name="otilde" unicode="&#xf5;" horiz-adv-x="606" 
d="M486 441q66 -69 66 -191t-66 -191t-183 -69t-183 69t-66 191t66 191t183 69t183 -69zM198.5 380.5q-36.5 -45.5 -36.5 -130.5t36.5 -130.5t104.5 -45.5t105 46t37 130t-37 130t-105 46t-104.5 -45.5zM370 576q-29 0 -48.5 10.5t-40.5 29.5q-17 14 -26 19.5t-21 5.5
q-19 0 -29.5 -16.5t-15.5 -49.5h-73q9 142 119 142q28 0 46.5 -10t41.5 -30q17 -14 26 -19.5t20 -5.5q20 0 30.5 16t15.5 49h73q-9 -141 -118 -141z" />
    <glyph glyph-name="oe" unicode="&#x153;" horiz-adv-x="978" 
d="M921 217h-366q7 -68 45.5 -105t100.5 -37q50 0 82.5 17.5t44.5 50.5l88 -37q-56 -116 -215 -116q-68 0 -118 27t-79 78q-30 -51 -81 -78t-120 -27q-116 0 -182.5 69t-66.5 191t66.5 191t182.5 69q69 0 119.5 -26.5t80.5 -77.5q28 51 76.5 77.5t114.5 26.5q73 0 125.5 -31
t79.5 -84.5t27 -120.5q0 -34 -5 -57zM600 391q-35 -34 -44 -100h267q-8 64 -40.5 99t-88.5 35q-59 0 -94 -34zM410 120.5q37 45.5 37 129.5t-37 129.5t-104 45.5q-68 0 -105 -45.5t-37 -129.5t37 -129.5t105 -45.5q67 0 104 45.5z" />
    <glyph glyph-name="p" unicode="p" horiz-adv-x="629" 
d="M514 441.5q59 -68.5 59 -190.5t-59 -191.5t-162 -69.5q-54 0 -96.5 24t-65.5 66v-290h-107v710h94l5 -93q22 47 66.5 75t103.5 28q103 0 162 -68.5zM429.5 122.5q36.5 45.5 36.5 127.5t-36.5 128t-101.5 46q-61 0 -97.5 -41t-40.5 -114v-38q4 -72 40.5 -113t97.5 -41
q65 0 101.5 45.5z" />
    <glyph glyph-name="thorn" unicode="&#xfe;" horiz-adv-x="629" 
d="M513 442q60 -68 60 -191q0 -84 -28.5 -143t-78 -88.5t-114.5 -29.5q-54 0 -95.5 21.5t-66.5 59.5v-281h-107v935h107v-299q24 39 66 61.5t97 22.5q100 0 160 -68zM429.5 122.5q36.5 45.5 36.5 127.5t-36.5 128t-101.5 46q-63 0 -100.5 -45t-37.5 -123v-12
q0 -78 37.5 -122.5t100.5 -44.5q65 0 101.5 45.5z" />
    <glyph glyph-name="q" unicode="q" horiz-adv-x="630" 
d="M547 500v-710h-107v291q-23 -42 -65 -66.5t-96 -24.5q-103 0 -162.5 69.5t-59.5 191.5t59 190.5t162 68.5q59 0 103.5 -27.5t66.5 -74.5l5 92h94zM402.5 121.5q37.5 44.5 37.5 122.5v12q0 78 -37.5 123t-100.5 45q-65 0 -101.5 -46t-36.5 -128t36.5 -127.5t101.5 -45.5
q63 0 100.5 44.5z" />
    <glyph glyph-name="r" unicode="r" horiz-adv-x="414" 
d="M396 500l-17 -98q-23 13 -63 13q-32 0 -60.5 -17t-47 -51t-18.5 -82v-265h-107v500h91l9 -90q42 100 158 100q35 0 55 -10z" />
    <glyph glyph-name="racute" unicode="&#x155;" horiz-adv-x="414" 
d="M396 500l-17 -98q-23 13 -63 13q-32 0 -60.5 -17t-47 -51t-18.5 -82v-265h-107v500h91l9 -90q42 100 158 100q35 0 55 -10zM348 746l-99 -168h-82l73 168h108z" />
    <glyph glyph-name="rcaron" unicode="&#x159;" horiz-adv-x="414" 
d="M396 500l-17 -98q-23 13 -63 13q-32 0 -60.5 -17t-47 -51t-18.5 -82v-265h-107v500h91l9 -90q42 100 158 100q35 0 55 -10zM280 578h-114l-111 168h88l80 -103l80 103h88z" />
    <glyph glyph-name="s" unicode="s" horiz-adv-x="529" 
d="M129.5 16q-58.5 26 -88.5 79l72 62q19 -43 59 -63t96 -20q51 0 79 16.5t28 43.5q0 24 -26 38.5t-90 27.5q-111 21 -156 56t-45 99q0 41 25 76.5t72.5 57t112.5 21.5q83 0 133 -27.5t77 -85.5l-76 -56q-18 44 -50.5 64.5t-82.5 20.5q-45 0 -74.5 -18.5t-29.5 -42.5
q0 -27 26.5 -43t96.5 -29q106 -19 150 -54t44 -98q0 -67 -58 -109t-160 -42q-76 0 -134.5 26z" />
    <glyph glyph-name="sacute" unicode="&#x15b;" horiz-adv-x="529" 
d="M129.5 16q-58.5 26 -88.5 79l72 62q19 -43 59 -63t96 -20q51 0 79 16.5t28 43.5q0 24 -26 38.5t-90 27.5q-111 21 -156 56t-45 99q0 41 25 76.5t72.5 57t112.5 21.5q83 0 133 -27.5t77 -85.5l-76 -56q-18 44 -50.5 64.5t-82.5 20.5q-45 0 -74.5 -18.5t-29.5 -42.5
q0 -27 26.5 -43t96.5 -29q106 -19 150 -54t44 -98q0 -67 -58 -109t-160 -42q-76 0 -134.5 26zM391 746l-99 -168h-82l73 168h108z" />
    <glyph glyph-name="scaron" unicode="&#x161;" horiz-adv-x="529" 
d="M129.5 16q-58.5 26 -88.5 79l72 62q19 -43 59 -63t96 -20q51 0 79 16.5t28 43.5q0 24 -26 38.5t-90 27.5q-111 21 -156 56t-45 99q0 41 25 76.5t72.5 57t112.5 21.5q83 0 133 -27.5t77 -85.5l-76 -56q-18 44 -50.5 64.5t-82.5 20.5q-45 0 -74.5 -18.5t-29.5 -42.5
q0 -27 26.5 -43t96.5 -29q106 -19 150 -54t44 -98q0 -67 -58 -109t-160 -42q-76 0 -134.5 26zM323 578h-114l-111 168h88l80 -103l80 103h88z" />
    <glyph glyph-name="germandbls" unicode="&#xdf;" horiz-adv-x="628" 
d="M495.5 356q41.5 -27 61 -70.5t19.5 -92.5q0 -54 -25 -100.5t-75 -74.5t-121 -28q-34 0 -64 9.5t-46 23.5l24 79q28 -24 80 -24q59 0 91.5 35t32.5 93q0 62 -39.5 94t-114.5 32h-42l5 89h37q59 0 93 31.5t34 81.5q0 53 -31 79.5t-90 26.5q-75 0 -105 -42t-30 -133v-465
h-107v486q0 116 58 180t190 64q75 0 125 -27.5t73.5 -70.5t23.5 -91q0 -37 -18 -73t-54.5 -59.5t-89.5 -23.5v-2q63 0 104.5 -27z" />
    <glyph glyph-name="longs" unicode="&#x17f;" horiz-adv-x="280" 
d="M80 572q0 77 38.5 118.5t113.5 41.5q57 0 83 -23l-15 -78q-17 14 -44 14q-70 0 -70 -82v-563h-106v572z" />
    <glyph glyph-name="t" unicode="t" horiz-adv-x="424" 
d="M407 33q-24 -20 -58.5 -31.5t-74.5 -11.5q-69 0 -110.5 34.5t-42.5 107.5v284h-95v84h95v117l107 30v-147h175v-84h-175v-266q0 -36 19.5 -53.5t53.5 -17.5q46 0 81 32z" />
    <glyph glyph-name="tcaron" unicode="&#x165;" horiz-adv-x="424" 
d="M353 563h-68l20 204h92zM407 33q-24 -20 -58.5 -31.5t-74.5 -11.5q-69 0 -110.5 34.5t-42.5 107.5v284h-95v84h95v117l107 30v-147h175v-84h-175v-266q0 -36 19.5 -53.5t53.5 -17.5q46 0 81 32z" />
    <glyph glyph-name="u" unicode="u" horiz-adv-x="619" 
d="M536 500v-500h-95l-4 81q-51 -91 -178 -91q-81 0 -130.5 44.5t-49.5 136.5v329h107v-301q0 -66 26 -93.5t77 -27.5q61 0 100.5 38.5t39.5 113.5v270h107z" />
    <glyph glyph-name="uacute" unicode="&#xfa;" horiz-adv-x="619" 
d="M536 500v-500h-95l-4 81q-51 -91 -178 -91q-81 0 -130.5 44.5t-49.5 136.5v329h107v-301q0 -66 26 -93.5t77 -27.5q61 0 100.5 38.5t39.5 113.5v270h107zM431 746l-99 -168h-82l73 168h108z" />
    <glyph glyph-name="ucircumflex" unicode="&#xfb;" horiz-adv-x="619" 
d="M536 500v-500h-95l-4 81q-51 -91 -178 -91q-81 0 -130.5 44.5t-49.5 136.5v329h107v-301q0 -66 26 -93.5t77 -27.5q61 0 100.5 38.5t39.5 113.5v270h107zM387 571l-80 104l-80 -104h-88l111 169h114l111 -169h-88z" />
    <glyph glyph-name="udieresis" unicode="&#xfc;" horiz-adv-x="619" 
d="M536 500v-500h-95l-4 81q-51 -91 -178 -91q-81 0 -130.5 44.5t-49.5 136.5v329h107v-301q0 -66 26 -93.5t77 -27.5q61 0 100.5 38.5t39.5 113.5v270h107zM254 683q18 -17 18 -46t-18 -46t-48 -17q-29 0 -47 17.5t-18 45.5q0 29 18 46t47 17q30 0 48 -17zM456 683
q18 -17 18 -46t-18 -46t-48 -17t-47.5 17t-17.5 46t17.5 46t47.5 17t48 -17z" />
    <glyph glyph-name="ugrave" unicode="&#xf9;" horiz-adv-x="619" 
d="M536 500v-500h-95l-4 81q-51 -91 -178 -91q-81 0 -130.5 44.5t-49.5 136.5v329h107v-301q0 -66 26 -93.5t77 -27.5q61 0 100.5 38.5t39.5 113.5v270h107zM356 578h-82l-99 168h108z" />
    <glyph glyph-name="uhungarumlaut" unicode="&#x171;" horiz-adv-x="619" 
d="M536 500v-500h-95l-4 81q-51 -91 -178 -91q-81 0 -130.5 44.5t-49.5 136.5v329h107v-301q0 -66 26 -93.5t77 -27.5q61 0 100.5 38.5t39.5 113.5v270h107zM236 578h-81l74 168h104zM422 578h-80l74 168h103z" />
    <glyph glyph-name="umacron" unicode="&#x16b;" horiz-adv-x="619" 
d="M536 500v-500h-95l-4 81q-51 -91 -178 -91q-81 0 -130.5 44.5t-49.5 136.5v329h107v-301q0 -66 26 -93.5t77 -27.5q61 0 100.5 38.5t39.5 113.5v270h107zM485 588h-356v78h356v-78z" />
    <glyph glyph-name="uni0123" unicode="&#x123;" horiz-adv-x="540" 
d="M325 580h-104l70 196h74zM492 44q42 -34 42 -94q0 -51 -33.5 -88t-92 -57t-131.5 -20q-119 0 -178.5 35t-59.5 93q0 34 23.5 59.5t65.5 36.5q-32 15 -51 38.5t-19 56.5q0 73 78 100q-38 22 -57.5 57t-19.5 80q0 50 27 88.5t76.5 59.5t113.5 21q55 0 101 -16
q14 55 50.5 83.5t96.5 27.5l18 -83q-48 1 -77.5 -12t-40.5 -39q33 -23 51 -56t18 -74q0 -77 -59.5 -123t-157.5 -46q-46 0 -83 9q-25 -6 -36.5 -19.5t-11.5 -35.5q0 -23 16.5 -35.5t45.5 -12.5h167q76 0 118 -34zM199 408.5q-31 -26.5 -31 -67.5q0 -42 31 -68.5t77 -26.5
q47 0 77.5 26.5t30.5 68.5t-30.5 68t-77.5 26q-46 0 -77 -26.5zM401 -114q41 21 41 52q0 25 -20 38t-67 13h-135q-45 0 -67.5 -14t-22.5 -39q0 -34 39.5 -52.5t117.5 -18.5q73 0 114 21z" />
    <glyph glyph-name="uni0137" unicode="&#x137;" horiz-adv-x="583" 
d="M289 235l-99 -102v-133h-107v725h107v-470l239 245h126l-191 -196l203 -304h-124zM297 -238h-77l40 167h104z" />
    <glyph glyph-name="uni013C" unicode="&#x13c;" horiz-adv-x="312" 
d="M187 146q0 -37 11 -51.5t41 -14.5q19 0 32.5 2.5t33.5 10.5l-12 -86q-34 -17 -83 -17q-67 0 -98.5 34t-31.5 107v594h107v-579zM184 -238h-77l40 167h104z" />
    <glyph glyph-name="uni0146" unicode="&#x146;" horiz-adv-x="619" 
d="M487.5 462q52.5 -48 52.5 -138v-324h-107v290q0 132 -107 132q-56 0 -96 -38.5t-40 -118.5v-265h-107v500h95l5 -83q25 47 69 70t100 23q83 0 135.5 -48zM313 -238h-77l40 167h104z" />
    <glyph glyph-name="uni0157" unicode="&#x157;" horiz-adv-x="414" 
d="M396 500l-17 -98q-23 13 -63 13q-32 0 -60.5 -17t-47 -51t-18.5 -82v-265h-107v500h91l9 -90q42 100 158 100q35 0 55 -10zM129 -238h-77l40 167h104z" />
    <glyph glyph-name="uni015F" unicode="&#x15f;" horiz-adv-x="529" 
d="M442.5 47.5q-39.5 -38.5 -110.5 -51.5q28 -21 42.5 -47t14.5 -54q0 -48 -34 -79t-90 -31q-39 0 -66.5 9t-48.5 28l33 62q13 -13 31 -21.5t39 -8.5q24 0 40 15.5t16 40.5q0 26 -15.5 44.5t-56.5 36.5q-66 4 -117 30t-79 74l72 62q19 -43 59 -63t96 -20q51 0 79 16.5
t28 43.5q0 24 -26 38.5t-90 27.5q-111 21 -156 56t-45 99q0 41 25 76.5t72.5 57t112.5 21.5q83 0 133 -27.5t77 -85.5l-76 -56q-18 44 -50.5 64.5t-82.5 20.5q-45 0 -74.5 -18.5t-29.5 -42.5q0 -27 26.5 -43t96.5 -29q106 -19 150 -54t44 -98q0 -55 -39.5 -93.5z" />
    <glyph glyph-name="uni0163" unicode="&#x163;" horiz-adv-x="440" 
d="M372 -105q0 -48 -34 -79t-91 -31q-73 0 -114 36l33 63q13 -13 31 -21.5t38 -8.5q25 0 41 15.5t16 40.5q0 28 -17 47.5t-63 40.5q-90 28 -91 134v284h-95v84h95v117l107 30v-147h175v-84h-175v-266q0 -36 19.5 -53.5t53.5 -17.5q46 0 81 32l25 -78q-37 -30 -89 -39
q54 -42 54 -99z" />
    <glyph glyph-name="uni0219" unicode="&#x219;" horiz-adv-x="529" 
d="M129.5 16q-58.5 26 -88.5 79l72 62q19 -43 59 -63t96 -20q51 0 79 16.5t28 43.5q0 24 -26 38.5t-90 27.5q-111 21 -156 56t-45 99q0 41 25 76.5t72.5 57t112.5 21.5q83 0 133 -27.5t77 -85.5l-76 -56q-18 44 -50.5 64.5t-82.5 20.5q-45 0 -74.5 -18.5t-29.5 -42.5
q0 -27 26.5 -43t96.5 -29q106 -19 150 -54t44 -98q0 -67 -58 -109t-160 -42q-76 0 -134.5 26zM256 -238h-77l40 167h104z" />
    <glyph glyph-name="uni021B" unicode="&#x21b;" horiz-adv-x="424" 
d="M407 33q-24 -20 -58.5 -31.5t-74.5 -11.5q-69 0 -110.5 34.5t-42.5 107.5v284h-95v84h95v117l107 30v-147h175v-84h-175v-266q0 -36 19.5 -53.5t53.5 -17.5q46 0 81 32zM233 -238h-77l40 167h104z" />
    <glyph glyph-name="uogonek" unicode="&#x173;" horiz-adv-x="619" 
d="M545 -194q-16 -10 -39 -15.5t-48 -5.5q-55 0 -84.5 26t-29.5 72q0 41 25 70.5t76 52.5l-10 86q-27 -48 -74.5 -75t-101.5 -27q-81 0 -130.5 44.5t-49.5 136.5v329h107v-301q0 -66 25.5 -93.5t73.5 -27.5q39 0 72 19t52.5 55t19.5 85v263h107v-500q-61 -27 -87.5 -50
t-26.5 -50q0 -46 53 -46q35 0 52 12z" />
    <glyph glyph-name="uring" unicode="&#x16f;" horiz-adv-x="619" 
d="M536 500v-500h-95l-4 81q-51 -91 -178 -91q-81 0 -130.5 44.5t-49.5 136.5v329h107v-301q0 -66 26 -93.5t77 -27.5q61 0 100.5 38.5t39.5 113.5v270h107zM398.5 773.5q34.5 -32.5 34.5 -85.5q0 -55 -34.5 -87.5t-92.5 -32.5q-59 0 -94 32.5t-35 87.5q0 53 35.5 85.5
t93.5 32.5t92.5 -32.5zM258.5 733.5q-18.5 -17.5 -18.5 -45.5t18.5 -46t47.5 -18t47 18t18 46t-18 45.5t-47 17.5t-47.5 -17.5z" />
    <glyph glyph-name="v" unicode="v" horiz-adv-x="532" 
d="M524 500l-199 -500h-117l-200 500h118l141 -413l145 413h112z" />
    <glyph glyph-name="w" unicode="w" horiz-adv-x="871" 
d="M843 500l-167 -500h-117l-126 378l-120 -378h-117l-167 500h116l113 -400l125 400h106l124 -400l114 400h116z" />
    <glyph glyph-name="x" unicode="x" horiz-adv-x="550" 
d="M399 0l-126 188l-130 -188h-121l188 252l-178 248h128l120 -181l119 181h123l-179 -245l182 -255h-126z" />
    <glyph glyph-name="y" unicode="y" horiz-adv-x="546" 
d="M314 -59q-33 -86 -75 -121t-110 -35q-39 0 -67.5 9.5t-50.5 30.5l31 82q30 -36 82 -36q30 0 50.5 15.5t36.5 56.5l22 54l-52 124l-156 379h120l110 -314l29 -94l34 103l104 305h111z" />
    <glyph glyph-name="yacute" unicode="&#xfd;" horiz-adv-x="546" 
d="M314 -59q-33 -86 -75 -121t-110 -35q-39 0 -67.5 9.5t-50.5 30.5l31 82q30 -36 82 -36q30 0 50.5 15.5t36.5 56.5l22 54l-52 124l-156 379h120l110 -314l29 -94l34 103l104 305h111zM406 746l-99 -168h-82l73 168h108z" />
    <glyph glyph-name="ydieresis" unicode="&#xff;" horiz-adv-x="546" 
d="M314 -59q-33 -86 -75 -121t-110 -35q-39 0 -67.5 9.5t-50.5 30.5l31 82q30 -36 82 -36q30 0 50.5 15.5t36.5 56.5l22 54l-52 124l-156 379h120l110 -314l29 -94l34 103l104 305h111zM229 683q18 -17 18 -46t-18 -46t-48 -17q-29 0 -47 17.5t-18 45.5q0 29 18 46t47 17
q30 0 48 -17zM431 683q18 -17 18 -46t-18 -46t-48 -17t-47.5 17t-17.5 46t17.5 46t47.5 17t48 -17z" />
    <glyph glyph-name="z" unicode="z" horiz-adv-x="528" 
d="M51 74l243 282l60 62l-86 -2h-215v84h419v-74l-242 -282l-60 -62l95 2h216v-84h-430v74z" />
    <glyph glyph-name="zacute" unicode="&#x17a;" horiz-adv-x="528" 
d="M51 74l243 282l60 62l-86 -2h-215v84h419v-74l-242 -282l-60 -62l95 2h216v-84h-430v74zM376 746l-99 -168h-82l73 168h108z" />
    <glyph glyph-name="zcaron" unicode="&#x17e;" horiz-adv-x="528" 
d="M51 74l243 282l60 62l-86 -2h-215v84h419v-74l-242 -282l-60 -62l95 2h216v-84h-430v74zM308 578h-114l-111 168h88l80 -103l80 103h88z" />
    <glyph glyph-name="zdotaccent" unicode="&#x17c;" horiz-adv-x="528" 
d="M51 74l243 282l60 62l-86 -2h-215v84h419v-74l-242 -282l-60 -62l95 2h216v-84h-430v74zM303 700.5q19 -17.5 19 -48.5t-19 -48.5t-51 -17.5t-50.5 17.5t-18.5 48.5t18.5 48.5t50.5 17.5t51 -17.5z" />
    <glyph glyph-name="germandbls.calt" horiz-adv-x="699" 
d="M608.5 321q56.5 -47 56.5 -135q0 -58 -26.5 -101.5t-74 -66.5t-107.5 -23q-63 0 -109 17t-66 45l37 72q19 -21 51.5 -33.5t70.5 -12.5q52 0 84 28.5t32 75.5q0 49 -35.5 76.5t-99.5 27.5h-81v77l166 201h-163q-59 0 -99 -39.5t-40 -101.5v-428h-107v436q0 67 30 118
t84 78.5t123 27.5h288v-91l-173 -201h8q94 0 150.5 -47z" />
    <glyph glyph-name="longs.component" horiz-adv-x="266" 
d="M80 572q0 78 34 119t108 41q40 0 61 -16l-8 -84q-14 13 -34 13q-55 0 -55 -78v-567h-106v572z" />
    <glyph glyph-name="iacute_j.loclNLD" horiz-adv-x="547" 
d="M269 746l-99 -168h-82l73 168h108zM543 746l-99 -168h-82l73 168h108zM190 0h-107v500h107v-500zM464 -44q0 -89 -47 -130t-118 -41q-66 0 -109 33l19 86q34 -28 76 -28q72 0 72 90v534h107v-544z" />
    <glyph glyph-name="g.ss01" horiz-adv-x="629" 
d="M546 500v-460q0 -255 -262 -255q-86 0 -143 31.5t-70 98.5l102 36q8 -43 38 -64t87 -21q62 0 101 41t39 108v67q-25 -36 -66.5 -57t-94.5 -21q-103 0 -162.5 67t-59.5 186t59.5 186t162.5 67q58 0 102 -24.5t67 -67.5l9 82h91zM401 134q37 43 37 118v11q0 74 -37 117
t-100 43q-65 0 -101.5 -44t-36.5 -122t36.5 -122t101.5 -44q63 0 100 43z" />
    <glyph glyph-name="gbreve.ss01" horiz-adv-x="629" 
d="M546 500v-460q0 -255 -262 -255q-86 0 -143 31.5t-70 98.5l102 36q8 -43 38 -64t87 -21q62 0 101 41t39 108v67q-25 -36 -66.5 -57t-94.5 -21q-103 0 -162.5 67t-59.5 186t59.5 186t162.5 67q58 0 102 -24.5t67 -67.5l9 82h91zM401 134q37 43 37 118v11q0 74 -37 117
t-100 43q-65 0 -101.5 -44t-36.5 -122t36.5 -122t101.5 -44q63 0 100 43zM406 612q-42 -42 -112 -42t-112 42t-42 111h79q0 -34 21 -58t54 -24t54 24t21 58h79q0 -69 -42 -111z" />
    <glyph glyph-name="gcommaaccent.ss01" horiz-adv-x="629" 
d="M368 580h-104l70 196h75zM546 500v-460q0 -255 -262 -255q-86 0 -143 31.5t-70 98.5l102 36q8 -43 38 -64t87 -21q62 0 101 41t39 108v67q-25 -36 -66.5 -57t-94.5 -21q-103 0 -162.5 67t-59.5 186t59.5 186t162.5 67q58 0 102 -24.5t67 -67.5l9 82h91zM401 134
q37 43 37 118v11q0 74 -37 117t-100 43q-65 0 -101.5 -44t-36.5 -122t36.5 -122t101.5 -44q63 0 100 43z" />
    <glyph glyph-name="l.ss02" horiz-adv-x="277" 
d="M192 0h-107v725h107v-725z" />
    <glyph glyph-name="lacute.ss02" horiz-adv-x="277" 
d="M239 927l-67 -137h-81l41 137h107zM192 0h-107v725h107v-725z" />
    <glyph glyph-name="lcaron.ss02" horiz-adv-x="309" 
d="M314 515h-68l21 210h92zM192 0h-107v725h107v-725z" />
    <glyph glyph-name="lcommaaccent.ss02" horiz-adv-x="277" 
d="M192 0h-107v725h107v-725zM126 -238h-77l40 167h104z" />
    <glyph glyph-name="ldot.ss02" horiz-adv-x="453" 
d="M192 0h-107v725h107v-725zM420.5 407.5q20.5 -19.5 20.5 -53.5q0 -33 -20.5 -52.5t-55.5 -19.5q-34 0 -54.5 19.5t-20.5 52.5q0 34 20 53.5t55 19.5t55.5 -19.5z" />
    <glyph glyph-name="lslash.ss02" horiz-adv-x="331" 
d="M299 390l-79 -47v-343h-107v276l-79 -51v93l79 48v359h107v-292l79 51v-94z" />
    <glyph glyph-name="n.swsh" horiz-adv-x="628" 
d="M633 -6l-12 -72q-16 -9 -31.5 -12.5t-41.5 -3.5q-54 0 -84.5 33.5t-30.5 92.5v258q0 132 -107 132q-56 0 -96 -38.5t-40 -118.5v-265h-107v500h95l5 -83q25 47 69 70t100 23q83 0 135.5 -48t52.5 -138v-287q0 -27 12.5 -39.5t33.5 -12.5q26 0 47 9z" />
    <glyph glyph-name="nacute.swsh" horiz-adv-x="628" 
d="M633 -6l-12 -72q-16 -9 -31.5 -12.5t-41.5 -3.5q-54 0 -84.5 33.5t-30.5 92.5v258q0 132 -107 132q-56 0 -96 -38.5t-40 -118.5v-265h-107v500h95l5 -83q25 47 69 70t100 23q83 0 135.5 -48t52.5 -138v-287q0 -27 12.5 -39.5t33.5 -12.5q26 0 47 9zM440 746l-99 -168h-82
l73 168h108z" />
    <glyph glyph-name="ncaron.swsh" horiz-adv-x="628" 
d="M633 -6l-12 -72q-16 -9 -31.5 -12.5t-41.5 -3.5q-54 0 -84.5 33.5t-30.5 92.5v258q0 132 -107 132q-56 0 -96 -38.5t-40 -118.5v-265h-107v500h95l5 -83q25 47 69 70t100 23q83 0 135.5 -48t52.5 -138v-287q0 -27 12.5 -39.5t33.5 -12.5q26 0 47 9zM372 578h-114
l-111 168h88l80 -103l80 103h88z" />
    <glyph glyph-name="ncommaaccent.swsh" horiz-adv-x="628" 
d="M633 -6l-12 -72q-16 -9 -31.5 -12.5t-41.5 -3.5q-54 0 -84.5 33.5t-30.5 92.5v258q0 132 -107 132q-56 0 -96 -38.5t-40 -118.5v-265h-107v500h95l5 -83q25 47 69 70t100 23q83 0 135.5 -48t52.5 -138v-287q0 -27 12.5 -39.5t33.5 -12.5q26 0 47 9zM304 -238h-77l40 167
h104z" />
    <glyph glyph-name="ntilde.swsh" horiz-adv-x="628" 
d="M633 -6l-12 -72q-16 -9 -31.5 -12.5t-41.5 -3.5q-54 0 -84.5 33.5t-30.5 92.5v258q0 132 -107 132q-56 0 -96 -38.5t-40 -118.5v-265h-107v500h95l5 -83q25 47 69 70t100 23q83 0 135.5 -48t52.5 -138v-287q0 -27 12.5 -39.5t33.5 -12.5q26 0 47 9zM384 576
q-29 0 -48.5 10.5t-40.5 29.5q-17 14 -26 19.5t-21 5.5q-19 0 -29.5 -16.5t-15.5 -49.5h-73q9 142 119 142q28 0 46.5 -10t41.5 -30q17 -14 26 -19.5t20 -5.5q20 0 30.5 16t15.5 49h73q-9 -141 -118 -141z" />
    <glyph glyph-name="r.swsh" horiz-adv-x="527" 
d="M395.5 500.5q25.5 -9.5 56.5 -28.5q25 -14 42 -22t42 -12l-54 -79q-20 5 -35.5 11.5t-36.5 17.5q-23 14 -42.5 21t-45.5 7q-56 0 -94 -41.5t-38 -113.5v-261h-107v500h91l9 -90q20 50 58 75t88 25q41 0 66.5 -9.5z" />
    <glyph glyph-name="racute.swsh" horiz-adv-x="527" 
d="M395.5 500.5q25.5 -9.5 56.5 -28.5q25 -14 42 -22t42 -12l-54 -79q-20 5 -35.5 11.5t-36.5 17.5q-23 14 -42.5 21t-45.5 7q-56 0 -94 -41.5t-38 -113.5v-261h-107v500h91l9 -90q20 50 58 75t88 25q41 0 66.5 -9.5zM359 746l-99 -168h-82l73 168h108z" />
    <glyph glyph-name="rcaron.swsh" horiz-adv-x="527" 
d="M395.5 500.5q25.5 -9.5 56.5 -28.5q25 -14 42 -22t42 -12l-54 -79q-20 5 -35.5 11.5t-36.5 17.5q-23 14 -42.5 21t-45.5 7q-56 0 -94 -41.5t-38 -113.5v-261h-107v500h91l9 -90q20 50 58 75t88 25q41 0 66.5 -9.5zM291 578h-114l-111 168h88l80 -103l80 103h88z" />
    <glyph glyph-name="rcommaaccent.swsh" horiz-adv-x="527" 
d="M395.5 500.5q25.5 -9.5 56.5 -28.5q25 -14 42 -22t42 -12l-54 -79q-20 5 -35.5 11.5t-36.5 17.5q-23 14 -42.5 21t-45.5 7q-56 0 -94 -41.5t-38 -113.5v-261h-107v500h91l9 -90q20 50 58 75t88 25q41 0 66.5 -9.5zM129 -238h-77l40 167h104z" />
    <glyph glyph-name="t.swsh" horiz-adv-x="462" 
d="M228 416v-266q0 -36 19.5 -53.5t53.5 -17.5q46 0 81 32l25 -78q-24 -20 -58.5 -31.5t-74.5 -11.5q-69 0 -110.5 34.5t-42.5 107.5v284h-95v84h95v117l107 30v-147h137q60 0 95 10.5t60 36.5l40 -65q-31 -36 -75 -51t-120 -15h-137z" />
    <glyph glyph-name="tcaron.swsh" horiz-adv-x="462" 
d="M353 563h-68l20 204h92zM228 416v-266q0 -36 19.5 -53.5t53.5 -17.5q46 0 81 32l25 -78q-24 -20 -58.5 -31.5t-74.5 -11.5q-69 0 -110.5 34.5t-42.5 107.5v284h-95v84h95v117l107 30v-147h137q60 0 95 10.5t60 36.5l40 -65q-31 -36 -75 -51t-120 -15h-137z" />
    <glyph glyph-name="uni0163.swsh" horiz-adv-x="456" 
d="M228 416v-266q0 -36 19.5 -53.5t53.5 -17.5q46 0 81 32l25 -78q-31 -27 -76 -37q28 -20 42 -46t14 -55q0 -48 -33.5 -79t-90.5 -31q-73 0 -114 36l33 63q28 -30 69 -30q25 0 41 15.5t16 40.5q0 26 -14.5 44t-53.5 38q-55 8 -86.5 42t-32.5 98v284h-95v84h95v117l107 30
v-147h137q60 0 95 10.5t60 36.5l40 -65q-31 -36 -75 -51t-120 -15h-137z" />
    <glyph glyph-name="uni021B.swsh" horiz-adv-x="462" 
d="M228 416v-266q0 -36 19.5 -53.5t53.5 -17.5q46 0 81 32l25 -78q-24 -20 -58.5 -31.5t-74.5 -11.5q-69 0 -110.5 34.5t-42.5 107.5v284h-95v84h95v117l107 30v-147h137q60 0 95 10.5t60 36.5l40 -65q-31 -36 -75 -51t-120 -15h-137zM233 -238h-77l40 167h104z" />
    <glyph glyph-name="y.swsh" horiz-adv-x="567" 
d="M61.5 -205.5q-28.5 9.5 -50.5 30.5l31 82q30 -36 82 -36q30 0 50.5 15.5t36.5 56.5l22 54l-52 124l-156 379h120l110 -314l29 -94l34 103l97 265q24 67 60 98t89 31q32 0 52.5 -6.5t36.5 -21.5l-21 -68q-10 8 -19.5 11t-26.5 3q-29 0 -47.5 -15.5t-31.5 -52.5l-193 -498
q-31 -86 -73.5 -121t-111.5 -35q-39 0 -67.5 9.5z" />
    <glyph glyph-name="yacute.swsh" horiz-adv-x="567" 
d="M61.5 -205.5q-28.5 9.5 -50.5 30.5l31 82q30 -36 82 -36q30 0 50.5 15.5t36.5 56.5l22 54l-52 124l-156 379h120l110 -314l29 -94l34 103l97 265q24 67 60 98t89 31q32 0 52.5 -6.5t36.5 -21.5l-21 -68q-10 8 -19.5 11t-26.5 3q-29 0 -47.5 -15.5t-31.5 -52.5l-193 -498
q-31 -86 -73.5 -121t-111.5 -35q-39 0 -67.5 9.5zM406 746l-99 -168h-82l73 168h108z" />
    <glyph glyph-name="ydieresis.swsh" horiz-adv-x="567" 
d="M61.5 -205.5q-28.5 9.5 -50.5 30.5l31 82q30 -36 82 -36q30 0 50.5 15.5t36.5 56.5l22 54l-52 124l-156 379h120l110 -314l29 -94l34 103l97 265q24 67 60 98t89 31q32 0 52.5 -6.5t36.5 -21.5l-21 -68q-10 8 -19.5 11t-26.5 3q-29 0 -47.5 -15.5t-31.5 -52.5l-193 -498
q-31 -86 -73.5 -121t-111.5 -35q-39 0 -67.5 9.5zM229 683q18 -17 18 -46t-18 -46t-48 -17q-29 0 -47 17.5t-18 45.5q0 29 18 46t47 17q30 0 48 -17zM431 683q18 -17 18 -46t-18 -46t-48 -17t-47.5 17t-17.5 46t17.5 46t47.5 17t48 -17z" />
    <glyph glyph-name="c_t" horiz-adv-x="920" 
d="M903 33q-23 -20 -57.5 -31.5t-74.5 -11.5q-69 0 -111 34.5t-42 107.5v401q0 57 -20.5 84.5t-56.5 27.5t-55.5 -22.5t-19.5 -76.5q0 -76 52 -176l-100 -40q-13 46 -42 70.5t-73 24.5q-67 0 -104 -46t-37 -130t37 -129t104 -45q48 0 79 25t44 72l96 -32q-20 -70 -76 -110
t-141 -40q-118 0 -184.5 69t-66.5 191t66 191t183 69q49 0 88 -18q-13 31 -13 71q0 83 47.5 124.5t123.5 41.5q75 0 125.5 -41.5t50.5 -124.5v-63h174v-84h-174v-266q0 -36 19 -53.5t53 -17.5q25 0 44.5 8t36.5 24z" />
    <glyph glyph-name="s_t" horiz-adv-x="877" 
d="M860 33q-24 -20 -58.5 -31.5t-74.5 -11.5q-69 0 -110.5 34.5t-41.5 107.5v399q0 57 -22 84.5t-57 27.5q-36 0 -55 -23.5t-19 -65.5q0 -37 11 -72t43 -83l-72 -46q-17 38 -52 56.5t-82 18.5q-45 0 -75 -19t-30 -44q0 -28 26.5 -43.5t96.5 -28.5q105 -17 149.5 -51.5
t44.5 -97.5q0 -45 -26 -80t-75 -54.5t-117 -19.5q-76 0 -135 26.5t-89 79.5l72 59q19 -41 60.5 -62t95.5 -21q51 0 79 18t28 46q0 25 -27 41t-94 28q-105 18 -150.5 53.5t-45.5 97.5q0 41 25 76.5t72.5 56.5t112.5 21q46 0 83 -10q-18 29 -18 60q0 85 48.5 127t126.5 42
q76 0 125 -41.5t49 -125.5v-62h174v-84h-174v-266q0 -36 19 -53.5t53 -17.5q46 0 81 32z" />
    <glyph glyph-name="longs_i" horiz-adv-x="539" 
d="M80 572q0 78 34 119t108 41q40 0 61 -16l-8 -84q-14 13 -34 13q-55 0 -55 -78v-567h-106v572zM350 601.5q-19 17.5 -19 49.5t19 49t53 17t52.5 -17t18.5 -49t-18.5 -49.5t-52.5 -17.5t-53 17.5zM456 0h-107v500h107v-500z" />
    <glyph glyph-name="longs_l" horiz-adv-x="592" 
d="M80 572q0 77 38.5 118.5t113.5 41.5q57 0 83 -23l-15 -78q-17 14 -44 14q-70 0 -70 -82v-563h-106v572zM467 146q0 -37 11 -51.5t40 -14.5q19 0 33.5 3t33.5 10l-13 -86q-34 -17 -83 -17q-67 0 -98 34t-31 107v594h107v-579z" />
    <glyph glyph-name="longs_s" horiz-adv-x="790" 
d="M80 572q0 77 38.5 118.5t113.5 41.5q57 0 83 -23l-15 -78q-17 14 -44 14q-70 0 -70 -82v-563h-106v572zM390.5 16q-58.5 26 -88.5 79l72 62q19 -43 59 -63t96 -20q51 0 79 16.5t28 43.5q0 24 -26 38.5t-90 27.5q-111 21 -156 56t-45 99q0 41 25 76.5t72.5 57t112.5 21.5
q83 0 133 -27.5t77 -85.5l-76 -56q-18 44 -50.5 64.5t-82.5 20.5q-45 0 -74.5 -18.5t-29.5 -42.5q0 -27 26.5 -43t96.5 -29q106 -19 150 -54t44 -98q0 -67 -58 -109t-160 -42q-76 0 -134.5 26z" />
    <glyph glyph-name="g.ss01_j" horiz-adv-x="884" 
d="M818.5 699q19.5 -18 19.5 -48t-19.5 -48.5t-52.5 -18.5q-32 0 -51.5 18.5t-19.5 48.5t19.5 48t51.5 18q33 0 52.5 -18zM455 500h91v-460q0 -255 -262 -255q-86 0 -143 31.5t-70 98.5l102 36q8 -43 38 -64t87 -21q62 0 101 41t39 108v67q-25 -36 -66.5 -57t-94.5 -21
q-103 0 -162.5 67t-59.5 186t59.5 186t162.5 67q58 0 102 -24.5t67 -67.5zM713 500h107v-546q0 -90 -48.5 -129.5t-117.5 -39.5q-56 0 -98 30l20 89q31 -27 72 -27q65 0 65 85v538zM401 134q37 43 37 118v11q0 74 -37 117t-100 43q-65 0 -101.5 -44t-36.5 -122t36.5 -122
t101.5 -44q63 0 100 43z" />
    <glyph glyph-name="fl.ss02" horiz-adv-x="677" 
d="M225 500h162v-84h-159v-416h-107v416h-94v84h94v72q0 76 46 118t129 42q30 0 55 -6.5t39 -17.5l-20 -78q-23 15 -57 15q-88 0 -88 -81v-64zM592 0h-107v725h107v-725z" />
    <glyph glyph-name="longs_l.ss02" horiz-adv-x="552" 
d="M80 572q0 77 38.5 118.5t113.5 41.5q57 0 83 -23l-15 -78q-17 14 -44 14q-70 0 -70 -82v-563h-106v572zM467 0h-107v725h107v-725z" />
    <glyph glyph-name="Gcommaaccent.sc" horiz-adv-x="645" 
d="M584 294v-294h-75l-4 83q-23 -42 -67.5 -66.5t-111.5 -24.5q-82 0 -143.5 34.5t-95 99.5t-33.5 154t34.5 154t98 99.5t149.5 34.5q183 0 244 -141l-93 -44q-35 99 -149 99q-81 0 -128.5 -53.5t-47.5 -148.5q0 -98 46 -150.5t133 -52.5q68 0 106.5 33t38.5 93v12h-159v79
h257zM330 -238h-77l40 167h104z" />
    <glyph glyph-name="Kcommaaccent.sc" horiz-adv-x="610" 
d="M288 263l-94 -94v-169h-107v560h107v-274l268 274h123l-220 -231l226 -329h-127zM313 -238h-77l40 167h104z" />
    <glyph glyph-name="Lcommaaccent.sc" horiz-adv-x="586" 
d="M515 87v-87h-428v560h107v-473h321zM303 -238h-77l40 167h104z" />
    <glyph glyph-name="Ncommaaccent.sc" horiz-adv-x="670" 
d="M583 0h-132l-220 362l-47 86h-1l4 -86v-362h-100v560h132l220 -363l47 -85h1l-5 86v362h101v-560zM329 -238h-77l40 167h104z" />
    <glyph glyph-name="Rcommaaccent.sc" horiz-adv-x="608" 
d="M318 218h-125v-218h-106v560h248q97 0 153.5 -45.5t56.5 -125.5q0 -60 -32 -101.5t-91 -58.5l155 -229h-119zM193 297h134q112 0 112 89q0 90 -112 90h-134v-179zM307 -238h-77l40 167h104z" />
    <glyph glyph-name="Scedilla.sc" horiz-adv-x="573" 
d="M482.5 51q-47.5 -43 -129.5 -55q28 -20 43 -46.5t15 -54.5q0 -48 -34 -79t-90 -31q-39 0 -66.5 9t-48.5 28l33 62q13 -13 31 -21.5t39 -8.5q24 0 40 15.5t16 40.5q0 27 -16.5 45.5t-60.5 37.5q-148 11 -219 108l65 76q28 -50 74.5 -74t115.5 -24q61 0 96 18.5t35 54.5
q0 34 -34.5 49t-107.5 27q-71 12 -116 26.5t-77.5 48t-32.5 92.5q0 49 28.5 88.5t82 62t124.5 22.5q84 0 141 -26.5t98 -81.5l-67 -73q-29 51 -68 72.5t-102 21.5q-60 0 -94 -21.5t-34 -55.5q0 -24 18.5 -39t47 -22.5t78.5 -16.5q71 -13 115.5 -27.5t76.5 -48t32 -91.5
q0 -65 -47.5 -108z" />
    <glyph glyph-name="Scommaaccent.sc" horiz-adv-x="573" 
d="M429 541.5q57 -26.5 98 -81.5l-67 -73q-29 51 -68 72.5t-102 21.5q-60 0 -94 -21.5t-34 -55.5q0 -24 18.5 -39t47 -22.5t78.5 -16.5q71 -13 115.5 -27.5t76.5 -48t32 -91.5q0 -77 -65.5 -122t-173.5 -45q-176 0 -256 109l65 76q28 -50 74.5 -74t115.5 -24q61 0 96 18.5
t35 54.5q0 34 -34.5 49t-107.5 27q-71 12 -116 26.5t-77.5 48t-32.5 92.5q0 49 28.5 88.5t82 62t124.5 22.5q84 0 141 -26.5zM292 -238h-77l40 167h104z" />
    <glyph glyph-name="uni0162.sc" horiz-adv-x="568" 
d="M338 473v-471q64 -40 64 -106q0 -48 -34.5 -79.5t-90.5 -31.5q-75 0 -115 37l34 63q28 -30 69 -30q24 0 40.5 15.5t16.5 40.5q0 27 -17.5 45.5t-61.5 43.5h-12v473h-202v87h509v-87h-200z" />
    <glyph glyph-name="uni021A.sc" horiz-adv-x="568" 
d="M538 473h-200v-473h-107v473h-202v87h509v-87zM268 -238h-77l40 167h104z" />
    <glyph glyph-name="a.sc" horiz-adv-x="605" 
d="M423 142h-243l-55 -142h-107l221 560h127l221 -560h-109zM391 224l-56 146l-32 103h-2l-33 -103l-56 -146h179z" />
    <glyph glyph-name="aacute.sc" horiz-adv-x="605" 
d="M334 637h-82l56 151h114zM423 142h-243l-55 -142h-107l221 560h127l221 -560h-109zM391 224l-56 146l-32 103h-2l-33 -103l-56 -146h179z" />
    <glyph glyph-name="abreve.sc" horiz-adv-x="605" 
d="M423 142h-243l-55 -142h-107l221 560h127l221 -560h-109zM391 224l-56 146l-32 103h-2l-33 -103l-56 -146h179zM414 672q-42 -42 -112 -42t-112 42t-42 111h79q0 -34 21 -58t54 -24t54 24t21 58h79q0 -69 -42 -111z" />
    <glyph glyph-name="acircumflex.sc" horiz-adv-x="605" 
d="M222 631h-89l113 167h112l113 -167h-89l-80 107zM423 142h-243l-55 -142h-107l221 560h127l221 -560h-109zM391 224l-56 146l-32 103h-2l-33 -103l-56 -146h179z" />
    <glyph glyph-name="adieresis.sc" horiz-adv-x="605" 
d="M423 142h-243l-55 -142h-107l221 560h127l221 -560h-109zM391 224l-56 146l-32 103h-2l-33 -103l-56 -146h179zM249 743q18 -17 18 -46t-18 -46t-48 -17q-29 0 -47 17.5t-18 45.5q0 29 18 46t47 17q30 0 48 -17zM451 743q18 -17 18 -46t-18 -46t-48 -17t-47.5 17
t-17.5 46t17.5 46t47.5 17t48 -17z" />
    <glyph glyph-name="agrave.sc" horiz-adv-x="605" 
d="M259 637l-88 151h114l56 -151h-82zM423 142h-243l-55 -142h-107l221 560h127l221 -560h-109zM391 224l-56 146l-32 103h-2l-33 -103l-56 -146h179z" />
    <glyph glyph-name="amacron.sc" horiz-adv-x="605" 
d="M423 142h-243l-55 -142h-107l221 560h127l221 -560h-109zM391 224l-56 146l-32 103h-2l-33 -103l-56 -146h179zM480 648h-356v78h356v-78z" />
    <glyph glyph-name="aogonek.sc" horiz-adv-x="605" 
d="M598 -195q-31 -20 -89 -20q-57 0 -91 28t-34 79q0 78 90 119l-51 131h-243l-55 -142h-107l221 560h127l221 -560q-69 -20 -95.5 -43.5t-26.5 -53.5q0 -23 16.5 -36t45.5 -13q35 0 53 12zM391 224l-56 146l-32 103h-2l-33 -103l-56 -146h179z" />
    <glyph glyph-name="aring.sc" horiz-adv-x="605" 
d="M423 142h-242l-55 -142h-108l211 530q-28 15 -43.5 41.5t-15.5 61.5q0 54 36.5 88t96.5 34t96 -33.5t36 -88.5q0 -35 -15.5 -61.5t-42.5 -41.5l210 -530h-109zM254 678.5q-19 -18.5 -19 -46.5q0 -29 19 -47t48 -18q30 0 48.5 18t18.5 47t-18.5 47t-48.5 18
q-29 0 -48 -18.5zM391 224l-56 146l-32 101h-2l-32 -101l-57 -146h179z" />
    <glyph glyph-name="atilde.sc" horiz-adv-x="605" 
d="M423 142h-243l-55 -142h-107l221 560h127l221 -560h-109zM391 224l-56 146l-32 103h-2l-33 -103l-56 -146h179zM369 636q-29 0 -48.5 10.5t-40.5 29.5q-17 14 -26 19.5t-21 5.5q-19 0 -29.5 -16.5t-15.5 -49.5h-73q9 142 119 142q28 0 46.5 -10t41.5 -30q17 -14 26 -19.5
t20 -5.5q20 0 30.5 16t15.5 49h73q-9 -141 -118 -141z" />
    <glyph glyph-name="ae.sc" horiz-adv-x="826" 
d="M784 83v-83h-417v174h-184l-87 -174h-105l290 560h491v-83h-304v-153h232v-83h-232v-158h316zM367 256v222h-32l-111 -222h143z" />
    <glyph glyph-name="b.sc" horiz-adv-x="603" 
d="M87 560h247q102 0 152 -39t50 -113q0 -47 -27.5 -80.5t-77.5 -44.5v-1q58 -6 89.5 -42t31.5 -87q0 -73 -55 -113t-158 -40h-252v560zM328 321q103 0 103 78q0 79 -103 79h-136v-157h136zM338 81q53 0 81 20t28 60q0 39 -28 59t-81 20h-146v-159h146z" />
    <glyph glyph-name="c.sc" horiz-adv-x="612" 
d="M496 35q-67 -43 -166 -43q-83 0 -145.5 35t-96.5 100t-34 153q0 89 34 154t97.5 99.5t148.5 34.5q92 0 155 -41t84 -118l-99 -37q-12 57 -46.5 83t-95.5 26q-78 0 -124.5 -53t-46.5 -148t46.5 -148t121.5 -53q69 0 106.5 26.5t46.5 81.5l100 -31q-19 -78 -86 -121z" />
    <glyph glyph-name="cacute.sc" horiz-adv-x="612" 
d="M453 788l-88 -151h-82l56 151h114zM496 35q-67 -43 -166 -43q-83 0 -145.5 35t-96.5 100t-34 153q0 89 34 154t97.5 99.5t148.5 34.5q92 0 155 -41t84 -118l-99 -37q-12 57 -46.5 83t-95.5 26q-78 0 -124.5 -53t-46.5 -148t46.5 -148t121.5 -53q69 0 106.5 26.5
t46.5 81.5l100 -31q-19 -78 -86 -121z" />
    <glyph glyph-name="ccaron.sc" horiz-adv-x="612" 
d="M389 633h-112l-113 167h89l80 -107l80 107h89zM496 35q-67 -43 -166 -43q-83 0 -145.5 35t-96.5 100t-34 153q0 89 34 154t97.5 99.5t148.5 34.5q92 0 155 -41t84 -118l-99 -37q-12 57 -46.5 83t-95.5 26q-78 0 -124.5 -53t-46.5 -148t46.5 -148t121.5 -53
q69 0 106.5 26.5t46.5 81.5l100 -31q-19 -78 -86 -121z" />
    <glyph glyph-name="ccedilla.sc" horiz-adv-x="612" 
d="M516.5 50q-49.5 -41 -124.5 -53q29 -21 44 -47.5t15 -54.5q0 -48 -34 -79t-90 -31q-39 0 -66.5 9t-48.5 28l33 62q13 -13 31 -21.5t39 -8.5q24 0 40 15.5t16 40.5q0 27 -17 45.5t-62 38.5q-110 11 -174 87t-64 199q0 89 34 154t97.5 99.5t148.5 34.5q92 0 155 -41
t84 -118l-99 -37q-12 57 -46.5 83t-95.5 26q-78 0 -124.5 -53t-46.5 -148t46.5 -148t121.5 -53q69 0 106.5 26.5t46.5 81.5l100 -31q-16 -65 -65.5 -106z" />
    <glyph glyph-name="d.sc" horiz-adv-x="652" 
d="M519 487q77 -73 77 -206q0 -135 -77 -208t-217 -73h-215v560h215q140 0 217 -73zM442 136.5q47 50.5 47 144.5q0 93 -47 143t-136 50h-112v-388h112q89 0 136 50.5z" />
    <glyph glyph-name="eth.sc" horiz-adv-x="668" 
d="M538 487q77 -73 77 -206q0 -135 -77 -208t-217 -73h-215v250h-86v63h86v247h215q140 0 217 -73zM461 136.5q47 50.5 47 144.5q0 93 -47 143t-136 50h-112v-161h147v-63h-147v-164h112q89 0 136 50.5z" />
    <glyph glyph-name="dcaron.sc" horiz-adv-x="652" 
d="M238 633l-113 167h89l80 -107l80 107h89l-113 -167h-112zM519 487q77 -73 77 -206q0 -135 -77 -208t-217 -73h-215v560h215q140 0 217 -73zM442 136.5q47 50.5 47 144.5q0 93 -47 143t-136 50h-112v-388h112q89 0 136 50.5z" />
    <glyph glyph-name="dcroat.sc" horiz-adv-x="668" 
d="M538 487q77 -73 77 -206q0 -135 -77 -208t-217 -73h-215v250h-86v63h86v247h215q140 0 217 -73zM461 136.5q47 50.5 47 144.5q0 93 -47 143t-136 50h-112v-161h147v-63h-147v-164h112q89 0 136 50.5z" />
    <glyph glyph-name="e.sc" horiz-adv-x="575" 
d="M533 84v-84h-446v560h436v-84h-329v-152h257v-82h-257v-158h339z" />
    <glyph glyph-name="eacute.sc" horiz-adv-x="575" 
d="M337 637h-82l56 151h114zM533 84v-84h-446v560h436v-84h-329v-152h257v-82h-257v-158h339z" />
    <glyph glyph-name="ecaron.sc" horiz-adv-x="575" 
d="M242 633l-113 167h89l80 -107l80 107h89l-113 -167h-112zM533 84v-84h-446v560h436v-84h-329v-152h257v-82h-257v-158h339z" />
    <glyph glyph-name="ecircumflex.sc" horiz-adv-x="575" 
d="M219 631h-89l113 167h112l113 -167h-89l-80 107zM533 84v-84h-446v560h436v-84h-329v-152h257v-82h-257v-158h339z" />
    <glyph glyph-name="edieresis.sc" horiz-adv-x="575" 
d="M533 84v-84h-446v560h436v-84h-329v-152h257v-82h-257v-158h339zM245 743q18 -17 18 -46t-18 -46t-48 -17q-29 0 -47 17.5t-18 45.5q0 29 18 46t47 17q30 0 48 -17zM447 743q18 -17 18 -46t-18 -46t-48 -17t-47.5 17t-17.5 46t17.5 46t47.5 17t48 -17z" />
    <glyph glyph-name="edotaccent.sc" horiz-adv-x="575" 
d="M533 84v-84h-446v560h436v-84h-329v-152h257v-82h-257v-158h339zM350 760.5q19 -17.5 19 -48.5t-19 -48.5t-51 -17.5t-50.5 17.5t-18.5 48.5t18.5 48.5t50.5 17.5t51 -17.5z" />
    <glyph glyph-name="egrave.sc" horiz-adv-x="575" 
d="M265 637l-88 151h114l56 -151h-82zM533 84v-84h-446v560h436v-84h-329v-152h257v-82h-257v-158h339z" />
    <glyph glyph-name="emacron.sc" horiz-adv-x="575" 
d="M533 84v-84h-446v560h436v-84h-329v-152h257v-82h-257v-158h339zM477 648h-356v78h356v-78z" />
    <glyph glyph-name="eogonek.sc" horiz-adv-x="575" 
d="M544 -195q-30 -20 -89 -20q-57 0 -91 27t-34 75q0 39 21.5 66.5t64.5 46.5h-329v560h436v-84h-329v-152h257v-82h-257v-158h339v-84h1q-70 -20 -96.5 -43.5t-26.5 -53.5q0 -23 16.5 -36t45.5 -13q35 0 53 12z" />
    <glyph glyph-name="f.sc" horiz-adv-x="555" 
d="M194 476v-154h257v-84h-257v-238h-107v560h436v-84h-329z" />
    <glyph glyph-name="g.sc" horiz-adv-x="645" 
d="M584 294v-294h-75l-4 83q-23 -42 -67.5 -66.5t-111.5 -24.5q-82 0 -143.5 34.5t-95 99.5t-33.5 154t34.5 154t98 99.5t149.5 34.5q183 0 244 -141l-93 -44q-35 99 -149 99q-81 0 -128.5 -53.5t-47.5 -148.5q0 -98 46 -150.5t133 -52.5q68 0 106.5 33t38.5 93v12h-159v79
h257z" />
    <glyph glyph-name="gbreve.sc" horiz-adv-x="645" 
d="M584 294v-294h-75l-4 83q-23 -42 -67.5 -66.5t-111.5 -24.5q-82 0 -143.5 34.5t-95 99.5t-33.5 154t34.5 154t98 99.5t149.5 34.5q183 0 244 -141l-93 -44q-35 99 -149 99q-81 0 -128.5 -53.5t-47.5 -148.5q0 -98 46 -150.5t133 -52.5q68 0 106.5 33t38.5 93v12h-159v79
h257zM450 672q-42 -42 -112 -42t-112 42t-42 111h79q0 -34 21 -58t54 -24t54 24t21 58h79q0 -69 -42 -111z" />
    <glyph glyph-name="h.sc" horiz-adv-x="667" 
d="M580 560v-560h-107v240h-279v-240h-107v560h107v-233h279v233h107z" />
    <glyph glyph-name="i.sc" horiz-adv-x="280" 
d="M194 0h-107v560h107v-560z" />
    <glyph glyph-name="iacute.sc" horiz-adv-x="280" 
d="M263 788l-88 -151h-82l56 151h114zM194 0h-107v560h107v-560z" />
    <glyph glyph-name="iacute_j.loclNLD.sc" horiz-adv-x="813" 
d="M261 788l-87 -151h-83l56 151h114zM806 788l-88 -151h-83l57 151h114zM194 0h-107v560h107v-560zM734 202q0 -102 -57 -156t-162 -54q-96 0 -147.5 44.5t-51.5 120.5q0 19 5 47l101 19q-3 -24 -3 -44q0 -52 23 -76t72 -24q62 0 87.5 33.5t25.5 103.5v344h107v-358z" />
    <glyph glyph-name="icircumflex.sc" horiz-adv-x="280" 
d="M220 631l-80 107l-80 -107h-89l113 167h112l113 -167h-89zM194 0h-107v560h107v-560z" />
    <glyph glyph-name="idieresis.sc" horiz-adv-x="280" 
d="M100 743q18 -17 18 -46q0 -28 -18 -45.5t-47 -17.5t-46.5 17t-17.5 46t17.5 46t46.5 17t47 -17zM274 743q18 -17 18 -46q0 -28 -18 -45.5t-47 -17.5q-30 0 -47.5 17t-17.5 46t17.5 46t47.5 17q29 0 47 -17zM194 0h-107v560h107v-560z" />
    <glyph glyph-name="i.sc.loclTRK" horiz-adv-x="280" 
d="M194 0h-107v560h107v-560zM191 723.5q19 -17.5 19 -48.5t-19 -48.5t-51 -17.5t-50.5 17.5t-18.5 48.5t18.5 48.5t50.5 17.5t51 -17.5z" />
    <glyph glyph-name="igrave.sc" horiz-adv-x="280" 
d="M179 637h-82l-88 151h114zM194 0h-107v560h107v-560z" />
    <glyph glyph-name="ij.sc" horiz-adv-x="813" 
d="M194 0h-107v560h107v-560zM734 202q0 -102 -57 -156t-162 -54q-96 0 -147.5 44t-51.5 120q0 20 5 48l101 19q-3 -25 -3 -45q0 -52 23 -75.5t72 -23.5q62 0 87.5 33.5t25.5 103.5v344h107v-358z" />
    <glyph glyph-name="imacron.sc" horiz-adv-x="280" 
d="M255 648h-230v78h230v-78zM194 0h-107v560h107v-560z" />
    <glyph glyph-name="iogonek.sc" horiz-adv-x="280" 
d="M219 -192q-34 -23 -91 -23q-56 0 -89.5 27t-33.5 75q0 74 82 116v557h107v-560q-61 -24 -84.5 -47t-23.5 -48q0 -51 57 -51q34 0 55 14z" />
    <glyph glyph-name="j.sc" horiz-adv-x="533" 
d="M454 202q0 -102 -57 -156t-162 -54q-96 0 -147.5 44t-51.5 120q0 20 5 48l101 19q-3 -25 -3 -45q0 -52 23 -75.5t72 -23.5q62 0 87.5 33.5t25.5 103.5v344h107v-358z" />
    <glyph glyph-name="k.sc" horiz-adv-x="610" 
d="M288 263l-94 -94v-169h-107v560h107v-274l268 274h123l-220 -231l226 -329h-127z" />
    <glyph glyph-name="l.sc" horiz-adv-x="586" 
d="M515 87v-87h-428v560h107v-473h321z" />
    <glyph glyph-name="lacute.sc" horiz-adv-x="586" 
d="M178 637h-82l56 151h114zM515 87v-87h-428v560h107v-473h321z" />
    <glyph glyph-name="lcaron.sc" horiz-adv-x="586" 
d="M515 87v-87h-428v560h107v-473h321zM347 350h-70l21 210h96z" />
    <glyph glyph-name="ldot.sc" horiz-adv-x="601" 
d="M515 87v-87h-428v560h107v-473h321zM538.5 354.5q20.5 -19.5 20.5 -52.5t-20.5 -53t-54.5 -20t-55 20t-21 53t20.5 52.5t55.5 19.5q34 0 54.5 -19.5z" />
    <glyph glyph-name="lslash.sc" horiz-adv-x="560" 
d="M532 87v-87h-428v204l-98 -50v84l98 50v272h107v-218l154 79v-84l-154 -78v-172h321z" />
    <glyph glyph-name="m.sc" horiz-adv-x="794" 
d="M87 560h153l121 -335l35 -110h3l35 110l121 335h152v-560h-100v291l8 171h-2l-171 -462h-90l-171 462h-2l7 -171v-291h-99v560z" />
    <glyph glyph-name="n.sc" horiz-adv-x="670" 
d="M583 0h-132l-220 362l-47 86h-1l4 -86v-362h-100v560h132l220 -363l47 -85h1l-5 86v362h101v-560z" />
    <glyph glyph-name="nacute.sc" horiz-adv-x="670" 
d="M458 788l-88 -151h-82l56 151h114zM583 0h-132l-220 362l-47 86h-1l4 -86v-362h-100v560h132l220 -363l47 -85h1l-5 86v362h101v-560z" />
    <glyph glyph-name="ncaron.sc" horiz-adv-x="670" 
d="M394 633h-112l-113 167h89l80 -107l80 107h89zM583 0h-132l-220 362l-47 86h-1l4 -86v-362h-100v560h132l220 -363l47 -85h1l-5 86v362h101v-560z" />
    <glyph glyph-name="ntilde.sc" horiz-adv-x="670" 
d="M583 0h-132l-220 362l-47 86h-1l4 -86v-362h-100v560h132l220 -363l47 -85h1l-5 86v362h101v-560zM406 636q-29 0 -48.5 10.5t-40.5 29.5q-17 14 -26 19.5t-21 5.5q-19 0 -29.5 -16.5t-15.5 -49.5h-73q9 142 119 142q28 0 46.5 -10t41.5 -30q17 -14 26 -19.5t20 -5.5
q20 0 30.5 16t15.5 49h73q-9 -141 -118 -141z" />
    <glyph glyph-name="o.sc" horiz-adv-x="670" 
d="M484.5 533.5q63.5 -34.5 97.5 -99.5t34 -154t-34 -154t-97.5 -99.5t-149.5 -34.5t-149.5 34.5t-97.5 99.5t-34 154t34 154t97.5 99.5t149.5 34.5t149.5 -34.5zM207 428.5q-46 -52.5 -46 -148.5t46 -148.5t128 -52.5t128 52.5t46 148.5t-46 148.5t-128 52.5t-128 -52.5z
" />
    <glyph glyph-name="oacute.sc" horiz-adv-x="670" 
d="M454 788l-88 -151h-82l56 151h114zM484.5 533.5q63.5 -34.5 97.5 -99.5t34 -154t-34 -154t-97.5 -99.5t-149.5 -34.5t-149.5 34.5t-97.5 99.5t-34 154t34 154t97.5 99.5t149.5 34.5t149.5 -34.5zM207 428.5q-46 -52.5 -46 -148.5t46 -148.5t128 -52.5t128 52.5t46 148.5
t-46 148.5t-128 52.5t-128 -52.5z" />
    <glyph glyph-name="ocircumflex.sc" horiz-adv-x="670" 
d="M415 631l-80 107l-80 -107h-89l113 167h112l113 -167h-89zM484.5 533.5q63.5 -34.5 97.5 -99.5t34 -154t-34 -154t-97.5 -99.5t-149.5 -34.5t-149.5 34.5t-97.5 99.5t-34 154t34 154t97.5 99.5t149.5 34.5t149.5 -34.5zM207 428.5q-46 -52.5 -46 -148.5t46 -148.5
t128 -52.5t128 52.5t46 148.5t-46 148.5t-128 52.5t-128 -52.5z" />
    <glyph glyph-name="odieresis.sc" horiz-adv-x="670" 
d="M484.5 533.5q63.5 -34.5 97.5 -99.5t34 -154t-34 -154t-97.5 -99.5t-149.5 -34.5t-149.5 34.5t-97.5 99.5t-34 154t34 154t97.5 99.5t149.5 34.5t149.5 -34.5zM207 428.5q-46 -52.5 -46 -148.5t46 -148.5t128 -52.5t128 52.5t46 148.5t-46 148.5t-128 52.5t-128 -52.5z
M281 743q18 -17 18 -46t-18 -46t-48 -17q-29 0 -47 17.5t-18 45.5q0 29 18 46t47 17q30 0 48 -17zM483 743q18 -17 18 -46t-18 -46t-48 -17t-47.5 17t-17.5 46t17.5 46t47.5 17t48 -17z" />
    <glyph glyph-name="ograve.sc" horiz-adv-x="670" 
d="M374 637h-82l-88 151h114zM484.5 533.5q63.5 -34.5 97.5 -99.5t34 -154t-34 -154t-97.5 -99.5t-149.5 -34.5t-149.5 34.5t-97.5 99.5t-34 154t34 154t97.5 99.5t149.5 34.5t149.5 -34.5zM207 428.5q-46 -52.5 -46 -148.5t46 -148.5t128 -52.5t128 52.5t46 148.5
t-46 148.5t-128 52.5t-128 -52.5z" />
    <glyph glyph-name="ohungarumlaut.sc" horiz-adv-x="670" 
d="M357 788l-88 -151h-82l56 151h114zM537 788l-88 -151h-83l56 151h115zM484.5 533.5q63.5 -34.5 97.5 -99.5t34 -154t-34 -154t-97.5 -99.5t-149.5 -34.5t-149.5 34.5t-97.5 99.5t-34 154t34 154t97.5 99.5t149.5 34.5t149.5 -34.5zM207 428.5q-46 -52.5 -46 -148.5
t46 -148.5t128 -52.5t128 52.5t46 148.5t-46 148.5t-128 52.5t-128 -52.5z" />
    <glyph glyph-name="omacron.sc" horiz-adv-x="670" 
d="M484.5 533.5q63.5 -34.5 97.5 -99.5t34 -154t-34 -154t-97.5 -99.5t-149.5 -34.5t-149.5 34.5t-97.5 99.5t-34 154t34 154t97.5 99.5t149.5 34.5t149.5 -34.5zM207 428.5q-46 -52.5 -46 -148.5t46 -148.5t128 -52.5t128 52.5t46 148.5t-46 148.5t-128 52.5t-128 -52.5z
M513 648h-356v78h356v-78z" />
    <glyph glyph-name="oslash.sc" horiz-adv-x="670" 
d="M595 404q21 -55 21 -124q0 -89 -34 -154t-97.5 -99.5t-149.5 -34.5q-93 0 -156 39l-42 -57h-63l65 86q-42 38 -63.5 93.5t-21.5 126.5q0 89 34 154t97.5 99.5t149.5 34.5q94 0 161 -41l38 50h63l-62 -80q39 -38 60 -93zM207 428.5q-46 -52.5 -46 -148.5q0 -88 41 -142
l234 314q-41 29 -101 29q-82 0 -128 -52.5zM463 131.5q46 52.5 46 148.5q0 85 -37 137l-232 -313q41 -25 95 -25q82 0 128 52.5z" />
    <glyph glyph-name="otilde.sc" horiz-adv-x="670" 
d="M484.5 533.5q63.5 -34.5 97.5 -99.5t34 -154t-34 -154t-97.5 -99.5t-149.5 -34.5t-149.5 34.5t-97.5 99.5t-34 154t34 154t97.5 99.5t149.5 34.5t149.5 -34.5zM207 428.5q-46 -52.5 -46 -148.5t46 -148.5t128 -52.5t128 52.5t46 148.5t-46 148.5t-128 52.5t-128 -52.5z
M402 636q-29 0 -48.5 10.5t-40.5 29.5q-17 14 -26 19.5t-21 5.5q-19 0 -29.5 -16.5t-15.5 -49.5h-73q9 142 119 142q28 0 46.5 -10t41.5 -30q17 -14 26 -19.5t20 -5.5q20 0 30.5 16t15.5 49h73q-9 -141 -118 -141z" />
    <glyph glyph-name="oe.sc" horiz-adv-x="958" 
d="M917 84v-84h-403v82q-59 -90 -191 -90q-80 0 -141 35t-94.5 100t-33.5 153q0 89 33.5 154t94.5 99.5t144 34.5q128 0 188 -88v80h391v-84h-309v-152h240v-82h-240v-158h321zM453 131.5q43 52.5 43 148.5t-43 148.5t-119 52.5q-83 0 -128.5 -52.5t-45.5 -148.5
t45.5 -148.5t128.5 -52.5q76 0 119 52.5z" />
    <glyph glyph-name="p.sc" horiz-adv-x="573" 
d="M477.5 512.5q56.5 -47.5 56.5 -131.5q0 -82 -56.5 -129t-153.5 -47h-130v-205h-107v560h237q97 0 153.5 -47.5zM428 381q0 95 -112 95h-122v-189h122q112 0 112 94z" />
    <glyph glyph-name="thorn.sc" horiz-adv-x="583" 
d="M481.5 418q57.5 -46 57.5 -133t-57.5 -133.5t-167.5 -46.5h-120v-105h-107v560h107v-96h120q110 0 167.5 -46zM433 285q0 96 -115 96h-124v-192h124q115 0 115 96z" />
    <glyph glyph-name="q.sc" horiz-adv-x="670" 
d="M535 -75.5q27 9.5 45 26.5l29 -81q-22 -17 -57.5 -28t-72.5 -11q-83 0 -133 39.5t-51 123.5q-113 12 -177 87.5t-64 198.5q0 89 34 154t97.5 99.5t149.5 34.5t149.5 -34.5t97.5 -99.5t34 -154q0 -125 -66 -200.5t-182 -86.5q6 -42 34 -60t74 -18q32 0 59 9.5zM207 131.5
q46 -52.5 128 -52.5t128 52.5t46 148.5t-46 148.5t-128 52.5t-128 -52.5t-46 -148.5t46 -148.5z" />
    <glyph glyph-name="r.sc" horiz-adv-x="608" 
d="M318 218h-125v-218h-106v560h248q97 0 153.5 -45.5t56.5 -125.5q0 -60 -32 -101.5t-91 -58.5l155 -229h-119zM193 297h134q112 0 112 89q0 90 -112 90h-134v-179z" />
    <glyph glyph-name="racute.sc" horiz-adv-x="608" 
d="M326 637h-82l56 151h114zM318 218h-125v-218h-106v560h248q97 0 153.5 -45.5t56.5 -125.5q0 -60 -32 -101.5t-91 -58.5l155 -229h-119zM193 297h134q112 0 112 89q0 90 -112 90h-134v-179z" />
    <glyph glyph-name="rcaron.sc" horiz-adv-x="608" 
d="M238 633l-113 167h89l80 -107l80 107h89l-113 -167h-112zM318 218h-125v-218h-106v560h248q97 0 153.5 -45.5t56.5 -125.5q0 -60 -32 -101.5t-91 -58.5l155 -229h-119zM193 297h134q112 0 112 89q0 90 -112 90h-134v-179z" />
    <glyph glyph-name="s.sc" horiz-adv-x="573" 
d="M429 541.5q57 -26.5 98 -81.5l-67 -73q-29 51 -68 72.5t-102 21.5q-60 0 -94 -21.5t-34 -55.5q0 -24 18.5 -39t47 -22.5t78.5 -16.5q71 -13 115.5 -27.5t76.5 -48t32 -91.5q0 -77 -65.5 -122t-173.5 -45q-176 0 -256 109l65 76q28 -50 74.5 -74t115.5 -24q61 0 96 18.5
t35 54.5q0 34 -34.5 49t-107.5 27q-71 12 -116 26.5t-77.5 48t-32.5 92.5q0 49 28.5 88.5t82 62t124.5 22.5q84 0 141 -26.5z" />
    <glyph glyph-name="sacute.sc" horiz-adv-x="573" 
d="M409 788l-88 -151h-82l56 151h114zM429 541.5q57 -26.5 98 -81.5l-67 -73q-29 51 -68 72.5t-102 21.5q-60 0 -94 -21.5t-34 -55.5q0 -24 18.5 -39t47 -22.5t78.5 -16.5q71 -13 115.5 -27.5t76.5 -48t32 -91.5q0 -77 -65.5 -122t-173.5 -45q-176 0 -256 109l65 76
q28 -50 74.5 -74t115.5 -24q61 0 96 18.5t35 54.5q0 34 -34.5 49t-107.5 27q-71 12 -116 26.5t-77.5 48t-32.5 92.5q0 49 28.5 88.5t82 62t124.5 22.5q84 0 141 -26.5z" />
    <glyph glyph-name="scaron.sc" horiz-adv-x="573" 
d="M345 633h-112l-113 167h89l80 -107l80 107h89zM429 541.5q57 -26.5 98 -81.5l-67 -73q-29 51 -68 72.5t-102 21.5q-60 0 -94 -21.5t-34 -55.5q0 -24 18.5 -39t47 -22.5t78.5 -16.5q71 -13 115.5 -27.5t76.5 -48t32 -91.5q0 -77 -65.5 -122t-173.5 -45q-176 0 -256 109
l65 76q28 -50 74.5 -74t115.5 -24q61 0 96 18.5t35 54.5q0 34 -34.5 49t-107.5 27q-71 12 -116 26.5t-77.5 48t-32.5 92.5q0 49 28.5 88.5t82 62t124.5 22.5q84 0 141 -26.5z" />
    <glyph glyph-name="germandbls.sc" horiz-adv-x="638" 
d="M554.5 271.5q49.5 -38.5 49.5 -113.5t-51.5 -118.5t-134.5 -43.5q-55 0 -94.5 14t-60.5 38l35 70q20 -18 46.5 -29.5t57.5 -11.5q46 0 73.5 22.5t27.5 59.5q0 46 -28.5 63.5t-85.5 17.5h-79v70l152 165h-146q-52 0 -87 -33.5t-35 -86.5v-355h-107v360q0 60 27.5 105
t77.5 70t114 25h263v-84l-158 -166h9q85 0 134.5 -38.5z" />
    <glyph glyph-name="t.sc" horiz-adv-x="568" 
d="M538 473h-200v-473h-107v473h-202v87h509v-87z" />
    <glyph glyph-name="tcaron.sc" horiz-adv-x="568" 
d="M227 633l-113 167h89l80 -107l80 107h89l-113 -167h-112zM538 473h-200v-473h-107v473h-202v87h509v-87z" />
    <glyph glyph-name="u.sc" horiz-adv-x="650" 
d="M571 218q0 -112 -62.5 -169t-183.5 -57t-183.5 57t-62.5 169v342h107v-335q0 -74 34 -110t105 -36t105 36t34 110v335h107v-342z" />
    <glyph glyph-name="uacute.sc" horiz-adv-x="650" 
d="M444 788l-88 -151h-82l56 151h114zM571 218q0 -112 -62.5 -169t-183.5 -57t-183.5 57t-62.5 169v342h107v-335q0 -74 34 -110t105 -36t105 36t34 110v335h107v-342z" />
    <glyph glyph-name="ucircumflex.sc" horiz-adv-x="650" 
d="M405 631l-80 107l-80 -107h-89l113 167h112l113 -167h-89zM571 218q0 -112 -62.5 -169t-183.5 -57t-183.5 57t-62.5 169v342h107v-335q0 -74 34 -110t105 -36t105 36t34 110v335h107v-342z" />
    <glyph glyph-name="udieresis.sc" horiz-adv-x="650" 
d="M571 218q0 -112 -62.5 -169t-183.5 -57t-183.5 57t-62.5 169v342h107v-335q0 -74 34 -110t105 -36t105 36t34 110v335h107v-342zM271 743q18 -17 18 -46t-18 -46t-48 -17q-29 0 -47 17.5t-18 45.5q0 29 18 46t47 17q30 0 48 -17zM473 743q18 -17 18 -46t-18 -46t-48 -17
t-47.5 17t-17.5 46t17.5 46t47.5 17t48 -17z" />
    <glyph glyph-name="ugrave.sc" horiz-adv-x="650" 
d="M364 637h-82l-88 151h114zM571 218q0 -112 -62.5 -169t-183.5 -57t-183.5 57t-62.5 169v342h107v-335q0 -74 34 -110t105 -36t105 36t34 110v335h107v-342z" />
    <glyph glyph-name="uhungarumlaut.sc" horiz-adv-x="650" 
d="M356 788l-87 -151h-83l56 151h114zM536 788l-88 -151h-83l57 151h114zM571 218q0 -112 -62.5 -169t-183.5 -57t-183.5 57t-62.5 169v342h107v-335q0 -74 34 -110t105 -36t105 36t34 110v335h107v-342z" />
    <glyph glyph-name="umacron.sc" horiz-adv-x="650" 
d="M571 218q0 -112 -62.5 -169t-183.5 -57t-183.5 57t-62.5 169v342h107v-335q0 -74 34 -110t105 -36t105 36t34 110v335h107v-342zM503 648h-356v78h356v-78z" />
    <glyph glyph-name="uogonek.sc" horiz-adv-x="650" 
d="M571 560v-342q0 -89 -40.5 -144t-118.5 -73q-101 -46 -101 -99q0 -24 16.5 -37t44.5 -13q35 0 53 11l18 -61q-32 -19 -88 -19t-90.5 28t-34.5 75q0 34 15.5 60t47.5 47q-105 8 -159.5 64.5t-54.5 160.5v342h107v-335q0 -74 34 -110t105 -36t105 36t34 110v335h107z" />
    <glyph glyph-name="uring.sc" horiz-adv-x="650" 
d="M571 218q0 -112 -62.5 -169t-183.5 -57t-183.5 57t-62.5 169v342h107v-335q0 -74 34 -110t105 -36t105 36t34 110v335h107v-342zM418.5 747.5q34.5 -32.5 34.5 -85.5q0 -55 -34.5 -87.5t-92.5 -32.5q-59 0 -94 32.5t-35 87.5q0 53 35.5 85.5t93.5 32.5t92.5 -32.5z
M278.5 707.5q-18.5 -17.5 -18.5 -45.5t18.5 -46t47.5 -18t47 18t18 46t-18 45.5t-47 17.5t-47.5 -17.5z" />
    <glyph glyph-name="v.sc" horiz-adv-x="602" 
d="M364 0h-125l-220 560h114l133 -356l36 -117h1l36 116l134 357h110z" />
    <glyph glyph-name="w.sc" horiz-adv-x="890" 
d="M408 299l-81 -299h-133l-169 560h112l89 -328l40 -147l122 475h116l125 -476l39 148l89 328h108l-168 -560h-130l-82 299l-39 168h-1z" />
    <glyph glyph-name="x.sc" horiz-adv-x="561" 
d="M415 0l-140 210l-142 -210h-121l206 287l-188 273h124l129 -197l132 197h116l-191 -272l200 -288h-125z" />
    <glyph glyph-name="y.sc" horiz-adv-x="547" 
d="M327 212v-212h-107v212l-210 348h116l101 -178l47 -87l48 87l101 178h113z" />
    <glyph glyph-name="yacute.sc" horiz-adv-x="547" 
d="M393 788l-88 -151h-82l56 151h114zM327 212v-212h-107v212l-210 348h116l101 -178l47 -87l48 87l101 178h113z" />
    <glyph glyph-name="ydieresis.sc" horiz-adv-x="547" 
d="M327 212v-212h-107v212l-210 348h116l101 -178l47 -87l48 87l101 178h113zM220 743q18 -17 18 -46t-18 -46t-48 -17q-29 0 -47 17.5t-18 45.5q0 29 18 46t47 17q30 0 48 -17zM422 743q18 -17 18 -46t-18 -46t-48 -17t-47.5 17t-17.5 46t17.5 46t47.5 17t48 -17z" />
    <glyph glyph-name="z.sc" horiz-adv-x="572" 
d="M528 86v-86h-481v78l298 340l58 56h-359v86h473v-81l-282 -318l-76 -75h369z" />
    <glyph glyph-name="zacute.sc" horiz-adv-x="572" 
d="M312 637h-82l56 151h114zM528 86v-86h-481v78l298 340l58 56h-359v86h473v-81l-282 -318l-76 -75h369z" />
    <glyph glyph-name="zcaron.sc" horiz-adv-x="569" 
d="M228 633l-113 167h88l81 -107l80 107h89l-113 -167h-112zM528 86v-86h-481v78l298 340l58 56h-359v86h473v-81l-282 -318l-76 -75h369z" />
    <glyph glyph-name="zdotaccent.sc" horiz-adv-x="572" 
d="M528 86v-86h-481v78l298 340l58 56h-359v86h473v-81l-282 -318l-76 -75h369zM331 760.5q19 -17.5 19 -48.5t-19 -48.5t-51 -17.5t-50.5 17.5t-18.5 48.5t18.5 48.5t50.5 17.5t51 -17.5z" />
    <glyph glyph-name="Rcommaaccent.sc.ss03" 
d="M87 560h248q97 0 153.5 -45t56.5 -122q0 -58 -32 -94.5t-90 -49.5v-2q48 -8 73 -35.5t28 -69.5q5 -63 11.5 -91.5t18.5 -47.5v-3h-113q-14 34 -22 131q-4 45 -33 66t-88 21h-105v-218h-106v560zM324 297q56 0 85.5 22.5t29.5 66.5q0 45 -29 67.5t-86 22.5h-131v-179h131z
M306 -238h-77l40 167h104z" />
    <glyph glyph-name="r.sc.ss03" 
d="M87 560h248q97 0 153.5 -45t56.5 -122q0 -58 -32 -94.5t-90 -49.5v-2q48 -8 73 -35.5t28 -69.5q5 -63 11.5 -91.5t18.5 -47.5v-3h-113q-14 34 -22 131q-4 45 -33 66t-88 21h-105v-218h-106v560zM324 297q56 0 85.5 22.5t29.5 66.5q0 45 -29 67.5t-86 22.5h-131v-179h131z
" />
    <glyph glyph-name="racute.sc.ss03" 
d="M87 560h248q97 0 153.5 -45t56.5 -122q0 -58 -32 -94.5t-90 -49.5v-2q48 -8 73 -35.5t28 -69.5q5 -63 11.5 -91.5t18.5 -47.5v-3h-113q-14 34 -22 131q-4 45 -33 66t-88 21h-105v-218h-106v560zM324 297q56 0 85.5 22.5t29.5 66.5q0 45 -29 67.5t-86 22.5h-131v-179h131z
M419 806l-99 -168h-82l73 168h108z" />
    <glyph glyph-name="rcaron.sc.ss03" 
d="M87 560h248q97 0 153.5 -45t56.5 -122q0 -58 -32 -94.5t-90 -49.5v-2q48 -8 73 -35.5t28 -69.5q5 -63 11.5 -91.5t18.5 -47.5v-3h-113q-14 34 -22 131q-4 45 -33 66t-88 21h-105v-218h-106v560zM324 297q56 0 85.5 22.5t29.5 66.5q0 45 -29 67.5t-86 22.5h-131v-179h131z
M351 638h-114l-111 168h88l80 -103l80 103h88z" />
    <glyph glyph-name="Gcommaaccent.sc.ss04" horiz-adv-x="643" 
d="M594 289v-40q0 -124 -66 -190.5t-192 -66.5q-130 0 -205.5 76.5t-75.5 211.5q0 89 34.5 154t98.5 99.5t150 34.5q92 0 153 -34.5t92 -106.5l-96 -38q-16 46 -53.5 69.5t-94.5 23.5q-81 0 -129 -53.5t-48 -148.5q0 -98 46.5 -151t134.5 -53q55 0 90 20.5t51 51.5t16 64v4
h-170v73h264zM341 -238h-77l40 167h104z" />
    <glyph glyph-name="g.sc.ss04" horiz-adv-x="643" 
d="M594 289v-40q0 -124 -66 -190.5t-192 -66.5q-130 0 -205.5 76.5t-75.5 211.5q0 89 34.5 154t98.5 99.5t150 34.5q92 0 153 -34.5t92 -106.5l-96 -38q-16 46 -53.5 69.5t-94.5 23.5q-81 0 -129 -53.5t-48 -148.5q0 -98 46.5 -151t134.5 -53q55 0 90 20.5t51 51.5t16 64v4
h-170v73h264z" />
    <glyph glyph-name="gbreve.sc.ss04" horiz-adv-x="643" 
d="M594 289v-40q0 -124 -66 -190.5t-192 -66.5q-130 0 -205.5 76.5t-75.5 211.5q0 89 34.5 154t98.5 99.5t150 34.5q92 0 153 -34.5t92 -106.5l-96 -38q-16 46 -53.5 69.5t-94.5 23.5q-81 0 -129 -53.5t-48 -148.5q0 -98 46.5 -151t134.5 -53q55 0 90 20.5t51 51.5t16 64v4
h-170v73h264zM449 672q-42 -42 -112 -42t-112 42t-42 111h79q0 -34 21 -58t54 -24t54 24t21 58h79q0 -69 -42 -111z" />
    <glyph glyph-name="iacute_j.loclNLD.sc.ss05" horiz-adv-x="577" 
d="M319 788l-88 -151h-83l56 151h115zM514 788l-88 -151h-82l56 151h114zM498 204q0 -100 -58 -156t-158 -56q-101 0 -152.5 40t-51.5 116q0 9 2 29h105q-1 -6 -1 -17q0 -41 25.5 -61t73.5 -20q53 0 80.5 34t27.5 100v347h107v-356zM186 247h-107v313h107v-313z" />
    <glyph glyph-name="ij.sc.ss05" horiz-adv-x="577" 
d="M498 204q0 -100 -58 -156t-158 -56q-101 0 -152.5 40t-51.5 116q0 9 2 29h105q-1 -6 -1 -17q0 -41 25.5 -61t73.5 -20q53 0 80.5 34t27.5 100v347h107v-356zM186 247h-107v313h107v-313z" />
    <glyph glyph-name="ordfeminine" unicode="&#xaa;" horiz-adv-x="399" 
d="M379 382l-6 -51q-20 -10 -44 -10q-29 0 -48 13t-25 38q-18 -24 -50.5 -37.5t-75.5 -13.5q-52 0 -81 21.5t-29 61.5q0 42 31.5 68t100.5 39l89 16v13q0 29 -17.5 45t-48.5 16t-52 -13t-32 -45l-65 27q10 44 49.5 69t103.5 25q73 0 110 -31t37 -92v-132q0 -31 30 -31
q16 0 23 4zM215 398q26 17 26 44v38l-62 -13q-39 -8 -56 -19.5t-17 -31.5q0 -19 13 -27t39 -8q31 0 57 17zM28 250h334v-64h-334v64z" />
    <glyph glyph-name="ordmasculine" unicode="&#xba;" horiz-adv-x="379" 
d="M67.5 366q-42.5 45 -42.5 126q0 82 42.5 127t121.5 45q80 0 122.5 -45t42.5 -127q0 -81 -42.5 -126t-122.5 -45q-79 0 -121.5 45zM267 492q0 110 -78 110q-77 0 -77 -110q0 -108 77 -108q78 0 78 108zM36 250h307v-64h-307v64z" />
    <glyph glyph-name="pi" unicode="&#x3c0;" horiz-adv-x="752" 
d="M567 418v-268q0 -39 25 -55t81 -14l-16 -82q-74 -2 -116.5 10.5t-61.5 42t-19 80.5v286h-193v-418h-107v418h-132v82h686v-82h-147z" />
    <glyph glyph-name="zero" unicode="0" horiz-adv-x="628" 
d="M124.5 76.5q-64.5 86.5 -64.5 253.5t64.5 253.5t189.5 86.5t190 -86.5t65 -253.5t-65 -253.5t-190 -86.5t-189.5 86.5zM423 143.5q37 62.5 37 186.5t-37 186.5t-109 62.5q-145 0 -145 -249t145 -249q72 0 109 62.5z" />
    <glyph glyph-name="one" unicode="1" horiz-adv-x="418" 
d="M324 660v-660h-105v488q0 34 1 53q-34 -33 -77.5 -57t-88.5 -34l-20 93q26 3 67.5 22t78.5 45t54 50h90z" />
    <glyph glyph-name="two" unicode="2" horiz-adv-x="587" 
d="M70 79q130 91 202 154.5t103.5 116t31.5 108.5q0 53 -33.5 86t-91.5 33q-62 0 -98.5 -41t-41.5 -114l-93 43q10 95 73 150t166 55q71 0 123 -27.5t79 -74.5t27 -106q0 -95 -70.5 -181t-234.5 -191v-2q50 4 109 4h208v-92h-459v79z" />
    <glyph glyph-name="three" unicode="3" horiz-adv-x="586" 
d="M409.5 646.5q48.5 -23.5 73.5 -63.5t25 -89q0 -47 -18.5 -83.5t-47 -56.5t-58.5 -20v-2q38 0 69.5 -19t50.5 -54t19 -81q0 -54 -30 -97t-84.5 -67t-125.5 -24q-179 0 -237 160l98 47q15 -58 48 -86.5t95 -28.5q60 0 94 29.5t34 78.5q0 54 -32.5 76.5t-103.5 22.5h-30v85
h27q124 0 124 102q0 50 -28.5 76t-80.5 26q-53 0 -84.5 -25.5t-40.5 -72.5l-98 40q21 72 81.5 111t143.5 39q68 0 116.5 -23.5z" />
    <glyph glyph-name="four" unicode="4" horiz-adv-x="622" 
d="M579 165h-112v-165h-101v165h-325v65l295 430h131v-412h112v-83zM148 248h218v226l4 107h-2q-24 -51 -64 -110z" />
    <glyph glyph-name="five" unicode="5" horiz-adv-x="582" 
d="M429 397.5q47 -26.5 72.5 -73.5t25.5 -109q0 -107 -64 -166t-171 -59q-90 0 -147.5 36t-91.5 109l100 55q15 -54 45.5 -81.5t91.5 -27.5t96.5 33t35.5 93q0 62 -33 95.5t-95 33.5q-94 0 -134 -57l-89 6l41 375h383v-92h-298l-23 -183l-2 -14h1q48 53 146 53
q63 0 110 -26.5z" />
    <glyph glyph-name="six" unicode="6" horiz-adv-x="617" 
d="M466 636.5q53 -33.5 82 -107.5l-94 -45q-29 93 -128 93q-48 0 -85 -33t-57.5 -91t-20.5 -130v-18h4q16 54 65 82.5t109 28.5q65 0 115 -26t77.5 -73.5t27.5 -111.5q0 -99 -63 -157t-172 -58q-125 0 -193 91.5t-68 248.5q0 109 34.5 186t95 115.5t137.5 38.5
q81 0 134 -33.5zM232.5 293.5q-35.5 -33.5 -35.5 -87.5q0 -56 35 -90t94 -34q61 0 95 32.5t34 91.5q0 57 -34 89t-95 32q-58 0 -93.5 -33.5z" />
    <glyph glyph-name="seven" unicode="7" horiz-adv-x="577" 
d="M544 660v-89q-122 -125 -176 -264t-54 -307h-109q0 159 57 302t171 265h-392v93h503z" />
    <glyph glyph-name="eight" unicode="8" horiz-adv-x="619" 
d="M471 621q60 -48 60 -129q0 -51 -25.5 -89t-71.5 -58v-1q59 -22 91.5 -64t32.5 -103q0 -86 -67 -136.5t-181 -50.5t-181.5 50.5t-67.5 136.5q0 60 33 103t92 64v1q-46 19 -72 57.5t-26 89.5q0 82 60 129.5t162 47.5q101 0 161 -48zM226 553.5q-31 -25.5 -31 -71.5
q0 -45 31 -70.5t84 -25.5q52 0 83.5 25.5t31.5 70.5t-31 71t-84 26t-84 -25.5zM412.5 109q37.5 29 37.5 80t-38 80.5t-102 29.5t-102.5 -29.5t-38.5 -80.5t38 -80t103 -29t102.5 29z" />
    <glyph glyph-name="nine" unicode="9" horiz-adv-x="621" 
d="M490 578.5q68 -91.5 68 -249.5q0 -168 -67.5 -253.5t-194.5 -85.5q-90 0 -146.5 37t-86.5 111l101 47q16 -52 44 -77.5t88 -25.5q88 0 126 66.5t38 193.5v11h-4q-14 -58 -63.5 -85.5t-112.5 -27.5q-64 0 -113.5 26t-77.5 74.5t-28 112.5q0 101 63.5 159t172.5 58
q125 0 193 -91.5zM202 543.5q-34 -32.5 -34 -91.5q0 -57 34 -89t95 -32q58 0 93.5 33.5t35.5 87.5q0 56 -35.5 90t-93.5 34q-61 0 -95 -32.5z" />
    <glyph glyph-name="zero.osf" horiz-adv-x="603" 
d="M486 496.5q62 -73.5 62 -216.5t-62 -216.5t-184 -73.5t-184.5 73.5t-62.5 216.5t62.5 216.5t184.5 73.5t184 -73.5zM197.5 435q-35.5 -52 -35.5 -155t35.5 -155t104.5 -52t104.5 52t35.5 155t-35.5 155t-104.5 52t-104.5 -52z" />
    <glyph glyph-name="one.osf" horiz-adv-x="393" 
d="M307 560v-560h-106v394q0 16 2 52q-34 -32 -75.5 -55t-84.5 -31l-18 88q49 10 107.5 43t84.5 69h90z" />
    <glyph glyph-name="two.osf" horiz-adv-x="544" 
d="M431 519.5q58 -50.5 58 -142.5q0 -63 -31 -112t-82 -86t-125 -75q-23 -12 -57 -24v-2q10 1 38 3t54 2h223v-83h-460v82q126 60 193 99.5t104.5 86.5t37.5 108q0 58 -34 84.5t-84 26.5q-56 0 -92.5 -36t-36.5 -97q0 -13 1 -19l-95 36q0 57 25.5 102t76 71t121.5 26
q107 0 165 -50.5z" />
    <glyph glyph-name="three.osf" horiz-adv-x="541" 
d="M375 546.5q48 -23.5 72 -64t24 -90.5q0 -71 -32.5 -110t-88.5 -48v-2q63 -3 99.5 -43t36.5 -106q0 -57 -29.5 -101t-83.5 -68t-124 -24q-179 0 -237 160l93 47q15 -61 49.5 -92.5t97.5 -31.5q62 0 96.5 32.5t34.5 84.5q0 54 -34 78t-104 24h-30v78h27q61 0 93.5 28
t32.5 79q0 110 -112 110q-54 0 -86.5 -27.5t-42.5 -78.5l-93 39q21 72 81 111t143 39q69 0 117 -23.5z" />
    <glyph glyph-name="four.osf" horiz-adv-x="618" 
d="M575 65h-112v-165h-101v165h-325v65l295 430h131v-412h112v-83zM144 148h218v226l4 107h-2q-24 -51 -64 -110z" />
    <glyph glyph-name="five.osf" horiz-adv-x="564" 
d="M463 266.5q55 -57.5 55 -152.5q0 -106 -63 -165t-169 -59q-90 0 -149 37t-90 112l95 51q15 -56 48.5 -86.5t93.5 -30.5q63 0 97.5 35.5t34.5 98.5q0 64 -33.5 99t-95.5 35q-44 0 -78.5 -16.5t-55.5 -46.5l-88 7l41 375h383v-86h-300l-23 -191l-2 -13h1q23 25 61 39.5
t87 14.5q95 0 150 -57.5z" />
    <glyph glyph-name="six.osf" horiz-adv-x="597" 
d="M456 636q52 -34 81 -110l-92 -40q-14 48 -43 73.5t-81 25.5q-78 0 -123 -73t-45 -191v-20h4q15 57 66 86t110 29q64 0 113 -25.5t76 -73.5t27 -112q0 -99 -62.5 -157t-169.5 -58q-83 0 -142 42t-89.5 119t-30.5 179q0 109 34.5 185.5t95 115.5t138.5 39q81 0 133 -34z
M222.5 299q-36.5 -36 -36.5 -94q0 -59 36 -95.5t95 -36.5q62 0 96 35t34 98q0 61 -34 95t-96 34q-58 0 -94.5 -36z" />
    <glyph glyph-name="seven.osf" horiz-adv-x="549" 
d="M516 560v-89q-125 -130 -178 -266.5t-53 -304.5h-106q0 160 57.5 305t174.5 267h-399v88h504z" />
    <glyph glyph-name="eight.osf" horiz-adv-x="599" 
d="M458.5 621.5q58.5 -47.5 58.5 -129.5q0 -50 -24.5 -88.5t-69.5 -58.5v-1q58 -21 90.5 -63.5t32.5 -102.5q0 -87 -67 -137.5t-179 -50.5q-113 0 -179.5 50.5t-66.5 137.5q0 59 32.5 102t90.5 64v1q-45 20 -70 58t-25 89q0 82 59 129.5t159 47.5t158.5 -47.5zM215 559.5
q-31 -26.5 -31 -73.5t31.5 -74t84.5 -27t84 27t31 74t-31 73.5t-84 26.5q-54 0 -85 -26.5zM402.5 103.5q37.5 30.5 37.5 83.5t-37.5 84t-102.5 31t-103 -31t-38 -84t38 -83.5t103 -30.5t102.5 30.5z" />
    <glyph glyph-name="nine.osf" horiz-adv-x="613" 
d="M490 478.5q68 -91.5 68 -249.5q0 -156 -68 -247.5t-192 -91.5q-91 0 -148 36.5t-86 114.5l95 43q11 -54 43 -82.5t96 -28.5q76 0 120 66t44 182q0 22 -1 38h-3q-13 -58 -61 -88t-114 -30q-65 0 -115 26t-77.5 74.5t-27.5 113.5q0 99 63.5 157t171.5 58q124 0 192 -91.5z
M199.5 450.5q-34.5 -34.5 -34.5 -96.5q0 -61 35 -95.5t98 -34.5q58 0 94 36t36 94q0 59 -35.5 95t-94.5 36q-64 0 -98.5 -34.5z" />
    <glyph glyph-name="zero.tf" 
d="M114 76.5q-64 86.5 -64 253.5t64 253.5t188 86.5t188 -86.5t64 -253.5t-64 -253.5t-188 -86.5t-188 86.5zM445 330q0 249 -143 249t-143 -249t143 -249t143 249z" />
    <glyph glyph-name="one.tf" 
d="M567 89v-89h-468v89h193v399q0 17 2 59q-38 -35 -87.5 -60t-97.5 -35l-20 91q27 4 72 22.5t86 44.5t58 50h90v-571h172z" />
    <glyph glyph-name="two.tf" 
d="M76 79q130 91 202 154.5t103.5 116t31.5 108.5q0 53 -33.5 86t-91.5 33q-62 0 -98.5 -41t-41.5 -114l-93 43q10 95 73 150t166 55q71 0 123 -27.5t79 -74.5t27 -106q0 -95 -70.5 -181t-234.5 -191v-2q50 4 109 4h208v-92h-459v79z" />
    <glyph glyph-name="three.tf" 
d="M423 646.5q48 -23.5 73 -63.5t25 -89q0 -47 -18.5 -83.5t-47 -56.5t-58.5 -20v-2q38 0 69.5 -19t50.5 -54t19 -81q0 -54 -30 -97t-84.5 -67t-124.5 -24q-179 0 -237 160l101 49q13 -59 45 -88t94 -29q60 0 94 30t34 78q0 54 -32.5 76.5t-102.5 22.5h-30v85h27
q123 0 123 102q0 50 -28 76t-80 26q-53 0 -85 -25.5t-41 -72.5l-97 40q21 72 81.5 111t143.5 39q68 0 116 -23.5z" />
    <glyph glyph-name="four.tf" 
d="M348 162h-311v68l278 430h134v-412h122v-86h-122v-162h-101v162zM350 248v188q0 68 3 140h-2q-19 -41 -56 -98l-156 -230h211z" />
    <glyph glyph-name="five.tf" 
d="M441 397.5q47 -26.5 72.5 -73.5t25.5 -109q0 -107 -64 -166t-171 -59q-90 0 -147.5 36t-91.5 109l100 55q15 -54 45.5 -81.5t91.5 -27.5t96.5 33t35.5 93q0 62 -33 95.5t-95 33.5q-94 0 -134 -57l-89 6l41 375h383v-92h-298l-23 -183l-2 -14h1q48 53 146 53
q63 0 110 -26.5z" />
    <glyph glyph-name="six.tf" 
d="M463 636.5q53 -33.5 83 -107.5l-94 -45q-29 93 -129 93q-47 0 -83.5 -33t-56.5 -91t-20 -130v-18h4q16 54 66 82.5t109 28.5q98 0 157.5 -57.5t59.5 -153.5q0 -99 -62.5 -157t-169.5 -58q-126 0 -194 92t-68 248q0 109 34.5 185.5t94.5 115.5t136 39q80 0 133 -33.5z
M232 293.5q-35 -33.5 -35 -87.5q0 -56 35 -90t93 -34q61 0 94.5 32.5t33.5 91.5q0 57 -34 89t-94 32q-58 0 -93 -33.5z" />
    <glyph glyph-name="seven.tf" 
d="M565 660v-89q-126 -130 -183.5 -265.5t-57.5 -305.5h-109q0 160 61 303t180 264h-408v93h517z" />
    <glyph glyph-name="eight.tf" 
d="M458 621q58 -48 58 -129q0 -50 -25 -88.5t-69 -58.5v-1q56 -21 88 -63.5t32 -101.5q0 -87 -65 -138t-175 -51t-175 51t-65 138q0 58 32 101t89 64v1q-44 19 -69.5 57.5t-25.5 89.5q0 81 58 129t156 48t156 -48zM221.5 553.5q-29.5 -25.5 -29.5 -71.5q0 -45 30 -70.5
t80 -25.5t80 25.5t30 70.5q0 46 -29.5 71.5t-80.5 25.5t-80.5 -25.5zM400 109q36 29 36 80t-36 80.5t-98 29.5q-61 0 -97.5 -29.5t-36.5 -80.5t36 -80t98 -29t98 29z" />
    <glyph glyph-name="nine.tf" 
d="M477 578.5q68 -91.5 68 -249.5q0 -168 -66 -253.5t-194 -85.5q-91 0 -147.5 36.5t-85.5 111.5l102 47q15 -52 43.5 -77.5t89.5 -25.5q87 0 124.5 66.5t37.5 193.5v11h-4q-15 -60 -64 -86.5t-113 -26.5t-113.5 26t-76.5 74t-27 113q0 100 63 158.5t171 58.5
q124 0 192 -91.5zM190.5 543.5q-33.5 -32.5 -33.5 -91.5q0 -57 34 -89t94 -32q58 0 93.5 33.5t35.5 87.5q0 56 -35 90t-94 34q-61 0 -94.5 -32.5z" />
    <glyph glyph-name="zero.tosf" 
d="M484 496.5q62 -73.5 62 -216.5t-62 -216.5t-182 -73.5t-182 73.5t-62 216.5t62 216.5t182 73.5t182 -73.5zM164 280q0 -207 138 -207t138 207t-138 207t-138 -207z" />
    <glyph glyph-name="one.tosf" 
d="M568 87v-87h-469v87h194v291q0 11 2 43l1 30q-36 -34 -83 -58.5t-95 -34.5l-19 85q27 4 70.5 22.5t83 44.5t56.5 50h87v-473h172z" />
    <glyph glyph-name="two.tosf" 
d="M449 519.5q58 -50.5 58 -142.5q0 -63 -31 -112t-82 -86t-125 -75q-23 -12 -57 -24v-2q10 1 38 3t54 2h223v-83h-460v82q126 60 193 99.5t104.5 86.5t37.5 108q0 58 -34 84.5t-84 26.5q-56 0 -92.5 -36t-36.5 -97q0 -13 1 -19l-95 36q0 57 25.5 102t76 71t121.5 26
q107 0 165 -50.5z" />
    <glyph glyph-name="three.tosf" 
d="M422 546.5q48 -23.5 72 -64t24 -90.5q0 -71 -32.5 -110t-88.5 -48v-2q63 -3 99.5 -43t36.5 -106q0 -57 -29.5 -101t-83.5 -68t-124 -24q-179 0 -237 160l93 47q15 -61 49.5 -92.5t97.5 -31.5q62 0 96.5 32.5t34.5 84.5q0 54 -34 78t-104 24h-30v78h27q61 0 93.5 28
t32.5 79q0 110 -112 110q-54 0 -86.5 -27.5t-42.5 -78.5l-93 39q21 72 81 111t143 39q69 0 117 -23.5z" />
    <glyph glyph-name="four.tosf" 
d="M362 65h-318v65l287 430h133v-412h109v-83h-109v-165h-102v165zM364 148v188q0 77 4 141h-2q-16 -36 -56 -95l-164 -234h218z" />
    <glyph glyph-name="five.tosf" 
d="M491 266.5q55 -57.5 55 -152.5q0 -106 -63 -165t-169 -59q-90 0 -149 37t-90 112l95 51q15 -56 48.5 -86.5t93.5 -30.5q63 0 97.5 35.5t34.5 98.5q0 64 -33.5 99t-95.5 35q-44 0 -78.5 -16.5t-55.5 -46.5l-88 7l41 375h383v-86h-300l-23 -191l-2 -13h1q23 25 61 39.5
t87 14.5q95 0 150 -57.5z" />
    <glyph glyph-name="six.tosf" 
d="M463 636q52 -34 81 -110l-92 -40q-14 48 -43 73.5t-81 25.5q-78 0 -123 -73t-45 -191v-20h4q15 57 66 86t110 29q64 0 113 -25.5t76 -73.5t27 -112q0 -99 -62.5 -157t-169.5 -58q-83 0 -142 42t-89.5 119t-30.5 179q0 109 34.5 185.5t95 115.5t138.5 39q81 0 133 -34z
M229.5 299q-36.5 -36 -36.5 -94q0 -59 36 -95.5t95 -36.5q62 0 96 35t34 98q0 61 -34 95t-96 34q-58 0 -94.5 -36z" />
    <glyph glyph-name="seven.tosf" 
d="M552 560v-89q-122 -125 -176 -264t-54 -307h-107q0 161 57.5 305.5t173.5 266.5h-392v88h498z" />
    <glyph glyph-name="eight.tosf" 
d="M458.5 621.5q58.5 -47.5 58.5 -129.5q0 -50 -24.5 -88.5t-69.5 -58.5v-1q58 -21 90.5 -63.5t32.5 -102.5q0 -87 -67 -137.5t-179 -50.5q-113 0 -179.5 50.5t-66.5 137.5q0 59 32.5 102t90.5 64v1q-45 20 -70 58t-25 89q0 82 59 129.5t159 47.5t158.5 -47.5zM215 559.5
q-31 -26.5 -31 -73.5t31.5 -74t84.5 -27t84 27t31 74t-31 73.5t-84 26.5q-54 0 -85 -26.5zM402.5 103.5q37.5 30.5 37.5 83.5t-37.5 84t-102.5 31t-103 -31t-38 -84t38 -83.5t103 -30.5t102.5 30.5z" />
    <glyph glyph-name="nine.tosf" 
d="M471 478.5q68 -91.5 68 -249.5q0 -156 -68 -247.5t-192 -91.5q-91 0 -148 36.5t-86 114.5l95 43q11 -54 43 -82.5t96 -28.5q76 0 120 66t44 182q0 22 -1 38h-3q-13 -58 -61 -88t-114 -30q-65 0 -115 26t-77.5 74.5t-27.5 113.5q0 99 63.5 157t171.5 58q124 0 192 -91.5z
M180.5 450.5q-34.5 -34.5 -34.5 -96.5q0 -61 35 -95.5t98 -34.5q58 0 94 36t36 94q0 59 -35.5 95t-94.5 36q-64 0 -98.5 -34.5z" />
    <glyph glyph-name="zero.zero" horiz-adv-x="628" 
d="M504 583.5q65 -86.5 65 -253.5t-65 -253.5t-190 -86.5t-189.5 86.5t-64.5 253.5t64.5 253.5t189.5 86.5t190 -86.5zM169 330q0 -122 35 -184l175 417q-28 16 -65 16q-145 0 -145 -249zM423 143.5q37 62.5 37 186.5q0 116 -34 181l-173 -416q24 -14 61 -14q72 0 109 62.5z
" />
    <glyph glyph-name="zero.osf.zero" horiz-adv-x="603" 
d="M486 496.5q62 -73.5 62 -216.5t-62 -216.5t-184 -73.5t-184.5 73.5t-62.5 216.5t62.5 216.5t184.5 73.5t184 -73.5zM197.5 435q-35.5 -52 -35.5 -155q0 -98 32 -151l173 342q-29 16 -65 16q-69 0 -104.5 -52zM406.5 125q35.5 52 35.5 155q0 90 -27 141l-171 -336
q26 -12 58 -12q69 0 104.5 52z" />
    <glyph glyph-name="zero.tf.zero" 
d="M490 583.5q64 -86.5 64 -253.5t-64 -253.5t-188 -86.5t-188 86.5t-64 253.5t64 253.5t188 86.5t188 -86.5zM159 330q0 -127 37 -189l168 423q-25 15 -62 15q-143 0 -143 -249zM445 330q0 123 -34 184l-167 -420q25 -13 58 -13q143 0 143 249z" />
    <glyph glyph-name="zero.tosf.zero" 
d="M484 496.5q62 -73.5 62 -216.5t-62 -216.5t-182 -73.5t-182 73.5t-62 216.5t62 216.5t182 73.5t182 -73.5zM164 280q0 -105 36 -157l174 344q-31 20 -72 20q-138 0 -138 -207zM440 280q0 84 -22 132l-167 -330q23 -9 51 -9q138 0 138 207z" />
    <glyph glyph-name="fraction" unicode="&#x2044;" horiz-adv-x="253" 
d="M319 660h91l-477 -660h-91z" />
    <glyph glyph-name="onehalf" unicode="&#xbd;" horiz-adv-x="884" 
d="M209 665v-397h-86v241q0 30 3 69q-55 -48 -113 -55v73q30 5 68 26t53 43h75zM578 660h91l-477 -660h-91zM547 53q54 35 91 62q70 53 95.5 85t25.5 64q0 29 -17.5 47t-50.5 18q-35 0 -55 -23.5t-21 -64.5l-80 25q3 62 46 97t113 35q76 0 115.5 -37.5t39.5 -90.5
q0 -42 -31.5 -83.5t-98.5 -87.5q-15 -10 -60 -36v-1q45 3 72 3h126v-69h-310v57z" />
    <glyph glyph-name="onequarter" unicode="&#xbc;" horiz-adv-x="817" 
d="M209 665v-397h-86v241q0 30 3 69q-55 -48 -113 -55v73q30 5 68 26t53 43h75zM578 660h91l-477 -660h-91zM798 91h-67v-95h-74v95h-199v43l175 259h98v-243h67v-59zM657 150v103q0 41 3 78h-3q-16 -32 -31 -56l-89 -125h120z" />
    <glyph glyph-name="threequarters" unicode="&#xbe;" horiz-adv-x="925" 
d="M289 640.5q38 -29.5 38 -79.5q0 -42 -24 -66.5t-56 -26.5v-2q36 -1 62.5 -24.5t26.5 -64.5q0 -52 -42.5 -83.5t-111.5 -31.5q-130 0 -162 97l81 34q9 -64 78 -64q32 0 50.5 16t18.5 43q0 50 -69 50h-24v54h21q31 0 47 14t16 40q0 27 -15.5 41t-44.5 14q-60 0 -70 -57
l-78 27q12 49 52.5 74t99.5 25q68 0 106 -29.5zM686 660h91l-477 -660h-91zM906 91h-67v-95h-74v95h-199v43l175 259h98v-243h67v-59zM765 150v103q0 41 3 78h-3q-16 -32 -31 -56l-89 -125h120z" />
    <glyph glyph-name="zero.dnom" horiz-adv-x="401" 
d="M31 194q0 204 170 204q84 0 126.5 -51.5t42.5 -152.5t-42.5 -152.5t-126.5 -51.5q-170 0 -170 204zM264 90q20 34 20 104t-20 104t-63 34t-63.5 -34t-20.5 -104t20.5 -104t63.5 -34t63 34z" />
    <glyph glyph-name="one.dnom" horiz-adv-x="259" 
d="M209 393v-397h-86v241q0 30 3 69q-57 -48 -113 -55v73q30 5 68 26t53 43h75z" />
    <glyph glyph-name="two.dnom" horiz-adv-x="373" 
d="M36 53q54 35 91 62q70 53 95.5 85t25.5 64q0 29 -17.5 47t-50.5 18q-35 0 -55 -23.5t-21 -64.5l-80 25q3 62 46 97t113 35q76 0 115.5 -37.5t39.5 -90.5q0 -42 -31.5 -83.5t-98.5 -87.5q-15 -10 -60 -36v-1q45 3 72 3h126v-69h-310v57z" />
    <glyph glyph-name="three.dnom" horiz-adv-x="367" 
d="M289 368.5q38 -29.5 38 -79.5q0 -42 -24 -66.5t-56 -26.5v-2q36 -1 62.5 -24.5t26.5 -64.5q0 -52 -42.5 -83.5t-111.5 -31.5q-130 0 -162 97l81 34q9 -64 78 -64q32 0 50.5 16t18.5 43q0 50 -69 50h-24v54h21q31 0 47 14t16 40q0 27 -15.5 41t-44.5 14q-60 0 -70 -57
l-78 27q12 49 52.5 74t99.5 25q68 0 106 -29.5z" />
    <glyph glyph-name="four.dnom" horiz-adv-x="369" 
d="M350 91h-67v-95h-74v95h-199v43l175 259h98v-243h67v-59zM209 150v103q0 41 3 78h-3q-16 -32 -31 -56l-89 -125h120z" />
    <glyph glyph-name="five.dnom" horiz-adv-x="368" 
d="M303.5 217q35.5 -35 35.5 -89q0 -66 -43.5 -101.5t-112.5 -35.5q-59 0 -99 19.5t-62 64.5l78 40q14 -57 80 -57q34 0 54.5 18.5t20.5 49.5q0 66 -72 66q-29 0 -47 -8.5t-29 -25.5l-68 3l20 232h260v-68h-194l-7 -78q-1 -16 -6 -27h1q14 16 35.5 24t59.5 8q60 0 95.5 -35z
" />
    <glyph glyph-name="six.dnom" horiz-adv-x="385" 
d="M76 42q-44 52 -44 152q0 99 49.5 151.5t129.5 52.5q53 0 87.5 -20t52.5 -63l-69 -35q-15 51 -71 51q-46 0 -71.5 -37.5t-25.5 -91.5v-12h1q19 28 44 40.5t62 12.5q62 0 99 -33.5t37 -92.5t-41 -93t-114 -34q-82 0 -126 52zM257 73q19 16 19 45t-19.5 46t-53.5 17
q-32 0 -52 -18.5t-20 -44.5q0 -28 19.5 -44.5t52.5 -16.5q35 0 54 16z" />
    <glyph glyph-name="seven.dnom" horiz-adv-x="325" 
d="M318 393v-64q-70 -72 -100 -152t-30 -181h-86q0 91 32.5 175t98.5 152h-228v70h313z" />
    <glyph glyph-name="eight.dnom" horiz-adv-x="395" 
d="M306.5 367.5q40.5 -29.5 40.5 -79.5q0 -32 -18 -55t-52 -33v-1q40 -11 62 -35.5t22 -59.5q0 -53 -44 -83.5t-120 -30.5q-75 0 -119.5 30.5t-44.5 83.5q0 35 21.5 59.5t61.5 35.5v1q-33 10 -51 33t-18 55q0 50 40 79.5t110 29.5q69 0 109.5 -29.5zM148 323
q-18 -14 -18 -39t18 -39.5t49 -14.5t49 14.5t18 39.5t-18 39t-49 14t-49 -14zM254 67q21 16 21 42q0 28 -21 43.5t-57 15.5t-57 -16t-21 -43q0 -26 21 -42t57 -16t57 16z" />
    <glyph glyph-name="nine.dnom" horiz-adv-x="390" 
d="M313 345q45 -53 45 -152q0 -100 -46.5 -151.5t-127.5 -51.5q-120 0 -150 88l78 31q5 -26 22 -39t51 -13q47 0 69 34t22 84q0 12 -1 18h-1q-8 -20 -37.5 -35t-61.5 -15q-67 0 -105.5 34t-38.5 91q0 61 42 95.5t114 34.5q81 0 126 -53zM135.5 314.5
q-19.5 -16.5 -19.5 -46.5q0 -29 19.5 -45.5t53.5 -16.5q33 0 53.5 17.5t20.5 44.5q0 28 -20.5 45.5t-52.5 17.5q-35 0 -54.5 -16.5z" />
    <glyph glyph-name="zero.numr" horiz-adv-x="401" 
d="M31 466q0 204 170 204q84 0 126.5 -51.5t42.5 -152.5t-42.5 -152.5t-126.5 -51.5q-170 0 -170 204zM264 362q20 34 20 104t-20 104t-63 34t-63.5 -34t-20.5 -104t20.5 -104t63.5 -34t63 34z" />
    <glyph glyph-name="one.numr" horiz-adv-x="259" 
d="M209 665v-397h-86v241q0 30 3 69q-55 -48 -113 -55v73q30 5 68 26t53 43h75z" />
    <glyph glyph-name="two.numr" horiz-adv-x="373" 
d="M36 325q54 35 91 62q70 53 95.5 85t25.5 64q0 29 -17.5 47t-50.5 18q-35 0 -55 -23.5t-21 -64.5l-80 25q3 62 46 97t113 35q76 0 115.5 -37.5t39.5 -90.5q0 -42 -31.5 -83.5t-98.5 -87.5q-15 -10 -60 -36v-1q45 3 72 3h126v-69h-310v57z" />
    <glyph glyph-name="three.numr" horiz-adv-x="367" 
d="M289 640.5q38 -29.5 38 -79.5q0 -42 -24 -66.5t-56 -26.5v-2q36 -1 62.5 -24.5t26.5 -64.5q0 -52 -42.5 -83.5t-111.5 -31.5q-130 0 -162 97l81 34q9 -64 78 -64q32 0 50.5 16t18.5 43q0 50 -69 50h-24v54h21q31 0 47 14t16 40q0 27 -15.5 41t-44.5 14q-60 0 -70 -57
l-78 27q12 49 52.5 74t99.5 25q68 0 106 -29.5z" />
    <glyph glyph-name="four.numr" horiz-adv-x="369" 
d="M350 363h-67v-95h-74v95h-199v43l175 259h98v-243h67v-59zM209 422v103q0 41 3 78h-3q-16 -32 -31 -56l-89 -125h120z" />
    <glyph glyph-name="five.numr" horiz-adv-x="368" 
d="M303.5 489q35.5 -35 35.5 -89q0 -66 -43.5 -101.5t-112.5 -35.5q-59 0 -99 19.5t-62 64.5l78 40q14 -57 80 -57q34 0 54.5 18.5t20.5 49.5q0 66 -72 66q-29 0 -47 -8.5t-29 -25.5l-68 3l20 232h260v-68h-194l-7 -78q-1 -16 -6 -27h1q14 16 35.5 24t59.5 8q60 0 95.5 -35z
" />
    <glyph glyph-name="six.numr" horiz-adv-x="385" 
d="M76 314q-44 52 -44 152q0 99 49.5 151.5t129.5 52.5q53 0 87.5 -20t52.5 -63l-69 -35q-15 51 -71 51q-46 0 -71.5 -37.5t-25.5 -91.5v-12h1q19 28 44 40.5t62 12.5q62 0 99 -33.5t37 -92.5t-41 -93t-114 -34q-82 0 -126 52zM257 345q19 16 19 45t-19.5 46t-53.5 17
q-32 0 -52 -18.5t-20 -44.5q0 -28 19.5 -44.5t52.5 -16.5q35 0 54 16z" />
    <glyph glyph-name="seven.numr" horiz-adv-x="325" 
d="M318 665v-64q-70 -72 -100 -152t-30 -181h-86q0 91 32.5 175t98.5 152h-228v70h313z" />
    <glyph glyph-name="eight.numr" horiz-adv-x="395" 
d="M306.5 639.5q40.5 -29.5 40.5 -79.5q0 -32 -18 -55t-52 -33v-1q40 -11 62 -35.5t22 -59.5q0 -53 -44 -83.5t-120 -30.5q-75 0 -119.5 30.5t-44.5 83.5q0 35 21.5 59.5t61.5 35.5v1q-33 10 -51 33t-18 55q0 50 40 79.5t110 29.5q69 0 109.5 -29.5zM148 595
q-18 -14 -18 -39t18 -39.5t49 -14.5t49 14.5t18 39.5t-18 39t-49 14t-49 -14zM254 339q21 16 21 42q0 28 -21 43.5t-57 15.5t-57 -16t-21 -43q0 -26 21 -42t57 -16t57 16z" />
    <glyph glyph-name="nine.numr" horiz-adv-x="390" 
d="M313 617q45 -53 45 -152q0 -100 -46.5 -151.5t-127.5 -51.5q-120 0 -150 88l78 31q5 -26 22 -39t51 -13q47 0 69 34t22 84q0 12 -1 18h-1q-8 -20 -37.5 -35t-61.5 -15q-67 0 -105.5 34t-38.5 91q0 61 42 95.5t114 34.5q81 0 126 -53zM135.5 586.5
q-19.5 -16.5 -19.5 -46.5q0 -29 19.5 -45.5t53.5 -16.5q33 0 53.5 17.5t20.5 44.5q0 28 -20.5 45.5t-52.5 17.5q-35 0 -54.5 -16.5z" />
    <glyph glyph-name="uni2780" unicode="&#x2780;" horiz-adv-x="910" 
d="M258.5 6.5q-85.5 46.5 -132.5 130.5t-47 193t47 193t132.5 130.5t196.5 46.5t196.5 -46.5t132.5 -130.5t47 -193t-47 -193t-132.5 -130.5t-196.5 -46.5t-196.5 46.5zM613 64q69 38 107 107t38 159t-38 159t-107 107t-158 38t-158 -38t-107 -107t-38 -159t38 -159
t107 -107t158 -38t158 38zM521 533v-397h-86v241q0 30 3 69q-57 -48 -113 -55v73q30 5 68 26t53 43h75z" />
    <glyph glyph-name="uni2781" unicode="&#x2781;" horiz-adv-x="910" 
d="M258.5 6.5q-85.5 46.5 -132.5 130.5t-47 193t47 193t132.5 130.5t196.5 46.5t196.5 -46.5t132.5 -130.5t47 -193t-47 -193t-132.5 -130.5t-196.5 -46.5t-196.5 46.5zM613 64q69 38 107 107t38 159t-38 159t-107 107t-158 38t-158 -38t-107 -107t-38 -159t38 -159
t107 -107t158 -38t158 38zM304 203q54 35 91 62q70 53 95.5 85t25.5 64q0 29 -17.5 47t-50.5 18q-35 0 -55 -23.5t-21 -64.5l-80 25q3 62 46 97t113 35q76 0 115.5 -37.5t39.5 -90.5q0 -42 -31.5 -83.5t-98.5 -87.5q-15 -10 -60 -36v-1q45 3 72 3h126v-69h-310v57z" />
    <glyph glyph-name="uni2782" unicode="&#x2782;" horiz-adv-x="910" 
d="M258.5 6.5q-85.5 46.5 -132.5 130.5t-47 193t47 193t132.5 130.5t196.5 46.5t196.5 -46.5t132.5 -130.5t47 -193t-47 -193t-132.5 -130.5t-196.5 -46.5t-196.5 46.5zM613 64q69 38 107 107t38 159t-38 159t-107 107t-158 38t-158 -38t-107 -107t-38 -159t38 -159
t107 -107t158 -38t158 38zM567 505.5q38 -29.5 38 -79.5q0 -42 -24 -66.5t-56 -26.5v-2q36 -1 62.5 -24.5t26.5 -64.5q0 -52 -42.5 -83.5t-111.5 -31.5q-130 0 -162 97l81 34q9 -64 78 -64q32 0 50.5 16t18.5 43q0 50 -69 50h-24v54h21q31 0 47 14t16 40q0 27 -15.5 41
t-44.5 14q-60 0 -70 -57l-78 27q12 49 52.5 74t99.5 25q68 0 106 -29.5z" />
    <glyph glyph-name="uni2783" unicode="&#x2783;" horiz-adv-x="910" 
d="M258.5 6.5q-85.5 46.5 -132.5 130.5t-47 193t47 193t132.5 130.5t196.5 46.5t196.5 -46.5t132.5 -130.5t47 -193t-47 -193t-132.5 -130.5t-196.5 -46.5t-196.5 46.5zM613 64q69 38 107 107t38 159t-38 159t-107 107t-158 38t-158 -38t-107 -107t-38 -159t38 -159
t107 -107t158 -38t158 38zM601 231h-67v-95h-74v95h-199v43l175 259h98v-243h67v-59zM460 290v103q0 41 3 78h-3q-16 -32 -31 -56l-89 -125h120z" />
    <glyph glyph-name="uni2784" unicode="&#x2784;" horiz-adv-x="910" 
d="M258.5 6.5q-85.5 46.5 -132.5 130.5t-47 193t47 193t132.5 130.5t196.5 46.5t196.5 -46.5t132.5 -130.5t47 -193t-47 -193t-132.5 -130.5t-196.5 -46.5t-196.5 46.5zM613 64q69 38 107 107t38 159t-38 159t-107 107t-158 38t-158 -38t-107 -107t-38 -159t38 -159
t107 -107t158 -38t158 38zM575.5 348q35.5 -35 35.5 -89q0 -66 -43.5 -101.5t-112.5 -35.5q-59 0 -99 19.5t-62 64.5l78 40q14 -57 80 -57q34 0 54.5 18.5t20.5 49.5q0 66 -72 66q-29 0 -47 -8.5t-29 -25.5l-68 3l20 232h260v-68h-194l-7 -78q-1 -16 -6 -27h1q14 16 35.5 24
t59.5 8q60 0 95.5 -35z" />
    <glyph glyph-name="uni2785" unicode="&#x2785;" horiz-adv-x="910" 
d="M258.5 6.5q-85.5 46.5 -132.5 130.5t-47 193t47 193t132.5 130.5t196.5 46.5t196.5 -46.5t132.5 -130.5t47 -193t-47 -193t-132.5 -130.5t-196.5 -46.5t-196.5 46.5zM613 64q69 38 107 107t38 159t-38 159t-107 107t-158 38t-158 -38t-107 -107t-38 -159t38 -159
t107 -107t158 -38t158 38zM326 178q-44 52 -44 152q0 99 49.5 151.5t129.5 52.5q53 0 87.5 -20t52.5 -63l-69 -35q-15 51 -71 51q-46 0 -71.5 -37.5t-25.5 -91.5v-12h1q19 28 44 40.5t62 12.5q62 0 99 -33.5t37 -92.5t-41 -93t-114 -34q-82 0 -126 52zM507 209q19 16 19 45
t-19.5 46t-53.5 17q-32 0 -52 -18.5t-20 -44.5q0 -28 19.5 -44.5t52.5 -16.5q35 0 54 16z" />
    <glyph glyph-name="uni2786" unicode="&#x2786;" horiz-adv-x="910" 
d="M258.5 6.5q-85.5 46.5 -132.5 130.5t-47 193t47 193t132.5 130.5t196.5 46.5t196.5 -46.5t132.5 -130.5t47 -193t-47 -193t-132.5 -130.5t-196.5 -46.5t-196.5 46.5zM613 64q69 38 107 107t38 159t-38 159t-107 107t-158 38t-158 -38t-107 -107t-38 -159t38 -159
t107 -107t158 -38t158 38zM619 517v-64q-70 -72 -100 -152t-30 -181h-86q0 91 32.5 175t98.5 152h-228v70h313z" />
    <glyph glyph-name="uni2787" unicode="&#x2787;" horiz-adv-x="910" 
d="M258.5 6.5q-85.5 46.5 -132.5 130.5t-47 193t47 193t132.5 130.5t196.5 46.5t196.5 -46.5t132.5 -130.5t47 -193t-47 -193t-132.5 -130.5t-196.5 -46.5t-196.5 46.5zM613 64q69 38 107 107t38 159t-38 159t-107 107t-158 38t-158 -38t-107 -107t-38 -159t38 -159
t107 -107t158 -38t158 38zM564.5 504.5q40.5 -29.5 40.5 -79.5q0 -32 -18 -55t-52 -33v-1q40 -11 62 -35.5t22 -59.5q0 -53 -44 -83.5t-120 -30.5q-75 0 -119.5 30.5t-44.5 83.5q0 35 21.5 59.5t61.5 35.5v1q-33 10 -51 33t-18 55q0 50 40 79.5t110 29.5q69 0 109.5 -29.5z
M406 460q-18 -14 -18 -39t18 -39.5t49 -14.5t49 14.5t18 39.5t-18 39t-49 14t-49 -14zM512 204q21 16 21 42q0 28 -21 43.5t-57 15.5t-57 -16t-21 -43q0 -26 21 -42t57 -16t57 16z" />
    <glyph glyph-name="uni2788" unicode="&#x2788;" horiz-adv-x="910" 
d="M258.5 6.5q-85.5 46.5 -132.5 130.5t-47 193t47 193t132.5 130.5t196.5 46.5t196.5 -46.5t132.5 -130.5t47 -193t-47 -193t-132.5 -130.5t-196.5 -46.5t-196.5 46.5zM613 64q69 38 107 107t38 159t-38 159t-107 107t-158 38t-158 -38t-107 -107t-38 -159t38 -159
t107 -107t158 -38t158 38zM583 482q45 -53 45 -152q0 -100 -46.5 -151.5t-127.5 -51.5q-120 0 -150 88l78 31q5 -26 22 -39t51 -13q47 0 69 34t22 84q0 12 -1 18h-1q-8 -20 -37.5 -35t-61.5 -15q-67 0 -105.5 34t-38.5 91q0 61 42 95.5t114 34.5q81 0 126 -53zM405.5 451.5
q-19.5 -16.5 -19.5 -46.5q0 -29 19.5 -45.5t53.5 -16.5q33 0 53.5 17.5t20.5 44.5q0 28 -20.5 45.5t-52.5 17.5q-35 0 -54.5 -16.5z" />
    <glyph glyph-name="uni2080" unicode="&#x2080;" horiz-adv-x="401" 
d="M31 9q0 204 170 204q84 0 126.5 -51.5t42.5 -152.5t-42.5 -152.5t-126.5 -51.5q-170 0 -170 204zM264 -95q20 34 20 104t-20 104t-63 34t-63.5 -34t-20.5 -104t20.5 -104t63.5 -34t63 34z" />
    <glyph glyph-name="uni2081" unicode="&#x2081;" horiz-adv-x="259" 
d="M209 208v-397h-86v241q0 30 3 69q-57 -48 -113 -55v73q30 5 68 26t53 43h75z" />
    <glyph glyph-name="uni2082" unicode="&#x2082;" horiz-adv-x="373" 
d="M36 -132q54 35 91 62q70 53 95.5 85t25.5 64q0 29 -17.5 47t-50.5 18q-35 0 -55 -23.5t-21 -64.5l-80 25q3 62 46 97t113 35q76 0 115.5 -37.5t39.5 -90.5q0 -42 -31.5 -83.5t-98.5 -87.5q-15 -10 -60 -36v-1q45 3 72 3h126v-69h-310v57z" />
    <glyph glyph-name="uni2083" unicode="&#x2083;" horiz-adv-x="367" 
d="M289 183.5q38 -29.5 38 -79.5q0 -42 -24 -66.5t-56 -26.5v-2q36 -1 62.5 -24.5t26.5 -64.5q0 -52 -42.5 -83.5t-111.5 -31.5q-130 0 -162 97l81 34q9 -64 78 -64q32 0 50.5 16t18.5 43q0 50 -69 50h-24v54h21q31 0 47 14t16 40q0 27 -15.5 41t-44.5 14q-60 0 -70 -57
l-78 27q12 49 52.5 74t99.5 25q68 0 106 -29.5z" />
    <glyph glyph-name="uni2084" unicode="&#x2084;" horiz-adv-x="369" 
d="M350 -94h-67v-95h-74v95h-199v43l175 259h98v-243h67v-59zM209 -35v103q0 41 3 78h-3q-16 -32 -31 -56l-89 -125h120z" />
    <glyph glyph-name="uni2085" unicode="&#x2085;" horiz-adv-x="368" 
d="M303.5 32q35.5 -35 35.5 -89q0 -66 -43.5 -101.5t-112.5 -35.5q-59 0 -99 19.5t-62 64.5l78 40q14 -57 80 -57q34 0 54.5 18.5t20.5 49.5q0 66 -72 66q-29 0 -47 -8.5t-29 -25.5l-68 3l20 232h260v-68h-194l-7 -78q-1 -16 -6 -27h1q14 16 35.5 24t59.5 8q60 0 95.5 -35z
" />
    <glyph glyph-name="uni2086" unicode="&#x2086;" horiz-adv-x="385" 
d="M76 -143q-44 52 -44 152q0 99 49.5 151.5t129.5 52.5q53 0 87.5 -20t52.5 -63l-69 -35q-15 51 -71 51q-46 0 -71.5 -37.5t-25.5 -91.5v-12h1q19 28 44 40.5t62 12.5q62 0 99 -33.5t37 -92.5t-41 -93t-114 -34q-82 0 -126 52zM257 -112q19 16 19 45t-19.5 46t-53.5 17
q-32 0 -52 -18.5t-20 -44.5q0 -28 19.5 -44.5t52.5 -16.5q35 0 54 16z" />
    <glyph glyph-name="uni2087" unicode="&#x2087;" horiz-adv-x="325" 
d="M318 208v-64q-70 -72 -100 -152t-30 -181h-86q0 91 32.5 175t98.5 152h-228v70h313z" />
    <glyph glyph-name="uni2088" unicode="&#x2088;" horiz-adv-x="395" 
d="M306.5 182.5q40.5 -29.5 40.5 -79.5q0 -32 -18 -55t-52 -33v-1q40 -11 62 -35.5t22 -59.5q0 -53 -44 -83.5t-120 -30.5q-75 0 -119.5 30.5t-44.5 83.5q0 35 21.5 59.5t61.5 35.5v1q-33 10 -51 33t-18 55q0 50 40 79.5t110 29.5q69 0 109.5 -29.5zM148 138
q-18 -14 -18 -39t18 -39.5t49 -14.5t49 14.5t18 39.5t-18 39t-49 14t-49 -14zM254 -118q21 16 21 42q0 28 -21 43.5t-57 15.5t-57 -16t-21 -43q0 -26 21 -42t57 -16t57 16z" />
    <glyph glyph-name="uni2089" unicode="&#x2089;" horiz-adv-x="390" 
d="M313 160q45 -53 45 -152q0 -100 -46.5 -151.5t-127.5 -51.5q-120 0 -150 88l78 31q5 -26 22 -39t51 -13q47 0 69 34t22 84q0 12 -1 18h-1q-8 -20 -37.5 -35t-61.5 -15q-67 0 -105.5 34t-38.5 91q0 61 42 95.5t114 34.5q81 0 126 -53zM135.5 129.5
q-19.5 -16.5 -19.5 -46.5q0 -29 19.5 -45.5t53.5 -16.5q33 0 53.5 17.5t20.5 44.5q0 28 -20.5 45.5t-52.5 17.5q-35 0 -54.5 -16.5z" />
    <glyph glyph-name="uni2070" unicode="&#x2070;" horiz-adv-x="401" 
d="M31 531q0 204 170 204q84 0 126.5 -51.5t42.5 -152.5t-42.5 -152.5t-126.5 -51.5q-170 0 -170 204zM264 427q20 34 20 104t-20 104t-63 34t-63.5 -34t-20.5 -104t20.5 -104t63.5 -34t63 34z" />
    <glyph glyph-name="uni00B9" unicode="&#xb9;" horiz-adv-x="259" 
d="M209 730v-397h-86v241q0 30 3 69q-57 -48 -113 -55v73q30 5 68 26t53 43h75z" />
    <glyph glyph-name="uni00B2" unicode="&#xb2;" horiz-adv-x="373" 
d="M36 390q54 35 91 62q70 53 95.5 85t25.5 64q0 29 -17.5 47t-50.5 18q-35 0 -55 -23.5t-21 -64.5l-80 25q3 62 46 97t113 35q76 0 115.5 -37.5t39.5 -90.5q0 -42 -31.5 -83.5t-98.5 -87.5q-15 -10 -60 -36v-1q45 3 72 3h126v-69h-310v57z" />
    <glyph glyph-name="uni00B3" unicode="&#xb3;" horiz-adv-x="367" 
d="M289 705.5q38 -29.5 38 -79.5q0 -42 -24 -66.5t-56 -26.5v-2q36 -1 62.5 -24.5t26.5 -64.5q0 -52 -42.5 -83.5t-111.5 -31.5q-130 0 -162 97l81 34q9 -64 78 -64q32 0 50.5 16t18.5 43q0 50 -69 50h-24v54h21q31 0 47 14t16 40q0 27 -15.5 41t-44.5 14q-60 0 -70 -57
l-78 27q12 49 52.5 74t99.5 25q68 0 106 -29.5z" />
    <glyph glyph-name="uni2074" unicode="&#x2074;" horiz-adv-x="369" 
d="M350 428h-67v-95h-74v95h-199v43l175 259h98v-243h67v-59zM209 487v103q0 41 3 78h-3q-16 -32 -31 -56l-89 -125h120z" />
    <glyph glyph-name="uni2075" unicode="&#x2075;" horiz-adv-x="368" 
d="M303.5 554q35.5 -35 35.5 -89q0 -66 -43.5 -101.5t-112.5 -35.5q-59 0 -99 19.5t-62 64.5l78 40q14 -57 80 -57q34 0 54.5 18.5t20.5 49.5q0 66 -72 66q-29 0 -47 -8.5t-29 -25.5l-68 3l20 232h260v-68h-194l-7 -78q-1 -16 -6 -27h1q14 16 35.5 24t59.5 8q60 0 95.5 -35z
" />
    <glyph glyph-name="uni2076" unicode="&#x2076;" horiz-adv-x="385" 
d="M76 379q-44 52 -44 152q0 99 49.5 151.5t129.5 52.5q53 0 87.5 -20t52.5 -63l-69 -35q-15 51 -71 51q-46 0 -71.5 -37.5t-25.5 -91.5v-12h1q19 28 44 40.5t62 12.5q62 0 99 -33.5t37 -92.5t-41 -93t-114 -34q-82 0 -126 52zM257 410q19 16 19 45t-19.5 46t-53.5 17
q-32 0 -52 -18.5t-20 -44.5q0 -28 19.5 -44.5t52.5 -16.5q35 0 54 16z" />
    <glyph glyph-name="uni2077" unicode="&#x2077;" horiz-adv-x="325" 
d="M318 730v-64q-70 -72 -100 -152t-30 -181h-86q0 91 32.5 175t98.5 152h-228v70h313z" />
    <glyph glyph-name="uni2078" unicode="&#x2078;" horiz-adv-x="395" 
d="M306.5 704.5q40.5 -29.5 40.5 -79.5q0 -32 -18 -55t-52 -33v-1q40 -11 62 -35.5t22 -59.5q0 -53 -44 -83.5t-120 -30.5q-75 0 -119.5 30.5t-44.5 83.5q0 35 21.5 59.5t61.5 35.5v1q-33 10 -51 33t-18 55q0 50 40 79.5t110 29.5q69 0 109.5 -29.5zM148 660
q-18 -14 -18 -39t18 -39.5t49 -14.5t49 14.5t18 39.5t-18 39t-49 14t-49 -14zM254 404q21 16 21 42q0 28 -21 43.5t-57 15.5t-57 -16t-21 -43q0 -26 21 -42t57 -16t57 16z" />
    <glyph glyph-name="uni2079" unicode="&#x2079;" horiz-adv-x="390" 
d="M313 682q45 -53 45 -152q0 -100 -46.5 -151.5t-127.5 -51.5q-120 0 -150 88l78 31q5 -26 22 -39t51 -13q47 0 69 34t22 84q0 12 -1 18h-1q-8 -20 -37.5 -35t-61.5 -15q-67 0 -105.5 34t-38.5 91q0 61 42 95.5t114 34.5q81 0 126 -53zM135.5 651.5
q-19.5 -16.5 -19.5 -46.5q0 -29 19.5 -45.5t53.5 -16.5q33 0 53.5 17.5t20.5 44.5q0 28 -20.5 45.5t-52.5 17.5q-35 0 -54.5 -16.5z" />
    <glyph glyph-name="zero.sc" horiz-adv-x="577" 
d="M466.5 495.5q61.5 -74.5 61.5 -215.5t-61.5 -215.5t-177.5 -74.5q-117 0 -178.5 74.5t-61.5 215.5t61.5 215.5t178.5 74.5q116 0 177.5 -74.5zM188.5 432q-33.5 -50 -33.5 -152t33.5 -152t100.5 -50q133 0 133 202t-133 202q-67 0 -100.5 -50z" />
    <glyph glyph-name="one.sc" horiz-adv-x="382" 
d="M297 560v-560h-107v360q0 39 3 84q-68 -57 -158 -76l-18 89q42 6 101.5 37t86.5 66h92z" />
    <glyph glyph-name="two.sc" horiz-adv-x="528" 
d="M375.5 545q47.5 -23 71.5 -61.5t24 -84.5q0 -94 -70.5 -167.5t-196.5 -149.5v-1q39 4 92 4h186v-85h-426v77q111 67 178 118t99.5 96.5t32.5 91.5q0 44 -28 71t-82 27t-85.5 -34.5t-31.5 -88.5l1 -16l-92 37q-1 82 54 135.5t158 53.5q68 0 115.5 -23z" />
    <glyph glyph-name="three.sc" horiz-adv-x="532" 
d="M373 548q44 -20 67 -54t23 -76q0 -41 -16.5 -71.5t-42 -46.5t-52.5 -17v-1q52 -1 88 -32t36 -88q0 -77 -59.5 -123.5t-155.5 -46.5q-85 0 -140 33.5t-81 102.5l99 44q10 -48 38.5 -71.5t83.5 -23.5q51 0 81 24t30 65t-28 59.5t-86 18.5h-32v74h28q52 0 78.5 21t26.5 62
q0 40 -25 61t-71 21t-73 -21t-35 -60l-96 35q18 63 74 97t134 34q62 0 106 -20z" />
    <glyph glyph-name="four.sc" horiz-adv-x="565" 
d="M333 133h-293v62l261 365h132v-346h101v-81h-101v-133h-100v133zM334 214l1 269h-3q-20 -38 -49 -79l-137 -190h188z" />
    <glyph glyph-name="five.sc" horiz-adv-x="524" 
d="M422 310.5q50 -48.5 50 -127.5q0 -90 -57 -140.5t-155 -50.5q-82 0 -135.5 29.5t-82.5 91.5l93 49q14 -42 41.5 -63.5t80.5 -21.5q52 0 83 27t31 73q0 49 -29.5 76.5t-82.5 27.5q-37 0 -68.5 -12t-48.5 -35l-84 7l36 319h352v-84h-271l-16 -137q-2 -18 -5 -28h1
q23 23 53.5 35.5t81.5 12.5q82 0 132 -48.5z" />
    <glyph glyph-name="six.sc" horiz-adv-x="539" 
d="M108 66.5q-62 74.5 -62 214.5q0 92 31 156.5t86 97.5t125 33q75 0 121.5 -28.5t75.5 -90.5l-87 -41q-26 75 -111 75q-43 0 -75.5 -26.5t-50.5 -73.5t-18 -107v-16h4q14 41 59 66t96 25q86 0 139 -47.5t53 -129.5q1 -83 -54.5 -132.5t-150.5 -49.5q-119 0 -181 74.5z
M364.5 101.5q28.5 25.5 28.5 70.5t-28.5 70.5t-80.5 25.5q-51 0 -81.5 -27t-30.5 -69q0 -44 30.5 -70t81.5 -26q52 0 80.5 25.5z" />
    <glyph glyph-name="seven.sc" horiz-adv-x="523" 
d="M491 560v-83q-106 -100 -153 -218.5t-49 -258.5h-105q1 132 50.5 254t147.5 219h-344v87h453z" />
    <glyph glyph-name="eight.sc" horiz-adv-x="561" 
d="M115.5 35q-61.5 43 -61.5 116q0 49 29.5 85.5t83.5 53.5v1q-45 16 -70 49t-25 75q0 71 56.5 111.5t152.5 40.5q95 0 151.5 -40.5t56.5 -111.5q0 -42 -25 -75t-70 -49v-1q54 -17 83.5 -53.5t29.5 -85.5q0 -73 -61 -116t-165 -43t-165.5 43zM357.5 349.5
q28.5 21.5 28.5 57.5q0 37 -28.5 58t-76.5 21q-49 0 -77.5 -21t-28.5 -58t29 -58t77 -21t76.5 21.5zM370 97q33 24 33 65t-33.5 65t-88.5 24q-56 0 -89 -24t-33 -65t32.5 -65t89.5 -24q56 0 89 24z" />
    <glyph glyph-name="nine.sc" horiz-adv-x="543" 
d="M126 22q-52 30 -79 93l95 46q9 -42 36 -63.5t80 -21.5q76 0 109.5 53.5t33.5 152.5v17h-3q-12 -45 -55 -68.5t-93 -23.5q-93 0 -148 48t-55 132q0 83 57.5 132t157.5 49q111 0 172.5 -77t61.5 -213q0 -140 -61 -213t-176 -73q-81 0 -133 30zM341 315q31 27 31 69
q0 44 -30.5 71t-80.5 27q-53 0 -83 -25.5t-30 -71.5t30 -71.5t83 -25.5q49 0 80 27z" />
    <glyph glyph-name="asterisk" unicode="*" horiz-adv-x="577" 
d="M388 423l74 -102l-66 -48l-74 102l-34 65l-34 -65l-73 -102l-66 48l74 102l51 52l-72 13l-119 38l24 77l120 -39l66 -32l-11 72l-1 126h83l-1 -126l-11 -72l66 32l120 39l24 -77l-119 -38l-73 -13z" />
    <glyph glyph-name="backslash" unicode="\" horiz-adv-x="447" 
d="M125 725l298 -795h-100l-298 795h100z" />
    <glyph glyph-name="periodcentered" unicode="&#xb7;" horiz-adv-x="240" 
d="M175.5 407.5q20.5 -19.5 20.5 -53.5q0 -33 -20.5 -52.5t-55.5 -19.5q-34 0 -54.5 19.5t-20.5 52.5q0 34 20 53.5t55 19.5t55.5 -19.5z" />
    <glyph glyph-name="bullet" unicode="&#x2022;" horiz-adv-x="430" 
d="M312 429q37 -36 37 -93q0 -58 -37 -94t-97 -36q-59 0 -96.5 36t-37.5 94q0 57 37.5 93t96.5 36q60 0 97 -36z" />
    <glyph glyph-name="colon" unicode=":" horiz-adv-x="298" 
d="M203.5 490.5q20.5 -19.5 20.5 -52.5t-20.5 -53t-54.5 -20t-55 20t-21 53t20.5 52.5t55.5 19.5q34 0 54.5 -19.5zM203.5 115.5q20.5 -19.5 20.5 -52.5t-20.5 -53t-54.5 -20t-55 20t-21 53t20.5 52.5t55.5 19.5q34 0 54.5 -19.5z" />
    <glyph glyph-name="comma" unicode="," horiz-adv-x="273" 
d="M198.5 105.5q22.5 -29.5 22.5 -76.5q0 -57 -30 -104.5t-88 -74.5l-52 44q41 14 69 41.5t37 61.5l-5 2q-8 -8 -28 -8q-25 0 -44.5 18.5t-19.5 51.5q0 32 22 53t54 21q40 0 62.5 -29.5z" />
    <glyph glyph-name="ellipsis" unicode="&#x2026;" horiz-adv-x="877" 
d="M789.5 115.5q20.5 -19.5 20.5 -52.5t-20.5 -53t-54.5 -20t-55 20t-21 53t20.5 52.5t55.5 19.5q34 0 54.5 -19.5zM493.5 115.5q20.5 -19.5 20.5 -52.5t-20.5 -53t-54.5 -20t-55 20t-21 53t20.5 52.5t55.5 19.5q34 0 54.5 -19.5zM197.5 115.5q20.5 -19.5 20.5 -52.5
t-20.5 -53t-54.5 -20t-55 20t-21 53t20.5 52.5t55.5 19.5q34 0 54.5 -19.5z" />
    <glyph glyph-name="exclam" unicode="!" horiz-adv-x="281" 
d="M196 396l-14 -186h-84l-14 186v264h112v-264zM194.5 112.5q20.5 -19.5 20.5 -51.5t-20 -51t-55 -19q-34 0 -54 19t-20 51t20 51.5t54 19.5t54.5 -19.5z" />
    <glyph glyph-name="exclamdown" unicode="&#xa1;" horiz-adv-x="274" 
d="M83 387.5q-20 19.5 -20 51.5t20 51t54 19q35 0 55 -19t20 -51t-20.5 -51.5t-54.5 -19.5t-54 19.5zM81 104l14 186h84l14 -186v-264h-112v264z" />
    <glyph glyph-name="numbersign" unicode="#" horiz-adv-x="655" 
d="M498 412l-26 -160h116v-73h-128l-30 -179h-82l29 179h-155l-29 -179h-83l30 179h-118v73h130l26 160h-113v73h126l28 175h83l-29 -175h155l29 175h82l-29 -175h122v-73h-134zM416 412h-155l-27 -160h156z" />
    <glyph glyph-name="period" unicode="." horiz-adv-x="273" 
d="M191.5 115.5q20.5 -19.5 20.5 -52.5t-20.5 -53t-54.5 -20t-55 20t-21 53t20.5 52.5t55.5 19.5q34 0 54.5 -19.5z" />
    <glyph glyph-name="question" unicode="?" horiz-adv-x="562" 
d="M450.5 624.5q63.5 -45.5 63.5 -127.5q0 -85 -52 -131t-137 -55l-3 -101h-102l-2 151q98 12 140 40.5t42 80.5q0 44 -31.5 69t-92.5 25q-60 0 -97 -33t-43 -92l-99 47q16 78 79.5 125t166.5 47q104 0 167.5 -45.5zM325 113.5q20 -19.5 20 -51.5q0 -33 -20 -52t-54 -19
q-35 0 -55 19t-20 52q0 32 20.5 51.5t54.5 19.5t54 -19.5z" />
    <glyph glyph-name="questiondown" unicode="&#xbf;" horiz-adv-x="558" 
d="M234 386.5q-20 19.5 -20 51.5q0 33 20 52t54 19q35 0 55 -19t20 -52q0 -32 -20.5 -51.5t-54.5 -19.5t-54 19.5zM108.5 -124q-63.5 46 -63.5 128q0 85 52 131t137 55l3 100h102l3 -150q-98 -13 -140.5 -41.5t-42.5 -80.5q0 -44 31.5 -69t92.5 -25q59 0 96.5 33.5
t43.5 91.5l99 -47q-16 -78 -79.5 -125t-166.5 -47q-104 0 -167.5 46z" />
    <glyph glyph-name="quotedbl" unicode="&#x22;" horiz-adv-x="416" 
d="M332 430h-78v256h105zM154 430h-78v256h105z" />
    <glyph glyph-name="quotesingle" unicode="'" horiz-adv-x="239" 
d="M154 430h-78v256h105z" />
    <glyph glyph-name="semicolon" unicode=";" horiz-adv-x="298" 
d="M98.5 384.5q-20.5 19.5 -20.5 52.5q0 34 20 53.5t55 19.5t55.5 -19.5t20.5 -53.5q0 -33 -20.5 -52.5t-55.5 -19.5q-34 0 -54.5 19.5zM212.5 105.5q22.5 -29.5 22.5 -76.5q0 -57 -30 -104.5t-88 -74.5l-52 44q41 14 69 41.5t37 61.5l-5 2q-8 -8 -28 -8q-25 0 -44.5 18.5
t-19.5 51.5q0 32 22 53t54 21q40 0 62.5 -29.5z" />
    <glyph glyph-name="slash" unicode="/" horiz-adv-x="447" 
d="M124 -70h-100l298 795h100z" />
    <glyph glyph-name="underscore" unicode="_" horiz-adv-x="539" 
d="M539 -181h-539v93h539v-93z" />
    <glyph glyph-name="periodcentered.case" horiz-adv-x="240" 
d="M175.5 398.5q20.5 -19.5 20.5 -52.5t-20.5 -53t-54.5 -20t-55 20t-21 53t20.5 52.5t55.5 19.5q34 0 54.5 -19.5z" />
    <glyph glyph-name="exclamdown.case" horiz-adv-x="274" 
d="M83 547.5q-20 19.5 -20 51.5t20 51t54 19q35 0 55 -19t20 -51t-20.5 -51.5t-54.5 -19.5t-54 19.5zM81 264l14 186h84l14 -186v-264h-112v264z" />
    <glyph glyph-name="periodcentered.loclCAT.case" horiz-adv-x="26" 
d="M-15.5 398.5q20.5 -19.5 20.5 -52.5t-20.5 -53t-54.5 -20t-55 20t-21 53t20.5 52.5t55.5 19.5q34 0 54.5 -19.5z" />
    <glyph glyph-name="questiondown.case" horiz-adv-x="558" 
d="M234 546.5q-20 19.5 -20 51.5q0 33 20 52t54 19q35 0 55 -19t20 -52q0 -32 -20.5 -51.5t-54.5 -19.5t-54 19.5zM108.5 36q-63.5 46 -63.5 128q0 85 52 131t137 55l3 100h102l3 -150q-98 -13 -140.5 -41.5t-42.5 -80.5q0 -44 31.5 -69t92.5 -25q59 0 96.5 33.5t43.5 91.5
l99 -47q-16 -78 -79.5 -125t-166.5 -47q-104 0 -167.5 46z" />
    <glyph glyph-name="periodcentered.loclCAT" horiz-adv-x="122" 
d="M95 407.5q20 -19.5 20 -53.5q0 -33 -20.5 -52.5t-54.5 -19.5q-35 0 -55.5 19.5t-20.5 52.5q0 34 20.5 53.5t55.5 19.5t55 -19.5z" />
    <glyph glyph-name="periodcentered.loclCAT.ss02" horiz-adv-x="240" 
d="M175.5 407.5q20.5 -19.5 20.5 -52.5t-20.5 -53t-54.5 -20t-55 20t-21 53t20.5 52.5t55.5 19.5q34 0 54.5 -19.5z" />
    <glyph glyph-name="colon.tf" horiz-adv-x="302" 
d="M205.5 490.5q20.5 -19.5 20.5 -52.5t-20.5 -53t-54.5 -20t-55 20t-21 53t20.5 52.5t55.5 19.5q34 0 54.5 -19.5zM205.5 115.5q20.5 -19.5 20.5 -52.5t-20.5 -53t-54.5 -20t-55 20t-21 53t20.5 52.5t55.5 19.5q34 0 54.5 -19.5z" />
    <glyph glyph-name="comma.tf" horiz-adv-x="303" 
d="M214.5 105.5q22.5 -29.5 22.5 -76.5q0 -57 -30 -104.5t-88 -74.5l-52 44q41 14 69 41.5t37 61.5l-5 2q-8 -8 -28 -8q-25 0 -44.5 18.5t-19.5 51.5q0 32 22 53t54 21q40 0 62.5 -29.5z" />
    <glyph glyph-name="numbersign.tf" 
d="M472 412l-24 -160h93v-73h-104l-27 -179h-79l27 179h-148l-27 -179h-79l27 179h-113v73h125l24 160h-104v73h115l26 175h79l-27 -175h148l27 175h78l-26 -175h103v-73h-114zM393 412h-148l-24 -160h148z" />
    <glyph glyph-name="period.tf" horiz-adv-x="302" 
d="M205.5 115.5q20.5 -19.5 20.5 -52.5t-20.5 -53t-54.5 -20t-55 20t-21 53t20.5 52.5t55.5 19.5q34 0 54.5 -19.5z" />
    <glyph glyph-name="semicolon.tf" horiz-adv-x="302" 
d="M100.5 384.5q-20.5 19.5 -20.5 52.5q0 34 20 53.5t55 19.5t55.5 -19.5t20.5 -53.5q0 -33 -20.5 -52.5t-55.5 -19.5q-34 0 -54.5 19.5zM213.5 105.5q22.5 -29.5 22.5 -76.5q0 -57 -30 -104.5t-88 -74.5l-52 44q42 14 70 41.5t36 61.5l-4 2q-10 -8 -29 -8q-24 0 -43.5 18.5
t-19.5 51.5q0 32 21.5 53t53.5 21q40 0 62.5 -29.5z" />
    <glyph glyph-name="uni208D" unicode="&#x208d;" horiz-adv-x="235" 
d="M241 256q-52 -51 -74 -108t-22 -139t22 -139t74 -108l-48 -41q-63 53 -96 125.5t-33 162.5t33 162.5t96 125.5z" />
    <glyph glyph-name="uni208E" unicode="&#x208e;" horiz-adv-x="235" 
d="M138 171.5q33 -72.5 33 -162.5t-33 -162.5t-96 -125.5l-47 41q51 51 73 108.5t22 138.5q0 82 -22 139t-73 108l47 41q63 -53 96 -125.5z" />
    <glyph glyph-name="braceleft" unicode="{" horiz-adv-x="372" 
d="M260.5 -97q23.5 -15 75.5 -15l-11 -78q-97 0 -139 33.5t-42 104.5v185q0 56 -25.5 80t-86.5 24v82q61 0 86.5 24t25.5 80v186q0 71 42 104.5t139 33.5l11 -78q-52 0 -75.5 -15t-23.5 -47v-199q0 -102 -111 -130q111 -26 111 -129v-199q0 -32 23.5 -47z" />
    <glyph glyph-name="braceright" unicode="}" horiz-adv-x="372" 
d="M253.5 343q25.5 -24 86.5 -24v-82q-61 0 -86.5 -24t-25.5 -80v-185q0 -71 -42 -104.5t-139 -33.5l-11 78q52 0 75 14.5t23 47.5v199q0 103 111 129q-111 28 -111 130v199q0 32 -23 47t-75 15l11 78q97 0 139 -33.5t42 -104.5v-186q0 -56 25.5 -80z" />
    <glyph glyph-name="bracketleft" unicode="[" horiz-adv-x="361" 
d="M183 640v-723h147v-85h-244v893h244v-85h-147z" />
    <glyph glyph-name="bracketright" unicode="]" horiz-adv-x="361" 
d="M275 -168h-244v85h147v723h-147v85h244v-893z" />
    <glyph glyph-name="parenleft" unicode="(" horiz-adv-x="362" 
d="M339 691q-94 -86 -133.5 -181t-39.5 -232t39.5 -231.5t133.5 -180.5l-56 -56q-109 88 -164.5 206t-55.5 262q0 145 55.5 263t164.5 206z" />
    <glyph glyph-name="parenright" unicode=")" horiz-adv-x="362" 
d="M243.5 541q55.5 -118 55.5 -263q0 -144 -55.5 -262t-163.5 -206l-57 56q94 85 133.5 180t39.5 232t-39.5 232.5t-133.5 180.5l57 56q108 -88 163.5 -206z" />
    <glyph glyph-name="uni207D" unicode="&#x207d;" horiz-adv-x="235" 
d="M241 778q-52 -51 -74 -108t-22 -139t22 -139t74 -108l-48 -41q-63 53 -96 125.5t-33 162.5t33 162.5t96 125.5z" />
    <glyph glyph-name="uni207E" unicode="&#x207e;" horiz-adv-x="235" 
d="M138 693.5q33 -72.5 33 -162.5t-33 -162.5t-96 -125.5l-47 41q51 51 73 108.5t22 138.5q0 82 -22 139t-73 108l47 41q63 -53 96 -125.5z" />
    <glyph glyph-name="braceleft.case" horiz-adv-x="372" 
d="M260.5 -25.5q23.5 -14.5 75.5 -14.5l-11 -78q-97 0 -139 33.5t-42 104.5v163q0 56 -25.5 80t-86.5 24v82q61 0 86.5 24t25.5 80v163q0 71 42 104.5t139 33.5l11 -78q-52 0 -75.5 -14.5t-23.5 -46.5v-177q0 -102 -111 -130q111 -26 111 -129v-178q0 -32 23.5 -46.5z" />
    <glyph glyph-name="braceright.case" horiz-adv-x="372" 
d="M253.5 393q25.5 -24 86.5 -24v-82q-61 0 -86.5 -24t-25.5 -80v-163q0 -71 -42 -104.5t-139 -33.5l-11 78q52 0 75 14.5t23 46.5v178q0 103 111 129q-111 28 -111 130v177q0 32 -23 46.5t-75 14.5l11 78q97 0 139 -33.5t42 -104.5v-163q0 -56 25.5 -80z" />
    <glyph glyph-name="bracketleft.case" horiz-adv-x="361" 
d="M183 667v-679h147v-85h-244v849h244v-85h-147z" />
    <glyph glyph-name="bracketright.case" horiz-adv-x="361" 
d="M275 -97h-244v85h147v679h-147v85h244v-849z" />
    <glyph glyph-name="parenleft.case" horiz-adv-x="362" 
d="M339 739q-94 -86 -133.5 -180.5t-39.5 -231.5t39.5 -231.5t133.5 -180.5l-56 -56q-109 87 -164.5 205t-55.5 263t55.5 263t164.5 205z" />
    <glyph glyph-name="parenright.case" horiz-adv-x="362" 
d="M243.5 590q55.5 -118 55.5 -263t-55.5 -263t-164.5 -205l-56 56q94 86 133.5 180.5t39.5 231.5t-39.5 231.5t-133.5 180.5l56 56q109 -87 164.5 -205z" />
    <glyph glyph-name="emdash" unicode="&#x2014;" horiz-adv-x="1011" 
d="M931 217h-850v93h850v-93z" />
    <glyph glyph-name="endash" unicode="&#x2013;" horiz-adv-x="672" 
d="M592 217h-511v93h511v-93z" />
    <glyph glyph-name="hyphen" unicode="-" horiz-adv-x="515" 
d="M428 214h-341v99h341v-99z" />
    <glyph glyph-name="uni00AD" unicode="&#xad;" horiz-adv-x="515" 
d="M428 214h-341v99h341v-99z" />
    <glyph glyph-name="emdash.case" horiz-adv-x="1011" 
d="M931 287h-850v93h850v-93z" />
    <glyph glyph-name="endash.case" horiz-adv-x="672" 
d="M592 287h-511v93h511v-93z" />
    <glyph glyph-name="hyphen.case" horiz-adv-x="515" 
d="M428 284h-341v99h341v-99z" />
    <glyph glyph-name="guillemotleft" unicode="&#xab;" horiz-adv-x="521" 
d="M151 265l126 -196h-105l-126 196l126 196h105zM348 265l126 -196h-105l-126 196l126 196h105z" />
    <glyph glyph-name="guillemotright" unicode="&#xbb;" horiz-adv-x="520" 
d="M151 461l126 -196l-126 -196h-105l126 196l-126 196h105zM348 461l126 -196l-126 -196h-105l126 196l-126 196h105z" />
    <glyph glyph-name="guilsinglleft" unicode="&#x2039;" horiz-adv-x="324" 
d="M151 265l126 -196h-105l-126 196l126 196h105z" />
    <glyph glyph-name="guilsinglright" unicode="&#x203a;" horiz-adv-x="324" 
d="M152 461l126 -196l-126 -196h-105l126 196l-126 196h105z" />
    <glyph glyph-name="quotedblbase" unicode="&#x201e;" horiz-adv-x="476" 
d="M196.5 105.5q22.5 -29.5 22.5 -76.5q0 -57 -30 -104.5t-88 -74.5l-52 44q41 14 69 41.5t37 61.5l-5 2q-8 -8 -28 -8q-25 0 -44.5 18.5t-19.5 51.5q0 32 22 53t54 21q40 0 62.5 -29.5zM400.5 105.5q22.5 -29.5 22.5 -76.5q0 -57 -30 -104.5t-88 -74.5l-52 44
q41 14 69 41.5t37 61.5l-5 2q-8 -8 -28 -8q-25 0 -44.5 18.5t-19.5 51.5q0 32 22 53t54 21q40 0 62.5 -29.5z" />
    <glyph glyph-name="quotedblleft" unicode="&#x201c;" horiz-adv-x="472" 
d="M71.5 441.5q-22.5 29.5 -22.5 77.5q0 57 29.5 104t88.5 74l52 -43q-41 -14 -69 -41.5t-37 -61.5l5 -2q8 8 28 8q25 0 44.5 -18.5t19.5 -51.5q0 -32 -22 -53.5t-54 -21.5q-40 0 -62.5 29.5zM276.5 441.5q-22.5 29.5 -22.5 77.5q0 57 29.5 104t88.5 74l52 -43
q-41 -14 -69 -41.5t-37 -61.5l5 -2q8 8 28 8q25 0 44.5 -18.5t19.5 -51.5q0 -32 -22 -53.5t-54 -21.5q-40 0 -62.5 29.5z" />
    <glyph glyph-name="quotedblright" unicode="&#x201d;" horiz-adv-x="470" 
d="M199.5 667.5q22.5 -29.5 22.5 -76.5q0 -57 -29.5 -104.5t-88.5 -74.5l-52 43q41 15 69 42.5t37 60.5l-4 3q-10 -8 -29 -8q-25 0 -44.5 18t-19.5 51q0 32 22 53.5t54 21.5q40 0 62.5 -29.5zM403.5 667.5q22.5 -29.5 22.5 -76.5q0 -57 -29.5 -104.5t-88.5 -74.5l-52 43
q41 15 69 42.5t37 60.5l-4 3q-10 -8 -29 -8q-25 0 -44.5 18t-19.5 51q0 32 22 53.5t54 21.5q40 0 62.5 -29.5z" />
    <glyph glyph-name="quoteleft" unicode="&#x2018;" horiz-adv-x="267" 
d="M71.5 441.5q-22.5 29.5 -22.5 77.5q0 57 29.5 104t88.5 74l52 -43q-41 -14 -69 -41.5t-37 -61.5l5 -2q8 8 28 8q25 0 44.5 -18.5t19.5 -51.5q0 -32 -22 -53.5t-54 -21.5q-40 0 -62.5 29.5z" />
    <glyph glyph-name="quoteright" unicode="&#x2019;" horiz-adv-x="267" 
d="M199.5 667.5q22.5 -29.5 22.5 -76.5q0 -57 -29.5 -104.5t-88.5 -74.5l-52 43q41 15 69 42.5t37 60.5l-4 3q-10 -8 -29 -8q-25 0 -44.5 18t-19.5 51q0 32 22 53.5t54 21.5q40 0 62.5 -29.5z" />
    <glyph glyph-name="quotesinglbase" unicode="&#x201a;" horiz-adv-x="272" 
d="M196.5 105.5q22.5 -29.5 22.5 -76.5q0 -57 -30 -104.5t-88 -74.5l-52 44q41 14 69 41.5t37 61.5l-5 2q-8 -8 -28 -8q-25 0 -44.5 18.5t-19.5 51.5q0 32 22 53t54 21q40 0 62.5 -29.5z" />
    <glyph glyph-name="guillemotleft.case" horiz-adv-x="528" 
d="M151 326l126 -196h-105l-126 196l126 196h105zM348 326l126 -196h-105l-126 196l126 196h105z" />
    <glyph glyph-name="guillemotright.case" horiz-adv-x="528" 
d="M151 522l126 -196l-126 -196h-105l126 196l-126 196h105zM348 522l126 -196l-126 -196h-105l126 196l-126 196h105z" />
    <glyph glyph-name="guilsinglleft.case" horiz-adv-x="331" 
d="M151 326l126 -196h-105l-126 196l126 196h105z" />
    <glyph glyph-name="guilsinglright.case" horiz-adv-x="331" 
d="M152 522l126 -196l-126 -196h-105l126 196l-126 196h105z" />
    <glyph glyph-name="periodcentered.sc" horiz-adv-x="240" 
d="M175.5 352.5q20.5 -19.5 20.5 -52.5t-20.5 -53t-54.5 -20t-55 20t-21 53t20.5 52.5t55.5 19.5q34 0 54.5 -19.5z" />
    <glyph glyph-name="exclam.sc" horiz-adv-x="257" 
d="M184 352l-13 -172h-84l-13 172v208h110v-208zM180 105q19 -18 19 -48t-19 -48t-51 -18t-51.5 18t-19.5 48t19.5 48t51.5 18t51 -18z" />
    <glyph glyph-name="exclamdown.sc" horiz-adv-x="257" 
d="M77 455q-19 18 -19 48t19 48t51 18t51.5 -18t19.5 -48t-19.5 -48t-51.5 -18t-51 18zM73 208l13 172h85l12 -172v-208h-110v208z" />
    <glyph glyph-name="periodcentered.loclCAT.sc" horiz-adv-x="14" 
d="M-47.5 354.5q20.5 -19.5 20.5 -52.5t-20.5 -53t-54.5 -20t-55 20t-21 53t20.5 52.5t55.5 19.5q34 0 54.5 -19.5z" />
    <glyph glyph-name="question.sc" horiz-adv-x="489" 
d="M402 529q58 -39 58 -109q0 -71 -47 -109.5t-123 -46.5l-2 -77h-101l-1 116q92 13 128.5 36t36.5 66q0 36 -27.5 56.5t-80.5 20.5q-54 0 -86 -26t-37 -75l-98 41q14 69 71.5 107.5t154.5 38.5q96 0 154 -39zM286 105q19 -18 19 -48t-19 -48t-51 -18t-51.5 18t-19.5 48
t19.5 48t51.5 18t51 -18z" />
    <glyph glyph-name="questiondown.sc" horiz-adv-x="476" 
d="M196 456q-19 18 -19 48t19 48t51 18t51.5 -18t19.5 -48t-19.5 -48t-51.5 -18t-51 18zM80.5 31.5q-58.5 38.5 -58.5 109.5t47.5 109.5t123.5 46.5l1 76h101l1 -115q-91 -13 -128 -36t-37 -66q0 -37 27.5 -57.5t80.5 -20.5q54 0 86 26.5t37 74.5l98 -40
q-14 -69 -71.5 -107.5t-154.5 -38.5q-95 0 -153.5 38.5z" />
    <glyph glyph-name="quotedbl.sc" horiz-adv-x="419" 
d="M332 336h-78v256h105zM154 336h-78v256h105z" />
    <glyph glyph-name="quotedblleft.sc" horiz-adv-x="487" 
d="M80.5 349q-22.5 30 -22.5 77q0 56 29.5 104t88.5 75l52 -44q-42 -14 -70 -41.5t-36 -61.5l4 -2q8 8 28 8q25 0 44.5 -18.5t19.5 -51.5q0 -32 -21.5 -53.5t-53.5 -21.5q-40 0 -62.5 30zM284.5 349q-22.5 30 -22.5 77q0 56 29.5 104t88.5 75l52 -44q-42 -14 -70 -41.5
t-36 -61.5l4 -2q8 8 28 8q25 0 44.5 -18.5t19.5 -51.5q0 -32 -21.5 -53.5t-53.5 -21.5q-40 0 -62.5 30z" />
    <glyph glyph-name="quotedblright.sc" horiz-adv-x="486" 
d="M207.5 568q22.5 -30 22.5 -77q0 -56 -29.5 -104t-88.5 -75l-52 44q41 14 69 41.5t37 61.5l-4 2q-10 -8 -29 -8q-24 0 -43.5 18.5t-19.5 51.5q0 32 21.5 53.5t53.5 21.5q40 0 62.5 -30zM410.5 568q22.5 -30 22.5 -77q0 -56 -29.5 -104t-88.5 -75l-52 44q41 14 69 41.5
t37 61.5l-4 2q-10 -8 -29 -8q-24 0 -43.5 18.5t-19.5 51.5q0 32 21.5 53.5t53.5 21.5q40 0 62.5 -30z" />
    <glyph glyph-name="quoteleft.sc" horiz-adv-x="283" 
d="M80.5 349q-22.5 30 -22.5 77q0 56 29.5 104t88.5 75l52 -44q-42 -14 -70 -41.5t-36 -61.5l4 -2q8 8 28 8q25 0 44.5 -18.5t19.5 -51.5q0 -32 -21.5 -53.5t-53.5 -21.5q-40 0 -62.5 30z" />
    <glyph glyph-name="quoteright.sc" horiz-adv-x="283" 
d="M207.5 568q22.5 -30 22.5 -77q0 -56 -29.5 -104t-88.5 -75l-52 44q41 14 69 41.5t37 61.5l-4 2q-10 -8 -29 -8q-24 0 -43.5 18.5t-19.5 51.5q0 32 21.5 53.5t53.5 21.5q40 0 62.5 -30z" />
    <glyph glyph-name="quotesingle.sc" horiz-adv-x="241" 
d="M154 336h-78v256h105z" />
    <glyph glyph-name="uni00A0" unicode="&#xa0;" horiz-adv-x="325" 
 />
    <glyph glyph-name="space.tf" horiz-adv-x="302" 
 />
    <glyph glyph-name="Euro" unicode="&#x20ac;" horiz-adv-x="701" 
d="M665 171q-26 -85 -94 -133t-157 -48q-108 0 -178.5 58.5t-95.5 164.5h-89v68h78q-2 32 -2 49q0 20 1 30h-77v69h85q22 114 94 177.5t182 63.5q89 0 153.5 -40.5t90.5 -114.5l-89 -41q-14 53 -54 82t-93 29q-67 0 -113.5 -40.5t-65.5 -115.5h237l-22 -69h-225
q-1 -10 -1 -30q0 -17 2 -49h206l-21 -68h-172q20 -67 63.5 -102.5t107.5 -35.5q55 0 99 33t60 93z" />
    <glyph glyph-name="cent" unicode="&#xa2;" horiz-adv-x="570" 
d="M463 37q-48 -39 -121 -46v-91h-74v93q-98 12 -152.5 79.5t-54.5 177.5q0 111 54.5 178.5t152.5 79.5v92h74v-91q72 -7 117 -43.5t65 -95.5l-91 -39q-23 83 -91 98v-359q77 15 98 100l88 -30q-17 -64 -65 -103zM186.5 129q28.5 -45 81.5 -57v356q-54 -12 -82 -57.5
t-28 -121.5q0 -75 28.5 -120z" />
    <glyph glyph-name="currency" unicode="&#xa4;" horiz-adv-x="659" 
d="M508 210l92 -86l-66 -65l-89 91q-50 -31 -115 -31t-118 32l-87 -92l-65 65l91 88q-33 52 -33 117q0 67 34 118l-92 86l65 65l89 -91q50 31 116 31q67 0 118 -31l86 91l66 -65l-90 -88q31 -51 31 -116q0 -66 -33 -119zM413.5 240q32.5 35 32.5 89t-32.5 88.5t-83.5 34.5
t-84 -34.5t-33 -88.5t33 -89t84 -35t83.5 35z" />
    <glyph glyph-name="dollar" unicode="$" horiz-adv-x="622" 
d="M279 1q-177 15 -238 157l77 56q14 -51 58 -85.5t103 -44.5v208q-66 14 -110.5 31t-74 51.5t-29.5 91.5q0 77 57.5 130.5t156.5 62.5v97h77v-98q77 -6 127 -38t88 -94l-71 -65q-26 54 -59.5 81t-84.5 33v-211q66 -14 110.5 -31.5t74 -53t29.5 -93.5q0 -78 -58.5 -127.5
t-155.5 -57.5v-97h-77v97zM279 575q-56 -6 -85 -32.5t-29 -69.5q0 -39 29.5 -59.5t84.5 -33.5v195zM471 179q0 40 -29.5 61t-85.5 35v-192q115 11 115 96z" />
    <glyph glyph-name="florin" unicode="&#x192;" horiz-adv-x="496" 
d="M328 563l-25 -158h144v-84h-158l-47 -291q-13 -78 -54.5 -118t-109.5 -40q-33 0 -53 5t-44 20l15 82q30 -21 68 -21q66 0 78 84l46 279h-139v84h152l28 169q13 78 54 118.5t110 40.5q32 0 52 -5.5t45 -19.5l-15 -83q-29 21 -68 21q-66 0 -79 -83z" />
    <glyph glyph-name="sterling" unicode="&#xa3;" horiz-adv-x="625" 
d="M558 35.5q-36 -45.5 -104 -45.5q-42 0 -77.5 15t-77.5 43q-55 -58 -141 -58q-51 0 -82 24t-31 64q0 39 33 64.5t88 25.5q58 0 106 -24q2 16 2 26q0 26 -8 50t-26 52h-164v75h108q-28 37 -39 64.5t-11 57.5q0 57 27 103t77 72t115 26q85 0 137 -40t73 -122l-89 -45
q-15 61 -44 90t-81 29q-54 0 -86.5 -28.5t-32.5 -75.5q0 -26 11.5 -51.5t42.5 -70.5l7 -9h190v-75h-147q17 -42 17 -87q0 -43 -16 -79q28 -18 51 -27.5t51 -9.5q41 0 59 22.5t18 71.5l76 -3q4 -79 -32 -124.5zM247 82q-46 25 -81 25q-44 0 -44 -29q0 -15 12 -23t33 -8
q51 0 80 35z" />
    <glyph glyph-name="uni20BA" unicode="&#x20ba;" horiz-adv-x="668" 
d="M624 279q-4 -139 -71 -209t-193 -70h-183v262l-122 -35v59l122 35v88l-122 -35v60l122 35v191h104v-162l200 57v-59l-200 -57v-88l200 57v-59l-200 -57v-206h68q86 0 128.5 47t42.5 146h104z" />
    <glyph glyph-name="uni20BD" unicode="&#x20bd;" horiz-adv-x="658" 
d="M242 264v-68h179v-77h-179v-119h-103v119h-92v77h92v68h-92v84h92v312h247q108 0 170 -53t62 -146q0 -92 -62 -144.5t-170 -52.5h-144zM242 348h127q71 0 104.5 27t33.5 84t-33.5 84t-104.5 27h-127v-222z" />
    <glyph glyph-name="yen" unicode="&#xa5;" horiz-adv-x="637" 
d="M434 299h127v-59h-193v-73h193v-56h-193v-111h-98v111h-192v56h192v73h-192v59h125l49 -4l-222 365h118l123 -232l47 -100h2l47 101l123 231h118l-223 -365z" />
    <glyph glyph-name="cent.tf" 
d="M465 37q-48 -39 -121 -46v-91h-74v93q-98 12 -152.5 79.5t-54.5 177.5q0 111 54.5 178.5t152.5 79.5v92h74v-91q72 -7 117 -43.5t65 -95.5l-91 -39q-23 83 -91 98v-359q77 15 98 100l88 -30q-17 -64 -65 -103zM188.5 129q28.5 -45 81.5 -57v356q-54 -12 -82 -57.5
t-28 -121.5q0 -75 28.5 -120z" />
    <glyph glyph-name="currency.tf" 
d="M480 210l92 -86l-66 -65l-89 91q-50 -31 -115 -31t-118 32l-87 -92l-65 65l91 88q-33 52 -33 117q0 67 34 118l-92 86l65 65l89 -91q50 31 116 31q67 0 118 -31l86 91l66 -65l-90 -88q31 -51 31 -116q0 -66 -33 -119zM385.5 240q32.5 35 32.5 89t-32.5 88.5t-83.5 34.5
t-84 -34.5t-33 -88.5t33 -89t84 -35t83.5 35z" />
    <glyph glyph-name="dollar.tf" 
d="M459.5 330.5q43.5 -17.5 72 -52t28.5 -92.5q0 -78 -56.5 -127t-151.5 -57v-98h-77v98q-173 13 -233 156l79 56q12 -50 55 -84.5t99 -45.5v207q-64 14 -107 31t-71.5 52t-28.5 92q0 77 55.5 130t151.5 62v98h77v-98q75 -7 123 -38.5t86 -93.5l-71 -65q-24 54 -56.5 80.5
t-81.5 33.5v-213q64 -14 107.5 -31.5zM191 414q29 -21 84 -35v197q-55 -7 -84 -33.5t-29 -69.5q0 -38 29 -59zM466 179q0 39 -29 60t-85 35v-191q114 11 114 96z" />
    <glyph glyph-name="Euro.tf" 
d="M587 169q-19 -84 -81 -131.5t-153 -47.5q-98 0 -162 58.5t-87 164.5h-87v68h77q-2 32 -2 49q0 20 1 30h-76v69h83q21 114 88.5 177.5t169.5 63.5q88 0 143.5 -39t74.5 -114l-88 -41q-8 53 -40.5 81t-83.5 28q-59 0 -102 -41t-60 -115h210l-20 -69h-200q-1 -10 -1 -30
q0 -17 2 -49h181l-20 -68h-149q18 -66 56.5 -102t93.5 -36q59 0 96.5 31.5t46.5 92.5z" />
    <glyph glyph-name="florin.tf" 
d="M399 563l-28 -158h166v-84h-181l-52 -291q-14 -78 -58.5 -118t-117.5 -40q-34 0 -55.5 5t-45.5 20l16 82q30 -21 71 -21q76 0 91 84l50 279h-153v84h168l31 169q14 78 58 118.5t116 40.5q34 0 55.5 -5.5t45.5 -19.5l-14 -83q-31 21 -72 21q-76 0 -91 -83z" />
    <glyph glyph-name="uni20BA.tf" 
d="M568 273q-4 -135 -68 -204t-186 -69h-173v262l-121 -34v59l121 35v88l-121 -35v60l121 34v191h101v-162l200 57v-59l-200 -57v-88l200 57v-59l-200 -57v-207h60q86 0 127.5 46.5t41.5 141.5h97z" />
    <glyph glyph-name="uni20BD.tf" 
d="M219 263v-67h179v-77h-179v-119h-100v119h-84v77h84v67h-84v84h84v313h231q106 0 167.5 -54t61.5 -146t-61.5 -144.5t-167.5 -52.5h-131zM219 347h119q69 0 101 27.5t32 84.5t-32.5 84.5t-100.5 27.5h-119v-224z" />
    <glyph glyph-name="sterling.tf" 
d="M527.5 34.5q-34.5 -44.5 -99.5 -44.5q-40 0 -72.5 15t-73.5 43q-51 -58 -135 -58q-50 0 -80.5 24t-30.5 64q0 39 32.5 64.5t85.5 25.5t101 -23q1 8 1 25q0 27 -8 51.5t-27 53.5h-156v73h103q-25 37 -36 64.5t-11 56.5q0 57 26.5 102.5t75 72t111.5 26.5q81 0 130 -39.5
t70 -121.5l-89 -43q-12 59 -39.5 87.5t-76.5 28.5q-51 0 -81.5 -28.5t-30.5 -76.5q0 -27 10.5 -52.5t40.5 -68.5l5 -8h184v-73h-143q19 -45 19 -90q0 -42 -15 -80q25 -18 46.5 -27t47.5 -9q37 0 54 22t17 72l77 -3q2 -81 -32.5 -125.5zM231 82q-40 25 -76 25q-42 0 -42 -29
q0 -15 11.5 -23t30.5 -8q51 0 76 35z" />
    <glyph glyph-name="yen.tf" 
d="M414 299h123v-59h-187v-73h187v-56h-187v-111h-96v111h-186v56h186v73h-186v59h122l45 -3l-212 364h114l120 -233l44 -100h2l44 101l120 232h114l-212 -364z" />
    <glyph glyph-name="approxequal" unicode="&#x2248;" 
d="M249 496.5q28 -9.5 65 -26.5q34 -16 56.5 -23.5t45.5 -7.5q36 0 66 11.5t63 42.5v-89q-30 -28 -61 -41t-67 -13q-28 0 -53.5 8.5t-63.5 26.5q-34 16 -59 24.5t-51 8.5q-42 0 -71 -12.5t-60 -42.5v89q33 30 61.5 42t69.5 12q31 0 59 -9.5zM249 286.5q28 -9.5 65 -26.5
q34 -16 56.5 -23.5t45.5 -7.5q37 0 66.5 11.5t62.5 42.5v-89q-30 -28 -61 -41t-67 -13q-28 0 -53.5 8.5t-63.5 26.5q-34 16 -59 24.5t-51 8.5q-42 0 -71 -12.5t-60 -42.5v89q33 30 61.5 42t69.5 12q31 0 59 -9.5z" />
    <glyph glyph-name="asciitilde" unicode="~" horiz-adv-x="557" 
d="M474 275q-35 -41 -99 -41q-34 0 -59 11t-53 31q-24 15 -38 22t-31 7q-47 0 -58 -70h-93q11 163 140 163q33 0 56.5 -10.5t54.5 -30.5q22 -15 37 -22.5t33 -7.5q46 0 57 69h93q-5 -80 -40 -121z" />
    <glyph glyph-name="divide" unicode="&#xf7;" 
d="M355.5 572q19.5 -19 19.5 -52q0 -32 -19.5 -51t-52.5 -19q-34 0 -53.5 19t-19.5 51q0 33 19.5 52t53.5 19q33 0 52.5 -19zM548 275h-492v89h492v-89zM355.5 169q19.5 -19 19.5 -51t-19.5 -51.5t-52.5 -19.5q-34 0 -53.5 19.5t-19.5 51.5t19.5 51t53.5 19q33 0 52.5 -19z
" />
    <glyph glyph-name="equal" unicode="=" 
d="M540 366h-476v88h476v-88zM540 161h-476v88h476v-88z" />
    <glyph glyph-name="uni208C" unicode="&#x208c;" horiz-adv-x="389" 
d="M54 108h281v-64h-281v64zM54 -27h281v-63h-281v63z" />
    <glyph glyph-name="uni207C" unicode="&#x207c;" horiz-adv-x="389" 
d="M54 630h281v-64h-281v64zM54 495h281v-63h-281v63z" />
    <glyph glyph-name="greater" unicode="&#x3e;" 
d="M536 353v-109l-481 -223v107l402 171l-402 171v106z" />
    <glyph glyph-name="greaterequal" unicode="&#x2265;" 
d="M537 451v-126l-483 -188v102l416 149l-416 149v102zM54 89h483v-89h-483v89z" />
    <glyph glyph-name="infinity" unicode="&#x221e;" horiz-adv-x="903" 
d="M755.5 484.5q39.5 -23.5 62.5 -71t23 -114.5q0 -100 -50 -154t-127 -54q-56 0 -104 31.5t-117 107.5q-55 -62 -88 -91t-58.5 -38.5t-62.5 -9.5q-48 0 -87 23.5t-62.5 70.5t-23.5 114t23.5 114.5t63 71t86.5 23.5q57 0 107.5 -30.5t118.5 -107.5q56 63 91 92t59.5 37
t58.5 9q47 0 86.5 -23.5zM727 230q23 32 23 86q0 55 -23 87t-57 32q-23 0 -40 -8t-43 -34t-76 -83q52 -60 88.5 -86t69.5 -26q35 0 58 32zM273 172.5q17 8.5 42 33.5t75 83q-58 64 -90 87.5t-65 23.5q-35 0 -58.5 -31.5t-23.5 -86.5t23.5 -86.5t56.5 -31.5q23 0 40 8.5z" />
    <glyph glyph-name="integral" unicode="&#x222b;" horiz-adv-x="465" 
d="M402 751.5q21 -6.5 42 -19.5l-12 -82q-16 11 -32 16.5t-39 5.5q-34 0 -55.5 -20.5t-21.5 -61.5v-558q0 -74 -44.5 -117t-118.5 -43q-37 0 -58 6.5t-41 19.5l12 82q31 -22 70 -22q34 0 55.5 20.5t21.5 61.5v558q0 74 45 117t119 43q36 0 57 -6.5z" />
    <glyph glyph-name="less" unicode="&#x3c;" 
d="M549 470l-402 -171l402 -171v-107l-481 223v109l481 223v-106z" />
    <glyph glyph-name="lessequal" unicode="&#x2264;" 
d="M550 537l-416 -149l416 -149v-102l-483 188v126l483 188v-102zM67 89h483v-89h-483v89z" />
    <glyph glyph-name="logicalnot" unicode="&#xac;" 
d="M545 364v-243h-97v154h-389v89h486z" />
    <glyph glyph-name="minus" unicode="&#x2212;" 
d="M545 273h-486v92h486v-92z" />
    <glyph glyph-name="uni208B" unicode="&#x208b;" horiz-adv-x="345" 
d="M29 39h288v-62h-288v62z" />
    <glyph glyph-name="uni207B" unicode="&#x207b;" horiz-adv-x="345" 
d="M29 561h288v-62h-288v62z" />
    <glyph glyph-name="multiply" unicode="&#xd7;" 
d="M366 320l164 -164l-64 -65l-164 164l-164 -164l-65 65l164 164l-164 164l65 65l164 -164l164 164l64 -65z" />
    <glyph glyph-name="notequal" unicode="&#x2260;" 
d="M377 372l-63 -129h229v-84h-269l-52 -106h-87l52 106h-126v84h166l63 129h-229v83h269l52 108h88l-52 -108h125v-83h-166z" />
    <glyph glyph-name="partialdiff" unicode="&#x2202;" horiz-adv-x="632" 
d="M497 583q67 -87 67 -250q0 -170 -69 -256.5t-200 -86.5q-67 0 -119.5 27.5t-81.5 78t-29 116.5q0 65 29.5 115t80.5 78t115 28q56 0 101.5 -23.5t73.5 -67.5q-3 126 -49 182.5t-134 56.5q-44 0 -74.5 -13.5t-63.5 -45.5l-50 74q43 37 90.5 55.5t106.5 18.5q139 0 206 -87
zM458 235q-16 51 -55.5 81.5t-102.5 30.5q-60 0 -93.5 -35.5t-33.5 -97.5q0 -63 33.5 -98.5t96.5 -35.5q128 0 155 155z" />
    <glyph glyph-name="percent" unicode="%" horiz-adv-x="880" 
d="M325.5 619.5q45.5 -50.5 45.5 -133.5t-45.5 -133.5t-121.5 -50.5t-121.5 50.5t-45.5 133.5t45.5 133.5t121.5 50.5t121.5 -50.5zM610 660h92l-431 -660h-93zM145.5 564.5q-20.5 -27.5 -20.5 -78.5q0 -50 20.5 -77.5t58.5 -27.5q39 0 59.5 27.5t20.5 77.5q0 51 -20.5 78.5
t-59.5 27.5q-38 0 -58.5 -27.5zM797.5 307.5q45.5 -50.5 45.5 -133.5t-45.5 -133.5t-121.5 -50.5t-121.5 50.5t-45.5 133.5t45.5 133.5t121.5 50.5t121.5 -50.5zM617.5 251.5q-20.5 -27.5 -20.5 -77.5q0 -51 20.5 -78.5t58.5 -27.5q39 0 59.5 27.5t20.5 78.5
q0 50 -20.5 77.5t-59.5 27.5q-38 0 -58.5 -27.5z" />
    <glyph glyph-name="perthousand" unicode="&#x2030;" horiz-adv-x="1277" 
d="M325.5 619.5q45.5 -50.5 45.5 -133.5t-45.5 -133.5t-121.5 -50.5t-121.5 50.5t-45.5 133.5t45.5 133.5t121.5 50.5t121.5 -50.5zM610 660h92l-431 -660h-93zM145.5 564.5q-20.5 -27.5 -20.5 -78.5q0 -50 20.5 -77.5t58.5 -27.5q39 0 59.5 27.5t20.5 77.5q0 51 -20.5 78.5
t-59.5 27.5q-38 0 -58.5 -27.5zM797.5 307.5q45.5 -50.5 45.5 -133.5t-45.5 -133.5t-121.5 -50.5t-121.5 50.5t-45.5 133.5t45.5 133.5t121.5 50.5t121.5 -50.5zM1194.5 307.5q45.5 -50.5 45.5 -133.5t-45.5 -133.5t-121.5 -50.5t-121.5 50.5t-45.5 133.5t45.5 133.5
t121.5 50.5t121.5 -50.5zM617.5 251.5q-20.5 -27.5 -20.5 -77.5q0 -51 20.5 -78.5t58.5 -27.5q39 0 59.5 27.5t20.5 78.5q0 50 -20.5 77.5t-59.5 27.5q-38 0 -58.5 -27.5zM1014.5 251.5q-20.5 -27.5 -20.5 -77.5q0 -51 20.5 -78.5t58.5 -27.5q39 0 59.5 27.5t20.5 78.5
q0 50 -20.5 77.5t-59.5 27.5q-38 0 -58.5 -27.5z" />
    <glyph glyph-name="plus" unicode="+" 
d="M548 275h-199v-209h-93v209h-200v89h200v208h93v-208h199v-89z" />
    <glyph glyph-name="uni208A" unicode="&#x208a;" horiz-adv-x="345" 
d="M320 -22h-113v-117h-67v117h-114v60h114v117h67v-117h113v-60z" />
    <glyph glyph-name="plusminus" unicode="&#xb1;" 
d="M548 447v-88h-201v-196h-89v196h-202v88h202v197h89v-197h201zM56 87h492v-87h-492v87z" />
    <glyph glyph-name="uni207A" unicode="&#x207a;" horiz-adv-x="345" 
d="M320 500h-113v-117h-67v117h-114v60h114v117h67v-117h113v-60z" />
    <glyph glyph-name="product" unicode="&#x220f;" horiz-adv-x="699" 
d="M616 -128h-104v696h-324v-696h-104v788h532v-788z" />
    <glyph glyph-name="radical" unicode="&#x221a;" horiz-adv-x="677" 
d="M689 818l-322 -818h-106l-139 343h-104v92h162l105 -256l30 -94l32 99l244 634h98z" />
    <glyph glyph-name="summation" unicode="&#x2211;" horiz-adv-x="648" 
d="M586 570h-400l303 -293v-19l-304 -297h401v-89h-529v89l310 307l-310 302v90h529v-90z" />
    <glyph glyph-name="uni00B5" unicode="&#xb5;" horiz-adv-x="613" 
d="M535 500v-500h-90l-7 85q-48 -95 -173 -95q-46 0 -80 22v-222h-107v710h107v-301q0 -66 26.5 -93.5t77.5 -27.5q58 0 95 30.5t44 85.5v306h107z" />
    <glyph glyph-name="uni2126" unicode="&#x2126;" horiz-adv-x="775" 
d="M708 82v-82h-269v82q72 18 112 81t40 166q0 117 -54.5 182.5t-148.5 65.5t-148.5 -65.5t-54.5 -182.5q0 -103 39.5 -166t111.5 -81v-82h-269v82h148q-67 39 -103 104t-36 151q0 102 38 177t108.5 115.5t165.5 40.5t165 -40.5t108 -115.5t38 -177q0 -86 -36 -151
t-103 -104h148z" />
    <glyph glyph-name="uni2206" unicode="&#x2206;" horiz-adv-x="709" 
d="M669 78v-78h-629v78l255 582h119zM132 83h445l-223 504z" />
    <glyph glyph-name="uni2215" unicode="&#x2215;" horiz-adv-x="253" 
d="M319 660h91l-477 -660h-91z" />
    <glyph glyph-name="uni2219" unicode="&#x2219;" horiz-adv-x="240" 
d="M175.5 394.5q20.5 -19.5 20.5 -52.5t-20.5 -53t-54.5 -20t-55 20t-21 53t20.5 52.5t55.5 19.5q34 0 54.5 -19.5z" />
    <glyph glyph-name="arrowup" unicode="&#x2191;" horiz-adv-x="750" 
d="M516.5 510.5q77.5 -69.5 193.5 -139.5l-63 -82q-152 101 -231 210q12 -86 12 -180v-319h-107v319q0 101 11 180q-79 -109 -231 -210l-63 82q116 70 193 139t140 156h6q62 -86 139.5 -155.5z" />
    <glyph glyph-name="uni2197" unicode="&#x2197;" horiz-adv-x="750" 
d="M610 332q0 -114 17 -215l-99 -8q-8 57 -8 133q0 108 19 205q-50 -63 -126 -138l-226 -226l-71 71l226 226q75 76 138 126q-95 -20 -209 -20q-72 0 -128 8l7 100q101 -17 215 -17q129 0 261 20l4 -5q-20 -131 -20 -260z" />
    <glyph glyph-name="arrowright" unicode="&#x2192;" horiz-adv-x="750" 
d="M561.5 473.5q69.5 -77.5 155.5 -139.5v-6q-87 -63 -156 -140t-139 -193l-82 63q100 150 211 231q-80 -11 -181 -11h-319v107h319q94 0 181 -12q-111 81 -211 231l82 63q70 -116 139.5 -193.5z" />
    <glyph glyph-name="uni2198" unicode="&#x2198;" horiz-adv-x="750" 
d="M603 359q0 -129 20 -260l-5 -4q-131 20 -260 20q-114 0 -216 -17l-7 100q56 8 128 8q114 0 209 -20q-69 54 -138 126l-226 226l72 71l226 -226q72 -71 125 -138q-19 97 -19 204q0 76 8 133l100 -7q-17 -101 -17 -216z" />
    <glyph glyph-name="arrowdown" unicode="&#x2193;" horiz-adv-x="750" 
d="M712 289q-116 -70 -193.5 -139.5t-139.5 -155.5h-6q-63 87 -140 156t-193 139l63 82q150 -100 231 -211q-11 80 -11 181v319h107v-319q0 -94 -12 -181q81 111 231 211z" />
    <glyph glyph-name="uni2199" unicode="&#x2199;" horiz-adv-x="750" 
d="M487 206q72 0 128 -8l-7 -100q-102 17 -216 17q-129 0 -260 -20l-5 4q20 131 20 260q0 115 -17 216l100 7q8 -57 8 -133q0 -107 -19 -204q53 67 125 138l226 226l72 -71l-226 -226q-69 -72 -138 -126q95 20 209 20z" />
    <glyph glyph-name="arrowleft" unicode="&#x2190;" horiz-adv-x="750" 
d="M380 278q-101 0 -181 11q111 -81 211 -231l-82 -63q-70 116 -139 193t-156 140v6q86 62 155.5 139.5t139.5 193.5l82 -63q-100 -150 -211 -231q87 12 181 12h319v-107h-319z" />
    <glyph glyph-name="uni2196" unicode="&#x2196;" horiz-adv-x="750" 
d="M634 154l-71 -71l-226 226q-74 73 -126 137q20 -95 20 -208q0 -73 -8 -129l-100 8q17 101 17 215q0 129 -20 260l4 5q132 -20 261 -20q114 0 215 17l7 -100q-56 -8 -129 -8q-113 0 -208 20q63 -50 138 -126z" />
    <glyph glyph-name="arrowboth" unicode="&#x2194;" horiz-adv-x="1073" 
d="M884.5 491.5q69.5 -77.5 155.5 -139.5v-6q-87 -63 -156 -140t-139 -193l-88 55q104 158 215 238q-70 -10 -147 -10h-378q-76 0 -146 10q111 -80 215 -238l-88 -55q-70 116 -139 193t-156 140v6q86 62 155.5 139.5t139.5 193.5l88 -54q-105 -158 -216 -238q72 10 147 10
h378q77 0 147 -10q-111 80 -215 238l88 54q70 -116 139.5 -193.5z" />
    <glyph glyph-name="arrowupdn" unicode="&#x2195;" horiz-adv-x="750" 
d="M656 210l54 -88q-116 -70 -193.5 -139.5t-139.5 -155.5h-6q-63 87 -140 156t-193 139l55 88q158 -105 238 -216q-10 70 -10 147v378q0 77 10 147q-80 -111 -238 -216l-55 88q116 70 193 139t140 156h6q62 -86 139.5 -155.5t193.5 -139.5l-54 -88q-158 105 -238 216
q10 -70 10 -147v-378q0 -77 -10 -147q80 111 238 216z" />
    <glyph glyph-name="uni25CF" unicode="&#x25cf;" horiz-adv-x="600" 
d="M167.5 24q-59.5 34 -93.5 93.5t-34 132.5t34 132.5t93.5 93.5t132.5 34t132.5 -34t93.5 -93.5t34 -132.5t-34 -132.5t-93.5 -93.5t-132.5 -34t-132.5 34z" />
    </font>
</defs>
</svg>
