<?xml version="1.0" encoding="utf-8"?>
<!-- Generator: Adobe Illustrator 19.2.1, SVG Export Plug-In . SVG Version: 6.00 Build 0)  -->
<svg version="1.1" id="Layer_1" xmlns="http://www.w3.org/2000/svg" xmlns:xlink="http://www.w3.org/1999/xlink" x="0px" y="0px"
	 viewBox="0 0 158.6 174.6" enable-background="new 0 0 158.6 174.6" xml:space="preserve">
<path fill="#613D30" d="M93.9,138.6h114c2.9,0,5.3-2.4,5.3-5.3v0c0-2.9-2.4-5.3-5.3-5.3h-114c-2.9,0-5.3,2.4-5.3,5.3v0
	C88.6,136.3,91,138.6,93.9,138.6z"/>
<path fill="#613D30" d="M63.6,159.9h119.5c2.9,0,5.3-2.4,5.3-5.3l0,0c0-2.9-2.4-5.3-5.3-5.3H63.6c-2.9,0-5.3,2.4-5.3,5.3l0,0
	C58.4,157.5,60.7,159.9,63.6,159.9z"/>
<path fill="#613D30" d="M40.6,117.4h119.5c2.9,0,5.3-2.4,5.3-5.3v0c0-2.9-2.4-5.3-5.3-5.3H40.6c-2.9,0-5.3,2.4-5.3,5.3v0
	C35.4,115,37.8,117.4,40.6,117.4z"/>
<path fill="#00B0E3" d="M53.2,93.6c7.2,0,13,5.9,13,13v20.1h-1c-7.5,0-13-5.8-13-13V93.6H53.2z"/>
<g>
	<path fill="#C78E00" d="M28.5,37.6c-9.7,0-17.5-7.8-17.5-17.5h35C46,29.7,38.2,37.6,28.5,37.6z"/>
	<path fill="#FFB900" d="M4.4,24.2h26.8c2.9,0,5.3-2.4,5.3-5.3V7.5c0-2.9-2.4-5.3-5.3-5.3H9.6c-2.9,0-5.3,2.4-5.3,5.3V24.2z"/>
	<path fill="#00B0E3" d="M67.5,112.4h7.6V41.2c0-21.5-17.5-39-39-39h-7.6v71.2C28.5,94.9,46.1,112.4,67.5,112.4z"/>
	<circle cx="39" cy="18.6" r="2.8"/>
	<path fill="#001363" d="M75.1,80.7C59.1,80.7,46,70.2,46,57.3h29.1V80.7z"/>
	<path fill="#FFB900" d="M72.5,116v0.3v17.1c-7.2-1.5-8.8-5.1-8.8-11.6c0,0,0.6-46.3,0.2-46.4h8.6V116z"/>
	<path fill="#C78E00" d="M75.6,112.1v0.3v22h-1.1c-2,0-4.2-0.3-5.6-0.9v-17.7v-0.3V64.3h6.7V112.1z"/>
	<path fill="#333333" d="M75.6,57.3v23.3c-4.2,0-8.1-0.6-11.7-1.8V57.3H75.6z"/>
	<path fill="#005291" d="M69.4,76C56.5,76,46,65.5,46,52.6h46.7C92.7,65.5,82.3,76,69.4,76z"/>
</g>
<g>
	<path fill="#4C9D4C" d="M65.5,137.1l-1.2-1.5l0,0c7.9-6.4,19.7-5.2,26.1,2.7l1.2,1.5C83.7,146.2,72,145,65.5,137.1z"/>
	<path fill="#107C10" d="M91.2,140.7L91.2,140.7c-8.2,6.1-19.9,4.3-25.9-3.9l-1.2-1.6c0.1,0,0.1-0.1,0.2-0.1
		c4.8,2.5,12.8,4.8,26.5,5L91.2,140.7z"/>
</g>
<g>
	<path fill="#4C9D4C" d="M47.8,170.9l-1.9-0.2l0,0c1.3-10.1,10.6-17.4,20.7-16.1l1.9,0.2C67.2,164.9,57.9,172.1,47.8,170.9z"/>
	<path fill="#107C10" d="M68.8,155.8L68.8,155.8c-1.7,10.1-11.3,16.9-21.4,15.2l-1.9-0.3c0-0.1,0-0.1,0-0.2
		c5.1-1.5,12.6-5.4,22.6-14.8L68.8,155.8z"/>
</g>
<g>
	<path fill="#4C9D4C" d="M44.6,146.9l-0.7-1.8l0,0c9.4-3.9,20.3,0.7,24.2,10.2l0.7,1.8C59.4,160.9,48.5,156.4,44.6,146.9z"/>
	<path fill="#407855" d="M44.6,146.9l-0.5-1.1c13.2,3.6,20.4,7.8,24.4,11.4C59.2,160.9,48.4,156.3,44.6,146.9z"/>
</g>
<g>
	<path fill="#4C9D4C" d="M93,138l-0.9,1.7l0,0c-9.2-4.5-13-15.7-8.5-24.8l0.9-1.7C93.7,117.7,97.5,128.8,93,138z"/>
	<path fill="#106110" d="M93,138l-0.5,1.1c-6.1-12.2-7.8-20.5-7.7-25.8C93.8,117.8,97.5,128.9,93,138z"/>
</g>
<g>
	<path fill="#4C9D4C" d="M28.7,132.5l-1.8,0.7l0,0c-3.4-9.6,1.6-20.3,11.2-23.7l1.8-0.7C43.4,118.4,38.3,129.1,28.7,132.5z"/>
	<path fill="#107C10" d="M40.7,109.6L40.7,109.6c3,9.7-2.5,20.2-12.2,23.2l-1.9,0.6c0-0.1,0-0.1-0.1-0.2c3.9-3.7,8.7-10.5,13.5-23.4
		L40.7,109.6z"/>
</g>
<g>
	<path fill="#4C9D4C" d="M38.7,106.9l1.4,1.4l0,0c-7.3,7.1-19.1,7-26.2-0.3l-1.4-1.4C19.8,99.5,31.6,99.6,38.7,106.9z"/>
	<path fill="#106110" d="M38.7,106.9l0.8,0.9c-13.6,1.7-21.9,0.5-26.9-1.3C20,99.5,31.6,99.7,38.7,106.9z"/>
</g>
</svg>
