<svg xmlns="http://www.w3.org/2000/svg" version="1.1" x="0" y="0" viewBox="0 0 158.6 174.6" enable-background="new 0 0 158.6 174.6" xml:space="preserve"><path fill="#613D30" d="M65.2 139.7h-114c-2.9 0-5.3-2.4-5.3-5.3v0c0-2.9 2.4-5.3 5.3-5.3h114c2.9 0 5.3 2.4 5.3 5.3v0C70.5 137.3 68.1 139.7 65.2 139.7z"/><path fill="#613D30" d="M95.5 161H-24c-2.9 0-5.3-2.4-5.3-5.3v0c0-2.9 2.4-5.3 5.3-5.3H95.5c2.9 0 5.3 2.4 5.3 5.3v0C100.7 158.6 98.4 161 95.5 161z"/><path fill="#613D30" d="M118.4 118.4H-1c-2.9 0-5.3-2.4-5.3-5.3v0c0-2.9 2.4-5.3 5.3-5.3h119.5c2.9 0 5.3 2.4 5.3 5.3v0C123.7 116.1 121.3 118.4 118.4 118.4z"/><path fill="#D83B01" d="M105.9 94.7c-7.2 0-13 5.9-13 13v20.1h1c7.5 0 13-5.8 13-13V94.7H105.9z"/><path fill="#C78E00" d="M130.5 38.7c9.7 0 17.5-7.8 17.5-17.5h-35C113 30.8 120.9 38.7 130.5 38.7z"/><path fill="#FFB900" d="M154.7 25.2h-26.8c-2.9 0-5.3-2.4-5.3-5.3V8.5c0-2.9 2.4-5.3 5.3-5.3h21.5c2.9 0 5.3 2.4 5.3 5.3V25.2z"/><path fill="#D83B01" d="M91.5 113.5h-7.6V42.3c0-21.4 17.6-39 39-39h7.6v71.2C130.5 95.9 113 113.5 91.5 113.5z"/><circle cx="120.1" cy="19.7" r="2.8"/><path fill="#BA6800" d="M83.9 81.7c16.1 0 29.1-10.5 29.1-23.3H83.9V81.7z"/><path fill="#409AE1" d="M86.6 117.1v0.3 17.1c7.2-1.5 8.8-5.1 8.8-11.6 0 0-0.6-46.3-0.2-46.4h-8.6V117.1z"/><path fill="#4052AB" d="M83.5 113.2v0.3 22h1.1c2 0 4.2-0.3 5.6-0.9v-17.7 -0.3V65.4h-6.7V113.2z"/><path fill="#333333" d="M83.5 58.4v23.3c4.2 0 8.1-0.6 11.7-1.8V58.4H83.5z"/><path fill="#FF8C00" d="M89.7 77c12.9 0 23.3-10.5 23.3-23.3H66.3C66.3 66.6 76.8 77 89.7 77z"/><path fill="#4C9D4C" d="M93.5 138.1l1.2-1.5 0 0c-7.9-6.4-19.7-5.2-26.1 2.7l-1.2 1.5C75.4 147.3 87.1 146.1 93.5 138.1z"/><path fill="#107C10" d="M67.9 141.8L67.9 141.8c8.2 6.1 19.9 4.3 25.9-3.9l1.2-1.6c-0.1 0-0.1-0.1-0.2-0.1 -4.8 2.5-12.8 4.8-26.5 5L67.9 141.8z"/><path fill="#4C9D4C" d="M111.3 171.9l1.9-0.2 0 0c-1.3-10.1-10.6-17.4-20.7-16.1l-1.9 0.2C91.8 166 101.2 173.2 111.3 171.9z"/><path fill="#107C10" d="M90.3 156.9L90.3 156.9c1.7 10.1 11.3 16.9 21.4 15.2l1.9-0.3c0-0.1 0-0.1 0-0.2C108.4 170 101 166 91 156.7L90.3 156.9z"/><path fill="#4C9D4C" d="M114.5 148l0.7-1.8 0 0c-9.4-3.9-20.3 0.7-24.2 10.2l-0.7 1.8C99.7 162 110.6 157.4 114.5 148z"/><path fill="#407855" d="M114.5 148l0.5-1.1c-13.2 3.6-20.4 7.8-24.4 11.4C99.9 162 110.7 157.4 114.5 148z"/><path fill="#4C9D4C" d="M66.1 139.1l0.9 1.7 0 0c9.2-4.5 13-15.7 8.5-24.8l-0.9-1.7C65.4 118.7 61.6 129.9 66.1 139.1z"/><path fill="#407855" d="M66 139.1l0.5 1.1c6.1-12.2 7.8-20.5 7.7-25.8C65.3 118.9 61.6 130 66 139.1z"/><path fill="#4C9D4C" d="M130.4 133.6l1.8 0.7 0 0c3.4-9.6-1.6-20.3-11.2-23.7l-1.8-0.7C115.7 119.5 120.8 130.2 130.4 133.6z"/><path fill="#107C10" d="M118.4 110.7L118.4 110.7c-3 9.7 2.5 20.2 12.2 23.2l1.9 0.6c0-0.1 0-0.1 0.1-0.2 -3.9-3.7-8.7-10.5-13.5-23.4L118.4 110.7z"/><path fill="#4C9D4C" d="M120.4 108l-1.4 1.4 0 0c7.3 7.1 19.1 7 26.2-0.3l1.4-1.4C139.3 100.6 127.5 100.7 120.4 108z"/><path fill="#407855" d="M120.3 108l-0.8 0.9c13.6 1.7 21.9 0.5 26.9-1.3C139.1 100.6 127.4 100.8 120.3 108z"/></svg>