<svg xmlns="http://www.w3.org/2000/svg" version="1.1" x="0" y="0" viewBox="0 0 816.7 45.1" enable-background="new 0 0 816.7 45.1" xml:space="preserve"><path fill="#9FA8D5" d="M5.2 11.2c-1.7 0-3.1 1.4-3.1 3.1v30.7h6.2V14.4C8.3 12.6 6.9 11.2 5.2 11.2zM15.5 24.3c-1.7 0-3.1 1.4-3.1 3.1v17.6h6.2V27.4C18.6 25.7 17.2 24.3 15.5 24.3zM25.7 8.4c-1.7 0-3.1 1.4-3.1 3.1v33.5h6.2V11.5C28.8 9.8 27.4 8.4 25.7 8.4zM35.9 18.2c-1.7 0-3.1 1.4-3.1 3.1v23.7H39V21.4C39 19.6 37.6 18.2 35.9 18.2zM46.2 24.3c-1.7 0-3.1 1.4-3.1 3.1v17.6h6.2V27.4C49.3 25.7 47.9 24.3 46.2 24.3zM56.4 20c-1.7 0-3.1 1.4-3.1 3.1v22h6.2v-22C59.5 21.4 58.1 20 56.4 20zM66.6 11.2c-1.7 0-3.1 1.4-3.1 3.1v30.7h6.2V14.4C69.7 12.6 68.3 11.2 66.6 11.2zM76.8 20c-1.7 0-3.1 1.4-3.1 3.1v22H80v-22C80 21.4 78.6 20 76.8 20zM87.1 21.1L87.1 21.1c-1.7 0-3.1 1.4-3.1 3.1v20.9h6.2V24.2C90.2 22.5 88.8 21.1 87.1 21.1zM97.3 34.1c-1.7 0-3.1 1.4-3.1 3.1v7.8h6.2v-7.8C100.4 35.5 99 34.1 97.3 34.1zM168.9 17.2c-1.7 0-3.1 1.4-3.1 3.1v24.7h6.2V20.4C172 18.6 170.6 17.2 168.9 17.2zM179.1 8.5c-1.7 0-3.1 1.4-3.1 3.1v33.4h6.2V11.6C182.3 9.9 180.8 8.5 179.1 8.5zM189.4 17.2c-1.7 0-3.1 1.4-3.1 3.1v24.7h6.2V20.4C192.5 18.6 191.1 17.2 189.4 17.2zM199.6 18.3L199.6 18.3c-1.7 0-3.1 1.4-3.1 3.1v23.6h6.2V21.5C202.7 19.7 201.3 18.3 199.6 18.3zM209.8 31.4c-1.7 0-3.1 1.4-3.1 3.1v10.5h6.2V34.5C212.9 32.8 211.5 31.4 209.8 31.4zM107.5 18.2c-1.7 0-3.1 1.4-3.1 3.1v23.7h6.2V21.4C110.6 19.6 109.2 18.2 107.5 18.2zM117.8 28.1c-1.7 0-3.1 1.4-3.1 3.1v13.9h6.2V31.2C120.9 29.5 119.5 28.1 117.8 28.1zM128 34.1c-1.7 0-3.1 1.4-3.1 3.1v7.8h6.2v-7.8C131.1 35.5 129.7 34.1 128 34.1zM138.2 29.8c-1.7 0-3.1 1.4-3.1 3.1v12.2h6.2V32.9C141.3 31.2 139.9 29.8 138.2 29.8zM148.4 21.1c-1.7 0-3.1 1.4-3.1 3.1v20.9h6.2V24.2C151.6 22.5 150.2 21.1 148.4 21.1zM158.7 29.8c-1.7 0-3.1 1.4-3.1 3.1v12.2h6.2V32.9C161.8 31.2 160.4 29.8 158.7 29.8zM220.1 18c-1.7 0-3.1 1.4-3.1 3.1v23.9h6.2V21.1C223.2 19.4 221.8 18 220.1 18zM230.3 31.1c-1.7 0-3.1 1.4-3.1 3.1v10.9h6.2V34.2C233.4 32.5 232 31.1 230.3 31.1zM240.5 15.2c-1.7 0-3.1 1.4-3.1 3.1v26.7h6.2V18.3C243.6 16.6 242.2 15.2 240.5 15.2zM250.7 25c-1.7 0-3.1 1.4-3.1 3.1v16.9h6.2V28.1C253.9 26.4 252.5 25 250.7 25zM261 31.1L261 31.1c-1.7 0-3.1 1.4-3.1 3.1v10.9h6.2V34.2C264.1 32.5 262.7 31.1 261 31.1zM271.2 26.8c-1.7 0-3.1 1.4-3.1 3.1v15.2h6.2V29.9C274.3 28.2 272.9 26.8 271.2 26.8zM281.4 18c-1.7 0-3.1 1.4-3.1 3.1v23.9h6.2V21.1C284.5 19.4 283.1 18 281.4 18zM291.7 26.8c-1.7 0-3.1 1.4-3.1 3.1v15.2h6.2V29.9C294.8 28.2 293.4 26.8 291.7 26.8zM301.9 31.3c-1.7 0-3.1 1.4-3.1 3.1v10.6h6.2V34.5C305 32.8 303.6 31.3 301.9 31.3zM312.1 35.2c-1.7 0-3.1 1.4-3.1 3.1v6.7h6.2v-6.7C315.2 36.6 313.8 35.2 312.1 35.2zM383.7 24c-1.7 0-3.1 1.4-3.1 3.1v17.9h6.2V27.1C386.8 25.4 385.4 24 383.7 24zM394 15.3c-1.7 0-3.1 1.4-3.1 3.1v26.6h6.2V18.4C397.1 16.7 395.7 15.3 394 15.3zM404.2 24c-1.7 0-3.1 1.4-3.1 3.1v17.9h6.2V27.1C407.3 25.4 405.9 24 404.2 24zM414.4 25.1c-1.7 0-3.1 1.4-3.1 3.1v16.8h6.2V28.2C417.5 26.5 416.1 25.1 414.4 25.1zM424.6 38.2c-1.7 0-3.1 1.4-3.1 3.1v3.7h6.2v-3.7C427.8 39.6 426.4 38.2 424.6 38.2zM434.9 29.8c-1.7 0-3.1 1.4-3.1 3.1v12.2h6.2V32.9C438 31.2 436.6 29.8 434.9 29.8zM445.1 18.9c-1.7 0-3.1 1.4-3.1 3.1v23h6.2V22C448.2 20.3 446.8 18.9 445.1 18.9zM455.3 17.7c-1.7 0-3.1 1.4-3.1 3.1v24.3h6.2V20.8C458.5 19.1 457 17.7 455.3 17.7zM465.6 39.4c-1.7 0-3.1 1.4-3.1 3.1v2.6h6.2v-2.6C468.7 40.8 467.3 39.4 465.6 39.4zM322.4 25c-1.7 0-3.1 1.4-3.1 3.1v16.9h6.2V28.1C325.5 26.4 324.1 25 322.4 25zM332.6 34.8c-1.7 0-3.1 1.4-3.1 3.1v7.1h6.2V38C335.7 36.2 334.3 34.8 332.6 34.8zM342.8 32.6c-1.7 0-3.1 1.4-3.1 3.1v9.4h6.2v-9.4C345.9 34 344.5 32.6 342.8 32.6zM353 36.6c-1.7 0-3.1 1.4-3.1 3.1v5.4h6.2v-5.4C356.2 38 354.8 36.6 353 36.6zM363.3 27.9c-1.7 0-3.1 1.4-3.1 3.1v14.1h6.2V31C366.4 29.3 365 27.9 363.3 27.9zM373.5 36.6L373.5 36.6c-1.7 0-3.1 1.4-3.1 3.1v5.4h6.2v-5.4C376.6 38 375.2 36.6 373.5 36.6zM479.3 16c-1.7 0-3.1 1.4-3.1 3.1v26h6.2v-26C482.4 17.4 481 16 479.3 16zM489.5 29c-1.7 0-3.1 1.4-3.1 3.1v12.9h6.2V32.2C492.6 30.4 491.2 29 489.5 29zM499.7 13.2c-1.7 0-3.1 1.4-3.1 3.1v28.8h6.2V16.3C502.8 14.6 501.4 13.2 499.7 13.2zM510 23c-1.7 0-3.1 1.4-3.1 3.1v19h6.2v-19C513.1 24.4 511.7 23 510 23zM520.2 29c-1.7 0-3.1 1.4-3.1 3.1v12.9h6.2V32.2C523.3 30.4 521.9 29 520.2 29zM530.4 24.7c-1.7 0-3.1 1.4-3.1 3.1v17.2h6.2V27.8C533.5 26.1 532.1 24.7 530.4 24.7zM540.6 16c-1.7 0-3.1 1.4-3.1 3.1v26h6.2v-26C543.8 17.4 542.4 16 540.6 16zM550.9 24.7c-1.7 0-3.1 1.4-3.1 3.1v17.2h6.2V27.8C554 26.1 552.6 24.7 550.9 24.7zM561.1 25.8L561.1 25.8c-1.7 0-3.1 1.4-3.1 3.1v16.2h6.2V28.9C564.2 27.2 562.8 25.8 561.1 25.8zM571.3 38.9c-1.7 0-3.1 1.4-3.1 3.1v3.1h6.2V42C574.4 40.3 573 38.9 571.3 38.9zM642.9 22c-1.7 0-3.1 1.4-3.1 3.1v20h6.2v-20C646.1 23.4 644.7 22 642.9 22zM653.2 13.3c-1.7 0-3.1 1.4-3.1 3.1v28.7h6.2V16.4C656.3 14.7 654.9 13.3 653.2 13.3zM663.4 22c-1.7 0-3.1 1.4-3.1 3.1v20h6.2v-20C666.5 23.4 665.1 22 663.4 22zM673.6 23.1L673.6 23.1c-1.7 0-3.1 1.4-3.1 3.1v18.9h6.2V26.2C676.7 24.5 675.3 23.1 673.6 23.1zM683.9 36.1c-1.7 0-3.1 1.4-3.1 3.1v5.8h6.2v-5.8C687 37.5 685.6 36.1 683.9 36.1zM581.6 23c-1.7 0-3.1 1.4-3.1 3.1v19h6.2v-19C584.7 24.4 583.3 23 581.6 23zM591.8 32.8c-1.7 0-3.1 1.4-3.1 3.1v9.2h6.2v-9.2C594.9 34.2 593.5 32.8 591.8 32.8zM602 38.9c-1.7 0-3.1 1.4-3.1 3.1v3.1h6.2V42C605.1 40.3 603.7 38.9 602 38.9zM612.2 34.5c-1.7 0-3.1 1.4-3.1 3.1v7.4h6.2v-7.4C615.4 35.9 614 34.5 612.2 34.5zM622.5 25.8c-1.7 0-3.1 1.4-3.1 3.1v16.2h6.2V28.9C625.6 27.2 624.2 25.8 622.5 25.8zM632.7 34.5c-1.7 0-3.1 1.4-3.1 3.1v7.4h6.2v-7.4C635.8 35.9 634.4 34.5 632.7 34.5zM694.1 22.8c-1.7 0-3.1 1.4-3.1 3.1v19.2h6.2V25.9C697.2 24.2 695.8 22.8 694.1 22.8zM704.3 35.8c-1.7 0-3.1 1.4-3.1 3.1v6.1h6.2v-6.1C707.4 37.2 706 35.8 704.3 35.8zM714.5 19.9c-1.7 0-3.1 1.4-3.1 3.1v22h6.2v-22C717.7 21.3 716.3 19.9 714.5 19.9zM724.8 29.8c-1.7 0-3.1 1.4-3.1 3.1v12.2h6.2V32.9C727.9 31.2 726.5 29.8 724.8 29.8zM735 35.8c-1.7 0-3.1 1.4-3.1 3.1v6.1h6.2v-6.1C738.1 37.2 736.7 35.8 735 35.8zM745.2 31.5c-1.7 0-3.1 1.4-3.1 3.1v10.5h6.2V34.6C748.3 32.9 746.9 31.5 745.2 31.5zM755.5 22.8c-1.7 0-3.1 1.4-3.1 3.1v19.2h6.2V25.9C758.6 24.2 757.2 22.8 755.5 22.8zM765.7 31.5c-1.7 0-3.1 1.4-3.1 3.1v10.5h6.2V34.6C768.8 32.9 767.4 31.5 765.7 31.5zM775.9 36.1c-1.7 0-3.1 1.4-3.1 3.1v5.9h6.2v-5.9C779 37.5 777.6 36.1 775.9 36.1zM786.2 39.9L786.2 39.9c-1.7 0-3.1 1.4-3.1 3.1v2h6.2v-2C789.3 41.3 787.9 39.9 786.2 39.9zM796.4 29.8c-1.7 0-3.1 1.4-3.1 3.1v12.2h6.2V32.9C799.5 31.2 798.1 29.8 796.4 29.8zM806.6 39.6c-1.7 0-3.1 1.4-3.1 3.1v2.4h6.2v-2.4C809.7 41 808.3 39.6 806.6 39.6zM813.7 40.4v4.6h3.2v-7.7c0 0-0.1 0-0.1 0C815.1 37.3 813.7 38.7 813.7 40.4z"/></svg>