<?xml version="1.0" encoding="utf-8"?>
<!-- Generator: Adobe Illustrator 19.2.1, SVG Export Plug-In . SVG Version: 6.00 Build 0)  -->
<svg version="1.1" id="Layer_1" xmlns="http://www.w3.org/2000/svg" xmlns:xlink="http://www.w3.org/1999/xlink" x="0px" y="0px"
	 viewBox="0 0 351 80" enable-background="new 0 0 351 80" xml:space="preserve">
<path fill="#4C9D4C" d="M62.1,40.8c0,3.2-2.6,5.8-5.8,5.8h-3v4h3c5.4,0,9.8-4.4,9.8-9.8v-8.2h-4V40.8z"/>
<path fill="#4C9D4C" d="M15.3,47.5l-6,5.3l3.3-10c0.1-0.4,0.2-0.8,0.2-1.2V17.4c0-3.2,2.6-5.8,5.8-5.8h37.9c3.2,0,5.8,2.6,5.8,5.8
	v4.3h4v-4.3c0-5.4-4.4-9.8-9.8-9.8H18.5c-5.4,0-9.8,4.4-9.8,9.8l0,24.2L5.3,52.4c-0.5,1.6,0.1,3.4,1.5,4.3c0.6,0.4,1.4,0.6,2.1,0.6
	c0.9,0,1.8-0.3,2.5-1l6.5-5.8h24.2v-4H17.8C16.9,46.6,16,46.9,15.3,47.5z"/>
<path fill="#409AE1" d="M103.9,59.2V34.9c0-5.4-4.4-9.8-9.8-9.8H56.3c-5.4,0-9.8,4.4-9.8,9.8v23.4c0,5.4,4.4,9.8,9.8,9.8h38.5
	l6.5,5.8c0.7,0.6,1.6,1,2.5,1c0.7,0,1.4-0.2,2.1-0.6c1.5-0.9,2.1-2.7,1.5-4.3L103.9,59.2z M97.4,65.1c-0.7-0.6-1.6-1-2.5-1H56.3
	c-3.2,0-5.8-2.6-5.8-5.8V34.9c0-3.2,2.6-5.8,5.8-5.8h37.9c3.2,0,5.8,2.6,5.8,5.8v24.3c0,0.4,0.1,0.8,0.2,1.2l3.3,10L97.4,65.1z"/>
<g>
	<path fill="#FFFFFF" d="M138.3,14.1c1.2,0.4,2.3,0.9,3.3,1.5l-1.4,3c-1-0.6-2.1-1.1-3.1-1.4c-1-0.3-2-0.5-2.8-0.5
		c-1,0-1.8,0.2-2.4,0.6s-0.9,0.9-0.9,1.6c0,0.6,0.2,1.1,0.6,1.5c0.4,0.4,0.9,0.7,1.4,1c0.6,0.2,1.4,0.5,2.4,0.8
		c1.4,0.4,2.5,0.8,3.3,1.2c0.9,0.4,1.6,1,2.2,1.8c0.6,0.8,0.9,1.8,0.9,3.1c0,1.2-0.3,2.2-1,3.1c-0.7,0.9-1.6,1.6-2.7,2.1
		c-1.2,0.5-2.5,0.7-4,0.7c-1.5,0-3-0.3-4.5-0.9c-1.4-0.6-2.7-1.4-3.8-2.3l1.5-3c1,0.9,2.2,1.7,3.4,2.2c1.2,0.5,2.4,0.8,3.5,0.8
		c1.2,0,2.1-0.2,2.8-0.7c0.7-0.4,1-1,1-1.8c0-0.6-0.2-1.1-0.6-1.5c-0.4-0.4-0.9-0.7-1.5-1c-0.6-0.2-1.4-0.5-2.4-0.8
		c-1.4-0.4-2.5-0.8-3.3-1.2c-0.8-0.4-1.6-1-2.2-1.7c-0.6-0.8-0.9-1.8-0.9-3c0-1.1,0.3-2.1,0.9-3c0.6-0.9,1.5-1.5,2.6-2
		c1.1-0.5,2.4-0.7,3.9-0.7C135.8,13.5,137,13.7,138.3,14.1z"/>
	<path fill="#FFFFFF" d="M159.9,15.5c1.4,1.2,2.1,2.9,2.1,5.1c0,2.3-0.7,4.1-2.1,5.4c-1.4,1.3-3.4,1.9-5.9,1.9h-4.7V34h-3.4V13.7
		h8.1C156.5,13.7,158.5,14.3,159.9,15.5z M149.3,24.8h4.5c1.6,0,2.8-0.3,3.6-1c0.8-0.7,1.3-1.7,1.3-3.1c0-1.3-0.4-2.3-1.3-3
		c-0.8-0.7-2.1-1-3.6-1h-4.5V24.8z"/>
	<path fill="#FFFFFF" d="M168.8,16.8v5.5h9.9v3.1h-9.9v5.6h11.4V34h-14.9V13.7h14.5v3.1H168.8z"/>
	<path fill="#FFFFFF" d="M187.8,16.8v5.5h9.9v3.1h-9.9v5.6h11.4V34h-14.9V13.7h14.5v3.1H187.8z"/>
	<path fill="#FFFFFF" d="M216.6,14.4c1.4,0.6,2.5,1.3,3.5,2.3l-2,2.5c-0.7-0.8-1.6-1.4-2.6-1.9c-1-0.5-2-0.7-3.1-0.7
		c-1.3,0-2.6,0.3-3.7,0.9c-1.1,0.6-2,1.5-2.6,2.6c-0.6,1.1-1,2.3-1,3.6c0,1.3,0.3,2.5,1,3.6c0.6,1.1,1.5,2,2.6,2.6
		c1.1,0.6,2.3,1,3.7,1c1,0,2-0.2,3-0.6s1.9-1,2.7-1.8l2,2.3c-1,1-2.3,1.8-3.7,2.4s-2.8,0.9-4.2,0.9c-2,0-3.7-0.5-5.4-1.4
		s-2.9-2.1-3.8-3.7c-0.9-1.6-1.4-3.3-1.4-5.2c0-1.9,0.5-3.6,1.4-5.2c0.9-1.6,2.2-2.8,3.9-3.7c1.6-0.9,3.4-1.4,5.4-1.4
		C213.8,13.6,215.2,13.9,216.6,14.4z"/>
	<path fill="#FFFFFF" d="M237.8,34v-8.4H227V34h-3.4V13.7h3.4v8.8h10.8v-8.8h3.4V34H237.8z"/>
	<path fill="#FFFFFF" d="M138.3,42.1c1.2,0.4,2.3,0.9,3.3,1.5l-1.4,3c-1-0.6-2.1-1.1-3.1-1.4c-1-0.3-2-0.5-2.8-0.5
		c-1,0-1.8,0.2-2.4,0.6s-0.9,0.9-0.9,1.6c0,0.6,0.2,1.1,0.6,1.5c0.4,0.4,0.9,0.7,1.4,1c0.6,0.2,1.4,0.5,2.4,0.8
		c1.4,0.4,2.5,0.8,3.3,1.2c0.9,0.4,1.6,1,2.2,1.8c0.6,0.8,0.9,1.8,0.9,3.1c0,1.2-0.3,2.2-1,3.1c-0.7,0.9-1.6,1.6-2.7,2.1
		c-1.2,0.5-2.5,0.7-4,0.7c-1.5,0-3-0.3-4.5-0.9c-1.4-0.6-2.7-1.4-3.8-2.3l1.5-3c1,0.9,2.2,1.7,3.4,2.2c1.2,0.5,2.4,0.8,3.5,0.8
		c1.2,0,2.1-0.2,2.8-0.7c0.7-0.4,1-1,1-1.8c0-0.6-0.2-1.1-0.6-1.5c-0.4-0.4-0.9-0.7-1.5-1c-0.6-0.2-1.4-0.5-2.4-0.8
		c-1.4-0.4-2.5-0.8-3.3-1.2c-0.8-0.4-1.6-1-2.2-1.7c-0.6-0.8-0.9-1.8-0.9-3c0-1.1,0.3-2.1,0.9-3c0.6-0.9,1.5-1.5,2.6-2
		c1.1-0.5,2.4-0.7,3.9-0.7C135.8,41.5,137,41.7,138.3,42.1z"/>
	<path fill="#FFFFFF" d="M154.2,62h-3.4v-6.6l-7.6-13.7h3.5l5.8,9.9l5.7-9.9h3.5l-7.5,13.6V62z"/>
	<path fill="#FFFFFF" d="M178.5,62l-10.8-14.6V62h-3.4V41.7h3.4l10.9,14.6V41.7h3.4V62H178.5z"/>
	<path fill="#FFFFFF" d="M194.7,44.8V62h-3.4V44.8h-6.4v-3.1h16.3v3.1H194.7z"/>
	<path fill="#FFFFFF" d="M218.2,62v-8.4h-10.8V62H204V41.7h3.4v8.8h10.8v-8.8h3.4V62H218.2z"/>
	<path fill="#FFFFFF" d="M230.4,44.8v5.5h9.9v3.1h-9.9v5.6h11.4V62H227V41.7h14.5v3.1H230.4z"/>
	<path fill="#FFFFFF" d="M256.5,42.1c1.2,0.4,2.3,0.9,3.3,1.5l-1.4,3c-1-0.6-2.1-1.1-3.1-1.4c-1-0.3-2-0.5-2.8-0.5
		c-1,0-1.8,0.2-2.4,0.6s-0.9,0.9-0.9,1.6c0,0.6,0.2,1.1,0.6,1.5c0.4,0.4,0.9,0.7,1.4,1c0.6,0.2,1.4,0.5,2.4,0.8
		c1.4,0.4,2.5,0.8,3.3,1.2c0.9,0.4,1.6,1,2.2,1.8c0.6,0.8,0.9,1.8,0.9,3.1c0,1.2-0.3,2.2-1,3.1c-0.7,0.9-1.6,1.6-2.7,2.1
		c-1.2,0.5-2.5,0.7-4,0.7c-1.5,0-3-0.3-4.5-0.9c-1.4-0.6-2.7-1.4-3.8-2.3l1.5-3c1,0.9,2.2,1.7,3.4,2.2c1.2,0.5,2.4,0.8,3.5,0.8
		c1.2,0,2.1-0.2,2.8-0.7c0.7-0.4,1-1,1-1.8c0-0.6-0.2-1.1-0.6-1.5c-0.4-0.4-0.9-0.7-1.5-1c-0.6-0.2-1.4-0.5-2.4-0.8
		c-1.4-0.4-2.5-0.8-3.3-1.2c-0.8-0.4-1.6-1-2.2-1.7c-0.6-0.8-0.9-1.8-0.9-3c0-1.1,0.3-2.1,0.9-3c0.6-0.9,1.5-1.5,2.6-2
		c1.1-0.5,2.4-0.7,3.9-0.7C254,41.5,255.2,41.7,256.5,42.1z"/>
	<path fill="#FFFFFF" d="M264,62V41.7h3.4V62H264z"/>
	<path fill="#FFFFFF" d="M283.2,42.1c1.2,0.4,2.3,0.9,3.3,1.5l-1.4,3c-1-0.6-2.1-1.1-3.1-1.4c-1-0.3-2-0.5-2.8-0.5
		c-1,0-1.8,0.2-2.4,0.6s-0.9,0.9-0.9,1.6c0,0.6,0.2,1.1,0.6,1.5c0.4,0.4,0.9,0.7,1.4,1c0.6,0.2,1.4,0.5,2.4,0.8
		c1.4,0.4,2.5,0.8,3.3,1.2c0.9,0.4,1.6,1,2.2,1.8c0.6,0.8,0.9,1.8,0.9,3.1c0,1.2-0.3,2.2-1,3.1c-0.7,0.9-1.6,1.6-2.7,2.1
		c-1.2,0.5-2.5,0.7-4,0.7c-1.5,0-3-0.3-4.5-0.9c-1.4-0.6-2.7-1.4-3.8-2.3l1.5-3c1,0.9,2.2,1.7,3.4,2.2c1.2,0.5,2.4,0.8,3.5,0.8
		c1.2,0,2.1-0.2,2.8-0.7c0.7-0.4,1-1,1-1.8c0-0.6-0.2-1.1-0.6-1.5c-0.4-0.4-0.9-0.7-1.5-1c-0.6-0.2-1.4-0.5-2.4-0.8
		c-1.4-0.4-2.5-0.8-3.3-1.2c-0.8-0.4-1.6-1-2.2-1.7c-0.6-0.8-0.9-1.8-0.9-3c0-1.1,0.3-2.1,0.9-3c0.6-0.9,1.5-1.5,2.6-2
		c1.1-0.5,2.4-0.7,3.9-0.7C280.7,41.5,282,41.7,283.2,42.1z"/>
	<path fill="#FFFFFF" d="M301.1,57.4l-1.9,4.6h-3.6l9-20.3h3.5L317,62h-3.7l-1.9-4.6H301.1z M306.3,45.3l-3.8,9h7.7L306.3,45.3z"/>
	<path fill="#FFFFFF" d="M333.7,43.5c1.4,1.2,2.1,2.9,2.1,5.1c0,2.3-0.7,4.1-2.1,5.4c-1.4,1.3-3.4,1.9-5.9,1.9h-4.7V62h-3.4V41.7
		h8.1C330.3,41.7,332.3,42.3,333.7,43.5z M323.1,52.8h4.5c1.6,0,2.8-0.3,3.6-1c0.8-0.7,1.3-1.7,1.3-3.1c0-1.3-0.4-2.3-1.3-3
		c-0.8-0.7-2.1-1-3.6-1h-4.5V52.8z"/>
	<path fill="#FFFFFF" d="M339.2,62V41.7h3.4V62H339.2z"/>
</g>
</svg>
