<svg xmlns="http://www.w3.org/2000/svg" width="40" height="48"><path fill="none" stroke="#002050" stroke-width="2" stroke-miterlimit="10" d="M3 16h34v24H3z"/><path fill="#002050" d="M12.5 22c1.4 0 2.5 1 2.5 2.5S14 27 12.5 27 10 26 10 24.5s1-2.5 2.5-2.5m0-2C10 20 8 22 8 24.5s2 4.5 4.5 4.5 4.5-2 4.5-4.5-2-4.5-4.5-4.5z"/><path fill="none" stroke="#002050" stroke-width="2" stroke-miterlimit="10" d="M7 33c0-3 2.5-5 5.5-5s5.5 2 5.5 5H7zm14-10h13m-13 4h13m-13 4h13M6 37h4m-2 4v-4m4 0h4m-2 4v-4m4 0h4m-2 4v-4m4 0h4m-2 4v-4m4 0h4m-2 4v-4"/></svg>