<svg xmlns="http://www.w3.org/2000/svg" width="54" height="48"><path fill="none" stroke="#002050" stroke-width="2" stroke-miterlimit="10" d="M8 34H3V11h34v23H14m27 0h-4V15h8l7 8v11h-5"/><path fill="#002050" d="M43 19l1.8 2H41v-2h2m1-2h-5v6h10l-5-6zM11 32c1.4 0 2.5 1 2.5 2.5S12.5 37 11 37s-2.5-1-2.5-2.5S9.5 32 11 32m0-2c-2.5 0-4.5 2-4.5 4.5S8.5 39 11 39s4.5-2 4.5-4.5-2-4.5-4.5-4.5zm33 2c1.4 0 2.5 1 2.5 2.5S45.5 37 44 37s-2.5-1-2.5-2.5 1-2.5 2.5-2.5m0-2c-2.5 0-4.5 2-4.5 4.5s2 4.5 4.5 4.5 4.5-2 4.5-4.5-2-4.5-4.5-4.5z"/><path fill="none" stroke="#002050" stroke-width="2" stroke-miterlimit="10" d="M3 22h34"/><path fill="#002050" d="M0 33h3v2H0z"/></svg>