<?xml version="1.0" encoding="utf-8"?>
<!-- Generator: Adobe Illustrator 20.1.0, SVG Export Plug-In . SVG Version: 6.00 Build 0)  -->
<svg version="1.1" id="Layer_1" xmlns="http://www.w3.org/2000/svg" xmlns:xlink="http://www.w3.org/1999/xlink" x="0px" y="0px"
	 viewBox="0 0 232.6 62.3" style="enable-background:new 0 0 232.6 62.3;" xml:space="preserve">
<style type="text/css">
	.st0{fill:#DA3838;}
	.st1{fill:#FFFFFF;}
</style>
<g>
	<g>
		<g>
			<path class="st0" d="M44.8,35.8c0.3-0.2,2.2-0.2,2.2-0.2s-0.3-12-0.4-12.1c-0.1,0-2.1,0.1-2.1,0.1s-0.3-5-0.1-5.1
				s5.2-0.2,7.8-0.2c4.4,0,8.8,1,8.8,7c-0.1,6.4-5.7,7-8.7,7c0,1.8,0,3.1,0,3.1c0,0.1,2.9,0.5,3,0.5s0.2,4.1,0.1,4.3
				c-0.2,0.2-10.2-0.1-10.2-0.1C45.1,40.3,44.5,36,44.8,35.8z M55.6,25.4c0-2.2-3.4-1.7-3.4-1.7l0.1,3.8
				C52.3,27.6,55.6,27.7,55.6,25.4z"/>
			<path class="st0" d="M64.1,29.2l-1.3-0.1c0,0-0.5-3.2-0.3-4.2l7.1-0.5c0,0,0,2.1,0,7.5c0,2.1,0.7,3.1,2.2,3.1c1.2,0,2-1.3,2-3.1
				v-2.2l-2-0.1l-0.2-4.4l7.7-0.6v10.6c0.1,0.1,1.9,0.4,2,0.4c0,0,0,4.5,0,4.7s-5.8,0.2-5.8,0.2L75,39.1c0,0-1.7,1.5-4.3,1.5
				c-3.2,0-6.5-1.5-6.5-7.9L64.1,29.2z"/>
			<path class="st0" d="M90.1,25.8c0,0,0.9-1.4,4.1-1.4c2.9,0,7.1,1.9,7.1,8.3c0,6.5-3.8,7.9-6.9,7.9c-2.6,0-3.6-1-3.6-1v3.1
				c0,0,3,0.3,3.1,0.4c0.2,0.2,0.1,4.2,0.1,4.2c0.1,0-11.3,0.1-11.2,0l-0.2-4.2L85,43V30h-2.3c0-2-0.2-4.6-0.2-4.6s6.9-1.1,7-1
				C89.5,24.6,90.1,25.8,90.1,25.8z M95.7,32.6c0-2-0.8-3.1-2-3.1c-1.3,0-2.2,1.1-2.2,3.1c0,1.9,0.8,3.3,2,3.3
				C95,35.9,95.7,34.7,95.7,32.6z"/>
			<path class="st0" d="M110.1,25.8c0,0,0.9-1.4,4.1-1.4c2.9,0,7.1,1.9,7.1,8.3c0,6.5-3.8,7.9-6.9,7.9c-2.6,0-3.6-1-3.6-1v3.1
				c0,0,3,0.3,3.1,0.4c0.2,0.2,0.1,4.2,0.1,4.2c0.1,0-11.3,0.1-11.2,0l-0.2-4.2L105,43V30.1h-2.3c0-2-0.2-4.6-0.2-4.6s6.9-1.1,7-1
				S110.1,25.8,110.1,25.8z M115.7,32.6c0-2-0.8-3.1-2-3.1c-1.3,0-2.2,1.1-2.2,3.1c0,1.9,0.8,3.3,2,3.3
				C115.1,35.9,115.7,34.7,115.7,32.6z"/>
			<path class="st0" d="M122,28.6c0,0-0.5-3-0.3-4h9.3c0,0,0.2,3.6,0.2,4.1l-1.7,0.1l2.4,4.4l2.2-4.3l-1.6-0.1l-0.1-4
				c0.2-0.2,8.9,0.1,8.9,0.1s0.2,2,0.2,4l-1.7,0.1c0,0-8.4,16.6-10.3,19.4c0,0-4.3-0.9-5.4-2.6c-0.2,0,4.5-7.2,4.4-7.2
				c0,0-4.3-7.1-4.8-9.7L122,28.6z"/>
			<path class="st0" d="M168.7,19.1c0.2,0.2-0.2,7.7-0.2,7.7l-5,0.6c0,0-0.6-3.2-3.4-3.2c-1.6,0-3,1.7-3,5.2c0,3.7,2.2,4.9,3.8,4.9
				c2,0,3.5-1.7,3.8-2.1c1.4,1.5,4.1,3.8,4.1,3.8s-2,4.6-7.9,4.6c-4.8,0-10.1-3.8-10.1-11.3c0-7.9,4.7-10.7,9-10.7
				c2.4,0,3.7,1.3,3.7,1.3l0.3-1.8C163.8,18.2,167.3,18.3,168.7,19.1z"/>
			<path class="st0" d="M181.4,26.2v-1.6c0,0,6.6-0.2,6.6-0.1c0,0.2,0.2,4.1,0.2,4.1c-0.1,0-2.2,0.5-2.3,0.5
				c-0.1,0.1,0.1,6.6,0.1,6.6s2.6,0,2.6,0.2c0.1,0.2,0.1,4.3-0.1,4.3c-0.1,0-7-0.1-7-0.2c0-0.1-0.3-1.6-0.3-1.6s-1.2,2-4.4,2
				c-2.9,0-6.9-1.9-6.9-8.3c0-5.9,3.8-7.6,7-7.6C179.4,24.6,181.4,26.2,181.4,26.2z M175.3,32.3c0,1.8,1.2,2.9,2.5,2.9
				c1.4,0,2.4-1.1,2.4-2.9c0-1.6-1-3-2.3-3C176.4,29.4,175.3,30.5,175.3,32.3z"/>
			<path class="st0" d="M207.4,35.9l1.3,0.2c0,0,0.2,3.2,0,4.2l-8-0.2c0,0-0.2-3.4-0.1-3.9l1.5-0.3v-3.6c0-2-0.6-3.1-2-3.1
				c-1.1,0-1.9,1.3-1.9,3.1V36l1.3,0.4l0.1,3.7c-0.1,0.2-8.7,0.1-8.7,0.1s-0.2-2-0.2-4l1.9-0.3v-6.3c-0.1-0.1-2.1-0.2-2.2-0.2
				c0,0-0.6-4.5-0.6-4.6s6.1-1.3,6.1-1.3l0.8,2c0,0,1.3-1.7,3.8-1.7c1.8,0,4,0.2,5.2,2.2c0.9-1.3,2.8-2,5.2-2c2.9,0,6.5,1.5,6.5,7.9
				c0,1.7-0.2,4-0.2,4l1.6,0.3c0,0,0.2,3,0,4h-8.6c0,0-0.2-3.4-0.1-3.9l1.3-0.4v-3.6c0-2-0.5-2.9-1.9-2.9c-0.9,0-1.9,0.8-2,2.3
				C207.4,32.6,207.4,35.9,207.4,35.9z"/>
		</g>
	</g>
	<g>
		<path class="st0" d="M26.8,29.8c0,8.7,0.6,15.7-12.3,15.7c-12.3,0-12.3-7-12.3-15.7s5.5-15.7,12.3-15.7S26.8,21.1,26.8,29.8z"/>
		<path class="st1" d="M13.2,37.5l-0.7-1.1c-0.9-1.5,0.2-3.4,1.9-3.4l0,0c1.7,0,2.8,1.9,1.9,3.4l-0.7,1.1
			C15.2,38.5,13.7,38.5,13.2,37.5z"/>
		<path class="st0" d="M4,28.9L4,28.9c-2.2,0-4-1.8-4-4v-4.6c0-2.2,1.8-4,4-4h4v8.6C8,27.1,6.2,28.9,4,28.9z"/>
		<path class="st0" d="M24.6,28.9L24.6,28.9c-2.2,0-4-1.8-4-4v-8.6h4c2.2,0,4,1.8,4,4v4.6C28.6,27.1,26.8,28.9,24.6,28.9z"/>
		<ellipse transform="matrix(0.7071 -0.7071 0.7071 0.7071 -16.3737 13.5604)" class="st1" cx="8.2" cy="26.5" rx="1.6" ry="1.6"/>
		<ellipse transform="matrix(0.7071 -0.7071 0.7071 0.7071 -12.9094 21.7959)" class="st1" cx="19.9" cy="26.5" rx="1.6" ry="1.6"/>
		<rect x="14.1" y="36" class="st1" width="0.8" height="9.6"/>
	</g>
</g>
</svg>
