<svg id="Layer_1" xmlns="http://www.w3.org/2000/svg" xmlns:xlink="http://www.w3.org/1999/xlink" viewBox="0 0 651.3 84"><style>.st0{fill:#0078D7;} .st1{fill:#666666;} .st2{fill:none;stroke:#000000;stroke-width:0.5;stroke-miterlimit:10;} .st3{fill:#F2F2F2;} .st4{opacity:0.7;} .st5{fill:#006FC8;stroke:#006FC8;stroke-width:2;stroke-miterlimit:10;} .st6{fill:#005291;} .st7{fill:none;stroke:#006FC8;stroke-width:2;stroke-miterlimit:10;} .st8{fill:#001363;} .st9{fill:#E6E6E6;} .st10{fill:#001580;} .st11{fill:#006FC8;} .st12{fill:none;} .st13{font-family:&apos;SegoeUI-Semilight&apos;;} .st14{font-size:36px;} .st15{font-size:18px;}</style><defs><path id="SVGID_1_" d="M-66.7-360.3h850.3v210H-66.7z"/></defs><clipPath id="SVGID_2_"><use xlink:href="#SVGID_1_" overflow="visible"/></clipPath><g clip-path="url(#SVGID_2_)"><image width="3543" height="2365" xlink:href="../../../../../Downloads/pexels-photo-90807.jpeg" transform="matrix(.24 0 0 .24 -66.67 -428.33)" overflow="visible"/></g><path class="st5" d="M574.1 67.7h17.2v5.8h-17.2zM555.5 75.3H610v3.1h-54.5z"/><path class="st6" d="M573.3 66h18.8v5.1h-18.8z"/><path class="st8" d="M1.3 78.6h650v3.5H1.3z"/><path class="st5" d="M627 67.7h-88.5c-2.5 0-4.5-2-4.5-4.5v-56c0-2.5 2-4.5 4.5-4.5H627c2.5 0 4.5 2 4.5 4.5v56c0 2.5-2 4.5-4.5 4.5z"/><path class="st3" d="M536.7 7.2h91.6v56.1h-91.6z"/><path class="st9" d="M628.3 63.3H562l26.9-56.1h39.4z"/><path class="st10" d="M567.8 20.6l1.1.9-9.1 11.1 9.1 11.1-1.1.9-10-12.1 10-11.9zM573.5 52.7l15.8-34.3 1.4.6L575 53.3l-1.5-.6zM606.2 32.7l-10 12.1-1.1-.9 9.1-11.1-9.1-11.1 1.1-.9 10 11.9z"/><path class="st12" d="M1.3 8.7h349.3V42H1.3z"/><text transform="translate(1.33 35.31)" class="st11 st13 st14">IEBlog</text><path class="st12" d="M1.3 50.1h349.3v16.2H1.3z"/><text transform="translate(1.33 63.44)" class="st0 st13 st15">The Internet Explorer Weblog</text></svg>