<?xml version="1.0" encoding="utf-8"?>
<!-- Generator: Adobe Illustrator 21.0.0, SVG Export Plug-In . SVG Version: 6.00 Build 0)  -->
<svg version="1.1" id="Layer_1" xmlns="http://www.w3.org/2000/svg" xmlns:xlink="http://www.w3.org/1999/xlink" x="0px" y="0px"
	 viewBox="0 0 651.3 92" style="enable-background:new 0 0 651.3 92;" xml:space="preserve">
<style type="text/css">
	.st0{fill:#006FC8;stroke:#006FC8;stroke-width:2;stroke-miterlimit:10;}
	.st1{fill:#005291;}
	.st2{fill:#F2F2F2;}
	.st3{fill:#E6E6E6;}
	.st4{fill:#001580;}
	.st5{fill:none;}
	.st6{enable-background:new    ;}
	.st7{fill:#0078D7;}
</style>
<g>
	<path class="st0" d="M45.5,70.5h17.2v5.8H45.5V70.5z M26.9,78.1h54.5v3.1H26.9V78.1z"/>
	<path class="st1" d="M44.7,68.8h18.8v5.1H44.7V68.8z"/>
	<path class="st0" d="M98.4,70.5H9.9c-2.5,0-4.5-2-4.5-4.5V10c0-2.5,2-4.5,4.5-4.5h88.5c2.5,0,4.5,2,4.5,4.5v56
		C102.9,68.5,100.9,70.5,98.4,70.5z"/>
	<path class="st2" d="M8.1,10h91.6v56.1H8.1V10z"/>
	<path class="st3" d="M99.7,66.1H33.4L60.3,10h39.4L99.7,66.1z"/>
	<path class="st4" d="M39.2,23.4l1.1,0.9l-9.1,11.1l9.1,11.1l-1.1,0.9l-10-12.1L39.2,23.4z M44.9,55.5l15.8-34.3l1.4,0.6L46.4,56.1
		L44.9,55.5z M77.6,35.5l-10,12.1l-1.1-0.9l9.1-11.1l-9.1-11.1l1.1-0.9C67.6,23.6,77.6,35.5,77.6,35.5z"/>
</g>
<g>
	<path class="st5" d="M124.1,59.6h429.7v19.9H124.1V59.6z"/>
</g>
<g class="st6">
	<g>
		<path class="st7" d="M130.2,67.5v14.8h-1.5V67.5h-4.7v-1.4h10.8v1.4H130.2z"/>
	</g>
	<g>
		<path class="st7" d="M145.1,82.3v-6.8c0-1.3-0.2-2.2-0.7-2.9c-0.5-0.6-1.2-0.9-2.2-0.9c-0.5,0-0.9,0.1-1.3,0.3
			c-0.4,0.2-0.8,0.5-1.1,0.8c-0.3,0.4-0.6,0.8-0.8,1.3c-0.2,0.5-0.3,1.1-0.3,1.7v6.5h-1.4V65.2h1.4v7.5h0c0.9-1.5,2.2-2.3,3.9-2.3
			c1.3,0,2.3,0.4,2.9,1.2c0.6,0.8,1,2,1,3.5v7.1H145.1z"/>
	</g>
	<g>
		<path class="st7" d="M150.7,76.8c0,0.7,0.1,1.3,0.3,1.9c0.2,0.6,0.4,1,0.8,1.4c0.3,0.4,0.8,0.7,1.2,0.9c0.5,0.2,1,0.3,1.6,0.3
			c1.3,0,2.5-0.5,3.7-1.4v1.4c-1.1,0.8-2.4,1.2-4,1.2c-0.8,0-1.5-0.1-2.1-0.4s-1.2-0.7-1.6-1.2c-0.4-0.5-0.8-1.1-1-1.9
			c-0.2-0.8-0.4-1.6-0.4-2.6c0-0.9,0.1-1.7,0.4-2.4c0.3-0.7,0.6-1.4,1.1-1.9c0.5-0.5,1-1,1.7-1.3c0.6-0.3,1.3-0.5,2.1-0.5
			c0.7,0,1.4,0.1,2,0.4c0.6,0.3,1.1,0.6,1.4,1.1c0.4,0.5,0.7,1.1,0.9,1.8c0.2,0.7,0.3,1.5,0.3,2.3v0.7H150.7z M157.6,75.5
			c0-1.2-0.3-2.1-0.9-2.8c-0.5-0.7-1.3-1-2.3-1c-0.5,0-0.9,0.1-1.4,0.3s-0.8,0.4-1.1,0.7c-0.3,0.3-0.6,0.7-0.8,1.2
			c-0.2,0.5-0.4,1-0.4,1.6H157.6z"/>
	</g>
	<g>
		<path class="st7" d="M170,82.3h-1.5V66.1h1.5V82.3z"/>
	</g>
	<g>
		<path class="st7" d="M181.8,82.3v-6.7c0-2.6-0.9-3.9-2.8-3.9c-0.5,0-1,0.1-1.4,0.3s-0.8,0.5-1.1,0.8c-0.3,0.4-0.6,0.8-0.7,1.3
			c-0.2,0.5-0.3,1-0.3,1.6v6.6H174V70.8h1.4v2h0c0.9-1.5,2.1-2.3,3.9-2.3c1.3,0,2.2,0.4,2.9,1.2c0.7,0.8,1,2,1,3.6v7H181.8z"/>
	</g>
	<g>
		<path class="st7" d="M191.6,82.2c-0.5,0.2-1,0.4-1.6,0.4c-1.9,0-2.8-1.1-2.8-3.2V72h-2v-1.3h2v-2.9l1.4-0.5v3.4h3V72h-3v7.1
			c0,0.8,0.1,1.3,0.4,1.7c0.3,0.3,0.7,0.5,1.3,0.5c0.5,0,0.9-0.1,1.3-0.4V82.2z"/>
	</g>
	<g>
		<path class="st7" d="M194.5,76.8c0,0.7,0.1,1.3,0.3,1.9c0.2,0.6,0.4,1,0.8,1.4c0.3,0.4,0.8,0.7,1.2,0.9c0.5,0.2,1,0.3,1.6,0.3
			c1.3,0,2.5-0.5,3.7-1.4v1.4c-1.1,0.8-2.4,1.2-4,1.2c-0.8,0-1.5-0.1-2.1-0.4s-1.2-0.7-1.6-1.2c-0.4-0.5-0.8-1.1-1-1.9
			c-0.2-0.8-0.4-1.6-0.4-2.6c0-0.9,0.1-1.7,0.4-2.4c0.3-0.7,0.6-1.4,1.1-1.9c0.5-0.5,1-1,1.7-1.3c0.6-0.3,1.3-0.5,2.1-0.5
			c0.7,0,1.4,0.1,2,0.4c0.6,0.3,1.1,0.6,1.4,1.1c0.4,0.5,0.7,1.1,0.9,1.8c0.2,0.7,0.3,1.5,0.3,2.3v0.7H194.5z M201.4,75.5
			c0-1.2-0.3-2.1-0.9-2.8c-0.5-0.7-1.3-1-2.3-1c-0.5,0-0.9,0.1-1.4,0.3s-0.8,0.4-1.1,0.7c-0.3,0.3-0.6,0.7-0.8,1.2
			c-0.2,0.5-0.4,1-0.4,1.6H201.4z"/>
	</g>
	<g>
		<path class="st7" d="M211.4,72.2c-0.3-0.2-0.8-0.4-1.3-0.4c-0.4,0-0.7,0.1-1,0.2c-0.3,0.1-0.6,0.3-0.8,0.6
			c-0.2,0.2-0.4,0.5-0.6,0.9c-0.2,0.3-0.3,0.7-0.4,1c-0.1,0.4-0.2,0.7-0.2,1.1s-0.1,0.7-0.1,1v5.7h-1.4V70.8h1.4v2.5h0
			c0.1-0.4,0.3-0.8,0.5-1.1c0.2-0.3,0.4-0.6,0.7-0.8c0.3-0.2,0.6-0.4,0.9-0.5c0.3-0.1,0.7-0.2,1-0.2c0.2,0,0.4,0,0.6,0
			c0.2,0,0.4,0.1,0.5,0.1V72.2z"/>
	</g>
	<g>
		<path class="st7" d="M221.3,82.3v-6.7c0-2.6-0.9-3.9-2.8-3.9c-0.5,0-1,0.1-1.4,0.3s-0.8,0.5-1.1,0.8c-0.3,0.4-0.6,0.8-0.7,1.3
			c-0.2,0.5-0.3,1-0.3,1.6v6.6h-1.4V70.8h1.4v2h0c0.9-1.5,2.1-2.3,3.9-2.3c1.3,0,2.2,0.4,2.9,1.2c0.7,0.8,1,2,1,3.6v7H221.3z"/>
	</g>
	<g>
		<path class="st7" d="M226.9,76.8c0,0.7,0.1,1.3,0.3,1.9c0.2,0.6,0.4,1,0.8,1.4s0.8,0.7,1.2,0.9c0.5,0.2,1,0.3,1.6,0.3
			c1.3,0,2.5-0.5,3.7-1.4v1.4c-1.1,0.8-2.4,1.2-4,1.2c-0.8,0-1.5-0.1-2.1-0.4c-0.6-0.3-1.2-0.7-1.6-1.2c-0.4-0.5-0.8-1.1-1-1.9
			s-0.4-1.6-0.4-2.6c0-0.9,0.1-1.7,0.4-2.4s0.6-1.4,1.1-1.9c0.5-0.5,1-1,1.7-1.3c0.6-0.3,1.3-0.5,2.1-0.5c0.7,0,1.4,0.1,2,0.4
			c0.6,0.3,1.1,0.6,1.4,1.1c0.4,0.5,0.7,1.1,0.9,1.8s0.3,1.5,0.3,2.3v0.7H226.9z M233.8,75.5c0-1.2-0.3-2.1-0.9-2.8
			c-0.5-0.7-1.3-1-2.3-1c-0.5,0-0.9,0.1-1.4,0.3c-0.4,0.2-0.8,0.4-1.1,0.7c-0.3,0.3-0.6,0.7-0.8,1.2c-0.2,0.5-0.4,1-0.4,1.6H233.8z"
			/>
	</g>
	<g>
		<path class="st7" d="M243.1,82.2c-0.5,0.2-1,0.4-1.6,0.4c-1.9,0-2.8-1.1-2.8-3.2V72h-2v-1.3h2v-2.9l1.4-0.5v3.4h3V72h-3v7.1
			c0,0.8,0.1,1.3,0.4,1.7c0.3,0.3,0.7,0.5,1.3,0.5c0.5,0,0.9-0.1,1.3-0.4V82.2z"/>
	</g>
	<g>
		<path class="st7" d="M252,82.3V66.1h7.9v1.4h-6.4v5.9h5.9v1.4h-5.9V81h6.7v1.4H252z"/>
	</g>
	<g>
		<path class="st7" d="M267.5,76.6l3.8,5.7h-1.7l-2.3-3.8c-0.1-0.1-0.2-0.3-0.3-0.4c-0.1-0.2-0.2-0.3-0.3-0.5h0
			c0,0.1-0.1,0.2-0.2,0.3c-0.1,0.1-0.2,0.3-0.3,0.5l-2.5,4h-1.7l3.9-5.7l-3.8-5.9h1.7l2.4,4.1c0.1,0.2,0.2,0.4,0.3,0.5
			c0.1,0.2,0.2,0.3,0.2,0.4h0c0.1-0.1,0.2-0.3,0.3-0.4c0.1-0.1,0.2-0.3,0.3-0.4l2.6-4.1h1.6L267.5,76.6z"/>
	</g>
	<g>
		<path class="st7" d="M275,80.5v7.2h-1.4V70.8h1.4V73h0c0.4-0.8,1-1.4,1.7-1.8c0.7-0.4,1.5-0.6,2.4-0.6c0.7,0,1.4,0.1,2,0.4
			c0.6,0.3,1.1,0.6,1.5,1.1c0.4,0.5,0.7,1.1,0.9,1.8s0.3,1.5,0.3,2.4c0,1-0.1,1.8-0.4,2.6c-0.2,0.8-0.6,1.5-1,2
			c-0.5,0.6-1,1-1.6,1.3c-0.6,0.3-1.4,0.5-2.2,0.5C277.1,82.6,275.9,81.9,275,80.5L275,80.5z M275,77.5c0,0.5,0.1,1,0.3,1.5
			c0.2,0.5,0.4,0.9,0.7,1.2c0.3,0.3,0.7,0.6,1.1,0.8c0.4,0.2,0.9,0.3,1.5,0.3c0.6,0,1.1-0.1,1.6-0.4c0.5-0.2,0.9-0.6,1.2-1
			c0.3-0.5,0.6-1,0.8-1.6c0.2-0.6,0.3-1.4,0.3-2.1c0-0.7-0.1-1.3-0.2-1.8s-0.4-1-0.7-1.4c-0.3-0.4-0.7-0.7-1.1-0.9
			c-0.4-0.2-0.9-0.3-1.5-0.3c-0.6,0-1.1,0.1-1.6,0.3c-0.5,0.2-0.9,0.5-1.2,0.9s-0.6,0.8-0.8,1.3c-0.2,0.5-0.3,1.1-0.3,1.6V77.5z"/>
	</g>
	<g>
		<path class="st7" d="M286.8,82.3V65.2h1.4v17.1H286.8z"/>
	</g>
	<g>
		<path class="st7" d="M296.7,82.6c-0.9,0-1.6-0.1-2.3-0.4c-0.7-0.3-1.3-0.7-1.7-1.2c-0.5-0.5-0.9-1.1-1.1-1.9
			c-0.3-0.7-0.4-1.5-0.4-2.4c0-1,0.1-1.8,0.4-2.6s0.7-1.4,1.2-1.9c0.5-0.5,1.1-0.9,1.8-1.2c0.7-0.3,1.5-0.4,2.4-0.4
			c0.8,0,1.6,0.1,2.3,0.4c0.7,0.3,1.2,0.7,1.7,1.2c0.5,0.5,0.8,1.2,1.1,1.9c0.2,0.7,0.4,1.6,0.4,2.5c0,0.9-0.1,1.7-0.4,2.5
			c-0.3,0.7-0.6,1.4-1.1,1.9s-1.1,0.9-1.8,1.2C298.4,82.4,297.6,82.6,296.7,82.6z M296.8,71.7c-0.6,0-1.2,0.1-1.7,0.3
			s-0.9,0.5-1.3,1c-0.4,0.4-0.6,0.9-0.8,1.5c-0.2,0.6-0.3,1.3-0.3,2.1c0,0.7,0.1,1.4,0.3,2s0.5,1.1,0.8,1.5c0.4,0.4,0.8,0.7,1.3,1
			c0.5,0.2,1.1,0.3,1.7,0.3c0.6,0,1.2-0.1,1.7-0.3c0.5-0.2,0.9-0.5,1.3-0.9c0.3-0.4,0.6-0.9,0.8-1.5c0.2-0.6,0.3-1.3,0.3-2
			c0-1.6-0.3-2.7-1-3.6C299.1,72.2,298.1,71.7,296.8,71.7z"/>
	</g>
	<g>
		<path class="st7" d="M311,72.2c-0.3-0.2-0.8-0.4-1.3-0.4c-0.4,0-0.7,0.1-1,0.2c-0.3,0.1-0.6,0.3-0.8,0.6c-0.2,0.2-0.4,0.5-0.6,0.9
			c-0.2,0.3-0.3,0.7-0.4,1c-0.1,0.4-0.2,0.7-0.2,1.1s-0.1,0.7-0.1,1v5.7h-1.4V70.8h1.4v2.5h0c0.1-0.4,0.3-0.8,0.5-1.1
			c0.2-0.3,0.4-0.6,0.7-0.8c0.3-0.2,0.6-0.4,0.9-0.5c0.3-0.1,0.7-0.2,1-0.2c0.2,0,0.4,0,0.6,0c0.2,0,0.4,0.1,0.5,0.1V72.2z"/>
	</g>
	<g>
		<path class="st7" d="M313.5,76.8c0,0.7,0.1,1.3,0.3,1.9c0.2,0.6,0.4,1,0.8,1.4s0.8,0.7,1.2,0.9c0.5,0.2,1,0.3,1.6,0.3
			c1.3,0,2.5-0.5,3.7-1.4v1.4c-1.1,0.8-2.4,1.2-4,1.2c-0.8,0-1.5-0.1-2.1-0.4s-1.2-0.7-1.6-1.2c-0.4-0.5-0.8-1.1-1-1.9
			s-0.4-1.6-0.4-2.6c0-0.9,0.1-1.7,0.4-2.4c0.3-0.7,0.6-1.4,1.1-1.9c0.5-0.5,1-1,1.7-1.3c0.6-0.3,1.3-0.5,2.1-0.5
			c0.7,0,1.4,0.1,2,0.4c0.6,0.3,1.1,0.6,1.4,1.1c0.4,0.5,0.7,1.1,0.9,1.8c0.2,0.7,0.3,1.5,0.3,2.3v0.7H313.5z M320.3,75.5
			c0-1.2-0.3-2.1-0.9-2.8c-0.5-0.7-1.3-1-2.3-1c-0.5,0-0.9,0.1-1.4,0.3s-0.8,0.4-1.1,0.7c-0.3,0.3-0.6,0.7-0.8,1.2
			c-0.2,0.5-0.4,1-0.4,1.6H320.3z"/>
	</g>
	<g>
		<path class="st7" d="M330.4,72.2c-0.3-0.2-0.8-0.4-1.3-0.4c-0.4,0-0.7,0.1-1,0.2c-0.3,0.1-0.6,0.3-0.8,0.6
			c-0.2,0.2-0.4,0.5-0.6,0.9c-0.2,0.3-0.3,0.7-0.4,1c-0.1,0.4-0.2,0.7-0.2,1.1s-0.1,0.7-0.1,1v5.7h-1.4V70.8h1.4v2.5h0
			c0.1-0.4,0.3-0.8,0.5-1.1c0.2-0.3,0.4-0.6,0.7-0.8c0.3-0.2,0.6-0.4,0.9-0.5c0.3-0.1,0.7-0.2,1-0.2c0.2,0,0.4,0,0.6,0
			c0.2,0,0.4,0.1,0.5,0.1V72.2z"/>
	</g>
	<g>
		<path class="st7" d="M353,82.3h-1.6l-3.5-12c-0.1-0.3-0.1-0.6-0.2-0.8c0-0.3-0.1-0.5-0.1-0.8h0c0,0.4-0.1,1-0.3,1.6l-3.6,12h-1.6
			l-4.8-16.2h1.7l3.6,12.7c0.1,0.3,0.1,0.5,0.2,0.8c0,0.3,0.1,0.5,0.1,0.7h0c0-0.3,0.2-0.8,0.4-1.5l3.8-12.7h1.2l3.6,12.7
			c0.1,0.3,0.1,0.5,0.2,0.8c0.1,0.2,0.1,0.5,0.1,0.7h0c0-0.2,0-0.3,0.1-0.5c0-0.2,0.1-0.4,0.2-0.6l3.5-13.1h1.6L353,82.3z"/>
	</g>
	<g>
		<path class="st7" d="M360.1,76.8c0,0.7,0.1,1.3,0.3,1.9c0.2,0.6,0.4,1,0.8,1.4s0.8,0.7,1.2,0.9c0.5,0.2,1,0.3,1.6,0.3
			c1.3,0,2.5-0.5,3.7-1.4v1.4c-1.1,0.8-2.4,1.2-4,1.2c-0.8,0-1.5-0.1-2.1-0.4s-1.2-0.7-1.6-1.2c-0.4-0.5-0.8-1.1-1-1.9
			s-0.4-1.6-0.4-2.6c0-0.9,0.1-1.7,0.4-2.4c0.3-0.7,0.6-1.4,1.1-1.9c0.5-0.5,1-1,1.7-1.3c0.6-0.3,1.3-0.5,2.1-0.5
			c0.7,0,1.4,0.1,2,0.4c0.6,0.3,1.1,0.6,1.4,1.1c0.4,0.5,0.7,1.1,0.9,1.8c0.2,0.7,0.3,1.5,0.3,2.3v0.7H360.1z M367,75.5
			c0-1.2-0.3-2.1-0.9-2.8c-0.5-0.7-1.3-1-2.3-1c-0.5,0-0.9,0.1-1.4,0.3c-0.4,0.2-0.8,0.4-1.1,0.7c-0.3,0.3-0.6,0.7-0.8,1.2
			c-0.2,0.5-0.4,1-0.4,1.6H367z"/>
	</g>
	<g>
		<path class="st7" d="M372.7,80.5v1.9h-1.4V65.2h1.4V73h0c0.4-0.8,1-1.4,1.7-1.8c0.7-0.4,1.5-0.6,2.4-0.6c0.7,0,1.4,0.1,2,0.4
			c0.6,0.3,1.1,0.6,1.5,1.1c0.4,0.5,0.7,1.1,0.9,1.8c0.2,0.7,0.3,1.5,0.3,2.3c0,1-0.1,1.8-0.4,2.6c-0.2,0.8-0.6,1.5-1,2
			c-0.5,0.6-1,1-1.6,1.3c-0.6,0.3-1.4,0.5-2.2,0.5C374.8,82.6,373.6,81.9,372.7,80.5L372.7,80.5z M372.7,77.5c0,0.5,0.1,1,0.3,1.5
			c0.2,0.5,0.4,0.9,0.7,1.2c0.3,0.3,0.7,0.6,1.1,0.8c0.4,0.2,0.9,0.3,1.5,0.3c0.6,0,1.1-0.1,1.6-0.4c0.5-0.2,0.9-0.6,1.2-1
			c0.3-0.5,0.6-1,0.8-1.6c0.2-0.6,0.3-1.4,0.3-2.1c0-0.7-0.1-1.3-0.2-1.8s-0.4-1-0.7-1.4c-0.3-0.4-0.7-0.7-1.1-0.9
			c-0.4-0.2-0.9-0.3-1.5-0.3c-0.6,0-1.1,0.1-1.6,0.3c-0.5,0.2-0.9,0.5-1.2,0.9s-0.6,0.8-0.8,1.3c-0.2,0.5-0.3,1.1-0.3,1.6V77.5z"/>
	</g>
	<g>
		<path class="st7" d="M384.5,82.3V65.2h1.4v17.1H384.5z"/>
	</g>
	<g>
		<path class="st7" d="M394.4,82.6c-0.9,0-1.6-0.1-2.3-0.4c-0.7-0.3-1.3-0.7-1.7-1.2c-0.5-0.5-0.9-1.1-1.1-1.9
			c-0.3-0.7-0.4-1.5-0.4-2.4c0-1,0.1-1.8,0.4-2.6s0.7-1.4,1.2-1.9c0.5-0.5,1.1-0.9,1.8-1.2c0.7-0.3,1.5-0.4,2.4-0.4
			c0.8,0,1.6,0.1,2.3,0.4c0.7,0.3,1.2,0.7,1.7,1.2c0.5,0.5,0.8,1.2,1.1,1.9c0.2,0.7,0.4,1.6,0.4,2.5c0,0.9-0.1,1.7-0.4,2.5
			c-0.3,0.7-0.6,1.4-1.1,1.9s-1.1,0.9-1.8,1.2C396.1,82.4,395.3,82.6,394.4,82.6z M394.5,71.7c-0.6,0-1.2,0.1-1.7,0.3
			s-0.9,0.5-1.3,1c-0.4,0.4-0.6,0.9-0.8,1.5c-0.2,0.6-0.3,1.3-0.3,2.1c0,0.7,0.1,1.4,0.3,2s0.5,1.1,0.8,1.5c0.4,0.4,0.8,0.7,1.3,1
			c0.5,0.2,1.1,0.3,1.7,0.3c0.6,0,1.2-0.1,1.7-0.3c0.5-0.2,0.9-0.5,1.3-0.9c0.3-0.4,0.6-0.9,0.8-1.5c0.2-0.6,0.3-1.3,0.3-2
			c0-1.6-0.3-2.7-1-3.6C396.8,72.2,395.8,71.7,394.5,71.7z"/>
	</g>
	<g>
		<path class="st7" d="M412.5,81.4c0,2.1-0.5,3.7-1.5,4.8c-1,1-2.5,1.6-4.5,1.6c-1.3,0-2.5-0.3-3.6-0.8v-1.5c1.3,0.7,2.5,1,3.6,1
			c3,0,4.5-1.6,4.5-4.8v-1.4h0c-0.9,1.5-2.2,2.3-4.1,2.3c-0.7,0-1.4-0.1-2-0.4s-1.1-0.6-1.5-1.1s-0.7-1.1-1-1.8
			c-0.2-0.7-0.3-1.5-0.3-2.4c0-0.9,0.1-1.8,0.4-2.6c0.2-0.8,0.6-1.4,1.1-2c0.5-0.6,1-1,1.7-1.3c0.7-0.3,1.4-0.5,2.2-0.5
			c1.6,0,2.8,0.7,3.6,2h0v-1.7h1.4V81.4z M411.1,75.3c0-0.5-0.1-0.9-0.3-1.4s-0.4-0.8-0.7-1.1c-0.3-0.3-0.7-0.6-1.1-0.8
			c-0.4-0.2-0.9-0.3-1.4-0.3c-0.6,0-1.1,0.1-1.6,0.3c-0.5,0.2-0.9,0.6-1.2,1s-0.6,1-0.8,1.6c-0.2,0.6-0.3,1.3-0.3,2.1
			c0,0.7,0.1,1.3,0.3,1.9c0.2,0.6,0.4,1.1,0.7,1.5c0.3,0.4,0.7,0.7,1.1,0.9s0.9,0.3,1.5,0.3c0.6,0,1.1-0.1,1.6-0.3
			c0.5-0.2,0.9-0.5,1.2-0.9c0.3-0.4,0.6-0.8,0.8-1.3c0.2-0.5,0.3-1,0.3-1.6V75.3z"/>
	</g>
</g>
<g>
	<path class="st7" d="M124.1,46.3V5.5h2.2v40.8H124.1z"/>
	<path class="st7" d="M132.6,46.3V5.5h8.6v2.2h-6.4v14.9h4.3v2.2h-4.3v19.2h6.4v2.2H132.6z"/>
	<path class="st7" d="M156.3,44.1v2.2h-8.6V5.5h8.6v2.2h2.2v15.1h-2.2v2h2.2v19.3H156.3z M156.2,7.8h-6.4v14.9h6.4V7.8z M156.2,24.9
		h-6.4v19.1h6.4V24.9z"/>
	<path class="st7" d="M164.8,46.3V5.5h2.2v40.8H164.8z"/>
	<path class="st7" d="M182,44.1v2.2h-6.5v-2.2h-2.1V18.4h2.1v-2.2h6.5v2.2h2.2v25.7H182z M182,18.5h-6.4v25.6h6.4V18.5z"/>
	<path class="st7" d="M199.2,52.7v2.2h-6.5v-2.2h-2.2v-2.2h2.2v2.1h6.4v-6.2h-6.4v-2.2h-2.2V18.4h2.2v-2.2h8.6v36.5H199.2z
		 M199.1,18.5h-6.4v25.6h6.4V18.5z"/>
</g>
</svg>
