<svg id="Layer_1" xmlns="http://www.w3.org/2000/svg" viewBox="0 0 651.3 92"><style>.st0{fill:#006FC8;stroke:#006FC8;stroke-width:2;stroke-miterlimit:10;} .st1{fill:#005291;} .st2{fill:#F2F2F2;} .st3{fill:#E6E6E6;} .st4{fill:#001580;} .st5{fill:none;} .st6{enable-background:new ;} .st7{fill:#0078D7;}</style><path class="st0" d="M45.5 70.5h17.2v5.8H45.5v-5.8zm-18.6 7.6h54.5v3.1H26.9v-3.1z"/><path class="st1" d="M44.7 68.8h18.8v5.1H44.7v-5.1z"/><path class="st0" d="M98.4 70.5H9.9c-2.5 0-4.5-2-4.5-4.5V10c0-2.5 2-4.5 4.5-4.5h88.5c2.5 0 4.5 2 4.5 4.5v56c0 2.5-2 4.5-4.5 4.5z"/><path class="st2" d="M8.1 10h91.6v56.1H8.1V10z"/><path class="st3" d="M99.7 66.1H33.4L60.3 10h39.4v56.1z"/><path class="st4" d="M39.2 23.4l1.1.9-9.1 11.1 9.1 11.1-1.1.9-10-12.1 10-11.9zm5.7 32.1l15.8-34.3 1.4.6-15.7 34.3-1.5-.6zm32.7-20l-10 12.1-1.1-.9 9.1-11.1-9.1-11.1 1.1-.9 10 11.9z"/><g><path class="st5" d="M124.1 59.6h429.7v19.9H124.1V59.6z"/></g><g class="st6"><path class="st7" d="M130.2 67.5v14.8h-1.5V67.5H124v-1.4h10.8v1.4h-4.6zM145.1 82.3v-6.8c0-1.3-.2-2.2-.7-2.9-.5-.6-1.2-.9-2.2-.9-.5 0-.9.1-1.3.3-.4.2-.8.5-1.1.8-.3.4-.6.8-.8 1.3-.2.5-.3 1.1-.3 1.7v6.5h-1.4V65.2h1.4v7.5c.9-1.5 2.2-2.3 3.9-2.3 1.3 0 2.3.4 2.9 1.2.6.8 1 2 1 3.5v7.1h-1.4zM150.7 76.8c0 .7.1 1.3.3 1.9.2.6.4 1 .8 1.4.3.4.8.7 1.2.9.5.2 1 .3 1.6.3 1.3 0 2.5-.5 3.7-1.4v1.4c-1.1.8-2.4 1.2-4 1.2-.8 0-1.5-.1-2.1-.4s-1.2-.7-1.6-1.2c-.4-.5-.8-1.1-1-1.9-.2-.8-.4-1.6-.4-2.6 0-.9.1-1.7.4-2.4.3-.7.6-1.4 1.1-1.9.5-.5 1-1 1.7-1.3.6-.3 1.3-.5 2.1-.5.7 0 1.4.1 2 .4.6.3 1.1.6 1.4 1.1.4.5.7 1.1.9 1.8.2.7.3 1.5.3 2.3v.7h-8.4zm6.9-1.3c0-1.2-.3-2.1-.9-2.8-.5-.7-1.3-1-2.3-1-.5 0-.9.1-1.4.3s-.8.4-1.1.7c-.3.3-.6.7-.8 1.2-.2.5-.4 1-.4 1.6h6.9zM170 82.3h-1.5V66.1h1.5v16.2zM181.8 82.3v-6.7c0-2.6-.9-3.9-2.8-3.9-.5 0-1 .1-1.4.3s-.8.5-1.1.8c-.3.4-.6.8-.7 1.3-.2.5-.3 1-.3 1.6v6.6H174V70.8h1.4v2c.9-1.5 2.1-2.3 3.9-2.3 1.3 0 2.2.4 2.9 1.2.7.8 1 2 1 3.6v7h-1.4zM191.6 82.2c-.5.2-1 .4-1.6.4-1.9 0-2.8-1.1-2.8-3.2V72h-2v-1.3h2v-2.9l1.4-.5v3.4h3V72h-3v7.1c0 .8.1 1.3.4 1.7.3.3.7.5 1.3.5.5 0 .9-.1 1.3-.4v1.3zM194.5 76.8c0 .7.1 1.3.3 1.9.2.6.4 1 .8 1.4.3.4.8.7 1.2.9.5.2 1 .3 1.6.3 1.3 0 2.5-.5 3.7-1.4v1.4c-1.1.8-2.4 1.2-4 1.2-.8 0-1.5-.1-2.1-.4s-1.2-.7-1.6-1.2c-.4-.5-.8-1.1-1-1.9-.2-.8-.4-1.6-.4-2.6 0-.9.1-1.7.4-2.4.3-.7.6-1.4 1.1-1.9.5-.5 1-1 1.7-1.3.6-.3 1.3-.5 2.1-.5.7 0 1.4.1 2 .4.6.3 1.1.6 1.4 1.1.4.5.7 1.1.9 1.8.2.7.3 1.5.3 2.3v.7h-8.4zm6.9-1.3c0-1.2-.3-2.1-.9-2.8-.5-.7-1.3-1-2.3-1-.5 0-.9.1-1.4.3s-.8.4-1.1.7c-.3.3-.6.7-.8 1.2-.2.5-.4 1-.4 1.6h6.9zM211.4 72.2c-.3-.2-.8-.4-1.3-.4-.4 0-.7.1-1 .2-.3.1-.6.3-.8.6-.2.2-.4.5-.6.9-.2.3-.3.7-.4 1-.1.4-.2.7-.2 1.1s-.1.7-.1 1v5.7h-1.4V70.8h1.4v2.5c.1-.4.3-.8.5-1.1.2-.3.4-.6.7-.8.3-.2.6-.4.9-.5.3-.1.7-.2 1-.2h.6c.2 0 .4.1.5.1v1.4zM221.3 82.3v-6.7c0-2.6-.9-3.9-2.8-3.9-.5 0-1 .1-1.4.3s-.8.5-1.1.8c-.3.4-.6.8-.7 1.3-.2.5-.3 1-.3 1.6v6.6h-1.4V70.8h1.4v2c.9-1.5 2.1-2.3 3.9-2.3 1.3 0 2.2.4 2.9 1.2.7.8 1 2 1 3.6v7h-1.5zM226.9 76.8c0 .7.1 1.3.3 1.9.2.6.4 1 .8 1.4s.8.7 1.2.9c.5.2 1 .3 1.6.3 1.3 0 2.5-.5 3.7-1.4v1.4c-1.1.8-2.4 1.2-4 1.2-.8 0-1.5-.1-2.1-.4-.6-.3-1.2-.7-1.6-1.2-.4-.5-.8-1.1-1-1.9s-.4-1.6-.4-2.6c0-.9.1-1.7.4-2.4s.6-1.4 1.1-1.9c.5-.5 1-1 1.7-1.3.6-.3 1.3-.5 2.1-.5.7 0 1.4.1 2 .4.6.3 1.1.6 1.4 1.1.4.5.7 1.1.9 1.8s.3 1.5.3 2.3v.7h-8.4zm6.9-1.3c0-1.2-.3-2.1-.9-2.8-.5-.7-1.3-1-2.3-1-.5 0-.9.1-1.4.3-.4.2-.8.4-1.1.7-.3.3-.6.7-.8 1.2-.2.5-.4 1-.4 1.6h6.9zM243.1 82.2c-.5.2-1 .4-1.6.4-1.9 0-2.8-1.1-2.8-3.2V72h-2v-1.3h2v-2.9l1.4-.5v3.4h3V72h-3v7.1c0 .8.1 1.3.4 1.7.3.3.7.5 1.3.5.5 0 .9-.1 1.3-.4v1.3zM252 82.3V66.1h7.9v1.4h-6.4v5.9h5.9v1.4h-5.9V81h6.7v1.4H252zM267.5 76.6l3.8 5.7h-1.7l-2.3-3.8c-.1-.1-.2-.3-.3-.4-.1-.2-.2-.3-.3-.5 0 .1-.1.2-.2.3-.1.1-.2.3-.3.5l-2.5 4H262l3.9-5.7-3.8-5.9h1.7l2.4 4.1c.1.2.2.4.3.5.1.2.2.3.2.4.1-.1.2-.3.3-.4.1-.1.2-.3.3-.4l2.6-4.1h1.6l-4 5.7zM275 80.5v7.2h-1.4V70.8h1.4V73c.4-.8 1-1.4 1.7-1.8.7-.4 1.5-.6 2.4-.6.7 0 1.4.1 2 .4.6.3 1.1.6 1.5 1.1.4.5.7 1.1.9 1.8s.3 1.5.3 2.4c0 1-.1 1.8-.4 2.6-.2.8-.6 1.5-1 2-.5.6-1 1-1.6 1.3-.6.3-1.4.5-2.2.5-1.5-.1-2.7-.8-3.6-2.2zm0-3c0 .5.1 1 .3 1.5.2.5.4.9.7 1.2.3.3.7.6 1.1.8.4.2.9.3 1.5.3s1.1-.1 1.6-.4c.5-.2.9-.6 1.2-1 .3-.5.6-1 .8-1.6.2-.6.3-1.4.3-2.1 0-.7-.1-1.3-.2-1.8s-.4-1-.7-1.4c-.3-.4-.7-.7-1.1-.9-.4-.2-.9-.3-1.5-.3s-1.1.1-1.6.3c-.5.2-.9.5-1.2.9s-.6.8-.8 1.3c-.2.5-.3 1.1-.3 1.6v1.6zM286.8 82.3V65.2h1.4v17.1h-1.4zM296.7 82.6c-.9 0-1.6-.1-2.3-.4-.7-.3-1.3-.7-1.7-1.2-.5-.5-.9-1.1-1.1-1.9-.3-.7-.4-1.5-.4-2.4 0-1 .1-1.8.4-2.6s.7-1.4 1.2-1.9 1.1-.9 1.8-1.2c.7-.3 1.5-.4 2.4-.4.8 0 1.6.1 2.3.4.7.3 1.2.7 1.7 1.2s.8 1.2 1.1 1.9c.2.7.4 1.6.4 2.5 0 .9-.1 1.7-.4 2.5-.3.7-.6 1.4-1.1 1.9s-1.1.9-1.8 1.2c-.8.2-1.6.4-2.5.4zm.1-10.9c-.6 0-1.2.1-1.7.3s-.9.5-1.3 1c-.4.4-.6.9-.8 1.5-.2.6-.3 1.3-.3 2.1 0 .7.1 1.4.3 2s.5 1.1.8 1.5c.4.4.8.7 1.3 1 .5.2 1.1.3 1.7.3.6 0 1.2-.1 1.7-.3.5-.2.9-.5 1.3-.9.3-.4.6-.9.8-1.5.2-.6.3-1.3.3-2 0-1.6-.3-2.7-1-3.6-.8-.9-1.8-1.4-3.1-1.4zM311 72.2c-.3-.2-.8-.4-1.3-.4-.4 0-.7.1-1 .2-.3.1-.6.3-.8.6-.2.2-.4.5-.6.9-.2.3-.3.7-.4 1-.1.4-.2.7-.2 1.1s-.1.7-.1 1v5.7h-1.4V70.8h1.4v2.5c.1-.4.3-.8.5-1.1.2-.3.4-.6.7-.8.3-.2.6-.4.9-.5.3-.1.7-.2 1-.2h.6c.2 0 .4.1.5.1v1.4zM313.5 76.8c0 .7.1 1.3.3 1.9.2.6.4 1 .8 1.4s.8.7 1.2.9c.5.2 1 .3 1.6.3 1.3 0 2.5-.5 3.7-1.4v1.4c-1.1.8-2.4 1.2-4 1.2-.8 0-1.5-.1-2.1-.4s-1.2-.7-1.6-1.2c-.4-.5-.8-1.1-1-1.9s-.4-1.6-.4-2.6c0-.9.1-1.7.4-2.4.3-.7.6-1.4 1.1-1.9.5-.5 1-1 1.7-1.3.6-.3 1.3-.5 2.1-.5.7 0 1.4.1 2 .4.6.3 1.1.6 1.4 1.1.4.5.7 1.1.9 1.8.2.7.3 1.5.3 2.3v.7h-8.4zm6.8-1.3c0-1.2-.3-2.1-.9-2.8-.5-.7-1.3-1-2.3-1-.5 0-.9.1-1.4.3s-.8.4-1.1.7c-.3.3-.6.7-.8 1.2-.2.5-.4 1-.4 1.6h6.9zM330.4 72.2c-.3-.2-.8-.4-1.3-.4-.4 0-.7.1-1 .2-.3.1-.6.3-.8.6-.2.2-.4.5-.6.9-.2.3-.3.7-.4 1-.1.4-.2.7-.2 1.1s-.1.7-.1 1v5.7h-1.4V70.8h1.4v2.5c.1-.4.3-.8.5-1.1.2-.3.4-.6.7-.8.3-.2.6-.4.9-.5.3-.1.7-.2 1-.2h.6c.2 0 .4.1.5.1v1.4zM353 82.3h-1.6l-3.5-12c-.1-.3-.1-.6-.2-.8 0-.3-.1-.5-.1-.8 0 .4-.1 1-.3 1.6l-3.6 12h-1.6l-4.8-16.2h1.7l3.6 12.7c.1.3.1.5.2.8 0 .3.1.5.1.7 0-.3.2-.8.4-1.5l3.8-12.7h1.2l3.6 12.7c.1.3.1.5.2.8.1.2.1.5.1.7 0-.2 0-.3.1-.5 0-.2.1-.4.2-.6l3.5-13.1h1.6L353 82.3zM360.1 76.8c0 .7.1 1.3.3 1.9.2.6.4 1 .8 1.4s.8.7 1.2.9c.5.2 1 .3 1.6.3 1.3 0 2.5-.5 3.7-1.4v1.4c-1.1.8-2.4 1.2-4 1.2-.8 0-1.5-.1-2.1-.4s-1.2-.7-1.6-1.2c-.4-.5-.8-1.1-1-1.9s-.4-1.6-.4-2.6c0-.9.1-1.7.4-2.4.3-.7.6-1.4 1.1-1.9.5-.5 1-1 1.7-1.3.6-.3 1.3-.5 2.1-.5.7 0 1.4.1 2 .4.6.3 1.1.6 1.4 1.1.4.5.7 1.1.9 1.8.2.7.3 1.5.3 2.3v.7h-8.4zm6.9-1.3c0-1.2-.3-2.1-.9-2.8-.5-.7-1.3-1-2.3-1-.5 0-.9.1-1.4.3-.4.2-.8.4-1.1.7-.3.3-.6.7-.8 1.2-.2.5-.4 1-.4 1.6h6.9zM372.7 80.5v1.9h-1.4V65.2h1.4V73c.4-.8 1-1.4 1.7-1.8.7-.4 1.5-.6 2.4-.6.7 0 1.4.1 2 .4.6.3 1.1.6 1.5 1.1.4.5.7 1.1.9 1.8.2.7.3 1.5.3 2.3 0 1-.1 1.8-.4 2.6-.2.8-.6 1.5-1 2-.5.6-1 1-1.6 1.3-.6.3-1.4.5-2.2.5-1.5 0-2.7-.7-3.6-2.1zm0-3c0 .5.1 1 .3 1.5.2.5.4.9.7 1.2.3.3.7.6 1.1.8.4.2.9.3 1.5.3s1.1-.1 1.6-.4c.5-.2.9-.6 1.2-1 .3-.5.6-1 .8-1.6.2-.6.3-1.4.3-2.1 0-.7-.1-1.3-.2-1.8s-.4-1-.7-1.4c-.3-.4-.7-.7-1.1-.9-.4-.2-.9-.3-1.5-.3s-1.1.1-1.6.3c-.5.2-.9.5-1.2.9s-.6.8-.8 1.3c-.2.5-.3 1.1-.3 1.6v1.6zM384.5 82.3V65.2h1.4v17.1h-1.4zM394.4 82.6c-.9 0-1.6-.1-2.3-.4-.7-.3-1.3-.7-1.7-1.2-.5-.5-.9-1.1-1.1-1.9-.3-.7-.4-1.5-.4-2.4 0-1 .1-1.8.4-2.6s.7-1.4 1.2-1.9 1.1-.9 1.8-1.2c.7-.3 1.5-.4 2.4-.4.8 0 1.6.1 2.3.4.7.3 1.2.7 1.7 1.2s.8 1.2 1.1 1.9c.2.7.4 1.6.4 2.5 0 .9-.1 1.7-.4 2.5-.3.7-.6 1.4-1.1 1.9s-1.1.9-1.8 1.2c-.8.2-1.6.4-2.5.4zm.1-10.9c-.6 0-1.2.1-1.7.3s-.9.5-1.3 1c-.4.4-.6.9-.8 1.5-.2.6-.3 1.3-.3 2.1 0 .7.1 1.4.3 2s.5 1.1.8 1.5c.4.4.8.7 1.3 1 .5.2 1.1.3 1.7.3.6 0 1.2-.1 1.7-.3.5-.2.9-.5 1.3-.9.3-.4.6-.9.8-1.5.2-.6.3-1.3.3-2 0-1.6-.3-2.7-1-3.6-.8-.9-1.8-1.4-3.1-1.4zM412.5 81.4c0 2.1-.5 3.7-1.5 4.8-1 1-2.5 1.6-4.5 1.6-1.3 0-2.5-.3-3.6-.8v-1.5c1.3.7 2.5 1 3.6 1 3 0 4.5-1.6 4.5-4.8v-1.4c-.9 1.5-2.2 2.3-4.1 2.3-.7 0-1.4-.1-2-.4s-1.1-.6-1.5-1.1-.7-1.1-1-1.8c-.2-.7-.3-1.5-.3-2.4 0-.9.1-1.8.4-2.6.2-.8.6-1.4 1.1-2 .5-.6 1-1 1.7-1.3.7-.3 1.4-.5 2.2-.5 1.6 0 2.8.7 3.6 2v-1.7h1.4v10.6zm-1.4-6.1c0-.5-.1-.9-.3-1.4s-.4-.8-.7-1.1c-.3-.3-.7-.6-1.1-.8-.4-.2-.9-.3-1.4-.3-.6 0-1.1.1-1.6.3-.5.2-.9.6-1.2 1s-.6 1-.8 1.6c-.2.6-.3 1.3-.3 2.1 0 .7.1 1.3.3 1.9.2.6.4 1.1.7 1.5.3.4.7.7 1.1.9s.9.3 1.5.3 1.1-.1 1.6-.3c.5-.2.9-.5 1.2-.9.3-.4.6-.8.8-1.3.2-.5.3-1 .3-1.6v-1.9z"/></g><g><path class="st7" d="M124.1 46.3V5.5h2.2v40.8h-2.2zM132.6 46.3V5.5h8.6v2.2h-6.4v14.9h4.3v2.2h-4.3V44h6.4v2.2h-8.6zM156.3 44.1v2.2h-8.6V5.5h8.6v2.2h2.2v15.1h-2.2v2h2.2v19.3h-2.2zm-.1-36.3h-6.4v14.9h6.4V7.8zm0 17.1h-6.4V44h6.4V24.9zM164.8 46.3V5.5h2.2v40.8h-2.2zM182 44.1v2.2h-6.5v-2.2h-2.1V18.4h2.1v-2.2h6.5v2.2h2.2v25.7H182zm0-25.6h-6.4v25.6h6.4V18.5zM199.2 52.7v2.2h-6.5v-2.2h-2.2v-2.2h2.2v2.1h6.4v-6.2h-6.4v-2.2h-2.2V18.4h2.2v-2.2h8.6v36.5h-2.1zm-.1-34.2h-6.4v25.6h6.4V18.5z"/></g></svg>