<svg id="Layer_1" xmlns="http://www.w3.org/2000/svg" viewBox="0 0 650.1 82.1"><style>.st0{fill:#276fb7;stroke:#276fb7;stroke-width:2;stroke-miterlimit:10;} .st1{fill:#035390;} .st2{fill:#21255e;} .st3{fill:#f3f3f3;} .st4{fill:#e6e6e5;} .st5{fill:#282f76;} .st6{fill:none;} .st7{fill:#276fB7;} .st8{font-family:&apos;SegoeUI-Semilight&apos;;} .st9{font-size:36px;} .st10{fill:#3276bc;} .st11{font-size:18px;}</style><path class="st0" d="M572.9 67.7h17.2v5.8h-17.2zm-18.6 7.6h54.5v3.1h-54.5z"/><path class="st1" d="M572.1 66h18.8v5.1h-18.8z"/><path class="st2" d="M.1 78.6h650v3.5H.1z"/><path class="st0" d="M625.8 67.7h-88.5c-2.5 0-4.5-2-4.5-4.5v-56c0-2.5 2-4.5 4.5-4.5h88.5c2.5 0 4.5 2 4.5 4.5v56c0 2.5-2 4.5-4.5 4.5z"/><path class="st3" d="M535.5 7.2h91.6v56.1h-91.6z"/><path class="st4" d="M627 63.3h-66.2l26.9-56.1h39.4z"/><path class="st5" d="M566.6 20.6l1.1.9-9.1 11.1 9.1 11.1-1.1.9-10-12.1 10-11.9zm5.6 32.1L588 18.3l1.4.6-15.7 34.3-1.5-.5zm32.7-20l-10 12.1-1.1-.9 9.1-11.1-9.1-11.1 1.1-.9 10 11.9z"/><path class="st6" d="M.1 8.7h349.3V42H.1z"/><text transform="translate(.115 35.306)" class="st7 st8 st9">IEBlog</text><path class="st6" d="M.1 50.1h349.3v16.2H.1z"/><text transform="translate(.115 63.437)" class="st10 st8 st11">The Internet Explorer Weblog</text></svg>
