<svg width="247" height="346" viewBox="0 0 247 346" xmlns="http://www.w3.org/2000/svg"><title>bulb</title><g fill="#22292E" fill-rule="evenodd"><path d="M172.34 232.575c-1.534 0-3.007-.863-3.708-2.34-.962-2.043-.09-4.486 1.95-5.453 38.687-18.293 63.684-57.772 63.684-100.576 0-61.426-50.01-111.398-111.474-111.398-61.466 0-111.47 49.972-111.47 111.398 0 42.74 24.956 82.218 63.584 100.58 2.044.97 2.91 3.412 1.94 5.456-.976 2.042-3.417 2.908-5.46 1.938-41.462-19.714-68.254-62.094-68.254-107.974 0-65.938 53.68-119.583 119.66-119.583 65.982 0 119.663 53.645 119.663 119.583 0 45.95-26.836 88.332-68.367 107.976-.565.27-1.164.393-1.748.393" stroke="#22292E" stroke-width="8"/><path d="M122.763 150.132c-14.28 0-25.9-11.63-25.9-25.926 0-14.276 11.62-25.887 25.9-25.887 14.312 0 25.957 11.61 25.957 25.886 0 14.295-11.645 25.926-25.957 25.926zm0-43.628c-9.764 0-17.71 7.938-17.71 17.702 0 9.783 7.946 17.74 17.71 17.74 9.797 0 17.767-7.957 17.767-17.74 0-9.764-7.97-17.702-17.767-17.702z"/><path d="M172.372 314.68H73.126c-2.264 0-4.095-1.83-4.095-4.09V228.3c0-2.262 1.832-4.092 4.096-4.092h99.246c2.262 0 4.095 1.83 4.095 4.092v82.29c0 2.26-1.833 4.09-4.095 4.09zm-95.15-8.184h91.055V232.39H77.22v74.106z" stroke="#22292E" stroke-width="8"/><path d="M181.053 248.822H64.493c-2.263 0-4.094-1.828-4.094-4.09 0-2.262 1.83-4.092 4.092-4.092h116.56c2.264 0 4.096 1.83 4.096 4.092 0 2.262-1.832 4.09-4.095 4.09M181.053 265.31H64.508c-2.263 0-4.093-1.827-4.093-4.09 0-2.26 1.83-4.09 4.093-4.09h116.545c2.263 0 4.095 1.83 4.095 4.09 0 2.263-1.832 4.09-4.095 4.09M181.053 281.754H64.508c-2.263 0-4.093-1.833-4.093-4.093s1.83-4.09 4.093-4.09h116.545c2.263 0 4.095 1.83 4.095 4.09s-1.832 4.094-4.095 4.094M181.053 298.2H64.508c-2.263 0-4.093-1.828-4.093-4.092 0-2.26 1.83-4.093 4.093-4.093h116.545c2.263 0 4.095 1.833 4.095 4.093 0 2.264-1.832 4.092-4.095 4.092"/><path d="M148.302 340.177h-51.03c-2.264 0-4.096-1.83-4.096-4.092V310.59c0-2.263 1.832-4.094 4.095-4.094h51.032c2.266 0 4.095 1.83 4.095 4.093v25.495c0 2.262-1.83 4.092-4.095 4.092zm-46.936-8.184h42.843V314.68h-42.844v17.313z" stroke="#22292E" stroke-width="8"/><path d="M122.784 232.392c-2.26 0-4.095-1.832-4.095-4.092l-.022-82.26c0-2.256 1.832-4.093 4.095-4.093 2.26 0 4.095 1.833 4.095 4.093l.02 82.26c0 2.258-1.83 4.092-4.094 4.092"/></g></svg>